<svg preserveAspectRatio="none" width="100%" height="100%" overflow="visible" style="display: block;" viewBox="0 0 98.8452 22.8544" fill="none" xmlns="http://www.w3.org/2000/svg">
<path id="Vector" d="M8.71844 1.83235C8.93841 2.21516 8.93841 2.68025 8.71844 3.05449L2.4432 13.9572L5.40284 19.0988C5.74419 19.6951 6.3074 20.1322 6.9697 20.3149C7.63199 20.4976 8.33965 20.411 8.93841 20.0741C9.34977 19.847 9.68923 19.5091 9.91829 19.0988L12.8768 13.9566L12.0803 12.5716L8.71844 18.4052C8.63836 18.5441 8.53171 18.6658 8.40458 18.7634C8.27744 18.8611 8.13232 18.9327 7.9775 18.9742C7.82268 19.0158 7.66119 19.0264 7.50225 19.0056C7.34332 18.9847 7.19005 18.9327 7.05121 18.8526C6.86732 18.7425 6.71315 18.5891 6.60212 18.4058L4.04643 13.9572L9.87201 3.83839L10.9256 5.67074C11.1456 6.05355 11.1456 6.51807 10.9256 6.89173L6.85866 13.948L7.65514 15.3336L12.0706 7.66707L14.9743 12.6996C15.1946 13.0805 15.3107 13.5128 15.3107 13.9529C15.3107 14.393 15.1946 14.8252 14.9743 15.2062L12.0249 20.3198C11.5758 21.1049 10.184 22.8544 7.64657 22.8544C5.10916 22.8544 3.73504 21.1043 3.27681 20.3204L0.3366 15.2067C0.116105 14.8257 0 14.3933 0 13.9532C0 13.513 0.116105 13.0806 0.3366 12.6996L7.66485 0L8.71844 1.83235ZM31.106 8.80636C33.4691 8.80636 35.3923 10.4564 35.3923 13.1093C35.3923 14.1577 34.9987 15.6347 33.6063 16.2729C35.0078 16.9745 35.3558 17.987 35.3558 19.0714C35.3558 21.4054 33.5697 22.8544 31.1146 22.8544C28.66 22.8544 26.8277 21.3597 26.8277 19.0714H28.9074C28.9074 20.1741 29.9244 20.8946 31.1243 20.8946C32.3241 20.8946 33.2669 20.2381 33.2669 19.0714C33.2669 17.9047 32.1682 17.367 31.1243 17.367C28.4858 17.367 26.8368 15.7347 26.8368 13.1001C26.8368 10.4656 28.7423 8.8155 31.106 8.80636ZM65.3738 8.80636C67.9661 8.80636 69.6882 10.7393 69.6882 13.219C69.6882 15.6804 68.1221 17.695 65.4195 17.695C64.5402 17.695 63.2398 17.403 62.6445 16.4826V20.986L60.5647 21.214V8.99776H62.5799L62.6445 10.1553C63.2947 9.21659 64.4214 8.80636 65.3738 8.80636ZM55.7739 8.80693C57.1023 8.80693 58.101 9.06233 59.09 9.9188L57.9176 11.2866C57.3131 10.721 56.6258 10.5301 55.811 10.5301C54.8123 10.5301 54.2626 10.8398 54.2626 11.3689C54.2626 12.1071 55.1511 12.2437 55.719 12.2802C56.6898 12.3442 57.6976 12.4076 58.5404 12.9367C59.218 13.3652 59.4928 14.1309 59.4837 14.9239C59.4837 16.3369 58.3758 17.2756 57.084 17.5676C55.3711 17.9504 53.4747 17.5859 52.1097 16.4649L51.9818 16.3649L53.0348 15.0153C53.5113 15.3256 53.9695 15.5987 54.5192 15.7449C55.0373 15.8711 55.5711 15.9202 56.1035 15.8906C56.6075 15.8724 57.2943 15.7078 57.4045 15.125C57.5599 14.3045 56.5892 14.1491 55.9938 14.0851C55.0962 13.9852 54.0884 13.9212 53.3004 13.4292C52.6137 13.0007 52.1829 12.2528 52.1829 11.4415C52.1829 9.49085 54.2261 8.8075 55.7739 8.8075M49.1975 9.00862H51.0476L50.855 10.8221H49.1787V14.9885C49.1787 15.353 49.2427 15.617 49.3706 15.7907C49.4986 15.9643 49.6917 16.0461 49.9574 16.0461C50.2656 16.0351 50.5655 15.9439 50.8276 15.7815L51.5418 17.1128C51.2491 17.3074 50.9277 17.4551 50.5894 17.5504C50.2443 17.6515 49.8867 17.7034 49.5272 17.7047C48.73 17.6959 48.1253 17.4682 47.7131 17.0214C47.3012 16.5746 47.0995 15.9186 47.0995 15.0433L47.0903 10.8313H45.5054V9.01605H47.0903V6.91059L49.1975 6.68205V9.00862ZM98.8452 5.29764V17.4773H96.83L96.7569 16.3466C96.1067 17.2859 94.98 17.6961 94.0269 17.6961C91.4347 17.7053 89.7126 15.7724 89.7126 13.2932C89.7126 10.8227 91.2701 8.82579 93.9629 8.82579C94.8514 8.82579 96.1701 9.09947 96.7654 10.0199V5.2965L98.8452 5.29764ZM74.8733 8.78865C77.4381 8.78008 79.563 10.5399 79.3344 13.9857L72.4273 14.004C72.6655 15.0067 73.5814 15.8821 75.0561 15.8821C75.8257 15.8821 76.8427 15.5078 77.3187 15.0067L78.6562 16.3192C77.7586 17.2402 76.3017 17.687 75.0195 17.687C72.3816 17.687 70.4669 15.9272 70.4669 13.2287C70.4669 10.6581 72.4461 8.79779 74.8733 8.78865ZM84.5275 8.78922C87.0924 8.78065 89.2178 10.5404 88.9887 13.9863L82.0821 14.0046C82.3204 15.0073 83.2362 15.8826 84.7109 15.8826C85.48 15.8826 86.4976 15.5084 86.9741 15.0073L88.311 16.3197C87.422 17.2408 85.9571 17.6876 84.6744 17.6876C82.0364 17.6876 80.1223 15.9278 80.1223 13.2292C80.1223 10.6587 82.1004 8.79893 84.5275 8.78979M21.8448 5.27879V17.4859H19.7834V5.27822L21.8448 5.27879ZM38.8096 5.27879V10.0651C39.5604 9.08975 40.4854 8.79836 41.4379 8.79836C43.829 8.79836 44.8918 10.421 44.8826 12.9093V17.4859H42.8029V13.0556C42.8029 11.5146 41.9973 10.8673 40.8888 10.8673C39.661 10.8673 38.8096 11.9066 38.8091 13.1738V17.4853H36.7299V5.27879H38.8096ZM25.637 9.01605V17.4762H23.5572V9.01605H25.637ZM94.1829 10.6113C92.7722 10.6113 91.7918 11.9151 91.7918 13.2372C91.7923 14.5588 92.6808 15.9718 94.1829 15.9718C95.685 15.9718 96.5735 14.5588 96.5735 13.2372C96.5735 11.9157 95.6027 10.6113 94.1829 10.6113ZM65.2184 10.5381C63.7158 10.5381 62.8273 11.9608 62.8273 13.2732C62.8273 14.5862 63.7986 15.8901 65.2184 15.8901C66.6383 15.8901 67.609 14.5954 67.609 13.2732C67.609 11.9511 66.7205 10.5381 65.2184 10.5381ZM31.1146 10.5381C29.9056 10.5381 28.8977 11.6329 28.8977 13.1093C28.8977 14.5857 29.8964 15.6347 31.1146 15.6347C32.3236 15.6255 33.3132 14.5588 33.3132 13.1001C33.3132 11.6414 32.3236 10.5381 31.1146 10.5381ZM74.9007 10.5381C74.3423 10.5428 73.8003 10.7271 73.3548 11.0638C72.9093 11.4005 72.5841 11.8717 72.4273 12.4076H77.3461C77.1079 11.4049 76.1005 10.5381 74.9007 10.5381ZM84.5549 10.5381C83.9966 10.5429 83.4547 10.7273 83.0094 11.064C82.564 11.4007 82.2389 11.8718 82.0821 12.4076H87.0015C86.7632 11.4049 85.7554 10.5381 84.5549 10.5381ZM24.6022 5.09652C25.2707 5.10567 25.8204 5.65303 25.8112 6.31866C25.8083 6.55832 25.7347 6.79179 25.5997 6.98986C25.4648 7.18793 25.2744 7.3418 25.0524 7.43224C24.8305 7.52267 24.5868 7.54564 24.3518 7.49829C24.1168 7.45093 23.9011 7.33534 23.7315 7.16599C23.5121 6.94716 23.3835 6.62834 23.3744 6.29981C23.3759 6.14016 23.4089 5.98239 23.4715 5.83551C23.5341 5.68863 23.625 5.55551 23.739 5.44377C23.853 5.33202 23.9879 5.24384 24.1361 5.18426C24.2842 5.12468 24.4426 5.09486 24.6022 5.09652Z" fill="var(--fill-0, #111111)" fill-opacity="0.4"/>
</svg>
