<svg preserveAspectRatio="none" width="100%" height="100%" overflow="visible" style="display: block;" viewBox="0 0 67.7404 17.1421" fill="none" xmlns="http://www.w3.org/2000/svg">
<path id="Vector" d="M2.23525 1.79756C5.8602 -0.4349 10.8605 -0.596605 14.6146 1.36101C15.666 1.89469 16.7185 2.71979 17.155 3.88487C17.479 4.75797 17.5596 5.98762 16.6048 6.48874C16.4916 6.52131 16.3945 6.53731 16.2814 6.50474C17.1065 6.69901 17.3659 7.67039 17.447 8.43035C17.5596 9.56286 17.6082 10.6794 17.5922 11.8119C17.5922 11.941 17.5922 12.0707 17.5762 12.2004C17.5762 13.3969 17.5596 14.6106 17.3007 15.7751C17.0259 17.0048 15.4723 16.9236 14.5335 16.9082C12.7536 16.8916 11.0062 16.4711 9.24231 16.4225C7.99666 16.3899 6.74987 16.6168 5.50422 16.7625C4.3877 16.8916 3.17405 17.2642 2.04154 17.1019C0.665613 16.9076 0.261063 15.1283 0.147926 13.9306C-0.0463496 12.0056 -0.159487 10.4525 0.536476 8.05837C0.76275 7.24984 1.1193 6.66701 1.60442 6.00419C1.60442 6.00419 1.36158 5.74478 1.24844 5.63164C1.00773 5.38965 0.815352 5.104 0.681612 4.78997C0.196495 3.51232 1.27987 2.38038 2.23525 1.79756ZM44.6319 5.30823C46.9946 5.30823 49.1631 6.23047 49.1631 9.15831V14.562C49.1521 14.9132 49.0067 15.2466 48.7567 15.4935C48.5068 15.7403 48.1715 15.8817 47.8203 15.8882H47.6094C47.3992 15.8882 46.4284 15.726 46.4284 14.7072C45.7164 15.5323 44.5027 16.018 43.1428 16.018C41.4926 16.018 39.5344 14.9174 39.5344 12.6524C39.5344 10.2748 41.4926 9.36859 43.1434 9.36859C44.5187 9.36859 45.7324 9.80514 46.4284 10.6142V9.22231C46.4284 8.18693 45.5221 7.52411 44.1628 7.52411C43.3443 7.50618 42.5389 7.73149 41.8486 8.17151C41.7029 8.26865 41.5252 8.31607 41.3629 8.31607C40.7972 8.30007 40.3275 7.84752 40.3275 7.28127C40.3275 7.10356 40.3761 6.90929 40.4732 6.74701C41.1206 5.74421 43.4348 5.30709 44.6319 5.30709M22.5439 2.75065C23.2559 2.75065 23.8547 3.3009 23.9193 3.9963V5.58193H24.9878C25.2938 5.58687 25.5856 5.71181 25.8005 5.92983C26.0153 6.14785 26.1359 6.44151 26.1363 6.74758C26.1359 7.05349 26.0152 7.34697 25.8003 7.56472C25.5855 7.78246 25.2936 7.90702 24.9878 7.91152H23.9193V12.5061C23.9193 13.3152 24.4375 13.6221 24.8581 13.6221H25.1009C25.8774 13.6221 26.298 14.1243 26.298 14.7877C26.298 15.4506 25.8934 16.0008 24.1135 16.0008C22.2045 16.0008 21.1685 15.03 21.1685 13.2181V7.91152H20.5051C20.3482 7.91129 20.1929 7.87968 20.0484 7.81854C19.9038 7.75741 19.773 7.66799 19.6635 7.55554C19.4435 7.3313 19.3213 7.02911 19.3235 6.71501C19.3401 6.08362 19.8578 5.58193 20.5051 5.58193H21.168V3.99687C21.2171 3.28491 21.8159 2.75122 22.5439 2.75122M32.7056 5.30766C36.1363 5.30766 38.1911 7.75039 38.1911 10.6462C38.1911 13.5581 36.1363 16.0014 32.7056 16.0014C29.2915 16.0014 27.2368 13.5581 27.2368 10.6462C27.2368 7.76639 29.3075 5.30766 32.7056 5.30766ZM55.5227 5.32366C56.8655 5.32366 58.7106 5.74421 59.2934 6.5693C59.4065 6.71501 59.4711 6.90929 59.4711 7.08699C59.4551 7.65325 58.9694 8.10637 58.4032 8.10637C58.2249 8.10637 58.0472 8.0578 57.8855 7.97723C57.1698 7.57231 56.3611 7.36043 55.5387 7.36241C54.5519 7.36241 53.9045 7.79896 53.9045 8.38178C53.9051 9.9017 60.0374 8.64063 60.0374 12.7496C60.0699 14.594 58.4517 16.0008 55.5873 16.0008C54.2445 16.0008 52.0761 15.5643 51.4287 14.6426C51.3004 14.4817 51.2318 14.2815 51.2344 14.0758C51.2504 13.4615 51.7521 12.9764 52.3669 12.9598C52.5612 12.9598 52.7555 13.0078 52.9172 13.1215C53.7263 13.5901 54.8108 13.9466 55.7005 13.9466C56.8821 13.9466 57.4318 13.4781 57.4324 12.8467C57.4324 11.1645 51.283 12.5227 51.283 8.52692C51.283 6.82872 52.804 5.32366 55.5227 5.32366ZM63.9857 2.75122C64.6977 2.75122 65.2965 3.30148 65.3617 3.99687V5.5825H66.4296C66.7357 5.5873 67.0277 5.71216 67.2427 5.9302C67.4576 6.14824 67.5783 6.44199 67.5787 6.74815C67.5777 7.05398 67.4568 7.3472 67.2419 7.56484C67.027 7.78248 66.7354 7.90716 66.4296 7.91209H65.3617V12.5067C65.3617 13.3158 65.8793 13.6227 66.2999 13.6227H66.5427C67.3193 13.6227 67.7404 14.1249 67.7404 14.7883C67.7404 15.4511 67.3353 16.0014 65.5559 16.0014C63.6463 16.0014 62.6104 15.0306 62.6104 13.2187V7.91209H61.947C61.7907 7.91135 61.6362 7.87976 61.4922 7.81914C61.3482 7.75852 61.2176 7.67006 61.1078 7.55884C60.9981 7.44762 60.9114 7.31582 60.8527 7.17102C60.794 7.02621 60.7645 6.87125 60.7659 6.71501C60.7819 6.08419 61.2996 5.5825 61.947 5.5825H62.6104V3.99744C62.6589 3.28548 63.2578 2.75122 63.9857 2.75122ZM13.7084 3.28605C11.1028 1.70042 7.25155 1.58728 4.50084 2.81636C3.70774 3.17234 2.26782 4.19172 2.85007 5.3888C2.99578 5.71278 3.27119 5.84191 3.49746 6.06876C3.46547 6.03619 3.02835 6.50531 2.72036 7.26584C2.49409 7.79953 2.31638 8.34921 2.21925 8.91547C2.05509 9.82907 1.963 10.7542 1.94383 11.6822C1.9604 12.7016 2.10611 13.9152 2.94721 14.6266C3.70774 15.274 4.87282 14.7889 5.71449 14.6106C6.831 14.3518 7.98009 14.1415 9.12917 14.1735C10.4394 14.222 11.7176 14.53 13.0124 14.6432C13.8866 14.7077 15.1323 14.8203 15.5694 13.8341C15.634 13.6884 15.6825 13.5267 15.7151 13.3644C15.9738 11.9065 16.0229 10.4192 15.8608 8.94747C15.7477 8.0258 15.5208 6.73215 14.6152 6.3116C16.0871 5.46993 14.518 3.77117 13.7084 3.28605ZM44.2439 11.1485C43.1754 11.1485 42.2857 11.6822 42.2857 12.685C42.2857 13.6392 43.16 14.19 44.2439 14.19C45.1176 14.19 45.9752 13.8986 46.4284 13.2998V12.0382C45.9752 11.4553 45.1176 11.1485 44.2439 11.1485ZM32.7056 7.70296C31.0069 7.70296 30.0681 9.07774 30.0681 10.6468C30.0681 12.2479 31.0069 13.6238 32.7056 13.6238C34.405 13.6238 35.3598 12.2484 35.3598 10.6468C35.3598 9.07717 34.3884 7.70239 32.7056 7.70239" fill="var(--fill-0, #111111)" fill-opacity="0.4"/>
</svg>
