<svg preserveAspectRatio="none" width="100%" height="100%" overflow="visible" style="display: block;" viewBox="0 0 5.20107 8.70057" fill="none" xmlns="http://www.w3.org/2000/svg">
<path id="Vector" fill-rule="evenodd" clip-rule="evenodd" d="M0.249149 0.249419C0.0897683 0.408821 0.000230789 0.625005 0.000230789 0.850419C0.000230789 1.07583 0.0897683 1.29202 0.249149 1.45142L3.14915 4.35042L0.249149 7.24842C0.0896216 7.40795 -1.6809e-09 7.62431 0 7.84992C1.6809e-09 8.07553 0.0896216 8.29189 0.249149 8.45142C0.408677 8.61095 0.625043 8.70057 0.850649 8.70057C1.07626 8.70057 1.29262 8.61095 1.45215 8.45142L4.95215 4.95142C5.11153 4.79202 5.20107 4.57583 5.20107 4.35042C5.20107 4.12501 5.11153 3.90882 4.95215 3.74942L1.45215 0.249419C1.3732 0.170351 1.27944 0.107625 1.17623 0.064827C1.07302 0.0220292 0.962382 0 0.850649 0C0.738916 0 0.62828 0.0220292 0.525068 0.064827C0.421857 0.107625 0.328096 0.170351 0.249149 0.249419Z" fill="var(--fill-0, white)"/>
</svg>
