<svg preserveAspectRatio="none" width="100%" height="100%" overflow="visible" style="display: block;" viewBox="0 0 107.922 19.4259" fill="none" xmlns="http://www.w3.org/2000/svg">
<path id="Vector" d="M83.5681 5.1993L85.6826 10.6191L87.8081 5.19987H90.8408L84.9393 19.4259H81.9288L84.2223 13.7639L80.5353 5.1993H83.5681ZM15.9103 11.3887C17.0565 11.3887 17.9861 12.2881 17.9861 13.3976C17.9861 14.5078 17.057 15.4071 15.9103 15.4071C14.7648 15.4071 13.8358 14.5072 13.8358 13.3976C13.8358 12.2881 14.7648 11.3887 15.9103 11.3887ZM6.36249 4.69022C6.75935 4.69967 7.14675 4.81336 7.48577 5.01989C7.82401 5.22615 8.10111 5.51697 8.28852 5.86435C8.47272 6.20809 8.55881 6.59588 8.53734 6.98527C8.51588 7.37466 8.38769 7.75064 8.16682 8.07205L4.13765 14.3323C3.9328 14.6481 3.65132 14.9067 3.31947 15.0842C2.98671 15.2631 2.61454 15.356 2.23676 15.3545C1.83954 15.3554 1.44904 15.252 1.10434 15.0545C0.761084 14.858 0.476324 14.5736 0.279313 14.2306C0.0862752 13.8917 -0.0100509 13.5063 0.000829583 13.1165C0.0117101 12.7266 0.12938 12.3471 0.341019 12.0195L4.3719 5.75979C4.57878 5.42229 4.87184 5.146 5.22093 4.95933C5.57111 4.7712 5.96515 4.6784 6.36249 4.69022ZM13.2736 4.69022C14.0934 4.70793 14.8362 5.16159 15.2122 5.87063C15.3957 6.21754 15.4792 6.60857 15.4536 7.00018C15.428 7.39178 15.2942 7.76859 15.067 8.08862L11.0447 14.3346C10.8413 14.6483 10.5602 14.906 10.2294 15.0837C9.89808 15.262 9.52752 15.3549 9.15126 15.3539C8.33822 15.3539 7.58975 14.9243 7.19723 14.2341C7.0045 13.896 6.90828 13.5115 6.91906 13.1225C6.92984 12.7335 7.04721 12.355 7.25837 12.0281L11.2818 5.78208C11.4858 5.43977 11.7778 5.15842 12.1274 4.96733C12.4784 4.77554 12.8738 4.67994 13.2736 4.69022ZM97.9078 10.6654C99.1528 10.6654 100.201 11.5464 100.201 12.9337C100.201 14.3221 99.1477 15.2357 97.9021 15.2357L97.9078 15.2317C96.6629 15.2317 95.6236 14.3215 95.6236 12.9343C95.6236 11.547 96.6629 10.666 97.9078 10.6654ZM93.5501 10.6654C93.865 10.6598 94.1776 10.7193 94.4683 10.8402C94.7585 10.9614 95.0191 11.1414 95.2345 11.3687L94.5894 11.9127C94.4519 11.7789 94.2893 11.6735 94.1109 11.6027C93.9326 11.532 93.742 11.4971 93.5501 11.5002C92.7645 11.5002 92.0812 12.0532 92.0812 12.9343C92.0805 13.2252 92.1662 13.5098 92.3274 13.7519C92.4887 13.994 92.7182 14.1828 92.9869 14.2943C93.2557 14.4057 93.5514 14.4349 93.8367 14.378C94.122 14.3211 94.384 14.1807 94.5894 13.9747L95.2442 14.5186C95.0266 14.7483 94.7636 14.9302 94.472 15.053C94.1804 15.1757 93.8665 15.2366 93.5501 15.2317C92.3057 15.2317 91.2379 14.3215 91.2379 12.9343L91.2299 12.9394C91.2299 11.551 92.2966 10.6706 93.5501 10.6654ZM106.236 10.6706C107.336 10.6706 107.921 11.3825 107.922 12.6103V15.142H107.07V12.6674C107.07 11.9452 106.695 11.5042 106.068 11.5042C105.343 11.4956 104.899 12.0481 104.899 12.7794V15.142H104.051V12.6577C104.051 11.9361 103.676 11.5036 103.106 11.5036C102.497 11.5036 101.889 11.8607 101.889 12.7794V15.142H101.037V10.7643H101.889V11.4213C102.122 10.9328 102.745 10.7174 103.096 10.6894C103.256 10.6791 103.416 10.6885 103.574 10.7174C103.824 10.7443 104.062 10.8374 104.264 10.9877C104.465 11.1379 104.621 11.3396 104.715 11.5704C105.123 10.7877 105.806 10.6706 106.236 10.6706ZM68.6426 14.7454H65.8156V13.5593C65.3431 14.438 64.1981 14.9494 63.0091 14.9494C60.5506 14.9494 58.3789 13.0074 58.3789 10.0009C58.3789 6.93735 60.5506 4.99304 63.0091 4.99304C64.1964 4.99304 65.3454 5.48326 65.8156 6.36257V0H68.6426V14.7454ZM74.323 4.99475C74.9372 4.99475 76.3719 5.19758 77.1089 6.26201V5.20273H79.9354V14.7466L77.1089 14.7454V13.661C76.4942 14.5815 75.0589 14.9294 74.323 14.9294C71.8856 14.9294 69.4471 13.0291 69.4471 9.96151C69.4471 6.89507 71.8845 4.99418 74.323 4.99418M42.761 4.99018C45.4669 4.99018 47.7398 6.93278 47.7403 9.9398C47.7403 12.9462 45.4646 14.9066 42.761 14.9066C40.0568 14.9066 37.8017 12.9445 37.8017 9.9398C37.8017 6.93278 40.0545 4.99018 42.761 4.99018ZM89.0936 13.7124C89.2095 13.714 89.3225 13.7495 89.4185 13.8144C89.5146 13.8794 89.5895 13.9711 89.6341 14.0781C89.663 14.1505 89.6769 14.2251 89.6758 14.3021C89.6684 14.4506 89.6038 14.59 89.4958 14.6929C89.3873 14.7957 89.2439 14.8534 89.0936 14.8551C88.9439 14.8537 88.8002 14.7957 88.6914 14.6929C88.5832 14.5907 88.5188 14.4507 88.5114 14.3021C88.5095 14.1862 88.5426 14.0725 88.6063 13.9756C88.67 13.8788 88.7613 13.8034 88.8685 13.7593C88.9393 13.729 89.0165 13.7136 89.0936 13.7124ZM33.4131 4.99133C35.6842 4.99133 37.1012 6.44256 37.1012 9.32445V14.7454H34.2741V9.65412C34.2741 8.40858 33.5365 7.75324 32.6972 7.75324C31.7956 7.75324 31.058 8.30745 31.058 9.69469V14.7443H28.211V9.59242C28.1893 8.38687 27.4534 7.75267 26.634 7.75267C25.7736 7.75267 24.9743 8.24403 24.9743 9.69469V14.7443H22.1272V5.20044H24.9765V6.5854C25.1972 6.11214 25.5498 5.7126 25.9918 5.43469C26.4361 5.15515 26.9508 5.00809 27.4756 5.01075C28.9886 5.01075 30.0124 5.58382 30.5455 6.68767C31.4677 5.19473 32.7378 4.99133 33.4131 4.99133ZM54.1543 4.99304C56.3055 4.99304 57.6584 6.32257 57.6584 9.04049V14.7437H54.8108V9.65298C54.8108 8.3863 54.1143 7.75267 53.1516 7.75267C52.1483 7.75267 51.3895 8.24403 51.3895 9.69469V14.7437H48.5436V5.1993H51.389V6.58768C51.9015 5.6261 53.0282 4.99304 54.1543 4.99304ZM97.9084 11.5036C97.1222 11.5036 96.4675 12.0567 96.4675 12.9388C96.4601 13.1309 96.4918 13.3224 96.5608 13.5018C96.6298 13.6812 96.7346 13.8446 96.8687 13.9823C97.0028 14.1199 97.1636 14.2288 97.3412 14.3023C97.5187 14.3759 97.7094 14.4125 97.9015 14.4101H97.9084C98.1012 14.4141 98.2928 14.3785 98.4714 14.3056C98.6499 14.2327 98.8117 14.124 98.9465 13.9861C99.0814 13.8481 99.1867 13.684 99.2562 13.504C99.3256 13.3239 99.3577 13.1317 99.3505 12.9388C99.3499 12.0567 98.694 11.5036 97.9084 11.5036ZM63.5433 7.67096C62.3338 7.67096 61.3293 8.57084 61.3293 9.94037C61.3293 11.3545 62.3338 12.2492 63.5422 12.2492C64.7317 12.2509 65.755 11.3105 65.755 9.94094C65.755 8.50971 64.7106 7.67096 63.5433 7.67096ZM74.795 7.69153C73.6071 7.69153 72.3976 8.59312 72.3976 9.96208C72.3976 11.331 73.6071 12.2309 74.795 12.2309C75.9622 12.2309 77.1095 11.3933 77.1095 9.96151C77.1095 8.53028 75.9622 7.69153 74.795 7.69153ZM42.7616 7.77266C42.4761 7.76864 42.1928 7.82199 41.9284 7.92956C41.664 8.03713 41.4239 8.19672 41.2224 8.39887C41.0217 8.60129 40.8641 8.8422 40.7589 9.1071C40.6538 9.37201 40.6032 9.65545 40.6104 9.94037C40.6116 11.2699 41.5943 12.1275 42.7616 12.1275C43.9483 12.1275 44.9333 11.2682 44.9333 9.94037C44.9333 8.65255 43.9494 7.77266 42.7616 7.77266Z" fill="var(--fill-0, #111111)" fill-opacity="0.4"/>
</svg>
