<svg preserveAspectRatio="none" width="100%" height="100%" overflow="visible" style="display: block;" viewBox="0 0 21.2974 20.0712" fill="none" xmlns="http://www.w3.org/2000/svg">
<path id="Vector" d="M17.6154 0.2495C19.3854 0.2495 20.8144 1.6655 20.8154 3.4055C20.8154 5.1455 19.3854 6.5625 17.6154 6.5625C15.8464 6.5625 14.4184 5.1465 14.4184 3.4055C14.4184 1.6655 15.8474 0.2495 17.6164 0.2495H17.6154ZM16.4574 9.3325C18.4994 8.8305 20.5594 10.1075 20.9774 12.1625C21.3374 13.9325 20.2864 15.7475 18.5524 16.3275C17.3024 16.7475 16.0154 16.4775 15.0724 15.7495C13.9024 14.8495 12.3894 14.4925 10.9404 14.8495L10.5504 14.9445V14.9455C9.84195 15.1225 9.18323 15.4587 8.62437 15.9287C8.06551 16.3987 7.62124 16.9899 7.32538 17.6575C7.07831 18.2029 6.70188 18.6798 6.22876 19.0468C5.75564 19.4138 5.20011 19.6598 4.61038 19.7635L4.52838 19.7765C2.77638 20.0555 1.03938 19.0165 0.458375 17.3795L0.406373 17.2195C-0.200627 15.2145 1.01338 13.1305 3.05338 12.6295C3.56938 12.502 4.10667 12.4863 4.62924 12.5834C5.15181 12.6805 5.6476 12.8882 6.08338 13.1925L6.24938 13.3155C7.29638 14.1395 8.63237 14.5285 9.95237 14.2905L10.2164 14.2335L10.8904 14.0695C12.2924 13.7255 13.3884 12.7115 13.9604 11.4175C14.189 10.9018 14.533 10.4456 14.966 10.0841C15.3989 9.72259 15.9092 9.46543 16.4574 9.3325Z" fill="var(--fill-0, #020917)" stroke="var(--stroke-2, #020917)" stroke-width="0.499"/>
</svg>
