<svg preserveAspectRatio="none" width="100%" height="100%" overflow="visible" style="display: block;" viewBox="0 0 105.165 14.8571" fill="none" xmlns="http://www.w3.org/2000/svg">
<path id="Vector" d="M11.796 6.27486C12.2543 5.98743 12.9137 5.81543 13.5583 5.81543C14.992 5.81543 15.6669 6.612 15.6669 7.78686V14.6497H17.9451V7.476C17.9451 5.31257 16.3783 3.72457 13.9074 3.72457C13.1829 3.7232 12.4653 3.86536 11.796 4.14286V0H9.51543V14.6497H11.796V6.27486ZM34.7846 12.4669H34.444C33.0097 12.4669 32.4069 11.6383 32.4069 10.5137V6.11371H36.244V10.828C36.244 12.8411 37.0697 14.6497 39.9903 14.6497H40.9034V12.4669H40.5611C39.1269 12.4669 38.5246 11.6383 38.5246 10.5137V6.11371H41.1434V3.93257H38.5251V0L36.244 1.26114V3.93257H32.4069V0L30.1246 1.26114V3.93257H28.9691V6.11314H30.1246V10.8274C30.1246 12.8411 30.9526 14.6497 33.8714 14.6497H34.7851L34.7846 12.4669ZM72.5057 12.4669H72.1634C70.728 12.4669 70.1251 11.6383 70.1251 10.5137V6.11371H72.744V3.93257H70.1251V0L67.8451 1.26114V3.93257H66.6446V6.11314H67.8451V10.8274C67.8451 12.8411 68.6731 14.6497 71.5931 14.6497H72.5057V12.4669ZM95.4823 11.2383L96.2309 10.3931L99.496 14.6497H102.233L97.6903 8.74629L101.953 3.93257H99.1486L95.4823 8.12857V0H93.2V14.6491H95.4823V11.2383ZM104.054 5.84857C104.67 5.84857 105.165 5.38057 105.165 4.764C105.164 4.46956 105.047 4.18745 104.839 3.9793C104.63 3.77116 104.348 3.6539 104.054 3.65314C103.907 3.65254 103.762 3.68083 103.627 3.73638C103.492 3.79192 103.369 3.87365 103.265 3.97685C103.161 4.08006 103.079 4.20271 103.023 4.33779C102.967 4.47287 102.938 4.61771 102.938 4.764C102.938 5.38114 103.437 5.84857 104.054 5.84857ZM46.3909 14.8571C48.7257 14.8571 49.9383 13.5074 50.2983 12.6966L48.3731 11.5394C48.2086 12.016 47.4463 12.684 46.4069 12.684C44.9966 12.684 44.4543 11.8977 44.4543 10.912L44.4463 10.3246H50.572V7.40743C50.572 5.44743 49.0771 3.724 46.3909 3.724C43.3417 3.724 42.1703 5.62857 42.1703 7.40743V10.9663C42.1703 13.4291 43.744 14.8571 46.3909 14.8571ZM54.3097 7.60571C54.3097 6.99086 54.6583 5.94 56.332 5.94C56.5943 5.94 57.1886 6.01429 57.3789 6.05029V3.83886C57.1731 3.78971 56.7017 3.724 56.2154 3.724C53.3166 3.724 52.0309 5.54171 52.0309 7.41143V14.6497H54.3097V7.60571ZM4.02286 14.8571C6.432 14.8571 8.36514 13.664 8.36572 11.4429C8.34457 9.376 6.95543 8.59143 5.25143 8.29886C5.09371 8.27029 4.55943 8.18171 4.40229 8.15314C3.56057 8.00114 2.83657 7.80457 2.83657 6.956C2.83657 6.22743 3.59943 5.88743 4.55086 5.88743C5.96514 5.88743 7.20572 6.528 7.34743 6.59886L8.12172 4.55314C7.82572 4.39886 6.56229 3.72457 4.57372 3.72457C2.75486 3.72457 0.530858 4.68057 0.530858 7.05829C0.530858 9.18686 2.05029 9.86971 3.51771 10.128C3.71943 10.1651 4.356 10.2737 4.53943 10.3051C5.52457 10.472 6.064 10.8389 6.064 11.484C6.064 12.3023 5.29714 12.6863 4.13372 12.6863C2.268 12.6863 1.17429 12.1309 0.858286 12.0011L0 14.0023C0.267429 14.1394 1.53943 14.8571 4.02286 14.8571ZM61.5389 14.8571C63.948 14.8571 65.8817 13.664 65.8823 11.4429C65.8634 9.37543 64.4737 8.59143 62.7686 8.29886C62.6097 8.27029 62.076 8.18171 61.9194 8.15314C61.076 8.00114 60.3537 7.80457 60.3537 6.956C60.3537 6.22743 61.1177 5.88743 62.0686 5.88743C63.4829 5.88743 64.7234 6.528 64.8646 6.59886L65.64 4.55314C65.3411 4.39886 64.0794 3.72457 62.0926 3.72457C60.272 3.72457 58.0486 4.68057 58.0486 7.05829C58.0486 9.18686 59.5691 9.86971 61.0349 10.128C61.2371 10.1651 61.8737 10.2737 62.0554 10.3051C63.0411 10.472 63.5823 10.8389 63.5823 11.484C63.5823 12.3023 62.8131 12.6863 61.6491 12.6863C59.7857 12.6863 58.692 12.1309 58.376 12.0011L57.5171 14.0023C57.784 14.1394 59.0566 14.8571 61.5389 14.8571ZM87.924 14.8571C89.6023 14.8571 91.5046 14.0897 92.084 12.0417L90.0149 11.2549C89.7411 12.2331 88.8303 12.6406 87.94 12.6406C86.3909 12.6406 85.98 11.792 85.98 10.8251V7.75429C85.98 6.78857 86.3909 5.94171 87.94 5.94171C88.8303 5.94171 89.7411 6.34629 90.0149 7.32514L92.084 6.53829C91.5046 4.49029 89.6023 3.72457 87.924 3.72457C84.9166 3.72457 83.704 5.592 83.704 7.40743V11.1731C83.704 12.988 84.9166 14.8571 87.924 14.8571ZM104.054 5.59886C103.575 5.59886 103.219 5.216 103.219 4.764C103.22 4.28057 103.571 3.90286 104.054 3.90286C104.506 3.90286 104.883 4.28571 104.883 4.764C104.883 5.21543 104.537 5.59886 104.054 5.59886ZM23.6577 14.8571C24.9909 14.8571 26.4674 14.52 27.7457 13.9663V3.932H25.4663V12.5183C25.0326 12.7526 24.484 12.8863 23.9383 12.8863C22.2366 12.8863 21.5966 12.0194 21.596 10.8234V3.932H19.316V10.8657C19.316 13.5606 20.8737 14.8571 23.6577 14.8571ZM76.0691 6.95314C76.0691 6.57771 76.3749 6.27143 76.752 6.27143H79.1229V3.93257H76.752C76.3552 3.93242 75.9623 4.01044 75.5957 4.16217C75.2291 4.3139 74.896 4.53637 74.6154 4.81687C74.3348 5.09737 74.1122 5.43041 73.9603 5.79696C73.8085 6.1635 73.7303 6.55638 73.7303 6.95314V9.52571H76.0691V6.95314ZM103.895 5.30629C103.905 5.30629 103.911 5.296 103.911 5.28514V4.91829H104.033L104.203 5.29086C104.209 5.30114 104.218 5.30629 104.23 5.30629H104.479C104.49 5.30629 104.495 5.296 104.49 5.28514L104.277 4.908C104.345 4.87787 104.402 4.82854 104.442 4.76616C104.481 4.70378 104.502 4.63109 104.501 4.55714V4.53543C104.501 4.36629 104.373 4.18457 104.086 4.18457H103.661V5.28514C103.661 5.296 103.671 5.30629 103.682 5.30629H103.895ZM103.911 4.73771V4.376H104.054C104.197 4.376 104.251 4.456 104.251 4.54057V4.55714C104.251 4.66857 104.208 4.73771 104.054 4.73771H103.911ZM44.4463 7.69886C44.4463 6.82914 44.8829 5.896 46.3806 5.896C47.824 5.896 48.2909 6.80457 48.2909 7.656V8.47829H44.4463V7.69886ZM79.5663 14.6497C80.3674 14.6491 81.1355 14.3305 81.7019 13.7639C82.2683 13.1974 82.5866 12.4291 82.5869 11.628V9.056H80.248V11.6274C80.248 12.0046 79.9417 12.3109 79.5663 12.3109H77.1931V14.6497H79.5663Z" fill="var(--fill-0, #111111)" fill-opacity="0.4"/>
</svg>
