<svg preserveAspectRatio="none" width="100%" height="100%" overflow="visible" style="display: block;" viewBox="0 0 84.4224 29.5187" fill="none" xmlns="http://www.w3.org/2000/svg">
<path id="Vector" d="M28.2836 14.1449C28.2836 19.3019 25.5229 23.8129 21.4005 26.2853C21.3237 26.3305 21.2338 26.3481 21.1456 26.3353C21.0574 26.3226 20.9762 26.2801 20.9154 26.2151L16.1696 21.1627C16.1247 21.1149 16.0925 21.0566 16.076 20.9932C16.0594 20.9298 16.059 20.8633 16.0748 20.7997C16.0906 20.7361 16.1221 20.6774 16.1664 20.6291C16.2107 20.5808 16.2663 20.5444 16.3283 20.5232C17.8475 20.0025 19.131 18.9567 19.9477 17.5739C20.7644 16.1912 21.0606 14.5623 20.7832 12.9805C20.5057 11.3987 19.6727 9.96795 18.4342 8.94571C17.1956 7.92347 15.6328 7.37691 14.0271 7.40443C10.3313 7.46662 7.40227 10.5595 7.40227 14.2554V25.9019C7.40227 26.21 7.06569 26.3965 6.80228 26.2356C2.77059 23.7822 0.0632789 19.3714 0.00108407 14.3242C-0.0947692 6.55931 6.17813 0.109335 13.9422 0.00250593C21.8461 -0.10725 28.2866 6.26663 28.2866 14.1449H28.2836ZM84.24 16.9876H82.3668C82.3301 16.9877 82.2942 16.999 82.2639 17.0199C82.2336 17.0408 82.2103 17.0703 82.1971 17.1046L79.8432 23.2956L77.3978 17.1024C77.3843 17.0688 77.3611 17.0399 77.3312 17.0194C77.3012 16.9989 77.2658 16.9879 77.2295 16.9876H75.2627C75.2327 16.9875 75.2031 16.995 75.1766 17.0092C75.1501 17.0235 75.1276 17.0441 75.1111 17.0692C75.0945 17.0943 75.0845 17.1231 75.0818 17.153C75.0792 17.183 75.084 17.2131 75.0959 17.2407L78.7573 25.8822L78.5386 26.4382C78.2232 27.2212 77.7937 27.5409 77.0554 27.5409C76.8932 27.5415 76.7318 27.5185 76.5761 27.4729C76.5501 27.465 76.5226 27.4633 76.4958 27.468C76.469 27.4726 76.4437 27.4835 76.4218 27.4997C76.4 27.516 76.3822 27.5371 76.37 27.5614C76.3578 27.5857 76.3515 27.6125 76.3515 27.6397V29.1975C76.3515 29.2743 76.4013 29.3438 76.4744 29.3687C76.6442 29.4273 76.9808 29.5187 77.4344 29.5187C78.78 29.5187 79.6749 28.686 80.5259 26.6446L84.4083 17.2407C84.4199 17.2131 84.4245 17.183 84.4216 17.1531C84.4187 17.1232 84.4085 17.0946 84.3918 17.0696C84.3752 17.0447 84.3526 17.0243 84.3261 17.0102C84.2996 16.9961 84.27 16.9889 84.24 16.989V16.9876ZM44.7499 14.2268H43.0026C42.9689 14.227 42.9359 14.2364 42.9073 14.2541C42.8786 14.2718 42.8554 14.297 42.8402 14.3271L38.4148 23.1244L33.9909 14.3263C33.9757 14.2963 33.9525 14.271 33.9238 14.2534C33.8952 14.2357 33.8622 14.2262 33.8285 14.2261H31.97C31.9216 14.2261 31.8752 14.2453 31.8409 14.2794C31.8066 14.3136 31.7872 14.3599 31.787 14.4083V25.9795C31.7872 26.0279 31.8066 26.0742 31.8409 26.1083C31.8752 26.1425 31.9216 26.1617 31.97 26.1617H33.8358C33.8842 26.1617 33.9306 26.1425 33.9649 26.1083C33.9992 26.0742 34.0186 26.0279 34.0187 25.9795V18.8293L37.659 26.0439C37.6742 26.0737 37.6974 26.0987 37.7259 26.1162C37.7544 26.1338 37.7872 26.1432 37.8207 26.1434H38.8465C38.9146 26.1434 38.9782 26.1053 39.009 26.0431L42.7019 18.7444V25.978C42.7021 26.0263 42.7213 26.0725 42.7555 26.1066C42.7896 26.1408 42.8358 26.16 42.8841 26.1602H44.7514C44.7995 26.1598 44.8456 26.1405 44.8795 26.1064C44.9135 26.0723 44.9327 26.0261 44.9328 25.978V14.4076C44.9329 14.3593 44.9138 14.313 44.8798 14.2787C44.8458 14.2445 44.7996 14.225 44.7514 14.2246L44.7499 14.2268ZM55.3472 21.5805C55.3471 22.2046 55.2241 22.8225 54.9852 23.3991C54.7462 23.9756 54.3961 24.4995 53.9547 24.9407C53.5134 25.382 52.9894 25.7319 52.4128 25.9707C51.8361 26.2094 51.2181 26.3322 50.594 26.3322C49.97 26.3321 49.352 26.209 48.7754 25.9701C48.1989 25.7312 47.675 25.3811 47.2338 24.9397C46.7926 24.4983 46.4426 23.9744 46.2038 23.3977C45.9651 22.8211 45.8423 22.2031 45.8424 21.579C45.8426 20.3186 46.3434 19.1099 47.2348 18.2187C48.1262 17.3276 49.3351 16.8271 50.5955 16.8273C51.8559 16.8275 53.0647 17.3284 53.9558 18.2198C54.8469 19.1112 55.3474 20.32 55.3472 21.5805ZM53.2648 21.5805C53.2648 20.8724 52.9835 20.1934 52.4829 19.6928C51.9822 19.1921 51.3032 18.9108 50.5951 18.9108C49.8871 18.9108 49.2081 19.1921 48.7074 19.6928C48.2068 20.1934 47.9255 20.8724 47.9255 21.5805C47.9255 22.2885 48.2068 22.9675 48.7074 23.4682C49.2081 23.9688 49.8871 24.2501 50.5951 24.2501C51.3032 24.2501 51.9822 23.9688 52.4829 23.4682C52.9835 22.9675 53.2648 22.2885 53.2648 21.5805ZM60.9974 16.8288C59.6247 16.8288 58.6691 17.619 58.3267 18.058H58.2608V17.1705C58.2608 17.1222 58.2418 17.0759 58.2078 17.0416C58.1738 17.0074 58.1276 16.9879 58.0794 16.9876H56.4484C56.4 16.9877 56.3537 17.0071 56.3195 17.0414C56.2854 17.0757 56.2662 17.1221 56.2662 17.1705V25.978C56.2664 26.0264 56.2858 26.0727 56.3201 26.1069C56.3543 26.141 56.4008 26.1602 56.4491 26.1602H58.2901C58.3382 26.1598 58.3843 26.1405 58.4183 26.1064C58.4522 26.0723 58.4714 26.0261 58.4716 25.978V21.0258C58.4716 19.7088 59.3277 18.7883 60.5862 18.7883C61.8447 18.7883 62.6657 19.7095 62.6657 21.0258V25.978C62.6659 26.0263 62.6852 26.0725 62.7193 26.1066C62.7534 26.1408 62.7996 26.16 62.8479 26.1602H64.6859C64.7342 26.16 64.7804 26.1408 64.8146 26.1066C64.8487 26.0725 64.8679 26.0263 64.8681 25.978V20.8824C64.8681 18.4583 63.3133 16.8295 61.0003 16.8295L60.9974 16.8288ZM74.6679 19.0707C74.8391 19.359 75.4427 20.4507 75.2686 21.8446C75.2457 22.0204 75.2123 22.1946 75.1683 22.3663C75.1584 22.4052 75.1357 22.4397 75.1038 22.4642C75.072 22.4888 75.0329 22.502 74.9927 22.5017H68.0547C68.1747 22.9553 68.6906 24.4458 70.6215 24.4458C71.5508 24.4458 72.2591 24.0485 72.5869 23.6775C72.607 23.655 72.6316 23.6369 72.659 23.6243C72.6865 23.6117 72.7162 23.6049 72.7464 23.6044H74.6496C74.7864 23.6044 74.8757 23.7485 74.812 23.87C74.3964 24.6631 73.6288 25.4534 72.5474 25.937C71.9468 26.2035 71.2961 26.3384 70.6391 26.3329C69.7537 26.3329 68.9298 26.1207 68.193 25.7051C66.9345 24.9953 65.7813 23.6 65.7813 21.5797C65.7842 21.1919 65.8391 19.9568 66.7018 18.7868C67.11 18.2491 67.6227 17.7993 68.2091 17.4646C68.9419 17.0439 69.7728 16.824 70.6179 16.8273C72.5035 16.8273 73.9325 17.8437 74.6649 19.0707H74.6679ZM73.11 20.7939C73.0361 20.4339 72.5123 18.6976 70.6223 18.6976C69.2979 18.6976 68.2991 19.5654 68.0181 20.7939H73.11ZM60.3316 8.65418C60.3388 8.62715 60.3398 8.59881 60.3344 8.57135C60.329 8.54388 60.3174 8.51802 60.3004 8.49575C60.2835 8.47349 60.2616 8.45541 60.2366 8.44292C60.2115 8.43043 60.184 8.42385 60.156 8.42369H58.3413C58.302 8.42372 58.2634 8.43469 58.23 8.45536C58.1965 8.47603 58.1695 8.5056 58.1518 8.54076C57.8842 9.08425 57.4396 9.52053 56.8911 9.77789C56.3427 10.0353 55.723 10.0984 55.134 9.95694C54.5449 9.81549 54.0214 9.47785 53.6497 8.99951C53.2779 8.52118 53.0799 7.9306 53.0882 7.32484C53.0965 6.71907 53.3106 6.13415 53.6954 5.6662C54.0802 5.19824 54.6127 4.8751 55.2054 4.74986C55.7982 4.62463 56.4159 4.70475 56.957 4.97707C57.4982 5.24939 57.9306 5.6977 58.1833 6.24833C58.2003 6.28492 58.2273 6.31592 58.2613 6.33769C58.2952 6.35947 58.3347 6.37111 58.375 6.37126H60.1721C60.1996 6.37096 60.2268 6.36443 60.2515 6.35214C60.2762 6.33986 60.2978 6.32215 60.3147 6.30033C60.3316 6.27851 60.3434 6.25315 60.3491 6.22615C60.3548 6.19916 60.3543 6.17122 60.3477 6.14443L60.3184 6.0259C59.9961 4.92159 59.2841 3.9717 58.3146 3.35243C57.3451 2.73317 56.1839 2.48659 55.0465 2.65843C53.909 2.83027 52.8724 3.40887 52.1291 4.28689C51.3859 5.1649 50.9863 6.28272 51.0045 7.43296C51.0426 10.0181 53.245 12.1525 55.8279 12.1137C56.8504 12.0979 57.8404 11.7528 58.6511 11.1295C59.4618 10.5063 60.0498 9.6382 60.3279 8.65418H60.3316ZM45.4685 12.1137C42.928 12.0668 40.8543 9.9932 40.8075 7.45272C40.7953 6.81354 40.9122 6.17846 41.1511 5.58552C41.3901 4.99257 41.7463 4.45395 42.1984 4.0019C42.6504 3.54985 43.189 3.19367 43.782 2.95468C44.3749 2.71569 45.01 2.59881 45.6492 2.61103C48.1897 2.65859 50.2633 4.73151 50.3101 7.27199C50.3224 7.91117 50.2055 8.54624 49.9665 9.13919C49.7275 9.73213 49.3713 10.2708 48.9193 10.7228C48.4672 11.1749 47.9286 11.531 47.3357 11.77C46.7427 12.009 46.1076 12.1259 45.4685 12.1137ZM48.227 7.44979C48.2388 7.08473 48.1756 6.72113 48.0413 6.38147C47.907 6.04181 47.7044 5.73331 47.4461 5.47504C47.1879 5.21676 46.8794 5.01422 46.5397 4.87991C46.2 4.7456 45.8364 4.6824 45.4714 4.69419C44.7944 4.7182 44.1516 4.99788 43.6726 5.47689C43.1936 5.9559 42.9139 6.59865 42.8899 7.27565C42.8781 7.64077 42.9414 8.00443 43.0757 8.34415C43.2101 8.68386 43.4127 8.9924 43.671 9.25068C43.9294 9.50896 44.238 9.71149 44.5777 9.84575C44.9175 9.98001 45.2811 10.0431 45.6463 10.0312C46.3233 10.0072 46.966 9.72756 47.445 9.24855C47.924 8.76954 48.203 8.12679 48.227 7.44979ZM31.7863 11.7603V0.183237C31.7865 0.134975 31.8058 0.0887453 31.8399 0.0546189C31.874 0.0204925 31.9202 0.00123519 31.9685 0.00104252H37.0246C38.2809 -0.00481111 40.6151 0.879088 40.6151 3.68664C40.6151 5.63004 39.3653 7.18418 36.9822 7.36199L40.9999 11.6359C41.1097 11.7529 41.0277 11.9432 40.8682 11.9432H38.5217C38.4924 11.9427 38.4636 11.9363 38.4368 11.9245C38.41 11.9127 38.3859 11.8957 38.3658 11.8744L34.2339 7.36345H34.1205V11.7617C34.1205 11.8102 34.1012 11.8568 34.0669 11.8911C34.0326 11.9254 33.986 11.9447 33.9375 11.9447H31.9663C31.9179 11.9445 31.8716 11.9251 31.8374 11.8908C31.8033 11.8565 31.7841 11.8101 31.7841 11.7617L31.7863 11.7603ZM34.1205 5.51151H36.1414C36.8829 5.51053 37.4424 5.35444 37.82 5.04322C38.196 4.73054 38.3841 4.29956 38.3841 3.7503C38.3841 3.20152 38.2129 2.8064 37.8719 2.50493C37.5287 2.20494 37.0326 2.05128 36.3822 2.05128H34.1212L34.1205 5.51151ZM78.2393 4.57273H79.4978V8.8254C79.4978 11.6425 81.8854 12.1151 82.8059 12.1151C83.2383 12.1151 83.5676 12.0259 83.842 11.9651C83.8822 11.9561 83.9183 11.9336 83.9442 11.9015C83.9701 11.8693 83.9843 11.8294 83.9846 11.7881V10.3056C83.9847 10.2784 83.9785 10.2515 83.9667 10.2269C83.9549 10.2023 83.9377 10.1807 83.9164 10.1637C83.8951 10.1467 83.8703 10.1347 83.8437 10.1286C83.8171 10.1225 83.7895 10.1225 83.7629 10.1286C83.1564 10.2698 81.8261 10.2712 81.8261 8.65784V4.57273H83.8039C83.8522 4.57234 83.8983 4.5529 83.9323 4.51864C83.9663 4.48438 83.9854 4.43807 83.9854 4.3898V2.95127C83.9852 2.90301 83.9659 2.85678 83.9318 2.82266C83.8977 2.78853 83.8514 2.76927 83.8032 2.76908H81.8254V0.182505C81.8256 0.150057 81.8171 0.118153 81.8007 0.0901154C81.7844 0.062078 81.7608 0.0389335 81.7325 0.0230927C81.7042 0.00725187 81.6721 -0.00070563 81.6397 4.9104e-05C81.6073 0.000803838 81.5756 0.0102432 81.5481 0.0273839L79.5871 1.25006C79.561 1.26648 79.5394 1.28925 79.5244 1.31625C79.5095 1.34324 79.5016 1.37358 79.5015 1.40445V2.76981H78.24C78.1918 2.77 78.1455 2.78926 78.1114 2.82339C78.0773 2.85751 78.058 2.90374 78.0578 2.95201V4.3898C78.058 4.43807 78.0773 4.4843 78.1114 4.51842C78.1455 4.55255 78.1918 4.57181 78.24 4.572L78.2393 4.57273ZM61.2784 11.9425H63.2394C63.2877 11.9425 63.3342 11.9233 63.3684 11.8891C63.4027 11.855 63.4221 11.8086 63.4223 11.7603V8.28247H63.5291L66.8071 11.9029C66.8183 11.9156 66.8321 11.9256 66.8475 11.9324C66.8629 11.9393 66.8796 11.9427 66.8964 11.9425H69.3235C69.3589 11.9423 69.3935 11.9318 69.4231 11.9123C69.4527 11.8929 69.476 11.8652 69.4902 11.8327C69.5044 11.8003 69.5089 11.7644 69.503 11.7294C69.4972 11.6945 69.4813 11.662 69.4574 11.6359L65.463 7.36345L69.0915 3.06981C69.1141 3.04337 69.1286 3.01101 69.1333 2.97658C69.138 2.94214 69.1327 2.90707 69.1181 2.87555C69.1034 2.84403 69.08 2.81738 69.0507 2.79876C69.0213 2.78015 68.9873 2.77035 68.9525 2.77054H66.6842C66.6533 2.77107 66.6229 2.77813 66.5949 2.79124C66.5669 2.80436 66.542 2.82323 66.5218 2.84664L63.5525 6.39541H63.4208V0.183237C63.4211 0.150677 63.4126 0.118644 63.3962 0.0904981C63.3799 0.062352 63.3562 0.0391293 63.3278 0.0232654C63.2993 0.00740159 63.2672 -0.000518967 63.2346 0.000334391C63.2021 0.00118775 63.1703 0.0107836 63.1428 0.0281156L61.1818 1.25372C61.1557 1.27029 61.1342 1.29322 61.1194 1.32034C61.1045 1.34747 61.0968 1.37792 61.0969 1.40884V11.7625C61.0973 11.8105 61.1166 11.8564 61.1505 11.8903C61.1845 11.9243 61.2304 11.9435 61.2784 11.9439V11.9425ZM68.5179 7.36199C68.5208 6.97492 68.5764 5.73907 69.4391 4.5698C69.8473 4.03179 70.36 3.58181 70.9464 3.24688C71.6793 2.82637 72.5102 2.60678 73.3552 2.6103C75.2408 2.6103 76.6691 3.62591 77.4015 4.85297C77.5734 5.14127 78.1771 6.2337 78.0022 7.6276C77.9796 7.80335 77.9464 7.97757 77.9027 8.1493C77.8921 8.18796 77.8691 8.22208 77.8373 8.2464C77.8054 8.27073 77.7665 8.28391 77.7264 8.28393H70.7891C70.9084 8.73759 71.4242 10.2288 73.3552 10.2288C74.2852 10.2288 74.9935 9.83149 75.3205 9.45978C75.3407 9.43727 75.3652 9.41916 75.3927 9.40656C75.4201 9.39397 75.4499 9.38718 75.48 9.38661H77.3839C77.52 9.38661 77.6093 9.53076 77.5456 9.65222C77.13 10.4454 76.3625 11.2356 75.2817 11.7193C74.6811 11.9857 74.0305 12.1207 73.3735 12.1151C72.4881 12.1151 71.6642 11.9029 70.9266 11.4873C69.6681 10.7776 68.5149 9.38222 68.5149 7.36199H68.5179ZM70.754 6.57614H75.8459C75.7713 6.21687 75.2481 4.4798 73.3581 4.4798C72.0337 4.4798 71.0349 5.34761 70.754 6.57614Z" fill="var(--fill-0, black)"/>
</svg>
