<svg preserveAspectRatio="none" width="100%" height="100%" overflow="visible" style="display: block;" viewBox="0 0 121.68 17.4858" fill="none" xmlns="http://www.w3.org/2000/svg">
<g id="Group">
<path id="Vector" d="M11.1203 0C12.6232 0 13.9832 0.548571 14.9295 1.51886C14.9809 1.56857 17.1123 3.64229 17.1598 3.69257C17.3363 3.85714 17.4992 4.03257 17.6478 4.224L17.6461 4.22229C18.6289 5.484 18.9112 7.19029 18.4192 8.90229C17.5546 11.9183 14.3518 14.2794 11.1301 14.2794H8.91462L4.11805 17.3023C3.92948 17.4223 3.71119 17.4857 3.48948 17.4857C3.32589 17.4872 3.16397 17.4526 3.01524 17.3845C2.86651 17.3164 2.73461 17.2163 2.62891 17.0914C2.57519 17.0474 0.291192 14.8229 0.245478 14.7686C0.141689 14.6442 0.0678725 14.4976 0.029727 14.3402C-0.00841848 14.1828 -0.00987236 14.0187 0.0254774 13.8606L2.84948 0.904C2.96491 0.380571 3.44662 0 3.99348 0H11.1203ZM3.99291 0.965714C3.95293 0.966949 3.91447 0.981254 3.8834 1.00644C3.85234 1.03162 3.83039 1.06629 3.82091 1.10514L2.54376 6.95657C2.52776 7.03314 2.57748 7.09543 2.65633 7.09543C4.15748 7.09543 5.63062 5.91086 5.95005 4.44857L6.10319 3.75257H10.5135C11.8495 3.75257 12.6758 4.87543 12.2535 6.204C11.8849 7.36171 10.6323 8.21029 9.43862 8.21086H9.13233L9.55748 6.26457C9.58319 6.15029 9.46205 6.08514 9.35291 6.15257L4.97862 8.908L5.34376 7.23486C5.35919 7.15714 5.30948 7.096 5.23062 7.09543C3.73005 7.09543 2.25576 8.28 1.93691 9.74286L0.995191 14.0617C0.969477 14.176 1.09062 14.2417 1.19976 14.1737L6.24205 10.9966H8.75062C11.4889 10.9966 14.322 8.98743 15.0855 6.32457C15.9243 3.40457 14.074 0.966286 11.1198 0.966286L3.99291 0.965714ZM23.1415 14.0554V3.43257C23.1415 3.36229 23.1986 3.30686 23.2706 3.30686H28.6758C30.342 3.30686 31.5899 3.61657 32.4192 4.236C33.2481 4.85543 33.6624 5.79448 33.662 7.05314C33.662 8.312 33.2381 9.26629 32.3878 9.88571C31.5382 10.5051 30.2388 10.8149 28.4895 10.8149H26.3323V14.0549C26.3323 14.1257 26.2752 14.1806 26.2032 14.1806H23.2706C23.2538 14.181 23.2371 14.1781 23.2215 14.172C23.2058 14.1659 23.1915 14.1567 23.1795 14.145C23.1675 14.1333 23.1579 14.1193 23.1514 14.1038C23.1448 14.0883 23.1415 14.0722 23.1415 14.0554ZM28.4249 8.42229C29.1335 8.42229 29.6468 8.31314 29.9649 8.09486C30.283 7.87581 30.4422 7.52343 30.4426 7.03771C30.4426 6.552 30.2878 6.22971 29.9752 6.01829C29.662 5.80457 29.1565 5.69791 28.4586 5.69829H26.3318V8.42514H28.4272L28.4249 8.42229ZM42.0329 14.1211L39.8341 10.4977H37.2712V14.0577C37.2712 14.128 37.2141 14.1834 37.1421 14.1834H34.3055C34.2887 14.1839 34.272 14.181 34.2563 14.1749C34.2407 14.1687 34.2264 14.1596 34.2144 14.1478C34.2023 14.1361 34.1928 14.1221 34.1862 14.1066C34.1797 14.0911 34.1763 14.0745 34.1763 14.0577V3.43314C34.1763 3.36229 34.2335 3.30743 34.3055 3.30743H39.8809C43.2032 3.30743 44.8672 4.51029 44.8672 6.91772C44.8668 7.63772 44.7049 8.23943 44.3815 8.72286C44.0577 9.2059 43.5624 9.59448 42.8958 9.88857L45.5072 13.992C45.5621 14.0754 45.4998 14.1834 45.3992 14.1834H42.1415C42.119 14.1839 42.0968 14.1783 42.0772 14.1672C42.0576 14.1562 42.0413 14.1401 42.0301 14.1206L42.0329 14.1211ZM39.6786 8.18114C40.3872 8.18152 40.9034 8.08 41.2272 7.87657C41.5495 7.67257 41.7129 7.34286 41.7129 6.88743C41.7129 6.43143 41.5575 6.11943 41.2523 5.92057C40.9445 5.7221 40.4314 5.62305 39.7129 5.62343H37.274V8.18114H39.6821H39.6786ZM46.0632 14.0554V3.43257C46.0632 3.36229 46.1198 3.30686 46.1918 3.30686H49.2146C49.2314 3.3064 49.2481 3.30931 49.2638 3.31542C49.2794 3.32154 49.2937 3.33072 49.3057 3.34244C49.3178 3.35416 49.3274 3.36818 49.3339 3.38366C49.3404 3.39914 49.3438 3.41577 49.3438 3.43257V14.0554C49.3438 14.0722 49.3404 14.0889 49.3339 14.1043C49.3274 14.1198 49.3178 14.1338 49.3057 14.1456C49.2937 14.1573 49.2794 14.1665 49.2638 14.1726C49.2481 14.1787 49.2314 14.1816 49.2146 14.1811H46.1918C46.175 14.1816 46.1583 14.1787 46.1426 14.1726C46.127 14.1665 46.1127 14.1573 46.1006 14.1456C46.0886 14.1338 46.079 14.1198 46.0725 14.1043C46.066 14.0889 46.0632 14.0722 46.0632 14.0554ZM50.3261 14.0829L49.8843 12.0589C49.8777 12.0279 49.879 11.9957 49.8881 11.9653C49.8972 11.935 49.9138 11.9074 49.9363 11.8851L56.2066 5.80457H50.0215C49.9386 5.80457 49.8763 5.73143 49.8946 5.65371L50.3855 3.408C50.3919 3.37918 50.408 3.35342 50.431 3.33502C50.4541 3.31662 50.4828 3.30668 50.5123 3.30686H59.8078C59.8701 3.30686 59.9215 3.34971 59.9346 3.40743L60.3763 5.432C60.383 5.46299 60.3817 5.49516 60.3726 5.52552C60.3635 5.55588 60.3469 5.58346 60.3243 5.60571L54.0546 11.6857H60.2392C60.3221 11.6857 60.3843 11.7589 60.3661 11.8371L59.8752 14.0829C59.8687 14.1116 59.8526 14.1372 59.8295 14.1555C59.8064 14.1738 59.7778 14.1836 59.7483 14.1834H50.4529C50.4235 14.1836 50.3948 14.1738 50.3718 14.1555C50.3487 14.1372 50.3326 14.1116 50.3261 14.0829ZM60.9135 14.0554V3.43257C60.9135 3.41577 60.9168 3.39914 60.9234 3.38366C60.9299 3.36818 60.9395 3.35416 60.9515 3.34244C60.9635 3.33072 60.9778 3.32154 60.9935 3.31542C61.0091 3.30931 61.0258 3.3064 61.0426 3.30686H70.3689C70.4312 3.30686 70.4826 3.34971 70.4958 3.40743L70.9763 5.608C70.9946 5.68629 70.9323 5.75943 70.8495 5.75943H64.1323V7.41829H70.1781C70.2501 7.41829 70.3072 7.47371 70.3072 7.544V9.74514C70.3072 9.81543 70.2501 9.87086 70.1781 9.87086H64.1323V11.7286H70.8495C70.9323 11.7286 70.9946 11.8017 70.9763 11.88L70.4958 14.08C70.4894 14.1088 70.4733 14.1346 70.4502 14.153C70.4271 14.1714 70.3984 14.1813 70.3689 14.1811H61.0426C61.0258 14.1816 61.0091 14.1787 60.9935 14.1726C60.9778 14.1665 60.9635 14.1573 60.9515 14.1456C60.9395 14.1338 60.9299 14.1198 60.9234 14.1043C60.9168 14.0889 60.9135 14.0722 60.9135 14.0554ZM71.5272 14.0554V3.43257C71.5272 3.41577 71.5306 3.39914 71.5371 3.38366C71.5436 3.36818 71.5532 3.35416 71.5652 3.34244C71.5773 3.33072 71.5915 3.32154 71.6072 3.31542C71.6228 3.30931 71.6395 3.3064 71.6563 3.30686H77.0609C78.7276 3.30686 79.9756 3.61657 80.8049 4.236C81.6342 4.85543 82.0485 5.79448 82.0478 7.05314C82.0478 8.312 81.6238 9.26629 80.7735 9.88571C79.924 10.5051 78.6245 10.8149 76.8752 10.8149H74.718V14.0549C74.718 14.1257 74.6609 14.1806 74.5889 14.1806H71.6586C71.6418 14.181 71.6251 14.1781 71.6095 14.172C71.5938 14.1659 71.5795 14.1567 71.5675 14.145C71.5555 14.1333 71.5459 14.1193 71.5394 14.1038C71.5328 14.0883 71.5295 14.0717 71.5295 14.0549L71.5272 14.0554ZM76.8106 8.42286C77.5192 8.42286 78.0323 8.31371 78.35 8.09543C78.6685 7.87638 78.828 7.524 78.8283 7.03829C78.8283 6.55257 78.6735 6.23029 78.3603 6.01886C78.0472 5.80514 77.5419 5.69848 76.8443 5.69886H74.718V8.42572H76.8129L76.8106 8.42286ZM82.5609 14.0554V3.43257C82.5609 3.36229 82.618 3.30686 82.6906 3.30686H85.7129C85.7855 3.30686 85.8426 3.36229 85.8426 3.43257V14.0554C85.8426 14.1257 85.7855 14.1811 85.7129 14.1811H82.6906C82.6738 14.1817 82.657 14.1788 82.6413 14.1727C82.6256 14.1667 82.6112 14.1575 82.5991 14.1458C82.587 14.134 82.5774 14.12 82.5708 14.1045C82.5643 14.089 82.5609 14.0723 82.5609 14.0554ZM98.6546 10.1606C98.7323 10.1606 98.7941 10.228 98.7838 10.3034C98.6135 11.5949 98.0192 12.6051 97.0038 13.3274C95.9523 14.0777 94.5438 14.4554 92.7849 14.4554C91.4718 14.455 90.3358 14.2318 89.3769 13.7857C88.4186 13.34 87.6769 12.6829 87.15 11.8217C86.6226 10.9589 86.362 9.93372 86.362 8.74514C86.362 7.61752 86.6169 6.62229 87.1266 5.75943C87.6379 4.89657 88.375 4.2261 89.3381 3.748C90.3021 3.26914 91.4569 3.03257 92.8003 3.03257C94.4144 3.03257 95.7036 3.35238 96.6678 3.992C97.5946 4.60838 98.2259 5.52571 98.5615 6.744C98.566 6.76178 98.5667 6.78033 98.5634 6.79838C98.5601 6.81643 98.5529 6.83356 98.5424 6.84859C98.5319 6.86361 98.5182 6.87619 98.5024 6.88546C98.4865 6.89473 98.4689 6.90047 98.4506 6.90229L95.4175 7.23943C95.389 7.24303 95.3601 7.23677 95.3357 7.22169C95.3113 7.20662 95.2927 7.18364 95.2832 7.15657C95.0843 6.628 94.7975 6.24 94.4175 5.996C94.0163 5.73695 93.4721 5.60762 92.7849 5.608C91.8367 5.608 91.0969 5.88495 90.5655 6.43886C90.0333 6.99276 89.7672 7.76152 89.7672 8.74514C89.7672 9.72972 90.0358 10.5126 90.5729 11.0617C91.11 11.6103 91.868 11.8846 92.8466 11.8846C93.6062 11.885 94.203 11.7459 94.6369 11.4674C95.0453 11.2023 95.3219 10.8002 95.4666 10.2611C95.4738 10.2337 95.4899 10.2094 95.5123 10.192C95.5347 10.1747 95.5623 10.1652 95.5906 10.1651H98.6569L98.6546 10.1606ZM107.705 14.128L104.227 9.39714L102.603 10.8V14.0554C102.603 14.1257 102.545 14.1811 102.473 14.1811H99.4506C99.4338 14.1816 99.4171 14.1787 99.4015 14.1726C99.3858 14.1665 99.3715 14.1573 99.3595 14.1456C99.3475 14.1338 99.3379 14.1198 99.3314 14.1043C99.3248 14.0889 99.3215 14.0722 99.3215 14.0554V3.43257C99.3215 3.41577 99.3248 3.39914 99.3314 3.38366C99.3379 3.36818 99.3475 3.35416 99.3595 3.34244C99.3715 3.33072 99.3858 3.32154 99.4015 3.31542C99.4171 3.30931 99.4338 3.3064 99.4506 3.30686H102.473C102.545 3.30686 102.603 3.36229 102.603 3.43257V7.44857L107.16 3.34C107.184 3.31798 107.215 3.30611 107.248 3.30686H110.741C110.767 3.3061 110.792 3.31329 110.814 3.32744C110.835 3.34159 110.852 3.36203 110.861 3.38599C110.871 3.40994 110.873 3.43625 110.867 3.46134C110.861 3.48644 110.848 3.50911 110.828 3.52629L106.462 7.436L111.345 13.9846C111.407 14.068 111.345 14.1834 111.242 14.1834H107.811C107.79 14.1831 107.77 14.1782 107.752 14.1691C107.734 14.16 107.718 14.1469 107.705 14.1309V14.128Z" fill="var(--fill-0, #111111)" fill-opacity="0.4"/>
<path id="Vector_2" d="M118.316 6.57257C118.289 6.57462 118.263 6.56849 118.239 6.55502C118.216 6.54154 118.198 6.52135 118.187 6.49714C118.008 6.11391 117.75 5.83429 117.411 5.65829C117.047 5.4701 116.546 5.37619 115.911 5.37657C115.192 5.37619 114.647 5.45257 114.277 5.60571C113.908 5.75695 113.723 5.98019 113.722 6.27543C113.722 6.5501 113.821 6.75314 114.019 6.88457C114.218 7.01676 114.604 7.12838 115.177 7.21943L117.584 7.6C119.033 7.82362 120.078 8.2021 120.719 8.73543C121.359 9.26876 121.679 10.0122 121.68 10.9657C121.68 12.1143 121.204 12.9829 120.259 13.5691C119.311 14.1583 117.907 14.4531 116.055 14.4531C114.202 14.4531 112.788 14.1333 111.813 13.4937C110.875 12.8773 110.33 11.96 110.18 10.7417C110.169 10.6663 110.232 10.6006 110.309 10.6006H113.345C113.404 10.6006 113.453 10.6411 113.469 10.6989C113.585 11.167 113.839 11.5154 114.228 11.744C114.644 11.9878 115.254 12.1095 116.057 12.1091C116.808 12.1091 117.385 12.0177 117.791 11.8349C118.197 11.6509 118.401 11.3937 118.401 11.0566C118.401 10.8029 118.289 10.6048 118.065 10.4623C117.84 10.3211 117.453 10.208 116.9 10.1274L114.916 9.83771C113.384 9.61371 112.265 9.22343 111.555 8.66457C110.846 8.1061 110.492 7.34 110.492 6.36629C110.493 5.32095 110.983 4.50343 111.963 3.91371C112.942 3.32476 114.296 3.03029 116.027 3.03029C117.631 3.03029 118.874 3.29962 119.755 3.83829C120.597 4.3541 121.127 5.12038 121.346 6.13714C121.35 6.15483 121.349 6.17309 121.345 6.19069C121.341 6.20829 121.334 6.22481 121.323 6.23912C121.312 6.25343 121.298 6.26521 121.282 6.27365C121.266 6.28208 121.248 6.28698 121.23 6.288L118.323 6.57029L118.316 6.57257Z" fill="var(--fill-0, #111111)" fill-opacity="0.4"/>
</g>
</svg>
