<svg preserveAspectRatio="none" width="100%" height="100%" overflow="visible" style="display: block;" viewBox="0 0 120.917 27.9576" fill="none" xmlns="http://www.w3.org/2000/svg">
<path id="Vector" d="M10.6652 2.2415C10.9343 2.70979 10.9343 3.27872 10.6652 3.73653L2.98875 17.0737L6.60925 23.3634C7.02682 24.0928 7.7158 24.6275 8.52597 24.851C9.33615 25.0745 10.2018 24.9687 10.9343 24.5565C11.4375 24.2787 11.8528 23.8653 12.133 23.3634L15.7521 17.073L14.7778 15.3788L10.6652 22.5149C10.5672 22.6848 10.4368 22.8337 10.2813 22.9532C10.1257 23.0726 9.94821 23.1602 9.75881 23.2111C9.56942 23.2619 9.37187 23.2749 9.17745 23.2493C8.98302 23.2238 8.79554 23.1602 8.62569 23.0622C8.40074 22.9275 8.21214 22.7399 8.07633 22.5156L4.94997 17.0737L12.0764 4.69547L13.3652 6.93697C13.6343 7.40526 13.6343 7.9735 13.3652 8.43061L8.39015 17.0625L9.36447 18.7574L14.7659 9.37907L18.3179 15.5353C18.5875 16.0013 18.7294 16.5301 18.7294 17.0684C18.7294 17.6068 18.5875 18.1356 18.3179 18.6016L14.71 24.8571C14.1606 25.8174 12.458 27.9576 9.35399 27.9576C6.25 27.9576 4.56905 25.8167 4.0085 24.8578L0.41176 18.6023C0.14203 18.1362 0 17.6073 0 17.0688C0 16.5303 0.14203 16.0014 0.41176 15.5353L9.37635 0L10.6652 2.2415ZM38.0517 10.7728C40.9426 10.7728 43.2952 12.7913 43.2952 16.0365C43.2952 17.319 42.8136 19.1258 41.1103 19.9065C42.8248 20.7648 43.2504 22.0033 43.2504 23.3299C43.2504 26.1851 41.0656 27.9576 38.0622 27.9576C35.0596 27.9576 32.8181 26.1291 32.8181 23.3299H35.3622C35.3622 24.6788 36.6063 25.5602 38.0741 25.5602C39.5419 25.5602 40.6951 24.7571 40.6951 23.3299C40.6951 21.9027 39.3511 21.245 38.0741 21.245C34.8464 21.245 32.8293 19.2481 32.8293 16.0253C32.8293 12.8025 35.1602 10.7839 38.0517 10.7728ZM79.9713 10.7728C83.1424 10.7728 85.249 13.1373 85.249 16.1707C85.249 19.1817 83.3332 21.6461 80.0272 21.6461C78.9516 21.6461 77.3608 21.289 76.6325 20.163V25.672L74.0883 25.9509V11.0069H76.5535L76.6325 12.4229C77.4279 11.2746 78.8062 10.7728 79.9713 10.7728ZM68.2277 10.7734C69.8528 10.7734 71.0745 11.0859 72.2844 12.1336L70.8502 13.8068C70.1107 13.1149 69.2699 12.8815 68.2732 12.8815C67.0514 12.8815 66.379 13.2603 66.379 13.9075C66.379 14.8105 67.4659 14.9776 68.1606 15.0223C69.3481 15.1006 70.5811 15.1782 71.612 15.8254C72.4409 16.3496 72.7771 17.2862 72.766 18.2563C72.766 19.9848 71.4107 21.1331 69.8304 21.4903C67.735 21.9586 65.4152 21.5127 63.7454 20.1413L63.5889 20.019L64.877 18.3681C65.4599 18.7476 66.0205 19.0817 66.6929 19.2607C67.3267 19.415 67.9797 19.475 68.631 19.4389C69.2475 19.4165 70.0876 19.2152 70.2225 18.5023C70.4126 17.4986 69.2251 17.3085 68.4968 17.2303C67.3988 17.1079 66.1659 17.0297 65.202 16.4279C64.3619 15.9037 63.8349 14.9888 63.8349 13.9963C63.8349 11.6101 66.3343 10.7741 68.2277 10.7741M60.1829 11.0202H62.4461L62.2106 13.2386H60.1599V18.3353C60.1599 18.7812 60.2382 19.1041 60.3947 19.3166C60.5513 19.5291 60.7875 19.629 61.1125 19.629C61.4895 19.6156 61.8564 19.5041 62.177 19.3054L63.0507 20.9339C62.6926 21.1721 62.2995 21.3527 61.8856 21.4693C61.4635 21.5929 61.0261 21.6565 60.5862 21.658C59.611 21.6473 58.8713 21.3687 58.3671 20.8221C57.8632 20.2755 57.6164 19.4731 57.6164 18.4024L57.6053 13.2498H55.6664V11.0293H57.6053V8.45367L60.1829 8.17409V11.0202ZM120.917 6.48056V21.3799H118.451L118.362 19.9967C117.567 21.1457 116.188 21.6475 115.022 21.6475C111.851 21.6587 109.745 19.2942 109.745 16.2615C109.745 13.2393 111.65 10.7965 114.944 10.7965C116.031 10.7965 117.644 11.1313 118.372 12.2573V6.47917L120.917 6.48056ZM91.5919 10.7511C94.7294 10.7406 97.3288 12.8933 97.0492 17.1086L88.5997 17.131C88.8912 18.3576 90.0116 19.4284 91.8155 19.4284C92.757 19.4284 94.0011 18.9706 94.5833 18.3576L96.2196 19.9631C95.1215 21.0898 93.3392 21.6364 91.7708 21.6364C88.5438 21.6364 86.2017 19.4836 86.2017 16.1825C86.2017 13.038 88.6228 10.7623 91.5919 10.7511ZM103.402 10.7518C106.539 10.7413 109.139 12.894 108.859 17.1093L100.41 17.1317C100.702 18.3583 101.822 19.4291 103.626 19.4291C104.567 19.4291 105.812 18.9713 106.395 18.3583L108.03 19.9638C106.943 21.0905 105.151 21.6371 103.581 21.6371C100.354 21.6371 98.013 19.4843 98.013 16.1832C98.013 13.0387 100.433 10.7637 103.402 10.7525M26.7226 6.4575V21.3903H24.2009V6.4568L26.7226 6.4575ZM47.4755 6.4575V12.3125C48.3939 11.1194 49.5255 10.763 50.6907 10.763C53.6157 10.763 54.9157 12.748 54.9046 15.7918V21.3903H52.3604V15.9708C52.3604 14.0857 51.3749 13.2938 50.019 13.2938C48.517 13.2938 47.4755 14.5652 47.4748 16.1154V21.3896H44.9314V6.4575H47.4755ZM31.3615 11.0293V21.3785H28.8174V11.0293H31.3615ZM115.213 12.9807C113.488 12.9807 112.288 14.5757 112.288 16.193C112.289 17.8097 113.376 19.5381 115.213 19.5381C117.051 19.5381 118.138 17.8097 118.138 16.193C118.138 14.5764 116.95 12.9807 115.213 12.9807ZM79.7812 12.8912C77.943 12.8912 76.8561 14.6316 76.8561 16.2371C76.8561 17.8432 78.0443 19.4382 79.7812 19.4382C81.5181 19.4382 82.7056 17.8544 82.7056 16.2371C82.7056 14.6197 81.6187 12.8912 79.7812 12.8912ZM38.0622 12.8912C36.5833 12.8912 35.3503 14.2304 35.3503 16.0365C35.3503 17.8425 36.5721 19.1258 38.0622 19.1258C39.5412 19.1146 40.7517 17.8097 40.7517 16.0253C40.7517 14.2409 39.5412 12.8912 38.0622 12.8912ZM91.6254 12.8912C90.9424 12.8969 90.2793 13.1224 89.7343 13.5343C89.1894 13.9462 88.7916 14.5226 88.5997 15.1782H94.6169C94.3254 13.9515 93.0932 12.8912 91.6254 12.8912ZM103.435 12.8912C102.752 12.8971 102.09 13.1226 101.545 13.5345C101 13.9464 100.602 14.5227 100.41 15.1782H106.428C106.137 13.9515 104.904 12.8912 103.435 12.8912ZM30.0957 6.23454C30.9135 6.24572 31.5858 6.91531 31.5747 7.72957C31.571 8.02275 31.4811 8.30835 31.316 8.55064C31.1509 8.79294 30.918 8.98117 30.6464 9.0918C30.3749 9.20242 30.0768 9.23053 29.7894 9.1726C29.502 9.11466 29.238 8.97327 29.0305 8.7661C28.7621 8.4984 28.6049 8.10839 28.5937 7.7065C28.5956 7.51121 28.636 7.31821 28.7125 7.13853C28.789 6.95885 28.9002 6.79601 29.0397 6.65932C29.1792 6.52262 29.3443 6.41475 29.5255 6.34186C29.7066 6.26898 29.9004 6.23251 30.0957 6.23454Z" fill="var(--fill-0, #111111)" fill-opacity="0.6"/>
</svg>
