<svg preserveAspectRatio="none" width="100%" height="100%" overflow="visible" style="display: block;" viewBox="0 0 111.54 24" fill="none" xmlns="http://www.w3.org/2000/svg">
<path id="Vector" d="M17.9747 7.18H20.8147V17.5333H17.9827V23.9267L11.0587 17.888V23.996H9.71733V17.9867L2.84 24V17.5333H0V7.18H2.832V0L9.71733 6.29733V0.0133333H11.0587V6.32267L17.9733 0L17.9747 7.18ZM4.18 14.3667V21.0667L9.71733 16.2253V9.372L4.18 14.3667ZM11.096 16.1627L16.6427 20.9987V17.5333H16.636V14.36L11.096 9.36667V16.1627ZM31.8987 6.784C32.736 6.784 33.5191 6.984 34.248 7.384C34.9751 7.784 35.568 8.38711 36.0267 9.19333H36.0253C36.4813 9.99867 36.7098 10.9689 36.7107 12.104C36.7107 13.2391 36.4822 14.2098 36.0253 15.016C35.5667 15.8222 34.9738 16.4253 34.2467 16.8253C33.5178 17.2253 32.7347 17.4253 31.8973 17.4253C30.2476 17.4253 29.0876 16.7671 28.4173 15.4507C28.3658 15.3476 28.3013 15.296 28.224 15.296C28.1476 15.296 28.1089 15.3347 28.108 15.412V20.8093H26.3693V7.076H28.1093V8.796C28.1093 8.87333 28.148 8.91289 28.2253 8.91467C28.3027 8.91467 28.3671 8.86267 28.4187 8.75867C29.0889 7.44311 30.2489 6.78489 31.8987 6.784ZM61.1893 6.77067C62.0249 6.77067 62.8071 6.97067 63.536 7.37067C64.2649 7.77067 64.8582 8.37333 65.316 9.17867C65.7738 9.984 66.0027 10.9542 66.0027 12.0893C66.0027 13.2244 65.7738 14.1951 65.316 15.0013C64.8591 15.8076 64.2658 16.4102 63.536 16.8093C62.8071 17.2093 62.0249 17.4093 61.1893 17.4093C59.5396 17.4093 58.3796 16.7516 57.7093 15.436C57.6578 15.3329 57.5933 15.2809 57.516 15.28C57.4387 15.28 57.3996 15.3191 57.3987 15.3973V20.796H55.66V7.06H57.3987V8.78267C57.3987 8.85911 57.4378 8.89778 57.516 8.89867C57.5933 8.89867 57.6578 8.84711 57.7093 8.744C58.3796 7.42844 59.5396 6.77067 61.1893 6.77067ZM103.527 7.05867L106.407 15.5C106.447 15.604 106.508 15.74 106.705 15.74C106.903 15.74 106.964 15.604 107.003 15.5L109.883 7.05867H111.54V7.44533L107.937 18.2987C107.628 19.2276 107.193 19.876 106.633 20.244C106.072 20.6107 105.42 20.7947 104.337 20.7947H102.48V19.248H103.893C104.343 19.248 104.71 19.264 104.993 19.296C105.277 19.328 105.457 19.344 105.535 19.344C105.753 19.344 105.901 19.2471 105.979 19.0533L106.52 17.584C106.584 17.4293 106.59 17.3133 106.539 17.236C106.512 17.1827 106.48 17.1507 106.443 17.14C106.386 17.1258 106.328 17.119 106.269 17.12H105.088L101.752 7.05867H103.527ZM43.0173 6.76667C44.0467 6.76667 44.9013 6.98 45.616 7.40533C46.3316 7.832 46.8662 8.39645 47.22 9.09867C47.5738 9.80089 47.7507 10.5711 47.7507 11.4093V12.5693H39.7307C39.7947 13.5764 40.1324 14.3764 40.744 14.9693C41.3573 15.5631 42.1796 15.86 43.2107 15.86C44.048 15.86 44.6893 15.6889 45.1347 15.3467C45.5791 15.0044 45.9044 14.5298 46.1107 13.9227L46.112 13.9253H47.948C47.7022 14.8712 47.1811 15.7228 46.4507 16.372C45.696 17.0627 44.616 17.408 43.2107 17.408C42.1547 17.408 41.224 17.1916 40.4187 16.7587C39.6284 16.3405 38.9794 15.698 38.5533 14.912C38.1142 14.112 37.8951 13.1702 37.896 12.0867C37.896 11.004 38.108 10.0627 38.532 9.26267C38.9569 8.46267 39.5529 7.84711 40.32 7.416C41.0871 6.98311 41.9862 6.76667 43.0173 6.76667ZM75.6707 6.76667C76.7027 6.76667 77.556 6.98 78.272 7.40533C78.9867 7.832 79.5209 8.39645 79.8747 9.09867C80.2302 9.80089 80.4076 10.5711 80.4067 11.4093V12.5693H72.3853C72.4502 13.5764 72.788 14.3764 73.3987 14.9693C74.012 15.5631 74.8342 15.86 75.8653 15.86C76.7018 15.86 77.3427 15.6889 77.788 15.3467C78.2324 15.0044 78.5573 14.5298 78.7627 13.9227H80.6V13.9253C80.3539 14.8714 79.8323 15.7229 79.1013 16.372C78.3476 17.0627 77.2684 17.408 75.864 17.408C74.8062 17.408 73.8751 17.1916 73.0707 16.7587C72.2799 16.3407 71.6304 15.6982 71.204 14.912C70.7667 14.112 70.548 13.1702 70.548 12.0867C70.548 11.004 70.7609 10.0627 71.1867 9.26267C71.6116 8.46267 72.2071 7.84711 72.9733 7.416C73.7396 6.98311 74.6387 6.76667 75.6707 6.76667ZM54.5973 8.76133H53.496C52.6338 8.76133 51.9893 8.968 51.5627 9.38133C51.1378 9.79467 50.9249 10.472 50.924 11.4133V17.12H49.1867V7.06267H50.9253V8.66667C50.9253 8.75733 50.9707 8.80267 51.0613 8.80267C51.112 8.80267 51.1511 8.78933 51.1787 8.76267C51.2154 8.71737 51.2418 8.66458 51.256 8.608C51.5929 7.552 52.424 7.024 53.7493 7.024L54.5987 7.02267L54.5973 8.76133ZM69.1467 3.19067V17.12H67.4067V3.19067H69.1467ZM93.792 7.06V17.12H92.052V7.06H93.792ZM83.2533 7.05867L85.98 10.812L88.9187 7.05867H90.8707V7.46533L87.1187 12.088L90.5813 16.732V17.1187H88.704L85.748 13.0747L82.5773 17.1187H80.624V16.732L84.6053 11.7987L81.3387 7.44533V7.05867H83.2533ZM98.608 4.35067V7.05867H100.599L101.088 8.532H98.608V13.3453C98.6071 14.0031 98.5907 14.4898 98.5587 14.8053C98.5363 14.9959 98.5199 15.1871 98.5093 15.3787C98.5093 15.4693 98.5351 15.5404 98.5867 15.592C98.6153 15.6184 98.6489 15.6389 98.6856 15.6521C98.7222 15.6654 98.7611 15.6713 98.8 15.6693C98.8649 15.6693 99.0551 15.6533 99.3707 15.6213L99.372 15.62C99.6884 15.588 100.175 15.572 100.832 15.572H101.509V17.1187H100.156C99.0476 17.1178 98.2227 16.8467 97.6813 16.3053C97.14 15.764 96.8689 14.9382 96.868 13.828V8.53067H94.976V7.05733H96.8693V4.35067H98.608ZM1.34133 16.22H2.84V13.7827L8.70667 8.49333H1.34L1.34133 16.22ZM17.984 13.7267V16.22H19.4747V8.49333H12.1627L17.984 13.7267ZM31.4933 8.33333C30.4489 8.33333 29.608 8.66533 28.9707 9.32933C28.332 9.996 28.0973 10.92 28.0973 12.1053C28.0973 13.292 28.3333 14.2173 28.9707 14.8813C29.608 15.5462 30.4489 15.8782 31.4933 15.8773C32.5387 15.8773 33.38 15.5453 34.0173 14.8813C34.6547 14.2173 34.9729 13.292 34.972 12.1053C34.9711 10.9187 34.6529 9.99333 34.0173 9.32933C33.3782 8.66622 32.5369 8.33422 31.4933 8.33333ZM60.7853 8.32C59.7409 8.32089 58.9 8.65244 58.2627 9.31467C57.624 9.97867 57.3907 10.9053 57.3907 12.0907C57.3907 13.2773 57.6253 14.2027 58.2627 14.8667C58.9 15.5316 59.7409 15.864 60.7853 15.864C61.8298 15.864 62.6707 15.5316 63.308 14.8667C63.9453 14.2018 64.2644 13.2764 64.2653 12.0907C64.2662 10.9049 63.9471 9.97956 63.308 9.31467C62.6689 8.64978 61.828 8.31911 60.7853 8.32ZM42.96 8.31333C42.0578 8.31333 41.32 8.55556 40.7467 9.04C40.1733 9.52356 39.8222 10.2169 39.6933 11.12H45.7627C45.7627 10.2427 45.5369 9.55556 45.0853 9.05867C44.6347 8.56267 43.9262 8.31422 42.96 8.31333ZM75.656 8.31333C74.7538 8.31333 74.016 8.55556 73.4427 9.04C72.8684 9.52356 72.5173 10.2169 72.3893 11.12H78.4587C78.4587 10.2427 78.2333 9.55556 77.7827 9.05867C77.3302 8.56267 76.6213 8.31422 75.656 8.31333ZM4.17333 7.18H8.72L4.17333 3.02267V7.18ZM12.0893 7.18H16.636V3.02267L12.0893 7.18ZM93.8987 3.784V5.96H91.8667V3.784H93.8987Z" fill="var(--fill-0, #111111)" fill-opacity="0.4"/>
</svg>
