<svg preserveAspectRatio="none" width="100%" height="100%" overflow="visible" style="display: block;" viewBox="0 0 107.308 23.072" fill="none" xmlns="http://www.w3.org/2000/svg">
<path id="Vector" d="M22.9051 0.136607V11.6177C22.9051 17.9417 17.7759 23.072 11.4525 23.072C5.12914 23.072 0 17.9417 0 11.6177C0 5.26636 5.12914 0.136607 11.4525 0.136607H22.9051ZM8.84728 5.86318V14.2235H17.1791L22.9051 8.46904H14.5739V0.136607L8.84728 5.86318ZM94.9875 7.4375L97.4294 0.136607H99.3838L95.8824 10.5321H91.3507V8.98511H94.5261L94.9875 7.5735H93.1691L90.4279 0.136H92.4909L94.9875 7.4375ZM41.0611 0.000607388C43.6396 0.000607388 45.4853 1.52089 45.4853 4.28946C45.4853 6.94875 43.8023 8.63236 41.0617 8.63236C38.4831 8.63236 36.638 7.11207 36.6374 4.3435C36.6374 1.54882 38.3198 0.000607388 41.0611 0.000607388ZM68.391 0.000607388C71.431 0.000607388 72.706 1.87364 72.6792 4.83225H65.9491C66.1118 6.29789 67.0346 7.13939 68.4456 7.13939C69.7213 7.13939 70.4541 6.65064 70.7255 5.80975H72.6525C72.2178 7.51947 70.7522 8.63236 68.391 8.63236C65.569 8.63236 64.0493 6.78664 64.0493 4.3435C64.0493 1.76496 65.6771 0.000607388 68.391 0.000607388ZM31.7524 0.000607388C34.4116 0.000607388 35.7419 1.38489 36.0133 3.42064H34.0595C33.8695 2.19907 33.1366 1.49357 31.725 1.49357C30.0159 1.49357 29.1471 2.44375 29.1471 4.28946C29.1471 6.13518 30.1246 7.08475 31.725 7.08475C33.1907 7.08475 33.9235 6.35193 34.1135 5.15768H36.0679C35.7965 7.27479 34.3036 8.60504 31.6983 8.60504C28.8757 8.60504 27.248 6.92204 27.248 4.31618C27.248 1.62896 28.8751 0.000607388 31.7524 0.000607388ZM59.3264 0.000607388C61.9862 0.000607388 62.9905 1.08618 63.2892 2.65989H61.3348C61.2261 1.955 60.7374 1.46625 59.2996 1.46625C57.8886 1.46625 57.4272 1.90096 57.4272 2.49839C57.4272 2.98654 57.6986 3.28525 58.4314 3.36661L60.928 3.66471C62.7464 3.85475 63.3438 4.72357 63.3438 5.99918C63.3438 7.49214 62.2036 8.60504 59.517 8.60504C56.8304 8.60504 55.5815 7.60082 55.3641 5.91782H57.3185C57.4539 6.75932 58.1054 7.16671 59.5437 7.16671C60.982 7.16671 61.5254 6.70529 61.5254 6.10786C61.5254 5.64643 61.3075 5.321 60.5206 5.21232L58.1054 4.94093C56.2603 4.72357 55.5821 3.93611 55.5821 2.63379C55.5815 1.14082 56.6671 0.000607388 59.3264 0.000607388ZM86.411 0.000607388C89.0703 0.000607388 90.0745 1.08618 90.3732 2.65989H88.4194C88.3114 1.955 87.822 1.46625 86.3843 1.46625C84.9727 1.46625 84.5113 1.90096 84.5113 2.49839C84.5113 2.98654 84.7826 3.28525 85.5155 3.36661L88.0126 3.66471C89.8304 3.85475 90.4279 4.72357 90.4279 5.99918C90.4279 7.49214 89.2876 8.60504 86.601 8.60504C83.9144 8.60504 82.6655 7.60082 82.4482 5.91782H84.4026C84.5386 6.75932 85.19 7.13939 86.6284 7.16671C88.0667 7.16671 88.6095 6.70529 88.6095 6.10786C88.6095 5.64643 88.3921 5.321 87.6053 5.21232L85.19 4.94093C83.3449 4.72357 82.6661 3.93611 82.6661 2.63379C82.6661 1.14082 83.7511 0.000607388 86.411 0.000607388ZM103.319 0.000607388C105.979 0.000607388 106.983 1.08618 107.254 2.65989H105.3C105.191 1.955 104.676 1.46625 103.265 1.46625C101.853 1.46625 101.392 1.90096 101.392 2.49839C101.392 2.98654 101.664 3.28525 102.396 3.36661L104.893 3.66471C106.711 3.85475 107.308 4.72357 107.308 5.99918C107.308 7.49214 106.168 8.60504 103.481 8.60504C100.795 8.60504 99.5465 7.60082 99.3292 5.91782H101.311C101.446 6.75932 102.098 7.13939 103.536 7.16671C104.974 7.16671 105.517 6.70529 105.517 6.10786C105.517 5.64643 105.3 5.321 104.513 5.21232L102.098 4.94093C100.252 4.72357 99.5739 3.93611 99.5739 2.63379C99.5739 1.14082 100.659 0.000607388 103.319 0.000607388ZM51.5367 0.000607388C53.4638 0.000607388 54.5494 1.14021 54.5767 3.14864V8.46904H52.7043V3.39332C52.7043 2.06368 52.0255 1.43893 50.6691 1.43893C49.5835 1.43893 48.9041 1.87364 48.416 2.82321V8.46964H46.5436V0.136H48.416V2.36179C48.8774 0.896143 49.8276 0 51.5367 0M78.6226 0C80.5764 0 81.6613 1.16693 81.6619 3.14804V8.46843H79.7895V3.39271C79.7889 2.06307 79.1107 1.43832 77.7538 1.43832C76.6682 1.43832 75.99 1.87304 75.5013 2.82261V8.46904H73.6282V0.136H75.5013V2.36179C75.9627 0.895536 76.9129 0 78.6226 0ZM41.0617 1.52029C39.4874 1.52029 38.5372 2.3885 38.5372 4.28886C38.5372 6.16129 39.5414 7.11146 41.0611 7.11146C42.6627 7.11146 43.5856 6.21593 43.5856 4.34289C43.5856 2.41582 42.5814 1.51968 41.0617 1.51968M68.3904 1.46504C67.0881 1.46504 66.2199 2.17054 65.9758 3.50079H70.7249C70.5889 2.27921 69.8827 1.46504 68.3904 1.46504Z" fill="var(--fill-0, black)"/>
</svg>
