<svg preserveAspectRatio="none" width="100%" height="100%" overflow="visible" style="display: block;" viewBox="0 0 103.871 11.427" fill="none" xmlns="http://www.w3.org/2000/svg">
<path id="Vector" d="M67.506 0C70.7541 0 73.0332 2.37338 73.0332 5.7312C73.0332 9.05359 70.7364 11.427 67.506 11.427C64.2407 11.427 61.9434 9.05359 61.9434 5.7312C61.9434 2.37395 64.2585 0.000571349 67.506 0ZM98.9011 0C101.341 0 103.225 1.5295 103.871 3.90288H101.305C100.874 2.83046 100.049 2.21512 98.9011 2.21512C96.9985 2.21512 95.8323 3.53379 95.8323 5.7312C95.8323 7.89376 96.999 9.21186 98.9011 9.21186C100.049 9.21186 100.892 8.59652 101.305 7.52409H103.871C103.243 9.87976 101.359 11.4264 98.9011 11.427C95.6352 11.427 93.3378 9.05359 93.3373 5.7312C93.3373 2.37338 95.6529 0 98.9011 0ZM55.9773 0.205686C58.5433 0.205686 60.1042 1.47179 60.1042 3.5635C60.1042 5.02273 59.3506 6.07744 58.005 6.58708L60.6784 11.2464H58.005L55.582 6.92132H52.8903V11.2464H50.4678V0.205686H55.9773ZM7.07044 0.188545L11.5567 11.2459H9.04388L8.12915 8.92504H3.42752L2.51279 11.2459H0L4.50451 0.187974L7.07044 0.188545ZM47.5048 11.2459H45.0823V6.72763H39.771V11.2459H37.3485V0.205686H39.771V4.60107H45.0823V0.187974H47.5048V11.2459ZM21.1565 7.92289V0.188545H23.4893V11.2287H20.7445L15.6658 3.4938V11.2287H13.333V0.188545H16.0789L21.1565 7.92289ZM35.4173 2.31568H31.6316V11.2287H29.2091V2.31568H25.4227V0.187974H35.4179L35.4173 2.31568ZM80.8036 0.187974C83.3695 0.187974 84.9304 1.52436 84.9304 3.72177C84.9304 5.91917 83.3695 7.23785 80.8036 7.23785H77.7171V11.2281H75.2946V0.188545L80.8036 0.187974ZM92.8693 11.2281H90.4108L85.9069 0.187974H88.3654L92.8693 11.2281ZM67.506 2.21512C65.604 2.21512 64.4379 3.53379 64.4379 5.7312C64.4379 7.89318 65.6046 9.21186 67.506 9.21186C69.3903 9.21186 70.5393 7.89376 70.5393 5.7312C70.5393 3.53379 69.3903 2.21512 67.506 2.21512ZM4.25255 6.86876H7.33955L5.79633 2.98358L4.25255 6.86876ZM77.7171 5.093H80.6956C81.8983 5.093 82.5085 4.61878 82.5085 3.70463C82.5085 2.79047 81.88 2.31568 80.6956 2.31568H77.7171V5.093ZM52.8903 4.77648H55.8693C57.0537 4.77648 57.6817 4.35425 57.6817 3.54579C57.6817 2.73733 57.0537 2.31568 55.8693 2.31568H52.8903V4.77648Z" fill="var(--fill-0, white)" fill-opacity="0.4"/>
</svg>
