<svg preserveAspectRatio="none" width="100%" height="100%" overflow="visible" style="display: block;" viewBox="0 0 1057.68 521.85" fill="none" xmlns="http://www.w3.org/2000/svg">
<g id="Group">
<path id="Vector" d="M0.465937 9.0804e-09V521.85" stroke="var(--stroke-0, white)" stroke-opacity="0.1" stroke-width="0.925737"/>
<path id="Vector_2" d="M24.9277 9.0804e-09V521.85M49.3894 9.0804e-09V521.85M73.8511 9.0804e-09V521.85" stroke="var(--stroke-0, white)" stroke-opacity="0.05" stroke-width="0.925737"/>
<path id="Vector_3" d="M100.643 9.0804e-09V521.85" stroke="var(--stroke-0, white)" stroke-opacity="0.1" stroke-width="0.925737"/>
<path id="Vector_4" d="M127.434 9.0804e-09V521.85M154.225 9.0804e-09V521.85M181.017 9.0804e-09V521.85" stroke="var(--stroke-0, white)" stroke-opacity="0.05" stroke-width="0.925737"/>
<path id="Vector_5" d="M207.808 9.0804e-09V521.85" stroke="var(--stroke-0, white)" stroke-opacity="0.1" stroke-width="0.925737"/>
<path id="Vector_6" d="M234.6 9.0804e-09V521.85M261.391 9.0804e-09V521.85M288.182 9.0804e-09V521.85" stroke="var(--stroke-0, white)" stroke-opacity="0.05" stroke-width="0.925737"/>
<path id="Vector_7" d="M314.974 9.0804e-09V521.85" stroke="var(--stroke-0, white)" stroke-opacity="0.1" stroke-width="0.925737"/>
<path id="Vector_8" d="M341.765 9.0804e-09V521.85M368.557 9.0804e-09V521.85M395.348 9.0804e-09V521.85" stroke="var(--stroke-0, white)" stroke-opacity="0.05" stroke-width="0.925737"/>
<path id="Vector_9" d="M422.139 9.0804e-09V521.85" stroke="var(--stroke-0, white)" stroke-opacity="0.1" stroke-width="0.925737"/>
<path id="Vector_10" d="M448.931 9.0804e-09V521.85M475.722 9.0804e-09V521.85M502.514 9.0804e-09V521.85" stroke="var(--stroke-0, white)" stroke-opacity="0.05" stroke-width="0.925737"/>
<path id="Vector_11" d="M529.305 9.0804e-09V521.85" stroke="var(--stroke-0, white)" stroke-opacity="0.1" stroke-width="0.925737"/>
<path id="Vector_12" d="M556.096 9.0804e-09V521.85M582.888 9.0804e-09V521.85M609.679 9.0804e-09V521.85" stroke="var(--stroke-0, white)" stroke-opacity="0.05" stroke-width="0.925737"/>
<path id="Vector_13" d="M636.471 9.0804e-09V521.85" stroke="var(--stroke-0, white)" stroke-opacity="0.1" stroke-width="0.925737"/>
<path id="Vector_14" d="M663.262 9.0804e-09V521.85M690.053 9.0804e-09V521.85M716.845 9.0804e-09V521.85" stroke="var(--stroke-0, white)" stroke-opacity="0.05" stroke-width="0.925737"/>
<path id="Vector_15" d="M743.636 9.0804e-09V521.85" stroke="var(--stroke-0, white)" stroke-opacity="0.1" stroke-width="0.925737"/>
<path id="Vector_16" d="M770.428 9.0804e-09V521.85M797.219 9.0804e-09V521.85M824.01 9.0804e-09V521.85" stroke="var(--stroke-0, white)" stroke-opacity="0.05" stroke-width="0.925737"/>
<path id="Vector_17" d="M850.802 9.0804e-09V521.85" stroke="var(--stroke-0, white)" stroke-opacity="0.1" stroke-width="0.925737"/>
<path id="Vector_18" d="M877.593 9.0804e-09V521.85M904.385 9.0804e-09V521.85M931.176 9.0804e-09V521.85" stroke="var(--stroke-0, white)" stroke-opacity="0.05" stroke-width="0.925737"/>
<path id="Vector_19" d="M957.967 9.0804e-09V521.85" stroke="var(--stroke-0, white)" stroke-opacity="0.1" stroke-width="0.925737"/>
<path id="Vector_20" d="M984.759 9.0804e-09V521.85M1009.22 9.0804e-09V521.85M1033.68 9.0804e-09V521.85M0 25.6266H1057.68M0 51.7191H1057.68M0 77.8116H1057.68" stroke="var(--stroke-0, white)" stroke-opacity="0.05" stroke-width="0.925737"/>
<path id="Vector_21" d="M0 103.904H1057.68" stroke="var(--stroke-0, white)" stroke-opacity="0.1" stroke-width="0.925737"/>
<path id="Vector_22" d="M0 129.997H1057.68M0 156.089H1057.68M0 182.182H1057.68" stroke="var(--stroke-0, white)" stroke-opacity="0.05" stroke-width="0.925737"/>
</g>
</svg>
