<svg preserveAspectRatio="none" width="100%" height="100%" overflow="visible" style="display: block;" viewBox="0 0 24.223 24.234" fill="none" xmlns="http://www.w3.org/2000/svg">
<g id="Group">
<path id="Vector" d="M12.119 2.181C15.357 2.181 15.741 2.195 17.014 2.252C18.197 2.304 18.837 2.503 19.263 2.669C19.826 2.887 20.233 3.152 20.654 3.573C21.08 3.999 21.341 4.401 21.559 4.965C21.724 5.391 21.923 6.035 21.975 7.214C22.032 8.492 22.046 8.875 22.046 12.109C22.046 15.347 22.032 15.73 21.976 17.004C21.923 18.187 21.724 18.826 21.559 19.252C21.341 19.816 21.076 20.222 20.654 20.644C20.2647 21.0467 19.7891 21.3558 19.263 21.548C18.837 21.714 18.193 21.913 17.013 21.965C15.736 22.022 15.353 22.035 12.119 22.035C8.881 22.035 8.497 22.022 7.224 21.965C6.04 21.913 5.401 21.714 4.975 21.548C4.4493 21.3544 3.97365 21.0455 3.583 20.644C3.18014 20.2544 2.87103 19.7785 2.679 19.252C2.513 18.826 2.315 18.182 2.263 17.004C2.206 15.725 2.192 15.342 2.192 12.109C2.192 8.871 2.206 8.487 2.262 7.214C2.315 6.03 2.514 5.391 2.679 4.964C2.897 4.402 3.162 3.994 3.583 3.573C3.97255 3.17014 4.44853 2.86103 4.975 2.669C5.401 2.503 6.045 2.304 7.224 2.252C8.497 2.195 8.881 2.181 12.119 2.181ZM12.119 0C8.829 0 8.417 0.0140006 7.125 0.0700006C5.837 0.128001 4.951 0.336 4.185 0.634C3.385 0.947 2.708 1.359 2.035 2.036C1.41701 2.63956 0.939085 3.37146 0.634999 4.18C0.334999 4.952 0.127 5.832 0.0710001 7.12C0.0140001 8.417 0 8.829 0 12.119C0 15.409 0.0139997 15.821 0.0699997 17.114C0.127 18.401 0.336 19.286 0.634 20.054C0.947 20.854 1.358 21.53 2.035 22.203C2.63925 22.8197 3.37147 23.2962 4.18 23.599C4.951 23.897 5.832 24.106 7.12 24.162C8.412 24.219 8.824 24.234 12.114 24.234C15.404 24.234 15.816 24.219 17.109 24.162C18.396 24.106 19.281 23.897 20.049 23.599C20.8572 23.2961 21.589 22.8195 22.193 22.203C22.81 21.5989 23.2869 20.8666 23.59 20.058C23.888 19.286 24.096 18.406 24.153 17.118C24.21 15.826 24.223 15.414 24.223 12.124C24.223 8.834 24.21 8.422 24.153 7.129C24.096 5.842 23.888 4.956 23.59 4.189C23.2967 3.37532 22.822 2.63906 22.202 2.036C21.5981 1.41909 20.8663 0.942208 20.058 0.639C19.286 0.341 18.406 0.132 17.118 0.0760002C15.821 0.0140002 15.41 0 12.119 0Z" fill="var(--fill-0, #313130)"/>
<path id="Vector_2" d="M12.12 5.893C10.469 5.89326 8.88571 6.54916 7.7182 7.71649C6.55068 8.88382 5.89453 10.467 5.894 12.118C5.89453 13.7688 6.55055 15.3519 7.71785 16.5192C8.88514 17.6865 10.4682 18.3425 12.119 18.343C13.77 18.3427 15.3533 17.6868 16.5208 16.5195C17.6883 15.3522 18.3445 13.769 18.345 12.118C18.3445 10.4672 17.6885 8.88415 16.5212 7.71685C15.3539 6.54955 13.7708 5.89353 12.12 5.893ZM12.12 16.156C11.5843 16.1644 11.0523 16.0662 10.5549 15.867C10.0576 15.6679 9.60481 15.3717 9.223 14.9959C8.8412 14.62 8.53798 14.172 8.33101 13.6778C8.12404 13.1837 8.01745 12.6533 8.01745 12.1175C8.01745 11.5817 8.12404 11.0513 8.33101 10.5572C8.53798 10.063 8.8412 9.61496 9.223 9.23911C9.60481 8.86327 10.0576 8.56714 10.5549 8.36797C11.0523 8.1688 11.5843 8.07057 12.12 8.079C13.1801 8.09568 14.1911 8.5285 14.9348 9.28405C15.6786 10.0396 16.0954 11.0573 16.0954 12.1175C16.0954 13.1777 15.6786 14.1954 14.9348 14.9509C14.1911 15.7065 13.1801 16.1393 12.12 16.156ZM20.043 5.647C20.048 5.84109 20.0141 6.03421 19.9433 6.21499C19.8725 6.39576 19.7662 6.56052 19.6307 6.69955C19.4951 6.83858 19.3332 6.94905 19.1542 7.02446C18.9753 7.09987 18.7831 7.13869 18.589 7.13862C18.3948 7.13856 18.2027 7.09961 18.0238 7.02407C17.845 6.94854 17.683 6.83795 17.5476 6.69883C17.4122 6.55971 17.306 6.39488 17.2353 6.21405C17.1646 6.03323 17.1308 5.84008 17.136 5.646C17.1459 5.26711 17.3034 4.90707 17.5749 4.6426C17.8464 4.37813 18.2105 4.23013 18.5895 4.23013C18.9685 4.23013 19.3326 4.37813 19.6041 4.6426C19.8756 4.90707 20.0331 5.26811 20.043 5.647Z" fill="var(--fill-0, #313130)"/>
</g>
</svg>
