<svg preserveAspectRatio="none" width="100%" height="100%" overflow="visible" style="display: block;" viewBox="0 0 178.332 20.023" fill="none" xmlns="http://www.w3.org/2000/svg">
<g id="Group">
<path id="Vector" d="M43.6459 4.06659H50.1457V19.693H54.2923V4.06659H60.7922V0.333327H43.6459V4.06659ZM36.316 13.8847L27.6061 0.334994H22.9062V19.693H26.9145V6.14155L35.6277 19.693H40.3276V0.333327H36.3193V13.8847H36.316ZM77.3819 8.04818H68.2554V0.33166H64.1055V19.6913H68.2554V11.7831H77.3819V19.693H81.5318V0.333327H77.3819V8.04818ZM7.71652 0.333327L0 19.693H4.31492L5.89322 15.6264H13.9647L15.543 19.693H19.858L12.1414 0.333327H7.71652ZM7.2882 12.0331L9.92815 5.22824L12.5698 12.0331H7.2882ZM115.906 0C110.32 0 106.365 4.14992 106.365 10.0398C106.365 15.8747 110.32 20.023 115.906 20.023C121.466 20.023 125.393 15.8747 125.393 10.0398C125.393 4.14826 121.466 0 115.906 0ZM115.906 16.1514C112.643 16.1514 110.651 13.8281 110.651 10.0398C110.651 6.19488 112.643 3.87326 115.906 3.87326C119.143 3.87326 121.106 6.19488 121.106 10.0398C121.106 13.8281 119.143 16.1514 115.906 16.1514ZM173.907 13.1931C173.188 15.0747 171.75 16.153 169.785 16.153C166.522 16.153 164.53 13.8297 164.53 10.0415C164.53 6.19655 166.522 3.87493 169.785 3.87493C171.75 3.87493 173.188 4.95157 173.907 6.83321H178.303C177.227 2.68328 173.99 0 169.785 0C164.199 0 160.244 4.14992 160.244 10.0398C160.244 15.8747 164.199 20.023 169.785 20.023C174.017 20.023 177.252 17.313 178.332 13.1914L173.907 13.1931ZM147.464 0.333327L155.18 19.6913H159.414L151.697 0.333327H147.464ZM138.727 0.333327H129.269V19.693H133.418V12.6681H138.727C143.124 12.6681 145.807 10.3448 145.807 6.50155C145.807 2.65828 143.124 0.334994 138.727 0.334994V0.333327ZM138.532 8.93483H133.416V4.06826H138.532C140.581 4.06826 141.659 4.89658 141.659 6.50155C141.659 8.10485 140.581 8.93483 138.532 8.93483ZM103.191 6.22322C103.191 2.57329 100.508 0.33166 96.1099 0.33166H86.6517V19.6913H90.8016V12.1131H95.4182L99.5681 19.6913H104.158L99.5648 11.5365C101.87 10.6498 103.191 8.78317 103.191 6.22322ZM90.7983 4.06492H95.9149C97.9615 4.06492 99.0398 4.81158 99.0398 6.22322C99.0398 7.63319 97.9615 8.37984 95.9149 8.37984H90.7983V4.06492Z" fill="var(--fill-0, white)"/>
</g>
</svg>
