<svg preserveAspectRatio="none" width="100%" height="100%" overflow="visible" style="display: block;" viewBox="0 0 14 14" fill="none" xmlns="http://www.w3.org/2000/svg">
<path id="Vector" fill-rule="evenodd" clip-rule="evenodd" d="M2 0C1.46957 0 0.960859 0.210714 0.585786 0.585786C0.210714 0.960859 0 1.46957 0 2V11.5C0 12.163 0.263392 12.7989 0.732233 13.2678C1.20107 13.7366 1.83696 14 2.5 14H11.5C12.163 14 12.7989 13.7366 13.2678 13.2678C13.7366 12.7989 14 12.163 14 11.5V2C14 1.46957 13.7893 0.960859 13.4142 0.585786C13.0391 0.210714 12.5304 0 12 0H2ZM12 1.7H2C1.92044 1.7 1.84413 1.73161 1.78787 1.78787C1.73161 1.84413 1.7 1.92044 1.7 2V8.7C1.7 8.77956 1.73161 8.85587 1.78787 8.91213C1.84413 8.96839 1.92044 9 2 9H4.5C4.776 9 4.994 9.227 5.062 9.495C5.1718 9.92565 5.42192 10.3075 5.77286 10.5802C6.1238 10.8528 6.55557 11.0009 7 11.0009C7.44443 11.0009 7.8762 10.8528 8.22714 10.5802C8.57808 10.3075 8.8282 9.92565 8.938 9.495C9.006 9.227 9.224 9 9.5 9H12C12.0796 9 12.1559 8.96839 12.2121 8.91213C12.2684 8.85587 12.3 8.77956 12.3 8.7V2C12.3 1.92044 12.2684 1.84413 12.2121 1.78787C12.1559 1.73161 12.0796 1.7 12 1.7Z" fill="var(--fill-0, white)"/>
</svg>
