<svg preserveAspectRatio="none" width="100%" height="100%" overflow="visible" style="display: block;" viewBox="0 0 111.516 23.7656" fill="none" xmlns="http://www.w3.org/2000/svg">
<path id="Vector" opacity="0.01" d="M0.0274216 0L99.046 0.0274216L99.0195 5.29973L98.8833 5.21747L98.5286 4.80797L98.4473 4.78055L98.1475 4.37105L98.0122 4.28878L97.9848 4.20651L97.9025 4.17909L97.8211 4.0429L97.7398 4.01548L96.7864 2.95059L96.6502 2.86833L96.6237 2.78606L96.5414 2.75864L96.514 2.67637L96.3778 2.59502L96.3513 2.51276L96.2151 2.43049L96.1877 2.34914L96.1064 2.32172L96.0789 2.23945L95.9427 2.15719L95.9153 2.07584L95.834 2.04841L95.7517 1.91222L95.6704 1.8848L95.589 1.74769L95.5067 1.72027L95.4802 1.63891L95.3705 1.58407L95.1256 1.77602L94.8267 2.18552L94.6905 2.26779L94.6631 2.35005L94.5269 2.43141L94.4994 2.51367L94.4181 2.54109L94.3367 2.67729L94.2545 2.70471L94.227 2.78698L94.1457 2.8144L94.0643 2.95059L93.9821 2.97802L93.9007 3.11421L93.8194 3.14163L93.792 3.2239L93.7106 3.25132L93.6283 3.38752L93.547 3.41494L93.4647 3.55205L93.3834 3.57856L93.2746 3.79702L93.3559 3.93413L93.6558 4.12516L93.8459 4.37105L93.9282 4.39847L94.0095 4.53466L94.0918 4.56209L94.2819 4.80797L94.3632 4.83539L94.4455 4.9725L94.5269 4.99901L94.5543 5.08127L94.6905 5.16354L94.7179 5.24489L94.7992 5.27231L94.8806 5.40942L94.9629 5.43684L94.9894 5.5182L95.2892 5.70923L95.3166 5.7915L95.4528 5.87377L95.4802 5.95512L95.5616 5.98254L95.589 6.0648L95.7252 6.14707L95.7517 6.22842L95.8879 6.31069L95.9153 6.39295L96.5414 6.91123L96.6237 7.04834L96.7051 7.07576L96.7325 7.15711L96.8138 7.18453L96.8952 7.32164L96.9775 7.34906L96.95 7.43041H91.7225L91.6412 7.51268L91.6686 10.4898L97.0314 10.5172L96.95 10.6543L96.8687 10.6817L96.8413 10.7631L96.7051 10.8454L96.6776 10.9267L96.5414 11.009L96.514 11.0912L96.4327 11.1187L96.4053 11.2L96.2691 11.2823L96.2426 11.3645L96.1064 11.4459L96.0789 11.5282L95.834 11.7192L95.8065 11.8015L95.6704 11.8828L95.6429 11.9651L95.398 12.1561L95.3705 12.2384L95.0716 12.4294L95.0442 12.5117L94.9629 12.5391L94.8806 12.6753L94.7992 12.7027L94.7718 12.785L93.9821 13.4669L93.9007 13.604L93.8194 13.6314L93.792 13.7137L93.7106 13.7411L93.6283 13.8773L93.547 13.9047L93.4647 14.0409L93.3834 14.0683L93.3559 14.1506L93.2746 14.178L93.5744 14.5875L93.6558 14.6149L94.0095 15.0244L94.0918 15.0519L94.4455 15.4614L94.5269 15.4888L94.8806 15.8983L94.9629 15.9257L95.3166 16.3352L95.5616 16.2529L95.589 16.1716L95.6704 16.1442L95.6978 16.0619L95.834 15.9796L95.8614 15.8983L95.9967 15.816L96.0241 15.7338L96.1064 15.7063L96.1329 15.625L96.2691 15.5427L96.2965 15.4605L96.4327 15.3791L96.4601 15.2968L96.5414 15.2694L96.5689 15.1881L96.7051 15.1058L96.7325 15.0235L96.8687 14.9422L96.8952 14.8599L96.9775 14.8325L97.0049 14.7502L97.1402 14.6689L97.1676 14.5866L97.3038 14.5053L97.3312 14.423L97.4126 14.3956L97.44 14.3133L97.5762 14.232L97.6036 14.1497L97.7398 14.0674L97.7663 13.9861L97.8486 13.9586L97.876 13.8764L98.0122 13.795L98.0387 13.7128L98.1749 13.6305L98.2023 13.5491L98.2837 13.5217L98.3111 13.4395L98.4473 13.3572L98.4747 13.2758L98.6109 13.1936L98.6383 13.1113L98.7197 13.0839L98.7471 13.0025L98.8833 12.9203L98.9098 12.8389L99.046 12.7567L99.0734 12.6744L99.1557 12.647L99.1822 12.5656L99.3184 12.4834L99.3458 12.4011L99.482 12.3197L99.5094 12.2375L99.5908 12.21L99.6182 12.1287L99.7544 12.0464L99.7818 11.9642L99.918 11.8828L99.9445 11.8005L100.027 11.7731L100.108 11.6369L100.189 11.6095L100.217 11.5272L100.353 11.445L100.381 11.3636L100.462 11.3362L100.544 11.1991L100.653 11.1452L100.816 11.3645L101.224 11.7192L101.252 11.8015L101.497 11.9916L101.524 12.0739L101.66 12.1561L101.688 12.2384L101.933 12.4294L101.959 12.5117L102.095 12.593L102.123 12.6753L102.368 12.8663L102.395 12.9486L102.531 13.0309L102.559 13.1122L102.695 13.1945L102.721 13.2768L102.804 13.3033L102.831 13.3855L102.966 13.4678L102.994 13.5491L103.13 13.6314L103.157 13.7137L103.239 13.7411L103.266 13.8225L103.402 13.9047L103.43 13.987L103.566 14.0683L103.593 14.1506L103.675 14.178L103.702 14.2594L103.838 14.3416L103.865 14.4239L104.001 14.5053L104.029 14.5875L104.11 14.6149L104.137 14.6972L104.274 14.7786L104.301 14.8608L104.437 14.9431L104.465 15.0244L104.546 15.0519L104.573 15.1341L104.71 15.2155L104.736 15.2978L104.818 15.3252L104.9 15.4614L104.982 15.4888L105.008 15.5711L105.145 15.6533L105.172 15.7347L105.253 15.7621L105.336 15.8992L105.417 15.9257L105.444 16.008L105.581 16.0902L105.608 16.1716L105.689 16.199L105.771 16.3361L105.88 16.3901L106.016 16.3078L106.043 16.2255L106.179 16.1442L106.207 16.0619L106.343 15.9796L106.37 15.8983L106.452 15.8709L106.479 15.7886L106.615 15.7063L106.642 15.625L106.778 15.5427L106.805 15.4605L106.888 15.4339L106.914 15.3517L107.05 15.2694L107.078 15.1881L107.159 15.1606L107.241 15.0235L107.323 14.9961L107.35 14.9148L107.486 14.8325L107.514 14.7502L107.595 14.7237L107.677 14.5866L107.759 14.5592L107.785 14.4778L107.922 14.3956L107.949 14.3133L108.031 14.2859L107.949 14.1497L107.868 14.1223L107.785 13.9861L107.704 13.9586L107.677 13.8764L107.595 13.849L107.514 13.7128L107.432 13.6853L107.404 13.6031L107.269 13.5217L107.241 13.4395L107.159 13.412L107.078 13.2758L106.996 13.2484L106.969 13.1662L106.833 13.0839L106.805 13.0025L106.669 12.9203L106.642 12.8389L106.56 12.8115L106.533 12.7292L106.397 12.647L106.37 12.5656L105.472 11.774L105.39 11.6369L105.308 11.6095L105.227 11.4724L105.145 11.445L105.117 11.3636L104.546 10.8993L104.356 10.6534L104.274 10.626L104.22 10.5163L109.61 10.4624L109.582 7.43041L104.274 7.40299L104.301 7.32073L104.437 7.23846L104.465 7.1562L104.927 6.80154L105.008 6.66534L105.091 6.63792L105.172 6.50081L105.253 6.47339L105.281 6.39204L105.363 6.36462L105.444 6.22751L105.689 6.09131L105.771 5.9542L105.853 5.9277L105.88 5.84543L106.016 5.76316L106.043 5.68181L106.125 5.65439L106.207 5.51728L106.288 5.48986L106.316 5.40851L106.452 5.32624L106.479 5.24398L106.724 5.05385L106.752 4.97159L106.888 4.88932L106.914 4.80706L107.868 4.01548L108.031 3.79702L107.949 3.65991L107.868 3.63249L107.84 3.55113L107.704 3.46887L107.677 3.3866L107.595 3.35918L107.514 3.22298L107.432 3.19556L107.35 3.05937L107.269 3.03194L107.241 2.94968L107.159 2.92226L106.969 2.62244L106.724 2.43049L106.697 2.34914L106.56 2.26687L106.533 2.18461L106.452 2.15719L106.37 2.02191L106.288 1.99448L106.261 1.91222L106.125 1.82995L106.098 1.74769L106.016 1.72027L105.989 1.63891L105.88 1.58407L105.744 1.66634L104.791 2.73122L104.655 2.81348L104.627 2.89575L104.546 2.92317L104.465 3.06028L104.382 3.08679L104.356 3.16905L104.22 3.25132L104.192 3.33267L104.11 3.36009L103.647 3.93321L103.511 4.01548L103.484 4.09774L103.402 4.12516L103.375 4.20743L103.239 4.28878L103.212 4.37105L103.076 4.45331L103.049 4.53466L102.966 4.56209L102.94 4.64435L102.804 4.72662L102.776 4.80797L102.64 4.89023L102.613 4.9725L102.531 4.99901L102.504 5.08127L102.368 5.16354L102.34 5.24489L102.259 5.21747L102.286 0L111.516 0.0274216L111.488 23.7656L0 23.7382L0.0274216 21.9082L11.7887 21.9631L11.8161 19.0948L3.18551 19.0673L3.10324 18.9851L3.07582 2.45883L0 2.43141L0.0274216 0ZM14.5382 2.45883L13.8307 2.78606L13.7758 2.89575H13.6671L13.6122 3.00544H13.5583L13.3407 3.33267H13.2859L13.0135 4.15167L13.0684 4.97159H13.1771L13.232 5.35458H13.3407V5.5182H13.4495L13.5044 5.68273H13.6131V5.7915L13.7758 5.84634V5.95512L14.0482 6.00996V6.11965C14.3389 6.30063 14.7929 6.35517 15.4102 6.28327V6.22842H15.518L15.8453 6.11873V6.06389L16.1177 5.9542V5.90027L16.2264 5.84543L16.2813 5.73574L16.3901 5.68181L16.4449 5.57213L16.5528 5.51728L16.88 4.80797L16.8251 3.71475L16.7703 3.65991L16.5528 3.22298L16.4979 3.16814L16.444 3.1133L16.3352 3.00452L16.2804 2.94968L16.1716 2.89484L16.1167 2.84091C15.7901 2.4765 15.2639 2.34914 14.5382 2.45883ZM32.6704 2.45883L32.6156 21.9082H32.7801L35.5561 21.9631L35.611 21.9082V15.2429L35.7206 15.1332V15.2978H35.8285L35.8834 15.4614H35.9921V15.5711L36.1557 15.6259V15.7895H36.2645L36.4821 16.1716H36.5918V16.3361H36.6996V16.4449L36.8641 16.4997L37.1905 17.0454H37.2992L37.4619 17.3736H37.5716L37.8979 17.9202H38.0076L38.0616 18.0838H38.1703V18.2483H38.2791V18.3571L38.4427 18.412L38.6054 18.794H38.7151L38.77 18.9586H38.8778L39.2051 19.5043H39.3138L39.3687 19.7227H39.4765V19.8324H39.5862L39.8038 20.2693H39.9125V20.379L40.0762 20.433L40.1849 20.7063L40.3485 20.7611L40.4034 20.9796H40.5112V21.1432H40.6209L40.6749 21.3077H40.7846V21.4165L40.9473 21.4713V21.6349H41.056L41.1109 21.8534L41.2736 21.9082H44.9225L44.8677 21.7986L44.8128 21.7437L44.7041 21.6349L44.6492 21.5801L44.5953 21.4704L44.5404 21.4156L44.4856 21.3616L44.3777 21.252L43.9966 20.7611L43.9417 20.7063L43.833 20.5966L43.7781 20.5417L43.7242 20.4869L43.6145 20.3781L43.5606 20.2684L43.5057 20.2136L43.2342 19.8863L43.1794 19.8315L42.9619 19.5591L42.907 19.5043L42.8522 19.4494L42.7982 19.3946L42.6895 19.2849L42.6346 19.231L42.2544 18.7392L42.1995 18.6844L42.0898 18.5747L42.0359 18.5207L41.9811 18.411L41.9271 18.3562L41.8184 18.2474L41.7635 18.1926L41.7087 18.1377L41.6008 18.029L41.3824 17.7017L41.3275 17.6469L41.2196 17.5372L41.1648 17.4824L41.11 17.4275L41.0012 17.3187L40.9463 17.2091L40.8924 17.1542L40.6209 16.827L40.5661 16.7721L40.5112 16.7173L40.4025 16.6085L40.3476 16.4988L40.2937 16.444L40.2389 16.3901L40.184 16.3352L40.0762 16.2255L40.0213 16.1716L39.6401 15.6798L39.5853 15.625L39.4765 15.5153L39.4217 15.4605L39.2051 15.1881L39.1502 15.1332L39.0405 15.0235L39.0954 14.806L39.2051 14.7511V14.6963L39.3678 14.5866V14.4778L39.4774 14.423V14.3681L39.6401 14.2594L39.9674 13.7676L40.0762 13.7128V13.6579L40.2389 13.5491V13.4943L40.3485 13.4395L40.5112 13.1671L40.6209 13.1122L40.8385 12.7841L40.9473 12.7292V12.6195L41.056 12.5656L41.1109 12.4559L41.2196 12.4011V12.3472L41.3824 12.2375L41.5469 11.9102L41.6547 11.8554L41.7096 11.7457L41.8184 11.6909V11.6369L41.982 11.5272V11.4185L42.0908 11.3636V11.3088L42.2544 11.1991L42.5807 10.7082L42.6904 10.6534V10.5986L42.8531 10.4889L42.9619 10.2713L43.1255 10.1616L43.4518 9.66987L43.5615 9.61502V9.56018L43.6693 9.50625L43.7242 9.39656L43.8339 9.34172V9.28687L43.9966 9.1781V9.06841L44.1053 9.01448L44.1602 8.84995L44.269 8.79602L44.3238 8.68634L44.4317 8.63149V8.52272L44.5414 8.46787L44.5962 8.35819L44.7041 8.30426V8.24941L44.8677 8.13973L44.9225 7.97611L41.2736 7.92127L41.2187 8.03095H41.1648L40.7836 8.57756H40.7288L40.6209 8.74209H40.5661L40.5112 8.9048H40.4564L40.1849 9.28779H40.1301L40.0752 9.45232H40.0213L39.9125 9.61502H39.8577L39.5862 10.0529H39.5314L39.4765 10.1625H39.4217L38.8778 10.9267H38.823L38.769 11.0364L38.6594 11.0912L38.4427 11.4733H38.3879L38.2782 11.6369H38.2243L38.1694 11.8015H38.1164L38.0076 11.9651H37.9528L37.5716 12.5108H37.5168L37.3001 12.8389H37.2453L36.8641 13.3855H36.8093L36.7005 13.5491H36.6457L36.5918 13.7137H36.5369L36.2654 14.0958H36.2106L36.1557 14.2594H36.1018L35.993 14.4239H35.9382L35.7206 14.7511H35.6658L35.6119 2.51276L32.6704 2.45883ZM46.3375 4.3162L46.2826 18.5756C46.3558 19.2672 46.5556 19.8681 46.8823 20.3781L47.0459 20.433V20.5975H47.1547L47.2095 20.815H47.3183L47.3731 20.9796L47.5907 21.0344V21.1432L47.917 21.3077V21.4165L48.9517 21.7437V21.8534L52.7085 21.9631V19.2849L50.5851 19.231L50.0404 19.0664L49.9855 19.0125L49.8767 18.9577L49.6592 18.7392L49.6043 18.6844L49.4956 18.5207L49.4407 18.4659L49.278 18.0838V10.4349L52.8721 10.3801V7.97611L49.3868 7.92127L49.278 7.86642V4.42498L49.2232 4.31529L46.3375 4.3162ZM25.0471 7.53919L24.4484 7.59403L24.3936 7.70372L23.5773 7.86734L23.5225 7.97702L22.7062 8.30426L22.6514 8.41395L22.2702 8.63241L22.2154 8.74209H22.1614L22.1066 8.85087L21.9978 8.90571L21.943 9.0154L21.8351 9.06933L21.454 9.61594H21.3991L21.3443 9.77955H21.2355L21.1807 7.92218L18.241 7.97702L18.2959 21.9622L18.4046 21.9073L21.1267 21.9622L21.1816 21.9073V14.2594L21.2364 13.4943L21.5079 12.4568L21.6176 12.402L21.9439 11.5821L22.0527 11.5272V11.4724L22.2163 11.3636V11.3088L22.4878 11.0903V11.0355L22.6523 10.9267V10.8719L23.0874 10.6534V10.5986L23.5225 10.4889V10.4349L24.3936 10.2165H25.1568L26.2994 10.5446V10.6543L26.7354 10.817V10.9267H26.8451L26.899 11.0912H27.0078V11.2H27.1166L27.1714 11.4185H27.2802L27.4429 11.8554H27.5526L27.6074 12.2384H27.7153L27.8789 13.2758H27.9886V21.9082L28.1513 21.9631L30.8734 21.9082H30.9831V13.7128L30.7646 11.8554L30.7098 11.8005L30.3295 10.5446L30.2747 10.4898L30.0571 9.99802L30.0023 9.94317L29.9474 9.83348L29.8396 9.72471L29.6211 9.39748L29.5663 9.34263L29.4584 9.1781L29.4036 9.12326L29.3487 9.06841L29.2939 9.01448L29.2399 8.95964L29.1312 8.84995L29.0763 8.79602L28.8049 8.57665L28.75 8.52272L27.7701 7.97611L27.7153 7.92127L27.4977 7.86642L27.4429 7.81249C26.7896 7.55777 25.9905 7.46667 25.0471 7.53919ZM60.3327 7.53919L59.8428 7.59403L59.7879 7.70372C59.2072 7.77684 58.7532 7.97702 58.426 8.30426L58.372 8.41395L58.1545 8.46879L57.6097 9.1781H57.5549L57.5009 9.34263H57.4461L57.3382 9.61594H57.2834L57.2285 7.97611L54.3428 7.92127L54.288 8.0858L54.2341 21.8534L54.3438 21.9631L54.4516 21.9082L57.2285 21.9631V14.2594L57.3382 14.1497L57.3931 13.3307L57.5009 13.2758L57.6645 12.4568L57.7742 12.402L57.8282 12.1287L57.9369 12.0739L57.9918 11.8554L58.0996 11.8005V11.6909L58.2093 11.6369L58.2642 11.4724L58.372 11.4185V11.3088L58.4817 11.2539L58.5366 11.1452L58.6993 11.0903V11.0355L58.9168 10.9267V10.8719L59.1344 10.7622V10.7073L59.8428 10.4898V10.4349L60.4415 10.3252L61.7486 10.3801V7.64888L60.3327 7.53919ZM68.1735 7.53919L67.5748 7.59403L67.52 7.70372L66.158 8.03095L66.1041 8.14064L64.6882 8.90571L64.6343 9.0154L64.5246 9.06933L64.4707 9.17902H64.4158L64.3079 9.34263H64.1983L64.1434 9.45232H64.0895L64.0346 9.61502H63.9807L63.8719 9.77955H63.8171L63.4359 10.3262H63.3811L63.2732 10.5986H63.2184L63.0008 11.0903H62.946L62.6736 11.8005H62.6188L62.2924 12.7292L62.1297 13.4943V14.2045L62.0201 14.3691V15.625L62.1297 15.7895L62.2924 17.3736H62.4021L62.457 17.9202H62.5648L62.7285 18.6304H62.8381L62.8921 18.9577H63.0008L63.1645 19.3946H63.2732L63.3281 19.6688H63.4359V19.8324H63.5456L63.6005 19.996H63.7083L63.7632 20.2145H63.8719L63.9268 20.379L64.5794 20.8699V20.9796L64.7979 21.0344V21.1432L65.5054 21.4713V21.581L66.5401 21.9082V22.0179L67.6827 22.1816V22.2912L68.4459 22.3452L70.4057 22.2903V22.2355L71.4952 22.017L72.5839 21.5801V21.5253L72.8563 21.4156V21.3616L73.2923 21.1432V21.0883L73.5098 20.9786V20.9247L73.891 20.7053V20.6514L74.0546 20.5417V20.4869L74.2173 20.3781V20.3233L74.327 20.2684V20.2136L74.4897 20.1048L74.8169 19.614L74.9257 19.5591L75.0884 19.1761L75.1981 19.1213L75.2529 18.8489L75.3608 18.794L75.6332 18.029L75.688 17.3736L72.7475 17.3187L72.4203 18.0838H72.3654L72.0391 18.5207L71.7676 18.6853L71.7128 18.794L71.3865 18.9586L71.3316 19.0673L71.0592 19.1222L71.0044 19.2319L70.3517 19.3946L70.2969 19.5043L69.8618 19.5591C68.6997 19.6688 67.7921 19.5594 67.1388 19.231L67.084 19.1761L66.4313 18.794L66.3765 18.7392L66.2677 18.6295L66.2129 18.5747L66.158 18.5207L66.0502 18.411L65.9953 18.3562L65.8326 18.1387L65.7229 18.029L65.6141 17.8105L65.5593 17.7557L65.3418 17.21L65.2869 17.1551L65.1791 16.6634L65.1242 16.6085L64.9606 15.7347L65.0703 15.625H75.7968V14.2045L75.6871 14.0948L75.6332 13.0574L75.5783 13.0025L75.3608 12.019L75.306 11.9642L75.1981 11.5821L75.1433 11.5272L74.9257 10.9815L74.8709 10.9267L74.7621 10.7073L74.7072 10.6534L74.6524 10.5437L74.5985 10.4889L74.4897 10.2713L74.4349 10.2165L74.2173 9.94317L74.1625 9.88833L73.891 9.56109L73.8361 9.50625L73.7274 9.39656L73.6725 9.34172L73.6186 9.28687L73.2923 9.01448L73.2374 8.95964L73.0738 8.84995L73.019 8.79602L72.6387 8.57665L72.5839 8.52272L72.3663 8.41303L72.3115 8.35819L71.8215 8.14064L71.7667 8.0858L71.3316 7.97611L71.2768 7.92127L70.2969 7.70372L70.242 7.64888L68.1735 7.53919ZM83.3113 7.53919L82.7117 7.59403L82.6568 7.70372L81.677 7.86734L81.6221 7.97702L81.2419 8.03187L81.187 8.14064L80.7519 8.30517L80.6971 8.41395L80.4795 8.46879L80.4247 8.57756L80.2072 8.63241L80.1523 8.74209H80.0435L79.9887 8.85087L79.4997 9.1781L79.4448 9.28779L79.3351 9.34263L79.2812 9.45232L79.0637 9.61502L78.7913 10.0529H78.7364L78.6825 10.2165H78.6277L78.0838 11.2H78.0289L77.8114 11.8005H77.7566L77.6478 12.2384H77.5929L77.2127 13.9312V16.0619L77.539 17.7557H77.6487L77.7026 18.2474H77.8114L77.975 18.8489H78.0838L78.1386 19.1213H78.2474L78.4101 19.5591H78.5198L78.5737 19.8324H78.6834V19.9421L78.8461 19.996V20.1606H78.9549V20.2693L79.1185 20.3242V20.433H79.2273V20.5426L79.39 20.5975V20.7063L79.7172 20.8708V20.9796L80.3159 21.3068V21.4165C81.1873 21.9265 82.2583 22.2361 83.5289 22.3452L85.5435 22.2903V22.2355L87.122 21.8534V21.7986L87.9941 21.4165V21.3616L88.4291 21.1432V21.0883L88.8652 20.815V20.7602L89.1915 20.5426V20.4878L89.3002 20.433V20.3781L89.4639 20.2684V20.2136L89.5726 20.1596L89.7363 19.8863L89.845 19.8315L90.0626 19.4494L90.1714 19.3946L90.4986 18.5756L90.6074 18.5207L90.8798 17.4284L90.8249 17.3187H87.8844L87.8304 17.4833H87.7756L87.4493 18.1926L87.3405 18.2474L87.2317 18.4668H87.1769L87.0681 18.6304L86.9045 18.6853L86.8506 18.794C86.5233 19.1219 86.0693 19.3221 85.4886 19.3946L85.4347 19.5043L85.0535 19.5591L83.0389 19.5043L81.9494 19.0673L81.8945 19.0125L81.5682 18.7931L81.5134 18.7392L81.4055 18.6295L81.3506 18.5747L81.2958 18.5207L81.187 18.411L81.1322 18.3562L81.0783 18.3023L80.9695 18.1926L80.8598 17.9741L80.8059 17.9193L80.2072 16.6085L80.1523 15.6798L90.9337 15.625L90.8798 13.7676L90.771 13.6579L90.6074 12.402L90.5525 12.3472L90.1714 11.2549L90.1174 11.2L89.8999 10.7082L89.845 10.6534L89.7363 10.4349L89.6814 10.3801L89.5726 10.2165L89.5187 10.1616L89.3002 9.8344L89.2463 9.77955L89.1375 9.66987L89.0827 9.61502L89.0279 9.56018L88.9191 9.45141L88.8652 9.39656L88.8103 9.34172L88.7015 9.23295L88.2116 8.85087L88.1568 8.79602L88.048 8.74118L87.9941 8.68634L87.7756 8.57665L87.7217 8.52272L87.5032 8.41303L87.4493 8.35819L86.5782 7.97611H86.4694L86.4146 7.92127L85.4347 7.70372L85.3798 7.64888L83.3113 7.53919ZM13.5044 7.92218V21.9622L13.614 21.9073L16.3361 21.9622L16.391 21.9073V7.97702L13.5044 7.92218ZM99.1017 14.8051L99.0469 22.017H102.26V14.9148L102.205 14.8051H99.1017Z" fill="var(--fill-0, #111111)" fill-opacity="0.6"/>
</svg>
