<svg preserveAspectRatio="none" width="100%" height="100%" overflow="visible" style="display: block;" viewBox="0 0 65.9117 15.5971" fill="none" xmlns="http://www.w3.org/2000/svg">
<path id="Vector" d="M7.13844 0.000680126V5.27H2.29695V0.000680126H0V12.5798H2.29831V7.48125H7.13844V12.5805H9.43743V0L7.13844 0.000680126ZM16.7901 8.51443C16.7901 9.01863 16.5898 9.50218 16.2333 9.8587C15.8768 10.2152 15.3932 10.4155 14.889 10.4155C14.3848 10.4155 13.9013 10.2152 13.5448 9.8587C13.1882 9.50218 12.9879 9.01863 12.9879 8.51443V3.1254H10.8087V8.51443C10.8087 9.59553 11.2381 10.6324 12.0026 11.3968C12.767 12.1613 13.8039 12.5907 14.885 12.5907C15.9661 12.5907 17.0029 12.1613 17.7673 11.3968C18.5318 10.6324 18.9612 9.59553 18.9612 8.51443V3.1254H16.7901V8.51443ZM32.9395 3.68111C32.9395 2.57582 33.67 2.22553 34.4699 2.22553C35.1161 2.22553 35.9677 2.7173 36.5254 3.31245L37.9524 1.63038C37.2396 0.666571 35.7949 0.000680126 34.6114 0.000680126C32.2464 0.000680126 30.5371 1.38484 30.5371 3.68043C30.5371 7.94036 35.7425 6.58818 35.7425 8.97219C35.7425 9.70746 35.0283 10.3563 34.2114 10.3563C32.9225 10.3563 32.5042 9.7265 31.9125 9.05993L30.3276 10.7073C31.3418 11.9507 32.5913 12.5826 34.0883 12.5826C36.335 12.5826 38.1422 11.1814 38.1422 8.98987C38.1422 4.26198 32.9354 5.73115 32.9354 3.68111M65.1451 10.5706C63.8576 10.5706 63.4909 10.0129 63.4909 9.15992V5.38291H65.4934V3.46889H63.4909V0.943403L61.2811 1.93646V9.62924C61.2811 11.597 62.6394 12.5887 64.501 12.5887C64.7944 12.5937 65.085 12.5705 65.373 12.5193L65.9117 10.5346C65.6689 10.5509 65.3893 10.5686 65.1451 10.5686M25.0862 3.18798C24.0068 3.18798 23.2531 3.50086 22.5247 4.21504V0.0761796H20.342V7.75127C20.342 10.6243 22.4186 12.5928 24.7529 12.5928C27.3424 12.5928 29.6203 10.589 29.6203 7.89207C29.6203 5.22783 27.524 3.1907 25.0862 3.1907M25.0726 10.3958C24.4157 10.3958 23.7857 10.1348 23.3212 9.67034C22.8567 9.20584 22.5958 8.57584 22.5958 7.91894C22.5958 7.26203 22.8567 6.63204 23.3212 6.16753C23.7857 5.70303 24.4157 5.44208 25.0726 5.44208C25.7295 5.44208 26.3595 5.70303 26.824 6.16753C27.2885 6.63204 27.5495 7.26203 27.5495 7.91894C27.5495 8.57584 27.2885 9.20584 26.824 9.67034C26.3595 10.1348 25.7295 10.3958 25.0726 10.3958ZM48.7903 7.77712C48.7903 5.07479 46.5172 3.07711 43.923 3.07711C41.5893 3.07711 39.5114 5.04486 39.5114 7.91792V15.5971H41.6947V11.4507C42.4218 12.1643 43.1768 12.4792 44.2549 12.4792C46.6927 12.4792 48.7903 10.442 48.7903 7.77712ZM46.7226 7.74991C46.728 8.07863 46.668 8.40515 46.546 8.71043C46.4239 9.01571 46.2424 9.29364 46.0118 9.52803C45.7813 9.76242 45.5064 9.94858 45.2032 10.0756C44.9 10.2027 44.5745 10.2682 44.2457 10.2682C43.917 10.2682 43.5915 10.2027 43.2883 10.0756C42.9851 9.94858 42.7102 9.76242 42.4796 9.52803C42.2491 9.29364 42.0675 9.01571 41.9455 8.71043C41.8235 8.40515 41.7634 8.07863 41.7689 7.74991C41.7796 7.10012 42.0453 6.48058 42.5087 6.02486C42.972 5.56915 43.5958 5.31376 44.2457 5.31376C44.8956 5.31376 45.5195 5.56915 45.9828 6.02486C46.4461 6.48058 46.7118 7.10012 46.7226 7.74991Z" fill="var(--fill-0, white)"/>
</svg>
