<svg preserveAspectRatio="none" width="100%" height="100%" overflow="visible" style="display: block;" viewBox="0 0 12.9978 12.9958" fill="none" xmlns="http://www.w3.org/2000/svg">
<path id="Vector" d="M12.9484 1.8254L10.2434 11.9204C10.1775 12.1665 10.0479 12.3908 9.86776 12.571C9.6876 12.7511 9.4632 12.8806 9.21711 12.9465C8.97102 13.0124 8.71193 13.0123 8.46587 12.9463C8.21982 12.8803 7.99549 12.7506 7.81543 12.5704L5.76343 10.5184C5.60762 10.3629 5.50749 10.1603 5.47856 9.94206C5.44963 9.72383 5.49352 9.50215 5.60343 9.3114L7.32243 6.3354C7.56943 5.9064 7.09043 5.4274 6.66243 5.6754L3.68443 7.3924C3.49379 7.50243 3.27217 7.54649 3.05394 7.51774C2.83571 7.489 2.63307 7.38905 2.47743 7.2334L0.425425 5.1824C0.245211 5.00234 0.115579 4.77801 0.0495636 4.53196C-0.0164514 4.2859 -0.0165223 4.02681 0.0493579 3.78072C0.115238 3.53463 0.244747 3.31023 0.424863 3.13007C0.604979 2.94991 0.829354 2.82034 1.07543 2.7544L11.1714 0.0494033C11.4174 -0.0164872 11.6764 -0.0164675 11.9224 0.0494608C12.1684 0.115389 12.3928 0.244903 12.5728 0.424988C12.7529 0.605073 12.8824 0.829385 12.9484 1.07538C13.0143 1.32138 13.0143 1.5804 12.9484 1.8264" fill="var(--fill-0, white)"/>
</svg>
