<svg preserveAspectRatio="none" width="100%" height="100%" overflow="visible" style="display: block;" viewBox="0 0 17.5929 18.4166" fill="none" xmlns="http://www.w3.org/2000/svg">
<path id="Vector" d="M13.5082 6.06472V3.87174C13.7982 3.73651 14.0438 3.52158 14.2163 3.25203C14.3888 2.98248 14.481 2.66944 14.4823 2.34943V2.2991C14.4824 2.07724 14.4387 1.85755 14.3539 1.65255C14.2691 1.44756 14.1447 1.26129 13.9878 1.10439C13.831 0.947482 13.6448 0.823014 13.4398 0.738094C13.2349 0.653173 13.0152 0.609465 12.7933 0.609465H12.743C12.295 0.609465 11.8655 0.787408 11.5487 1.10415C11.232 1.42089 11.054 1.85048 11.054 2.29842V2.34875C11.0552 2.66868 11.1474 2.98168 11.3197 3.25122C11.4921 3.52076 11.7375 3.73573 12.0274 3.87106V6.06472C11.1945 6.19229 10.41 6.5377 9.75348 7.06599L3.73841 2.38072C3.78089 2.2264 3.80374 2.06734 3.80643 1.9073C3.80724 1.53079 3.69636 1.16251 3.48781 0.849031C3.27927 0.535556 2.98243 0.29098 2.63485 0.146245C2.28727 0.00150884 1.90458 -0.0368829 1.53518 0.0359264C1.16578 0.108736 0.826267 0.289474 0.559608 0.555277C0.292949 0.821079 0.111118 1.16 0.03712 1.52917C-0.0368778 1.89833 0.000284118 2.28115 0.1439 2.62919C0.287517 2.97723 0.531135 3.27485 0.843936 3.48441C1.15674 3.69396 1.52467 3.80603 1.90118 3.80644C2.23018 3.80374 2.55288 3.71586 2.83782 3.55136L8.76106 8.16044C8.22876 8.96415 7.95105 9.90964 7.96415 10.8736C7.97726 11.8375 8.28057 12.7751 8.83452 13.564L7.03333 15.3665C6.88763 15.3202 6.73592 15.2954 6.58304 15.2931C6.27432 15.2935 5.97266 15.3854 5.71614 15.5571C5.45963 15.7289 5.25977 15.9728 5.14181 16.2581C5.02386 16.5434 4.99311 16.8573 5.05343 17.16C5.11376 17.4628 5.26246 17.7409 5.48075 17.9592C5.69904 18.1775 5.97714 18.3262 6.2799 18.3865C6.58266 18.4468 6.8965 18.4161 7.18179 18.2981C7.46708 18.1801 7.71101 17.9803 7.88278 17.7238C8.05454 17.4673 8.14643 17.1656 8.14683 16.8569C8.14448 16.704 8.11973 16.5523 8.07337 16.4066L9.85551 14.6238C10.4367 15.0712 11.1126 15.3797 11.8314 15.5256C12.5502 15.6715 13.2928 15.6509 14.0025 15.4655C14.7121 15.28 15.3699 14.9346 15.9254 14.4556C16.4809 13.9767 16.9194 13.3769 17.2073 12.7023C17.4952 12.0277 17.6248 11.2961 17.5863 10.5637C17.5478 9.83122 17.3421 9.1173 16.9851 8.4766C16.628 7.83591 16.1291 7.28545 15.5264 6.86738C14.9237 6.44932 14.2334 6.17476 13.5082 6.06472ZM12.7695 13.2776C12.4374 13.2911 12.1061 13.2374 11.7953 13.1197C11.4845 13.0019 11.2007 12.8226 10.961 12.5924C10.7213 12.3622 10.5305 12.086 10.4002 11.7802C10.2699 11.4745 10.2028 11.1456 10.2028 10.8132C10.2028 10.4809 10.2699 10.152 10.4002 9.84626C10.5305 9.54052 10.7213 9.26428 10.961 9.0341C11.2007 8.80393 11.4845 8.62458 11.7953 8.50683C12.1061 8.38907 12.4374 8.33534 12.7695 8.34886C13.4072 8.3722 14.011 8.64184 14.454 9.1011C14.897 9.56037 15.1447 10.1735 15.1451 10.8116C15.1454 11.4497 14.8984 12.0631 14.4559 12.5228C14.0134 12.9826 13.4099 13.2529 12.7722 13.277" fill="var(--fill-0, white)"/>
</svg>
