<svg preserveAspectRatio="none" width="100%" height="100%" overflow="visible" style="display: block;" viewBox="0 0 14.0001 12.4636" fill="none" xmlns="http://www.w3.org/2000/svg">
<path id="Vector" d="M5.87203 1.08782C6.13303 1.32482 6.25003 1.67482 6.25003 2.02682V9.26882C6.25003 9.46773 6.32905 9.6585 6.4697 9.79915C6.61035 9.9398 6.80112 10.0188 7.00003 10.0188C7.19894 10.0188 7.38971 9.9398 7.53036 9.79915C7.67101 9.6585 7.75003 9.46773 7.75003 9.26882V2.02682C7.75003 1.67482 7.86703 1.32482 8.12803 1.08782C9.44703 -0.111183 11.285 -0.0301832 12.999 0.0278168C13.552 0.0458168 14 0.497817 14 1.05082V9.77082C14.001 9.90148 13.9757 10.031 13.9255 10.1517C13.8754 10.2723 13.8014 10.3817 13.7081 10.4731C13.6148 10.5646 13.504 10.6363 13.3823 10.684C13.2607 10.7317 13.1306 10.7544 13 10.7508C11.106 10.6948 9.08603 10.6248 7.76503 12.1838C7.44803 12.5568 6.55203 12.5568 6.23503 12.1838C4.91803 10.6298 2.89203 10.6968 0.999028 10.7518C0.868489 10.7553 0.738583 10.7325 0.617049 10.6847C0.495516 10.6369 0.384842 10.5652 0.291622 10.4738C0.198402 10.3823 0.124543 10.273 0.074447 10.1524C0.0243506 10.0318 -0.000958442 9.9024 2.775e-05 9.77182V1.05082C2.775e-05 0.497817 0.448028 0.0458168 1.00103 0.0278168C2.71403 -0.0291832 4.55803 -0.106183 5.87203 1.08782Z" fill="var(--fill-0, white)"/>
</svg>
