<svg preserveAspectRatio="none" width="100%" height="100%" overflow="visible" style="display: block;" viewBox="0 0 15.3408 9.32559" fill="none" xmlns="http://www.w3.org/2000/svg">
<path id="Vector" fill-rule="evenodd" clip-rule="evenodd" d="M15.2763 0.107522C15.0338 0.0336324 14.7813 -0.00258204 14.5277 0.00014309C13.951 0.00014309 13.496 0.161587 13.1768 0.48072C12.8599 0.799102 12.6437 1.28193 12.5363 1.91795L12.4973 2.1327H11.7734C11.7734 2.1327 11.6848 2.12895 11.666 2.22506L11.5474 2.88361C11.5391 2.94668 11.5661 2.98573 11.651 2.98573H12.3561L11.6405 6.95049C11.5844 7.27087 11.5208 7.53119 11.4498 7.73143C11.3799 7.92666 11.3116 8.07459 11.2275 8.18197C11.1456 8.28484 11.069 8.36068 10.9354 8.40499C10.8139 8.44278 10.6872 8.46103 10.5599 8.45905C10.4833 8.45905 10.3797 8.44629 10.3046 8.43127C10.2295 8.41625 10.189 8.39898 10.1319 8.3757C10.1319 8.3757 10.0493 8.34416 10.017 8.42676C9.99075 8.49435 9.80302 9.00721 9.7805 9.07029C9.75797 9.13336 9.78951 9.18292 9.83006 9.19644C9.92392 9.23023 9.99375 9.25125 10.1214 9.28129C10.2986 9.32259 10.448 9.32559 10.5885 9.32559C10.8813 9.32559 11.1494 9.28429 11.3709 9.20545C11.5981 9.11976 11.8007 8.97917 11.9604 8.79621C12.1466 8.59271 12.263 8.37871 12.3749 8.08811C12.4852 7.79901 12.5799 7.44083 12.655 7.02333L13.3736 2.98573H14.4248C14.4248 2.98573 14.5127 2.98873 14.5315 2.89337L14.6501 2.23483C14.6576 2.17175 14.6313 2.13195 14.5457 2.1327H13.526C13.5313 2.11018 13.5778 1.7535 13.6949 1.41784C13.7445 1.27517 13.8384 1.15954 13.918 1.07994C13.9929 1.00463 14.0844 0.948037 14.1853 0.91474C14.2974 0.8807 14.4116 0.864431 14.5277 0.865933C14.6238 0.865933 14.7177 0.877947 14.7898 0.892214C14.8889 0.91324 14.9272 0.924503 14.9527 0.932012C15.0563 0.96355 15.0706 0.932762 15.0909 0.883203L15.3349 0.217904C15.3597 0.146568 15.2989 0.116533 15.2763 0.107522ZM1.02873 6.95875C1.02873 7.01131 0.99119 7.05487 0.937125 7.05487H0.0916098C0.0375449 7.05487 0 7.01131 0 6.95875V0.196879C0 0.144316 0.0375449 0.101515 0.0916098 0.101515H0.937125C0.990439 0.101515 1.02873 0.144316 1.02873 0.196879V6.95875Z" fill="var(--fill-0, #1E1E1E)"/>
</svg>
