<svg preserveAspectRatio="none" width="100%" height="100%" overflow="visible" style="display: block;" viewBox="0 0 124.997 24.0794" fill="none" xmlns="http://www.w3.org/2000/svg">
<path id="Vector" fill-rule="evenodd" clip-rule="evenodd" d="M32.4498 17.5622C29.7005 17.5622 27.6686 15.4089 27.6686 12.7623C27.6686 10.1184 29.7005 7.91179 32.4671 7.91179C34.2191 7.91179 35.3044 8.55977 36.1617 9.50641L34.8484 10.925C34.2004 10.2424 33.5178 9.76907 32.4485 9.76907C30.9072 9.76907 29.7872 11.0997 29.7872 12.729C29.7872 14.3916 30.9258 15.7236 32.5538 15.7236C33.5538 15.7236 34.2871 15.2503 34.9537 14.5676L36.2324 15.8276C35.3217 16.8436 34.2538 17.5622 32.4498 17.5622ZM40.2536 17.5622H38.135V7.92912H40.2536V10.1891C40.8309 8.8051 41.9002 7.85846 43.5282 7.92912V10.1731H43.4055C41.5496 10.1731 40.2536 11.381 40.2536 13.833V17.5622ZM54.6212 7.91179L49.9387 20.1555H47.7907L48.8134 17.5649L44.8015 7.91179H47.0601L49.7973 15.0423L52.4266 7.91179H54.6212ZM60.873 9.75174C59.4371 9.75174 58.1758 10.925 58.1758 12.729C58.1758 14.5329 59.4371 15.7049 60.873 15.7049C62.3263 15.7049 63.5183 14.5676 63.5183 12.729C63.5183 10.9064 62.309 9.75174 60.873 9.75174ZM61.3637 17.5435C59.8411 17.5435 58.8771 16.7742 58.2278 15.9169V20.1541H56.1105V7.91179H58.2278V9.64508C58.9118 8.68244 59.8757 7.91179 61.3637 7.91179C63.553 7.91179 65.6729 9.64508 65.6729 12.729C65.6729 15.8102 63.5703 17.5435 61.3637 17.5435ZM70.3181 9.9264V14.4609C70.3181 15.2836 70.7341 15.6156 71.4541 15.6156H72.2861V17.5089H70.8368C69.2942 17.5035 68.1982 16.8182 68.1982 14.7929V9.9264H67.0222V8.10645H68.1982V5.56652H70.3181V8.10645H72.2861V9.9264H70.3181ZM78.9886 9.76907C77.2899 9.76907 76.2046 11.0997 76.2046 12.729C76.2046 14.3743 77.3779 15.7222 79.0232 15.7222C80.7392 15.7222 81.8258 14.3929 81.8258 12.7623C81.8258 11.117 80.6525 9.76907 78.9886 9.76907ZM78.9886 17.5622C76.17 17.5622 74.0847 15.4089 74.0847 12.7623C74.0847 10.1011 76.186 7.91179 79.0246 7.91179C81.8605 7.91179 83.9444 10.0664 83.9444 12.7277C83.9444 15.3729 81.8432 17.5622 78.9886 17.5622ZM87.8243 15.6183V16.6862C87.8246 16.708 87.8188 16.7295 87.8078 16.7483C87.7968 16.767 87.7808 16.7825 87.7617 16.7929L86.8377 17.3262C86.8191 17.3372 86.7979 17.3431 86.7764 17.3431C86.7548 17.3431 86.7336 17.3372 86.715 17.3262L85.7884 16.7929C85.7695 16.7823 85.7538 16.7668 85.743 16.748C85.7322 16.7292 85.7267 16.7079 85.727 16.6862V15.6196C85.727 15.5756 85.7511 15.5343 85.7884 15.5116L86.715 14.9783C86.7336 14.9672 86.7548 14.9614 86.7764 14.9614C86.7979 14.9614 86.8191 14.9672 86.8377 14.9783L87.7617 15.5116C87.8017 15.5343 87.8243 15.5756 87.8243 15.6183ZM104.204 9.76907C102.505 9.76907 101.42 11.0997 101.42 12.729C101.42 14.3743 102.593 15.7222 104.24 15.7222C105.956 15.7222 107.04 14.3929 107.04 12.7623C107.04 11.117 105.868 9.76907 104.204 9.76907ZM104.204 17.5622C101.384 17.5622 99.3 15.4089 99.3 12.7623C99.3 10.1011 101.401 7.91179 104.24 7.91179C107.076 7.91179 109.161 10.0664 109.161 12.7277C109.161 15.3729 107.058 17.5622 104.204 17.5622ZM94.2762 17.5515C91.5269 17.4982 89.5363 15.3049 89.5883 12.661C89.6389 10.0171 91.7122 7.85046 94.4775 7.90379C96.2294 7.93712 97.3027 8.6051 98.1427 9.56774L96.8014 10.9597C96.1668 10.2664 95.4935 9.77974 94.4255 9.75974C92.8842 9.72907 91.7376 11.0397 91.7056 12.6663C91.6749 14.3303 92.7869 15.6836 94.4162 15.7142C95.4148 15.7342 96.1588 15.2743 96.8361 14.6049L98.0907 15.8902C97.1614 16.8875 96.0801 17.5849 94.2762 17.5515ZM121.757 7.91179C123.77 7.91179 124.997 9.19042 124.997 11.449V17.5622H122.878V12.0983C122.878 10.6264 122.194 9.8384 121.005 9.8384C119.849 9.8384 119.025 10.6437 119.025 12.1317V17.5622H116.905V12.0797C116.905 10.6437 116.205 9.83974 115.032 9.83974C113.858 9.83974 113.053 10.7144 113.053 12.1503V17.5622H110.933V7.91179H113.053V9.50641C113.648 8.68377 114.453 7.91179 115.873 7.91179C117.204 7.91179 118.132 8.55977 118.622 9.54108C119.375 8.55977 120.357 7.91179 121.757 7.91179ZM0 6.01984V18.0595L10.3731 24.0794L20.7434 18.0595V6.01984L10.3731 0L0 6.01984ZM0.913309 17.5315V6.55049L10.3731 1.05731L19.8328 6.55049V17.5315L10.3731 23.0221L0.913309 17.5315Z" fill="var(--fill-0, white)" fill-opacity="0.4"/>
</svg>
