<svg preserveAspectRatio="none" width="100%" height="100%" overflow="visible" style="display: block;" viewBox="0 0 97.84 19.3227" fill="none" xmlns="http://www.w3.org/2000/svg">
<path id="Vector" fill-rule="evenodd" clip-rule="evenodd" d="M95.3737 14.7223C95.4327 15.3968 95.9722 16.2553 96.9074 16.2553H97.4539C97.5562 16.255 97.6542 16.2143 97.7265 16.142C97.7989 16.0697 97.8397 15.9717 97.84 15.8695V3.84218H97.8374C97.8268 3.63955 97.6593 3.47723 97.4539 3.47723H95.7599C95.5545 3.47723 95.3871 3.63955 95.3764 3.84218H95.3738V4.8194C94.3355 3.53966 92.6986 3.00838 91.0574 3.00838C87.3261 3.00838 84.3016 6.03546 84.3016 9.76971C84.3016 13.5042 87.3261 16.5312 91.0574 16.5312V16.5316C92.6986 16.5316 94.488 15.8942 95.3738 14.7208L95.3737 14.7223ZM91.0635 14.1649C88.6906 14.1649 86.767 12.1973 86.767 9.76971C86.767 7.3426 88.6906 5.37484 91.0635 5.37484C93.4372 5.37484 95.3605 7.3426 95.3605 9.76971C95.3605 12.1972 93.4372 14.1649 91.0634 14.1649M82.1592 15.1358L82.1582 8.91224C82.1582 5.40409 79.9467 3.03734 76.4202 3.03734C74.7367 3.03734 73.3568 4.01164 72.8693 4.84846C72.764 4.19411 72.4169 3.50629 71.3403 3.50629H70.7916C70.6894 3.50665 70.5915 3.54745 70.5193 3.61977C70.4471 3.69209 70.4064 3.79006 70.4061 3.89227V15.9207H70.4079C70.419 16.1231 70.5866 16.2855 70.7914 16.2855H72.486C72.512 16.2855 72.5374 16.2819 72.5621 16.2775C72.5732 16.2758 72.5836 16.2714 72.5945 16.2678C72.6072 16.2643 72.6203 16.2608 72.6323 16.256C72.6474 16.2499 72.661 16.2413 72.6751 16.2335C72.6821 16.2291 72.6891 16.2265 72.6957 16.222C72.7125 16.2107 72.7283 16.1982 72.7432 16.1845C72.7456 16.1822 72.7482 16.1801 72.7511 16.1783C72.7679 16.1621 72.7834 16.1441 72.797 16.1254L72.7972 16.1251C72.8405 16.0654 72.8657 15.9945 72.8696 15.9208H72.8712V8.81597C72.8712 6.93187 74.3976 5.40429 76.2805 5.40429C78.1632 5.40429 79.6897 6.93187 79.6897 8.81597L79.6915 14.7548V14.753C79.6915 14.7583 79.6924 14.7637 79.6924 14.7692V15.9212H79.6951C79.7063 16.1235 79.8736 16.286 80.0786 16.286H81.7732C81.7993 16.286 81.8246 16.2824 81.8491 16.278C81.8591 16.2763 81.8684 16.2719 81.8783 16.2692C81.8921 16.2648 81.9064 16.2613 81.9197 16.2563C81.9336 16.2501 81.9461 16.2426 81.9593 16.2352C81.9671 16.2308 81.9756 16.2273 81.9834 16.2224C81.999 16.212 82.0133 16.1996 82.0274 16.1873C82.0309 16.1838 82.0353 16.1812 82.0383 16.1781C82.0545 16.1627 82.0687 16.1458 82.0818 16.1283C82.0828 16.1275 82.0836 16.1257 82.0844 16.1248C82.1262 16.0671 82.1517 15.9973 82.1561 15.9221V15.9212H82.1588V15.1366L82.1592 15.1358ZM64.5108 14.7222C64.57 15.3967 65.1096 16.2552 66.0442 16.2552H66.5911C66.6933 16.2548 66.7911 16.2141 66.8634 16.1418C66.9356 16.0695 66.9763 15.9715 66.9766 15.8694V3.84208H66.9748C66.9638 3.63945 66.7962 3.47714 66.5915 3.47714H64.8969C64.692 3.47714 64.5246 3.63945 64.5132 3.84208H64.5114V4.8194C63.473 3.53966 61.8362 3.00838 60.1947 3.00838C56.4635 3.00838 53.4388 6.03536 53.4388 9.76971C53.4388 13.5041 56.4635 16.5312 60.1947 16.5312V16.5315C61.8362 16.5315 63.6251 15.8942 64.5112 14.7207L64.5108 14.7222ZM60.2006 14.1648C57.8277 14.1648 55.9039 12.1972 55.9039 9.76971C55.9039 7.3425 57.8277 5.37474 60.2006 5.37474C62.5737 5.37474 64.4972 7.3425 64.4972 9.76971C64.4972 12.1972 62.5737 14.1648 60.2006 14.1648ZM43.417 12.9997C44.5482 13.784 45.7831 14.165 46.9696 14.165C48.1001 14.165 49.2688 13.5784 49.2688 12.5576C49.2688 11.1947 46.7222 10.9826 45.1222 10.4384C43.5219 9.89427 42.1436 8.7692 42.1436 6.94742C42.1436 4.15957 44.6256 3.00819 46.9423 3.00819C48.41 3.00819 49.9244 3.49259 50.9063 4.18648C51.2444 4.44282 51.0384 4.73731 51.0384 4.73731L50.1012 6.07694C49.9958 6.22781 49.8116 6.35813 49.5473 6.19484C49.2829 6.03164 48.3556 5.37474 46.9423 5.37474C45.5288 5.37474 44.6773 6.02792 44.6773 6.83765C44.6773 7.80851 45.7838 8.11387 47.08 8.44486C49.3387 9.05411 51.8026 9.78654 51.8026 12.5576C51.8026 15.0138 49.5068 16.5318 46.9697 16.5318C45.0469 16.5318 43.4099 15.9832 42.037 14.9749C41.751 14.6884 41.9507 14.4225 41.9507 14.4225L42.8834 13.0896C43.0732 12.8404 43.3124 12.9273 43.417 12.9997ZM36.9027 14.7222C36.9619 15.3967 37.5015 16.2552 38.4361 16.2552H38.983C39.0852 16.2549 39.1831 16.2141 39.2554 16.1418C39.3276 16.0695 39.3684 15.9716 39.3687 15.8694V3.84208H39.366C39.355 3.63945 39.1876 3.47714 38.9827 3.47714H37.2881C37.0832 3.47714 36.9158 3.63945 36.9045 3.84208H36.9027V4.8194C35.8644 3.53966 34.2276 3.00838 32.586 3.00838C28.8549 3.00838 25.8302 6.03536 25.8302 9.76971C25.8302 13.5041 28.8549 16.5312 32.586 16.5312V16.5315C34.2276 16.5315 36.0164 15.8942 36.9024 14.7207L36.9027 14.7222ZM32.5927 14.1648C30.2196 14.1648 28.2958 12.1972 28.2958 9.76971C28.2958 7.3425 30.2196 5.37474 32.5927 5.37474C34.9656 5.37474 36.8891 7.3425 36.8891 9.76971C36.8891 12.1972 34.9656 14.1648 32.5927 14.1648ZM16.3585 10.2296C13.8476 10.2296 11.812 12.265 11.812 14.7762C11.812 17.2872 13.8476 19.3226 16.3585 19.3226C18.8693 19.3226 20.905 17.2872 20.905 14.7762C20.905 12.265 18.8694 10.2296 16.3585 10.2296ZM4.54643 10.2301C2.03556 10.2301 0 12.2651 0 14.7762C0 17.2872 2.03556 19.3227 4.54643 19.3227C7.05749 19.3227 9.09305 17.2872 9.09305 14.7762C9.09305 12.2652 7.05749 10.2301 4.54643 10.2301ZM14.9989 4.54633C14.9989 7.05749 12.9634 9.09325 10.4524 9.09325C7.94148 9.09325 5.90601 7.05749 5.90601 4.54633C5.90601 2.03576 7.94148 0 10.4524 0C12.9634 0 14.9989 2.03576 14.9989 4.54633Z" fill="var(--fill-0, white)" fill-opacity="0.4"/>
</svg>
