<svg preserveAspectRatio="none" width="100%" height="100%" overflow="visible" style="display: block;" viewBox="0 0 110.856 12.5712" fill="none" xmlns="http://www.w3.org/2000/svg">
<g id="Group">
<path id="Vector" opacity="0.961" d="M0.568564 0L17.4563 0.0525701H17.5649C18.9755 0.223996 20.0852 0.688752 20.894 1.44684L20.9208 1.52512L21.002 1.55141L21.0831 1.68283L21.2723 1.81426L21.354 1.94569L21.4351 1.97254L21.7323 2.41939L21.814 2.44568L22.5717 3.86623V3.97137L23.0048 5.6542V6.96961C22.8532 8.0496 22.5193 8.95244 22.0031 9.67815L21.922 9.70443L21.7328 10.0467L21.6517 10.073L21.462 10.3621L21.3266 10.441L21.1911 10.625L21.11 10.6513L20.9208 10.8878L20.8397 10.9141L20.65 11.1513C19.7517 11.9086 18.5609 12.3819 17.0775 12.5712L16.9689 12.5187L16.8072 12.5712L12.7472 12.5187L12.6387 12.5712L11.7998 12.177L11.773 12.0975L11.313 11.7033L11.2861 11.6244L10.609 11.0724L10.4741 10.8878L10.3387 10.809L10.2033 10.625L10.0679 10.5461L9.98671 10.4147L9.85129 10.3359L9.66215 10.0993L9.581 10.073L9.49929 9.94157L9.41815 9.91472L9.28329 9.73072L9.20158 9.70443L9.17473 9.62558L9.09358 9.59929L8.90387 9.36272L8.82273 9.33644L8.79587 9.25758L8.71473 9.2313L8.47131 8.94159L8.33588 8.86273L8.30902 8.78387L8.1736 8.70502L7.95646 8.23188L8.20045 7.78446L8.41702 7.67932H16.4821C16.9552 7.6477 17.307 7.49875 17.5375 7.23247L17.5649 7.15361L17.646 7.12733C17.8986 6.89876 17.9889 6.51305 17.9169 5.9702L17.6192 5.41764L17.5375 5.39135L17.3483 5.15478L16.5906 4.89193H4.68222C4.15537 4.77269 3.74947 4.53594 3.46452 4.18165L3.3291 3.99766L3.24795 3.97137L3.11253 3.78737L2.9771 3.70795L2.84167 3.52395L2.70625 3.44509L2.62511 3.31367L2.54396 3.28738L2.30054 2.99824L2.2194 2.97196L2.13826 2.84053L2.05711 2.81424L1.59655 2.31425L1.46169 2.2354L1.38055 2.10397L1.24513 2.02511L1.05541 1.78855L0.974272 1.76226L0.677133 1.41998L0.541135 1.34112L0.405708 1.15713L0.270854 1.07827L0 0.657704V0.552563L0.0811418 0.315424L0.162284 0.289139L0.29771 0.105141L0.568564 0ZM44.0879 1.6834C45.9862 1.53941 47.3664 1.89864 48.2285 2.7611L48.2559 2.84053L48.7702 3.28738L48.797 3.36624L48.8782 3.39252C49.5166 4.08699 49.8776 5.05136 49.961 6.28562L49.9067 6.54848C49.8991 7.36561 49.7277 8.02312 49.3924 8.52102L49.3113 8.54731L48.905 9.25758L48.8239 9.28387L48.4724 9.73072L48.0662 10.0199L48.0393 10.0993C47.386 10.6037 46.538 10.9193 45.4953 11.0461H45.3868C43.8679 11.0846 42.7222 10.76 41.9497 10.0724L41.8685 9.941L41.5165 9.70443L41.3274 9.46786L41.2463 9.44158L41.1651 9.25758L41.0297 9.17873C40.6617 8.71207 40.391 8.15093 40.2177 7.49532L40.1091 5.81249L40.272 5.18107V5.07593C40.4301 4.37118 40.7278 3.80128 41.1651 3.36624L41.2463 3.33995L41.8685 2.68282C42.4533 2.19902 43.1931 1.86626 44.0879 1.6834ZM44.6559 3.47138C44.0426 3.54147 43.5735 3.73423 43.2485 4.04966L42.8697 4.47022H42.816L42.1663 5.62735L42.112 6.62733V6.7319C42.2202 7.43361 42.4908 7.99474 42.924 8.41531L43.3028 8.62559L43.3571 8.7833L44.6559 9.25701C45.6666 9.29206 46.4245 9.06406 46.9296 8.57302L47.0919 8.36274L47.2542 8.2576C47.6149 7.87208 47.8315 7.36351 47.9039 6.7319L47.7953 5.41764L47.1462 4.36508L46.9839 4.20737L46.8753 4.10223L45.9011 3.57652H45.7925C45.5041 3.43557 45.1253 3.40033 44.6559 3.47081M55.7798 1.6834C56.8403 1.54626 57.6702 1.63388 58.2694 1.94626H58.378L59.4334 2.44625L59.4603 2.52511L60.0289 2.91939L60.218 3.15596L60.2991 3.18224L60.8677 4.0508L60.9488 4.07651C61.353 4.71841 61.5515 5.55992 61.5443 6.60105V6.70676C61.3995 7.91284 60.9755 8.85073 60.2723 9.52043L60.1368 9.59929L60.11 9.67815L60.0289 9.705L60.0014 9.78329L59.5957 10.073L59.5689 10.1519C58.7712 10.7793 57.6344 11.0774 56.1586 11.0461C54.8017 10.8918 53.7642 10.4271 53.0461 9.65186C52.4252 9.04539 51.9922 8.25645 51.7473 7.28504V7.1799L51.693 5.86506C51.8194 4.93555 52.1172 4.17289 52.5861 3.57709L52.6672 3.55081L52.7484 3.36624L52.8295 3.33995L53.3981 2.73539C54.0007 2.19825 54.7946 1.84759 55.7798 1.6834ZM56.1855 3.47195C55.608 3.54166 55.1569 3.73442 54.8324 4.05023L54.6701 4.26051H54.6158L54.4535 4.47136H54.3992C54.0385 4.82184 53.804 5.29516 53.6958 5.89134V6.89076L54.2912 8.15303H54.3992L54.6701 8.57359H54.8324V8.67873H54.9404V8.78445L55.4278 8.99473H55.5358L56.294 9.25758C57.3043 9.29263 58.0439 9.06463 58.5129 8.57359L58.6214 8.41588L58.7837 8.31074C59.2527 7.89017 59.5052 7.27647 59.5414 6.46962C59.5052 5.45249 59.1986 4.71612 58.6214 4.26051L58.1883 3.94509L58.134 3.89252L57.4849 3.57709H57.3763C57.0518 3.43652 56.6548 3.40148 56.1855 3.47195ZM96.5386 1.6834L98.4329 1.73598C99.079 1.89712 99.6113 2.16892 100.03 2.55139L100.057 2.63025L100.192 2.7091L100.247 3.02453L100.084 3.12967L100.003 3.2611L99.7591 3.44509L99.7323 3.52452L99.6511 3.55081L99.4614 3.78737L99.326 3.86623L99.2991 3.94509L98.9746 3.99766L98.9203 3.89252L98.8391 3.86623L98.8117 3.78737L98.6769 3.76109L98.6494 3.68223C98.3321 3.44719 97.8992 3.32433 97.3506 3.31367L96.6198 3.55081L96.5929 3.62966L96.3489 3.81366L96.1323 4.2868L96.43 4.83936L96.5655 4.91822L96.5929 4.99707L97.1883 5.25992H97.2963L98.866 5.73363L99.8134 6.23305L99.9488 6.41705L100.03 6.44334L100.219 6.68048L100.3 6.70676C100.618 7.13456 100.762 7.73075 100.733 8.49531C100.661 9.03816 100.49 9.4852 100.219 9.83643L100.03 9.96786L99.7323 10.3096L99.6511 10.3359L99.6237 10.4147L99.326 10.5461L99.2991 10.625C98.6527 10.9617 97.8047 11.1021 96.7552 11.0461C95.5354 10.8812 94.6061 10.4339 93.9672 9.70443L93.9135 9.59929L93.9672 9.44158L94.5358 8.78445L94.6712 8.70502L94.6981 8.62616L95.1312 8.46845C95.4558 8.83683 95.8887 9.09987 96.43 9.25758L97.3506 9.31015H97.4586C97.8917 9.29301 98.2075 9.16158 98.406 8.91587C98.6403 8.75816 98.7306 8.46007 98.6769 8.0216L98.5952 7.78503L98.514 7.75875L98.3792 7.57418L97.3506 7.10104L95.7266 6.62791L94.8878 6.07534L94.8066 5.94391L94.6712 5.86506C94.2343 5.4304 94.0718 4.72908 94.1838 3.76109C94.2992 3.29481 94.5068 2.91767 94.8066 2.62968L94.9415 2.55139L95.0226 2.41997C95.4021 2.05159 95.9074 1.80645 96.5386 1.6834ZM30.4476 1.84112H33.9658L34.8321 1.94626C35.7521 2.19197 36.4827 2.62149 37.024 3.23481L37.1052 3.36624L37.2406 3.44509C37.7854 4.03747 38.1282 4.8266 38.2692 5.81249L38.2149 5.9702L38.2692 6.75876L38.2149 7.02161C38.0884 7.9336 37.7726 8.66121 37.2675 9.20444L37.1863 9.2313L36.7263 9.73072L36.5909 9.80957L36.5098 9.941C35.8423 10.485 34.9403 10.8006 33.8035 10.8878H33.5864L30.5013 10.8353L30.2579 10.7038L30.2036 10.5987L30.2579 10.441L30.2036 9.12616V9.02101L30.2579 8.81016V8.70502L30.2036 8.54731L30.2579 7.75875V7.65303L30.2036 7.44275L30.2579 7.28504L30.2036 7.1799L30.2579 7.02218L30.2036 6.81133L30.2579 6.54848L30.2036 6.33819L30.2579 6.02277V5.81249L30.2036 4.8125L30.2579 4.60222V4.49708L30.2036 4.23422L30.2579 4.02394L30.2036 3.9188L30.2579 3.81366L30.2036 3.65538L30.2579 3.49766L30.2036 3.39252L30.2579 2.18283V2.07768L30.339 1.89369L30.4476 1.84112ZM32.315 3.62966V9.04673L34.3178 8.99416L35.5086 8.31074L35.5623 8.15303L35.6709 8.10046C35.9593 7.78465 36.1578 7.3637 36.2663 6.83762C36.3745 5.68068 36.122 4.87422 35.5086 4.41822L35.1835 4.15537L35.0749 4.05023C34.4258 3.62928 33.5058 3.48947 32.315 3.62966ZM64.2237 1.84112H68.1207L68.7162 1.94626H68.8247C69.456 2.08607 69.9521 2.35787 70.3133 2.76167L70.6653 3.31367L70.7464 3.33995L71.1253 4.60279V4.70736L71.071 4.86564L71.1253 5.02336L71.071 5.28621C70.9479 6.0961 70.6142 6.70105 70.0698 7.10104L69.5556 7.44275L69.7447 7.89017L69.8259 7.91646L70.0156 8.36331L70.0967 8.38959L70.2858 8.83645L70.3676 8.86273L71.2876 10.6513L71.1521 10.8353L69.3659 10.8878L68.8247 9.941L68.7436 9.91472L67.9042 8.2576L67.823 8.23188L67.5796 7.73189L65.9831 7.75817V10.6513L65.8476 10.8353H64.1694L64.0345 10.7564L63.9802 6.75876L64.0345 6.54848V6.44334L63.9802 5.81249L64.0345 5.28621L63.9802 5.1285L64.0345 4.23422L63.9802 3.60281L64.0345 3.49766L63.9802 2.07768L64.1156 1.89369L64.2237 1.84112ZM66.0368 3.62966V5.94391H68.2019L68.6893 5.73306V5.68049L68.7973 5.62792L69.1224 4.99707C69.1586 4.57613 69.0864 4.27803 68.9059 4.1028L68.7973 3.99766L68.7436 3.94509L68.1482 3.62909L66.0368 3.62966ZM87.0119 1.84112H88.9062L89.0959 1.97254L92.2352 9.86214L92.2895 10.0199L92.4518 10.7038L92.3164 10.8353H90.5301L90.2867 10.5461L89.6644 8.7313H86.3085L86.2268 8.81016L85.4965 10.8353L83.5748 10.809L83.4662 10.4936L84.1702 8.86273L84.2245 8.70502L86.9033 1.89369L87.0119 1.84112ZM88.013 4.20794L86.985 6.94333V6.9959H88.9873L88.013 4.20794ZM103.305 1.84112H104.928L105.118 1.97254L105.145 5.41821L108.907 5.39135V1.97254L108.988 1.89369L110.666 1.84112L110.856 1.97254V10.7038L110.72 10.8353H109.096L108.907 10.7038L108.88 7.20618L105.118 7.23247V10.6513L104.928 10.8353H103.305L103.169 10.7038L103.115 2.13026L103.305 1.84112ZM74.2915 1.89369L78.1892 1.94626H78.2972C79.2606 2.09711 80.0274 2.43901 80.5977 2.97196L80.6246 3.05081L80.9223 3.28738L81.0034 3.41881L81.1388 3.49824C81.695 4.14965 82.0379 5.00869 82.1674 6.07534L82.1131 6.18048V6.28562L82.1674 6.49591L82.1131 6.65419V6.86447C82.0411 7.72351 81.7975 8.41607 81.3823 8.94216L81.3011 8.96844L80.8954 9.52043L80.8143 9.54672L80.7868 9.62558L80.7057 9.65186L80.6788 9.73072L80.1646 10.073L80.1377 10.1519L79.0549 10.6776H78.9469L78.0263 10.8884H74.2372L74.1024 10.7038V2.07768L74.2915 1.89369ZM76.1589 3.68223V9.0993C77.3856 9.23987 78.3238 9.09968 78.9737 8.67873V8.62616L79.136 8.57359L79.2446 8.41588L79.3526 8.36331L79.948 7.46904V7.36389L80.1646 6.78562C80.2004 5.59325 79.8937 4.76907 79.2446 4.31308L79.136 4.26051L78.9737 4.1028C78.3238 3.68223 77.3856 3.54204 76.1589 3.68223Z" fill="var(--fill-0, #111111)" fill-opacity="0.4"/>
</g>
</svg>
