<svg preserveAspectRatio="none" width="100%" height="100%" overflow="visible" style="display: block;" viewBox="0 0 72.1795 18.2822" fill="none" xmlns="http://www.w3.org/2000/svg">
<path id="Vector" fill-rule="evenodd" clip-rule="evenodd" d="M0.201043 7.28608C0.306738 7.23124 0.38958 7.23352 0.505558 7.25295C0.71866 7.33465 0.87006 7.5249 1.02717 7.68544L1.15572 7.81341C1.27227 7.92996 1.38844 8.04746 1.50423 8.16592L1.88244 8.54527C2.12925 8.79285 2.37549 9.04099 2.62116 9.28971L3.22105 9.89416L3.30731 9.981L3.481 10.1558C4.02337 10.702 4.56536 11.2488 5.10697 11.7961C5.57165 12.2657 6.03709 12.7348 6.50328 13.2033C7.10197 13.8051 7.69995 14.4077 8.29723 15.0109L8.38293 15.0978L8.98282 15.7016C9.22734 15.9465 9.47091 16.1922 9.71353 16.4386C9.83732 16.5643 9.96149 16.6895 10.086 16.814C10.2212 16.9496 10.3557 17.0856 10.4894 17.2219L10.6094 17.3419C10.9007 17.6407 10.9007 17.6407 10.9333 17.8344C10.9287 17.9715 10.9282 17.9715 10.8859 18.0549C10.7436 18.136 10.5945 18.1589 10.4345 18.1846L10.3317 18.2017C9.68383 18.3006 9.68383 18.3006 9.48501 18.244C9.2142 18.0366 8.97653 17.7841 8.73658 17.5413L8.62403 17.4282L8.31666 17.1179C8.20544 17.0063 8.09441 16.8947 7.98358 16.7831L7.33341 16.1273L6.80494 15.5954L6.72895 15.5188L6.57641 15.3646L5.14411 13.9208L2.4869 11.2431L2.33436 11.0888L2.25894 11.0128L1.73047 10.4809L1.08773 9.83303C0.978801 9.72258 0.869489 9.6125 0.759795 9.50281L0.405005 9.14459L0.299882 9.03832L0.204471 8.94177L0.121059 8.85836C-0.0246281 8.69839 0.00108087 8.52928 0.00279483 8.32132C0.0159179 8.12678 0.0389915 7.93304 0.0719248 7.74085L0.0879217 7.63802C0.110775 7.51118 0.137055 7.3992 0.201043 7.28608ZM0.689523 11.1979C0.792361 11.275 0.873488 11.3465 0.962043 11.4379L1.04031 11.5161C1.12792 11.603 1.21438 11.6902 1.29969 11.7778L1.48709 11.9646C1.65582 12.1337 1.82417 12.3036 1.99213 12.4742L2.52061 13.0067L3.40787 13.9025C3.74952 14.248 4.09193 14.5927 4.4351 14.9366C4.72952 15.2318 5.02337 15.5278 5.31665 15.8245C5.49185 16.0016 5.66744 16.1785 5.84341 16.3552C6.00833 16.5209 6.17306 16.6874 6.3376 16.8546L6.51928 17.0374C6.60231 17.1204 6.68477 17.204 6.76666 17.2882L6.84036 17.3608C6.95348 17.4779 7.00205 17.5459 7.02318 17.7104C7.00433 17.835 7.00433 17.835 6.94891 17.9206C6.79637 18.0178 6.63126 17.9595 6.46329 17.9264C6.33937 17.896 6.21696 17.8598 6.0965 17.8178L5.99366 17.783C4.86644 17.3805 3.83387 16.7509 2.95995 15.933C2.8263 15.8103 2.6905 15.6899 2.5526 15.5719C1.56993 14.619 0.847779 13.3335 0.413575 12.0412L0.37244 11.9224C0.308452 11.7218 0.262175 11.5476 0.283314 11.3339C0.383866 11.1654 0.507272 11.1756 0.689523 11.1979ZM1.4728 4.47519C1.65905 4.52089 1.72876 4.57402 1.86302 4.70886L1.99099 4.83626L2.12982 4.97795L2.27894 5.12649C2.41605 5.26361 2.55203 5.40092 2.68686 5.53841C2.8335 5.68658 2.98052 5.83436 3.12792 5.98176C3.41587 6.27085 3.70343 6.56032 3.99061 6.85017C4.22371 7.08631 4.457 7.3217 4.69048 7.55632L4.79161 7.65801L4.99385 7.86255C5.62726 8.50014 6.26009 9.13831 6.89235 9.77704C7.43473 10.3255 7.97805 10.873 8.52233 11.4196C9.15383 12.0545 9.78476 12.69 10.4151 13.3261L10.6168 13.5295L10.7173 13.6306L11.4172 14.3362C11.7021 14.6218 11.9864 14.9083 12.2702 15.1954C12.4149 15.3425 12.5599 15.4889 12.705 15.6348C12.8383 15.7681 12.971 15.902 13.1032 16.0364L13.2477 16.1815C13.3129 16.2467 13.3778 16.3128 13.4425 16.3798L13.5528 16.4906C13.6556 16.638 13.6739 16.7466 13.6796 16.926C13.5368 17.1202 13.3563 17.2191 13.1443 17.3259L12.9838 17.4093C12.801 17.4796 12.7004 17.5064 12.5073 17.4716C12.1994 17.2511 11.9388 16.9505 11.6732 16.682L11.5326 16.5403L11.1481 16.153L10.7322 15.7342L9.91864 14.9144L9.25876 14.2488L9.16335 14.1534L8.97253 13.9603L7.18201 12.156L5.64516 10.6077L3.86035 8.80808L3.6701 8.61669L3.57584 8.52128L2.91539 7.85569L2.11154 7.04613L1.70133 6.63192L1.32597 6.25485L1.19 6.11716L1.00603 5.93148C0.954616 5.88006 0.954615 5.88006 0.903196 5.82693C0.799216 5.71495 0.781506 5.66696 0.764938 5.5127C0.784363 5.2836 0.864347 5.13106 0.974041 4.93338L1.02946 4.82826C1.22371 4.46719 1.22428 4.46719 1.4728 4.47519ZM7.33455 0.172569C8.48691 -0.090239 9.87807 -0.0416769 11.0184 0.24227L11.1436 0.273121C11.4201 0.345107 11.6943 0.425664 11.9663 0.51479L12.0599 0.54507C12.8522 0.808852 13.5971 1.19769 14.2664 1.69685L14.4081 1.80083C14.7509 2.05736 15.0674 2.33845 15.3759 2.6361L15.5381 2.79036C15.7998 3.04117 16.0175 3.32626 16.2352 3.61592C16.2908 3.69019 16.3475 3.76389 16.4054 3.83702C16.9922 4.61287 17.4229 5.5367 17.6943 6.47024L17.7257 6.57822C17.8 6.82788 17.8629 7.07927 17.92 7.33407C17.9272 7.36569 17.9348 7.39806 17.9428 7.4312C18.2056 8.61212 18.1519 10.0279 17.8743 11.1979L17.8423 11.3345C17.4264 13.0187 16.5642 14.4476 15.3799 15.6902L15.3011 15.7748C15.1851 15.8936 15.1079 15.9627 14.9468 16.009C14.5509 15.9022 14.227 15.4394 13.9425 15.1526L13.7922 15.0012L13.0255 14.2311L11.86 13.0599L11.5572 12.7553L9.23819 10.4221L9.12907 10.3118C8.54366 9.72258 7.95768 9.13393 7.37112 8.54585L5.56689 6.73133C5.23019 6.39159 4.89273 6.05222 4.55451 5.71324C4.26656 5.42491 3.979 5.13582 3.69181 4.84597C3.54632 4.69857 3.39987 4.55136 3.25247 4.40434C3.11802 4.26989 2.98395 4.13468 2.85026 3.9987L2.70457 3.85302L2.50747 3.65363L2.39606 3.54222C2.29322 3.39539 2.27665 3.28398 2.26808 3.10573C2.31493 3.01318 2.3155 3.01318 2.39263 2.93605L2.48233 2.84292L2.58402 2.74294L2.68857 2.62868C3.88663 1.35692 5.55203 0.573065 7.22943 0.197135L7.33455 0.172569ZM49.882 7.30037C51.36 5.87778 53.8583 5.7418 55.4466 7.06098L55.5512 7.1444C56.4527 7.8974 56.8812 9.05832 57.0258 10.1975V11.471H50.575C50.6847 12.2417 50.8349 12.9736 51.4605 13.4855C51.9547 13.8391 52.5443 13.9734 53.1459 13.9254L53.275 13.9157C53.7532 13.8586 54.3177 13.6249 54.6348 13.2432C54.7725 13.0399 54.8862 12.8279 54.9958 12.6074H56.9349C56.7772 13.2438 56.7772 13.2438 56.6304 13.5255L56.583 13.6192C56.4544 13.8648 56.3093 14.0831 56.1231 14.2888L56.0357 14.3905C55.3849 15.096 54.3617 15.5662 53.4081 15.6148C53.239 15.6167 53.0701 15.6182 52.9014 15.6194H52.8088C51.6079 15.6171 50.6367 15.2286 49.7608 14.3973C48.8164 13.4215 48.5285 12.0686 48.5319 10.7523C48.5513 9.45425 48.985 8.2459 49.882 7.30037ZM59.1019 7.14782C60.5199 5.76123 63.2926 5.86807 64.7694 7.09012C65.2516 7.54832 65.6173 8.1962 65.6458 8.8755V9.19544L65.6453 9.38283V9.57994L65.6447 10.1158V10.6757L65.6436 11.7361L65.643 12.9433L65.6407 15.4263H63.6559L63.6108 14.2893L63.34 14.6533C62.9252 15.1715 62.2939 15.4828 61.6392 15.5542C60.5879 15.6371 59.5219 15.5394 58.6774 14.8367C58.2871 14.4741 58.0242 13.9952 57.9279 13.4712L57.8964 13.3175C57.833 12.5771 57.8924 11.8395 58.3804 11.2505C59.2362 10.3021 60.5297 10.1621 61.7283 10.0147L61.8254 10.0033C61.9823 9.98386 62.1395 9.9652 62.2968 9.94729C62.9623 9.89016 62.9629 9.88959 63.5205 9.56165C63.6296 9.34112 63.5885 9.0349 63.5394 8.80065C63.4337 8.48986 63.2497 8.28647 62.9789 8.10707C62.3716 7.81456 61.7214 7.80941 61.085 8.01623C60.7439 8.16877 60.4714 8.34931 60.3068 8.69553C60.284 8.74124 60.2613 8.7879 60.2389 8.83551C60.1732 8.98233 60.1726 8.98234 60.1377 9.19772H58.153C58.153 8.49043 58.4141 7.85455 58.9065 7.34493L59.0099 7.24323C59.0557 7.19639 59.0557 7.19639 59.1019 7.14782ZM28.4734 13.5158H34.0667V15.4257H26.3538V2.69666H28.4734V13.5158ZM37.4055 15.4257H35.3755V6.3794H37.4055V15.4257ZM43.2878 6.21543C44.2836 6.10573 45.2634 6.29141 46.0655 6.92501C46.7648 7.53061 47.1168 8.28989 47.2385 9.19772C47.2438 9.30285 47.247 9.40759 47.2482 9.51195V10.0107C47.2482 10.1764 47.2478 10.3415 47.247 10.506V11.0259L47.2447 12.0075L47.2425 13.1261C47.2417 13.8925 47.2404 14.659 47.2385 15.4257H45.2086L45.2063 14.9286C45.204 14.384 45.2011 13.8393 45.1977 13.2947L45.1931 12.304C45.192 11.8641 45.1898 11.4242 45.1863 10.9842C45.2206 9.68734 45.2206 9.68734 44.6721 8.55727C44.1882 8.10307 43.6437 8.03509 43.0067 8.04765C42.5325 8.06822 42.1326 8.24019 41.7806 8.56184C41.3219 9.08117 41.2333 9.66678 41.2299 10.3369L41.2287 10.5043L41.2253 10.9551L41.2219 11.4264L41.2162 12.3188L41.2087 13.3358L41.1939 15.4257H39.1183V6.3794H41.1476L41.1933 7.78885L41.4635 7.33407C41.9177 6.71248 42.5411 6.34912 43.2861 6.21543M71.751 6.27999C72.0766 6.2817 72.0766 6.28227 72.1795 6.33426V8.19734L71.6521 8.16649C70.9905 8.13621 70.4826 8.17563 69.973 8.64069C69.5245 9.10688 69.4668 9.67935 69.464 10.2958L69.4628 10.4638L69.4594 10.9185L69.456 11.3939L69.4503 12.2937L69.4428 13.3187L69.428 15.4257H67.3535V6.3794H69.3377L69.3828 7.6523L69.516 7.38264C69.7719 6.89302 70.125 6.56965 70.646 6.3794C70.97 6.29141 71.2819 6.27542 71.6161 6.27999H71.751ZM63.6096 11.1076C63.5479 11.1048 63.548 11.1054 63.4285 11.1476C63.0305 11.2641 62.6253 11.3549 62.2156 11.4196C62.0435 11.4482 61.8709 11.4756 61.698 11.5019C61.0838 11.5984 60.5108 11.7498 60.0743 12.224C59.8881 12.5062 59.8778 12.7765 59.9109 13.1073C59.9915 13.4101 60.1972 13.6209 60.4525 13.7894C60.9679 14.0699 61.6814 14.0425 62.2419 13.9203C62.5978 13.8117 62.9161 13.6203 63.1589 13.3352L63.2257 13.2575C63.5971 12.8005 63.6354 12.3314 63.6205 11.7578L63.6188 11.5676C63.6161 11.4141 63.6131 11.2611 63.6096 11.1076ZM54.228 8.28818C53.287 7.61002 51.9381 7.68087 51.1297 8.54413C50.8138 8.93263 50.5738 9.4611 50.5738 9.97015H55.0398C54.9684 9.31999 54.7479 8.71096 54.228 8.28818ZM35.8743 2.74237C36.216 2.62068 36.701 2.62296 37.0124 2.81893C37.3415 3.07545 37.5386 3.34226 37.602 3.76618C37.6191 4.11182 37.5049 4.39863 37.326 4.68886C37.0632 4.94595 36.7621 5.10307 36.3925 5.10764C36.0349 5.08593 35.7206 4.95452 35.4652 4.69686C35.2424 4.35292 35.1544 4.06269 35.195 3.65134C35.2916 3.23942 35.5275 2.97033 35.8743 2.74237Z" fill="var(--fill-0, white)" fill-opacity="0.4"/>
</svg>
