<svg preserveAspectRatio="none" width="100%" height="100%" overflow="visible" style="display: block;" viewBox="0 0 100.271 10.2842" fill="none" xmlns="http://www.w3.org/2000/svg">
<path id="Vector" d="M32.1765 6.27795C32.1765 7.53377 33.0147 8.07198 34.3019 8.07198C35.6486 8.07198 36.4267 7.53377 36.4267 6.27795L36.457 0.238822H38.9412V6.57734C38.9412 9.41693 36.4267 10.2842 34.3316 10.2842C32.2062 10.2842 29.6923 9.38722 29.6923 6.57734V0.239394H32.1765V6.27795ZM85.4545 0C87.969 0 89.7053 1.28553 89.8253 3.31895H87.3708C87.2508 2.60134 86.5921 2.12255 85.3054 2.12255C83.9884 2.12255 83.3 2.57106 83.3 3.07956C83.3 3.52749 83.6594 3.85659 84.9757 4.00628L87.2508 4.27481C89.0169 4.4845 89.975 5.47121 90.0047 7.14525C90.0047 9.02841 88.4181 10.2842 85.5448 10.2842C82.4018 10.2842 80.9352 9.11868 80.8152 6.87615H83.2103C83.3 7.71317 83.9587 8.1314 85.6048 8.1314C87.0114 8.1314 87.6096 7.68346 87.6102 7.17554C87.6102 6.75674 87.1908 6.39793 86.323 6.30823L84.0187 6.06884C81.9533 5.85973 80.9352 5.0227 80.9352 3.31895C80.9352 1.1964 82.4618 0 85.4545 0ZM54.6253 0C58.187 0 60.0433 2.18254 60.0433 5.11183C60.0433 8.07141 58.187 10.2539 54.6253 10.2539C51.0938 10.2539 49.238 8.07141 49.238 5.11183C49.238 2.18254 51.0635 0 54.6253 0ZM13.9483 0.268532C14.158 0.268532 14.3071 0.418797 14.3071 0.5982V10.0151H8.82958V8.4005C8.82958 8.16168 8.94957 7.83258 9.21924 7.65318L13.5295 5.08212C13.5889 5.05241 13.6489 4.99242 13.6489 4.87301C13.6489 4.83765 13.6419 4.80264 13.6283 4.76998C13.6148 4.73733 13.5949 4.70768 13.5698 4.68272C13.5448 4.65777 13.515 4.63802 13.4823 4.62459C13.4496 4.61116 13.4146 4.60433 13.3792 4.60448H8.82958L0.0897011 10.0443H0V5.67918L8.73988 0.268532H13.9483ZM29.3329 10.0454H26.6693L26.0408 8.22224H21.85L21.1918 10.0454H18.6173L22.3893 0.269675H25.5615L29.3329 10.0454ZM48.8187 2.39223H45.6763V10.0454H43.1909V2.39166H40.0188V0.269104H48.8187V2.39223ZM65.9693 0.269675C69.5014 0.269675 70.4298 1.64491 70.4298 5.08269C70.4298 8.73017 69.4711 10.0454 65.9693 10.0454H61.39V0.269675H65.9693ZM79.7085 2.39223H74.3201V4.03656H78.6606V6.15911H74.3201V7.92286H79.7085V10.0454H71.8359V0.269675H79.7085V2.39223ZM93.7459 4.24624L97.3077 0.269675H100.271L95.7216 5.23239L100.271 10.0454H97.1283L93.7459 6.33851V10.0454H91.2617V0.269675H93.7459V4.24624ZM54.6253 2.18254C52.7998 2.18254 51.7817 3.31895 51.7817 5.1124C51.7817 6.93614 52.7695 8.07198 54.6253 8.07198C56.481 8.07198 57.4986 6.96585 57.4688 5.1124C57.4688 3.31895 56.481 2.18254 54.6253 2.18254ZM63.8742 7.92286H65.8499C67.3766 7.92286 67.8851 7.14583 67.8851 5.08327C67.8851 2.81102 67.4063 2.39223 65.8499 2.39223H63.8742V7.92286ZM22.5985 6.12883H25.3221L23.9754 2.30253L22.5985 6.12883Z" fill="var(--fill-0, #111111)" fill-opacity="0.4"/>
</svg>
