<svg preserveAspectRatio="none" width="100%" height="100%" overflow="visible" style="display: block;" viewBox="0 0 15.0578 10.8362" fill="none" xmlns="http://www.w3.org/2000/svg">
<path id="Vector" d="M12.8696 10.7599C12.657 10.614 12.6287 10.3505 12.7802 10.1199C13.7123 8.72993 14.2066 7.09261 14.1994 5.41907C14.1994 3.61779 13.6498 2.00285 12.7802 0.717299C12.6287 0.487669 12.657 0.224159 12.8696 0.077346C13.0607 -0.061938 13.3355 -0.0120593 13.487 0.218512C14.5192 1.75577 15.0664 3.56742 15.0577 5.41907C15.0577 7.39916 14.4686 9.20044 13.4861 10.6196C13.3355 10.8436 13.0607 10.9001 12.8696 10.7599ZM6.04756 10.3731C5.78405 10.3731 5.56571 10.2658 5.31349 10.0192L2.91743 7.75302C2.89865 7.73532 2.87642 7.72168 2.85213 7.71294C2.82785 7.70419 2.80202 7.70054 2.77627 7.7022H1.17356C0.410323 7.7022 0 7.28717 0 6.47311V4.38668C0 3.57827 0.409382 3.15759 1.17262 3.15759H2.77627C2.83273 3.15759 2.88261 3.14065 2.91649 3.10771L5.31255 0.86223C5.593 0.587426 5.7737 0.475435 6.03721 0.475435C6.41835 0.475435 6.68186 0.772825 6.68186 1.13703V9.74346C6.68186 10.1077 6.41835 10.3721 6.04756 10.3721M10.7663 9.27197C10.5592 9.13174 10.531 8.86729 10.6872 8.63766C11.2876 7.76243 11.6528 6.61334 11.6528 5.41813C11.6528 4.22293 11.2989 3.0616 10.6872 2.19766C10.5244 1.96803 10.5583 1.70358 10.7663 1.56336C10.9733 1.42313 11.2312 1.47395 11.3827 1.68758C12.1074 2.66351 12.5214 4.03188 12.5214 5.41813C12.5214 6.80438 12.1008 8.16146 11.3827 9.14868C11.2321 9.36137 10.9733 9.41219 10.7663 9.27197ZM8.68454 7.80855C8.45491 7.64573 8.42668 7.37658 8.59514 7.14036C8.91511 6.68675 9.10522 6.06938 9.10522 5.41813C9.10522 4.76877 8.91982 4.14575 8.59514 3.69591C8.42103 3.46627 8.45397 3.18583 8.68454 3.02866C8.86994 2.89408 9.13345 2.93925 9.28497 3.15759C9.71694 3.72979 9.9748 4.55984 9.9748 5.41907C9.9748 6.27736 9.71694 7.11307 9.28497 7.67961C9.13345 7.89889 8.86994 7.93748 8.68454 7.80855Z" fill="var(--fill-0, white)"/>
</svg>
