<svg preserveAspectRatio="none" width="100%" height="100%" overflow="visible" style="display: block;" viewBox="0 0 94.197 11.9048" fill="none" xmlns="http://www.w3.org/2000/svg">
<path id="Vector" fill-rule="evenodd" clip-rule="evenodd" d="M0 0.288833H3.152L6.096 8.33683H6.144L9.056 0.288833H12.224V11.6168H10.224V2.51283H10.192L6.752 11.6168H5.344L1.952 2.51283H1.92V11.6168H0V0.288833ZM17.742 0.288833H25.246V2.04883H19.758V4.92883H24.958V6.62483H19.758V9.82483H25.534V11.6168H17.742V0.288833ZM34.188 5.16883C34.476 5.16883 34.764 5.1475 35.052 5.10483C35.34 5.06217 35.5987 4.98217 35.828 4.86483C36.0587 4.7475 36.248 4.5795 36.396 4.36083C36.546 4.14217 36.6207 3.86217 36.62 3.52083C36.62 3.21083 36.5507 2.9575 36.412 2.76083C36.2748 2.56486 36.0941 2.40331 35.884 2.28883C35.6573 2.16685 35.4108 2.08561 35.156 2.04883C34.8941 2.00652 34.6293 1.98512 34.364 1.98483H32.54V5.16883H34.188ZM30.524 0.288833H34.46C34.9933 0.288833 35.5107 0.344832 36.012 0.456832C36.4872 0.558169 36.9399 0.745223 37.348 1.00883C37.738 1.26483 38.05 1.60083 38.284 2.01683C38.518 2.43283 38.6353 2.9395 38.636 3.53683C38.636 4.3575 38.404 5.02683 37.94 5.54483C37.476 6.06283 36.844 6.41217 36.044 6.59283L39.068 11.6168H36.636L34.012 6.81683H32.54V11.6168H30.524V0.288833ZM51.787 2.94483C51.491 2.54284 51.0855 2.23456 50.619 2.05683C50.171 1.87718 49.6936 1.78224 49.211 1.77683C48.6243 1.77683 48.091 1.8835 47.611 2.09683C47.1419 2.30241 46.7199 2.6019 46.371 2.97683C46.0243 3.35017 45.7577 3.7875 45.571 4.28883C45.3797 4.81142 45.2848 5.36437 45.291 5.92083C45.291 6.5395 45.3817 7.10483 45.563 7.61683C45.7443 8.12883 46.003 8.56883 46.339 8.93683C46.843 9.48883 47.077 9.58983 47.547 9.79283C48.0157 9.9955 48.5437 10.0968 49.131 10.0968C49.739 10.0968 50.2777 9.97683 50.747 9.73683C51.2163 9.49683 51.595 9.1795 51.883 8.78483L53.499 9.92083C53.0055 10.5429 52.3761 11.0437 51.659 11.3848C50.933 11.7315 50.085 11.9048 49.115 11.9048C48.229 11.9048 47.4157 11.7582 46.675 11.4648C45.9601 11.1893 45.3093 10.77 44.763 10.2328C44.2228 9.695 43.7982 9.05254 43.515 8.34483C43.2163 7.61417 43.067 6.80617 43.067 5.92083C43.067 5.01417 43.2243 4.1955 43.539 3.46483C43.8367 2.76013 44.2781 2.12527 44.835 1.60083C45.3984 1.08164 46.0592 0.679225 46.779 0.416832C47.9204 0.00197923 49.1509 -0.105614 50.347 0.104833C50.741 0.174166 51.1197 0.280833 51.483 0.424833C51.845 0.568833 52.1863 0.7475 52.507 0.960833C52.827 1.17417 53.099 1.43017 53.323 1.72883L51.787 2.94483ZM66.793 7.45683C66.793 8.1395 66.6757 8.7555 66.441 9.30483C66.2209 9.83266 65.894 10.3093 65.481 10.7048C65.0757 11.0888 64.5957 11.3848 64.041 11.5928C63.209 11.9048 62.884 11.9048 62.233 11.9048C61.582 11.9048 60.98 11.8008 60.425 11.5928C59.87 11.3848 59.388 11.0888 58.977 10.7048C58.5605 10.3122 58.2331 9.83481 58.017 9.30483C57.7877 8.7555 57.673 8.1395 57.673 7.45683V0.288833H59.689V7.37683C59.689 7.7075 59.7317 8.0355 59.817 8.36083C59.9023 8.68617 60.0437 8.97683 60.241 9.23283C60.4383 9.48883 60.6997 9.69683 61.025 9.85683C61.3503 10.0168 61.753 10.0968 62.233 10.0968C62.713 10.0968 63.1157 10.0168 63.441 9.85683C63.7663 9.69683 64.0277 9.48883 64.225 9.23283C64.4223 8.97683 64.5637 8.68617 64.649 8.36083C64.7343 8.03617 64.777 7.70817 64.777 7.37683V0.288833H66.793V7.45683ZM75.879 5.16883C76.167 5.16883 76.455 5.1475 76.743 5.10483C77.031 5.06217 77.2897 4.98217 77.519 4.86483C77.7483 4.7475 77.9377 4.5795 78.087 4.36083C78.2363 4.14217 78.311 3.86217 78.311 3.52083C78.311 3.21083 78.2417 2.9575 78.103 2.76083C77.895 2.46583 77.788 2.40583 77.575 2.28883C77.3617 2.17217 77.119 2.09217 76.847 2.04883C76.439 1.98383 76.311 1.98483 76.055 1.98483H74.231V5.16883H75.879ZM72.215 0.288833H76.151C76.6843 0.288833 77.2017 0.344832 77.703 0.456832C78.2043 0.568832 78.6497 0.752832 79.039 1.00883C79.4283 1.26483 79.7403 1.60083 79.975 2.01683C80.2097 2.43283 80.327 2.9395 80.327 3.53683C80.327 4.3575 80.095 5.02683 79.631 5.54483C79.167 6.06283 78.535 6.41217 77.735 6.59283L80.759 11.6168H78.327L75.703 6.81683H74.231V11.6168H72.215V0.288833ZM87.925 6.70483L83.669 0.288833H86.133L88.981 5.05683L91.861 0.288833H94.197L89.941 6.70483V11.6168H87.925V6.70483Z" fill="var(--fill-0, white)" fill-opacity="0.4"/>
</svg>
