<svg preserveAspectRatio="none" width="100%" height="100%" overflow="visible" style="display: block;" viewBox="0 0 936.604 278.818" fill="none" xmlns="http://www.w3.org/2000/svg">
<g id="Group">
<path id="Vector" d="M0.627877 183.444L30.821 158.563L61.0132 137.829L91.2063 133.683L121.399 129.536L151.592 125.389L181.785 108.802H211.978L242.17 100.509H272.363L302.555 108.802L332.749 92.2154L362.942 88.0687H393.134L423.327 79.7752L453.52 75.6285L483.712 71.4818L513.905 63.1883H544.099L574.291 59.0416L604.484 54.8948L634.677 50.7481H664.869L695.062 46.6014L725.254 34.1612L755.448 21.721L785.641 9.28078H815.833L846.026 5.13405H876.219L906.411 0.987317H936.604V278.818H906.411H876.219H846.026H815.833H785.641H755.448H725.254H695.062H664.869H634.677H604.484H574.291H544.099H513.905H483.712H453.52H423.327H393.134H362.942H332.749H302.555H272.363H242.17H211.978H181.785H151.592H121.399H91.2063H61.0132H30.821H0.627877V183.444Z" fill="url(#paint0_linear_14_16744)"/>
<path id="Vector_2" d="M0.627877 183.444L30.821 158.563L61.0132 137.829L91.2063 133.683L121.399 129.536L151.592 125.389L181.785 108.802H211.978L242.17 100.509H272.363L302.555 108.802L332.749 92.2154L362.942 88.0687H393.134L423.327 79.7752L453.52 75.6285L483.712 71.4818L513.905 63.1883H544.099L574.291 59.0416L604.484 54.8948L634.677 50.7481H664.869L695.062 46.6014L725.254 34.1612L755.448 21.721L785.641 9.28078H815.833L846.026 5.13405H876.219L906.411 0.987317H936.604" stroke="var(--stroke-0, #FF5600)" stroke-width="1.97463"/>
</g>
<defs>
<linearGradient id="paint0_linear_14_16744" x1="0.627877" y1="278.818" x2="0.627877" y2="0.987317" gradientUnits="userSpaceOnUse">
<stop stop-color="#FF5600" stop-opacity="0"/>
<stop offset="0.2" stop-color="#FF5600" stop-opacity="0.3"/>
<stop offset="0.5" stop-color="#FF5600" stop-opacity="0.7"/>
<stop offset="0.8" stop-color="#FF5600" stop-opacity="0.9"/>
<stop offset="1" stop-color="#FF5600"/>
</linearGradient>
</defs>
</svg>
