<svg preserveAspectRatio="none" width="100%" height="100%" overflow="visible" style="display: block;" viewBox="0 0 85.5043 25.9039" fill="none" xmlns="http://www.w3.org/2000/svg">
<path id="Vector" d="M69.4715 0.176581C66.5972 0.745891 64.3338 2.46771 63.0286 5.10597C62.8064 5.55031 62.6259 6.03631 62.6259 6.17516C62.6259 6.42511 63.0286 6.67505 64.0839 7.1055C64.5699 7.31379 65.278 7.60538 65.9584 7.91087C66.7916 8.27189 67.222 8.43852 67.347 8.43852C67.4164 8.43852 67.6108 8.14692 67.7913 7.7859C68.194 6.96665 69.1799 5.95299 69.9575 5.55031C70.4296 5.30037 70.7767 5.24483 71.7348 5.24483C73.0679 5.24483 73.8316 5.50866 74.5397 6.20294C75.0396 6.70282 75.5812 8.09138 75.5117 8.73012L75.4701 9.20223L73.2484 9.35497C70.3463 9.54937 68.9161 9.84097 66.9304 10.6463C65.0836 11.3823 63.7367 12.5348 62.9591 14.0067C62.5703 14.7287 62.5703 14.812 62.5703 16.7699C62.5703 18.7555 62.5842 18.7972 63.0286 19.7136C64.0978 21.9215 66.1806 23.0462 69.291 23.0462C71.7487 23.0601 73.9288 22.2686 75.5395 20.7967C76.4837 19.9358 76.6087 19.8942 76.8447 20.3385C77.0947 20.8245 78.1083 21.7965 78.6638 22.0881C79.2747 22.4213 80.5105 22.7407 81.1493 22.7407C82.2879 22.7268 84.1347 22.102 85.0928 21.3799C85.6343 20.9911 85.6343 20.8245 85.1345 19.547C84.5513 18.0613 84.3985 17.6725 84.3291 17.3531C84.2319 16.9226 83.9403 16.8254 83.5237 17.1031C83.0516 17.4086 82.4406 17.3809 82.1213 17.0337C81.6214 16.4783 81.4964 15.5757 81.3715 11.5628C81.2465 7.24436 81.1354 6.56396 80.3439 4.91157C79.3719 2.91205 77.664 1.38463 75.4701 0.579264C73.901 0.00995342 71.2072 -0.17056 69.4715 0.176581ZM75.5812 13.7428C75.9977 14.0622 75.4423 15.548 74.5536 16.4922C73.3595 17.7419 72.2625 18.2279 70.6101 18.2279C69.1521 18.2279 68.7494 18.0335 68.4023 17.117C68.1246 16.395 68.1246 16.034 68.4023 15.4924C68.9994 14.3399 70.1658 13.9928 74.4981 13.6595C74.8036 13.6456 75.1229 13.6179 75.2062 13.604C75.2757 13.5901 75.4562 13.6595 75.5812 13.7428ZM10.6937 1.64846C10.4299 1.71788 9.90221 1.82897 9.51341 1.8984C6.75017 2.41216 4.25076 4.61998 2.73723 7.8831C2.09849 9.25777 1.58473 10.6463 1.39033 11.4934C1.33478 11.7572 1.2237 12.2571 1.14039 12.6042C0.501648 15.2286 0.154508 18.3667 0.0434234 22.2547C-0.0537759 26.1982 -0.109319 26.0455 1.27924 25.7955C2.94552 25.4901 3.38986 25.3234 3.48706 24.9624C3.5426 24.768 3.58425 23.8654 3.59814 22.949C3.6398 17.0476 4.62567 11.3406 5.95869 9.11891C6.12532 8.85509 6.30583 8.49406 6.38915 8.31355C6.59743 7.85533 8.18039 6.31402 8.7497 6.02242C10.5132 5.13374 12.4155 5.11986 14.3039 5.98077C14.6511 6.13351 15.3037 6.64728 15.7758 7.1055C17.817 9.16057 18.789 12.7708 18.9556 19.0055C18.9834 20.5051 19.0667 21.8381 19.1084 21.9631C19.2472 22.3102 19.6083 22.338 20.6913 22.0603C21.4134 21.8798 21.7466 21.7271 21.8161 21.5465C21.8577 21.3938 21.8855 20.2552 21.8438 18.9916C21.705 12.8403 20.6219 8.04972 18.6918 5.06432C18.1919 4.30061 16.9144 2.98147 16.3729 2.67599C14.6372 1.69011 12.235 1.25966 10.6937 1.64846Z" fill="var(--fill-0, black)"/>
</svg>
