<svg preserveAspectRatio="none" width="100%" height="100%" overflow="visible" style="display: block;" viewBox="0 0 10.8 10.7891" fill="none" xmlns="http://www.w3.org/2000/svg">
<g id="Group">
<path id="Vector" d="M2.27836 6.82036C2.27836 7.12112 2.15889 7.40956 1.94622 7.62222C1.73356 7.83489 1.44512 7.95436 1.14436 7.95436C0.843608 7.95436 0.555171 7.83489 0.342505 7.62222C0.129838 7.40956 0.0103637 7.12112 0.0103637 6.82036C0.0103637 6.19309 0.517636 5.68582 1.14491 5.68582H2.27836V6.82036ZM2.84564 6.82036C2.84564 6.67152 2.87495 6.52413 2.93192 6.38661C2.98888 6.24909 3.07237 6.12414 3.17762 6.01889C3.28287 5.91364 3.40782 5.83015 3.54534 5.77319C3.68285 5.71623 3.83024 5.68691 3.97909 5.68691C4.12794 5.68691 4.27533 5.71623 4.41285 5.77319C4.55036 5.83015 4.67531 5.91364 4.78056 6.01889C4.88582 6.12414 4.96931 6.24909 5.02627 6.38661C5.08323 6.52413 5.11255 6.67152 5.11255 6.82036V9.65455C5.11255 9.9553 4.99307 10.2437 4.7804 10.4564C4.56774 10.6691 4.2793 10.7885 3.97855 10.7885C3.67779 10.7885 3.38935 10.6691 3.17669 10.4564C2.96402 10.2437 2.84455 9.9553 2.84455 9.65455L2.84564 6.82036ZM3.97691 2.26909C3.82792 2.26909 3.68039 2.23975 3.54274 2.18273C3.40509 2.12571 3.28002 2.04214 3.17466 1.93679C3.06931 1.83144 2.98574 1.70637 2.92873 1.56872C2.87171 1.43107 2.84236 1.28354 2.84236 1.13455C2.84236 0.985555 2.87171 0.838023 2.92873 0.700374C2.98574 0.562724 3.06931 0.437653 3.17466 0.332301C3.28002 0.226948 3.40509 0.143378 3.54274 0.0863621C3.68039 0.0293459 3.82792 1.50516e-09 3.97691 3.72529e-09C4.60418 3.72529e-09 5.11145 0.507273 5.11145 1.13455V2.26909H3.97691ZM3.97691 2.844C4.27766 2.844 4.5661 2.96347 4.77877 3.17614C4.99143 3.38881 5.11091 3.67724 5.11091 3.978C5.11091 4.27876 4.99143 4.56719 4.77877 4.77986C4.5661 4.99253 4.27766 5.112 3.97691 5.112H1.134C0.833245 5.112 0.544807 4.99253 0.332141 4.77986C0.119475 4.56719 0 4.27876 0 3.978C0 3.67724 0.119475 3.38881 0.332141 3.17614C0.544807 2.96347 0.833245 2.844 1.134 2.844H3.97691ZM8.52273 3.97855C8.52273 3.67765 8.64226 3.38907 8.85503 3.1763C9.0678 2.96353 9.35637 2.844 9.65727 2.844C9.95817 2.844 10.2467 2.96353 10.4595 3.1763C10.6723 3.38907 10.7918 3.67765 10.7918 3.97855C10.7918 4.60473 10.2845 5.112 9.65727 5.112H8.52273V3.97855ZM7.95545 3.97855C7.95545 4.27916 7.83604 4.56746 7.62347 4.78002C7.41091 4.99258 7.12261 5.112 6.822 5.112C6.52139 5.112 6.23309 4.99258 6.02053 4.78002C5.80796 4.56746 5.68855 4.27916 5.68855 3.97855V1.13455C5.68855 0.83379 5.80802 0.545353 6.02069 0.332686C6.23335 0.12002 6.52179 0.000545459 6.82255 0.000545459C7.1233 0.000545459 7.41174 0.12002 7.6244 0.332686C7.83707 0.545353 7.95655 0.83379 7.95655 1.13455L7.95545 3.97855ZM6.822 8.52C6.97099 8.52 7.11852 8.54935 7.25617 8.60636C7.39382 8.66338 7.51889 8.74695 7.62425 8.8523C7.7296 8.95765 7.81317 9.08272 7.87018 9.22037C7.9272 9.35802 7.95655 9.50555 7.95655 9.65455C7.95655 9.80354 7.9272 9.95107 7.87018 10.0887C7.81317 10.2264 7.7296 10.3514 7.62425 10.4568C7.51889 10.5621 7.39382 10.6457 7.25617 10.7027C7.11852 10.7597 6.97099 10.7891 6.822 10.7891C6.19582 10.7891 5.68855 10.2818 5.68855 9.65455V8.52H6.822ZM6.822 7.95273C6.52139 7.95273 6.23309 7.83331 6.02053 7.62075C5.80796 7.40818 5.68855 7.11988 5.68855 6.81927C5.68855 6.51866 5.80796 6.23036 6.02053 6.0178C6.23309 5.80524 6.52139 5.68582 6.822 5.68582H9.666C9.96676 5.68582 10.2552 5.80529 10.4679 6.01796C10.6805 6.23063 10.8 6.51906 10.8 6.81982C10.8 7.12057 10.6805 7.40901 10.4679 7.62168C10.2552 7.83434 9.96676 7.95382 9.666 7.95382L6.822 7.95273Z" fill="var(--fill-0, white)"/>
</g>
</svg>
