<svg preserveAspectRatio="none" width="100%" height="100%" overflow="visible" style="display: block;" viewBox="0 0 76.1307 29.7095" fill="none" xmlns="http://www.w3.org/2000/svg">
<path id="Vector" d="M2.43156 0.00062639C2.78635 0.00119772 3.12286 0.379415 3.23941 1.0193C3.25198 1.08786 3.25884 1.15699 3.26512 1.22612C3.50165 3.87478 4.29465 8.2837 5.17449 8.2837C5.47501 8.2837 5.65155 7.98661 5.72868 7.66667C5.84009 7.11248 5.57899 6.73655 5.77153 6.69085C5.9932 6.6777 6.39941 7.02164 6.67994 7.76208C7.33753 7.1799 7.52664 5.76073 7.73517 4.43697C7.882 3.50913 7.98199 1.33867 8.38077 0.534815C8.50246 0.276005 8.675 0.0891819 8.90753 0.0223368C8.98752 -0.0005162 9.07265 -0.00280158 9.15549 0.00462565C10.3633 0.107464 10.8558 1.66033 11.0506 2.20594C11.4659 3.66853 11.8859 6.43946 10.8712 6.9268C10.6689 7.00507 10.5324 7.06506 10.4427 7.10791C10.3993 7.12848 10.413 7.1919 10.4598 7.19361C10.7409 7.20732 11.2797 7.30216 11.5499 7.81578C11.6659 8.02717 11.8527 7.90434 12.0784 7.90434C12.8177 7.90434 13.3062 8.60821 13.3187 9.07213C13.9163 9.21782 14.3968 9.75429 14.5825 10.4467C14.6179 10.5416 14.7122 10.6107 14.7939 10.6627C15.3835 11.0455 15.9988 11.3997 16.5124 11.8796C16.6358 11.9922 16.7535 12.1139 16.8438 12.255C17.0192 12.5321 17.0786 12.8697 17.0781 13.1977C17.0815 13.3891 17.1238 13.4262 17.178 13.5005C17.7128 14.1769 18.0087 15.0945 17.5677 15.8966C17.3226 16.3411 16.9198 16.5913 16.5547 16.8947C16.4976 16.961 16.4982 17.0238 16.4822 17.0941C16.4132 17.4014 16.2746 17.6887 16.0771 17.934C16.2354 18.259 16.4102 18.6887 16.1988 19.3417C16.9724 20.2644 16.7227 21.2636 16.661 21.391C17.6968 21.6961 17.9882 24.8099 17.9893 24.823C18.0762 25.56 18.8509 26.1987 19.889 25.8554C20.001 25.8182 20.1027 25.9382 20.0501 26.0439C19.1291 27.879 16.0788 29.7095 10.1816 29.7095C7.83344 29.7095 4.44777 29.5284 2.64409 27.2243C2.49057 27.0322 2.37079 26.8154 2.28987 26.5832C2.11505 26.0673 2.0762 25.4577 2.30701 24.3699C2.68009 22.7811 2.9469 21.4967 3.09087 20.0719C2.60182 20.5563 1.75625 20.3135 1.62885 19.8599C2.10019 19.7113 2.46298 19.3726 2.46298 18.5407C2.46298 18.1813 2.45498 17.6117 2.7875 16.8953C2.63609 16.5433 2.57154 15.9737 2.59267 15.6567C2.62581 15.159 2.76979 14.7054 2.87834 14.5357C2.87834 14.5357 2.10705 13.8158 2.36014 12.5344C2.60867 11.2135 2.43327 10.465 1.11751 8.29798C0.795284 7.71123 0.000571325 6.51773 0 4.73291C0.0314229 2.96181 0.354793 2.01169 0.863843 1.10214C1.60428 -0.063362 2.25159 0.00062639 2.43213 0.00062639M6.72964 23.8277C6.75478 23.6483 6.49882 23.5855 6.43884 23.7575C6.06576 25.0732 7.29468 26.0696 8.47732 25.6771C8.92456 26.1678 9.52458 26.4928 10.1799 26.5992H10.1787C11.8681 26.8706 13.4907 25.5423 13.4319 23.8055C13.4244 23.6284 13.1616 23.6124 13.1325 23.7878C13.0913 24.0346 13.0211 24.2734 12.9131 24.4991C12.1778 26.1119 9.98391 26.3816 8.92696 24.9447C8.80584 24.7493 8.5476 24.6887 8.36877 24.8464C7.886 25.2681 7.09872 25.1052 6.83476 24.5008C6.73211 24.2923 6.69544 24.0576 6.72964 23.8277ZM38.4211 13.2405C41.5445 13.2405 43.1522 14.606 43.1522 17.1478V20.7117C43.1522 21.4059 43.5098 21.8641 44.0498 21.8292L44.1606 21.815C44.3594 21.7767 44.5354 21.9235 44.4788 22.1578C44.26 22.9788 43.567 23.6706 42.2449 23.6706C41.2223 23.6706 40.427 23.2159 40.0682 22.4943C39.5003 23.3484 38.2885 23.8597 36.8311 23.8597C34.7303 23.8597 33.4048 22.8171 33.4048 21.1488C33.4048 19.6691 34.5029 18.4813 36.586 18.0254C37.4372 17.8168 38.6473 17.7089 39.7265 17.7089V17.033C39.7265 15.3339 38.957 14.2421 37.5195 14.2421C36.9148 14.244 36.3291 14.4536 35.8604 14.8357C36.0603 14.9099 36.7174 15.3059 36.7202 16.0869C36.7202 16.8473 36.0581 17.4643 35.2416 17.4643C34.7057 17.4643 34.2372 17.1975 33.9779 16.7987C33.8167 16.5234 33.7076 16.2365 33.7088 15.9446C33.7139 14.3175 35.6238 13.2405 38.4211 13.2405ZM70.0628 13.2405C73.1856 13.2405 74.7939 14.606 74.7939 17.1478V20.7117C74.7939 21.4059 75.151 21.8641 75.6909 21.8292L75.8017 21.815C76.0005 21.7767 76.1765 21.9235 76.12 22.1578C75.9011 22.9788 75.2087 23.6701 73.8861 23.6706C72.8634 23.6706 72.0675 23.2159 71.7088 22.4943C71.1414 23.3484 69.9297 23.8597 68.4716 23.8597C66.3714 23.8597 65.046 22.8171 65.046 21.1488C65.046 19.6691 66.144 18.4813 68.2271 18.0254C69.0784 17.8168 70.2884 17.7089 71.3677 17.7089V17.033C71.3677 15.3333 70.5981 14.2421 69.1606 14.2421C68.5559 14.244 67.9702 14.4536 67.5015 14.8357C67.7009 14.9099 68.3591 15.3059 68.3614 16.0869C68.3614 16.8473 67.6992 17.4643 66.8828 17.4643C66.3469 17.4643 65.8784 17.1975 65.619 16.7987C65.4579 16.5234 65.3488 16.2365 65.3505 15.9446C65.3556 14.3175 67.2656 13.2405 70.0628 13.2405ZM61.6386 11.0552C61.9031 11.0552 62.1173 11.27 62.1173 11.5351V12.9246C62.1173 13.0788 61.9922 13.204 61.8385 13.2034H61.5974C61.5817 13.2035 61.5661 13.2066 61.5516 13.2127C61.537 13.2188 61.5239 13.2277 61.5128 13.2389C61.5017 13.2501 61.4929 13.2634 61.4869 13.278C61.481 13.2926 61.478 13.3082 61.478 13.3239V13.5028C61.478 13.569 61.5323 13.6227 61.5986 13.6227H63.9724C64.1873 13.6227 64.3615 13.7981 64.3615 14.0129V14.6494C64.3616 14.7005 64.3516 14.7511 64.332 14.7984C64.3125 14.8456 64.2839 14.8885 64.2477 14.9247C64.2116 14.9608 64.1687 14.9895 64.1214 15.009C64.0742 15.0285 64.0236 15.0386 63.9724 15.0385H62.1173V20.2918C62.1173 21.6133 62.6081 22.256 63.6268 22.256C63.6813 22.2545 63.739 22.2497 63.7999 22.2417L63.9856 22.2109C64.3164 22.1458 64.5409 22.5325 64.3261 22.7919C63.773 23.4558 62.8601 23.8243 61.8534 23.8243C59.8366 23.8243 58.7242 22.6154 58.7242 20.4244V15.039H57.5924C57.5414 15.0389 57.4909 15.0287 57.4439 15.009C57.3968 14.9894 57.354 14.9606 57.3181 14.9245C57.2821 14.8883 57.2536 14.8454 57.2342 14.7982C57.2148 14.751 57.2049 14.7004 57.2051 14.6494V14.0129C57.2049 13.91 57.2456 13.8112 57.3183 13.7383C57.3909 13.6653 57.4895 13.6242 57.5924 13.6239H57.9592C59.1933 13.6239 59.5732 11.9762 59.7309 11.4551C59.7665 11.3391 59.8383 11.2376 59.936 11.1656C60.0336 11.0936 60.1518 11.0549 60.2731 11.0552H61.6386ZM25.8502 10.2628C25.9416 10.263 26.0316 10.2856 26.1121 10.3288C26.1927 10.3719 26.2615 10.4342 26.3123 10.5102C26.3632 10.5862 26.3946 10.6735 26.4038 10.7644C26.4129 10.8554 26.3996 10.9472 26.365 11.0318L26.0867 11.7145C25.9028 12.1657 25.8963 12.6698 26.0684 13.1257L28.676 20.033C28.7337 20.1855 28.7468 20.3518 28.7091 20.5101C28.6777 20.642 28.6211 20.7866 28.5308 20.9071C28.484 20.9597 28.4806 21.0168 28.532 21.0557L28.6942 21.1842C28.7399 21.2185 28.7988 21.2082 28.8336 21.1745C28.8982 21.1117 29.0422 20.8557 29.1839 20.4821L32.2633 12.7206C32.3465 12.5109 32.378 12.2843 32.3551 12.0598C32.3323 11.8354 32.2557 11.6197 32.1319 11.4311L31.8377 10.9826C31.7918 10.9125 31.7656 10.8313 31.7621 10.7476C31.7585 10.6639 31.7776 10.5807 31.8175 10.507C31.8573 10.4332 31.9163 10.3716 31.9882 10.3286C32.0601 10.2856 32.1424 10.2629 32.2262 10.2628H33.9424C34.3355 10.2628 34.6052 10.6598 34.4601 11.0266L29.6084 23.2821C29.5101 23.5295 29.2713 23.6929 29.0045 23.6929H26.9306C26.6638 23.6929 26.4244 23.5289 26.3267 23.2804L22.5816 13.4753C22.316 12.7997 21.9276 12.1791 21.4361 11.6448L21.1687 11.3534C20.7854 10.9369 21.0802 10.2622 21.6464 10.2622L25.8502 10.2628ZM53.0327 13.2942C55.2135 13.2942 56.4464 14.7951 56.4464 17.4158V21.1088C56.4464 21.5562 56.5806 21.9921 56.8303 22.36L56.944 22.5126L57.156 22.7742C57.4519 23.1387 57.1931 23.6843 56.724 23.6843H52.9744C52.8817 23.6842 52.7904 23.6609 52.7089 23.6166C52.6274 23.5723 52.5583 23.5084 52.5077 23.4306C52.4572 23.3528 52.4268 23.2637 52.4194 23.1712C52.412 23.0787 52.4278 22.9859 52.4654 22.9011L52.779 22.1892C52.9469 21.8095 53.0333 21.3988 53.0327 20.9837V17.5489C53.0327 16.2771 52.5025 15.5732 51.5164 15.5732C50.7834 15.5732 50.1972 15.9692 49.7487 16.7445C49.3791 17.3838 49.2031 18.1168 49.2031 18.8549V20.97C49.203 21.4849 49.3813 21.984 49.7076 22.3823L50.0275 22.7719C50.0946 22.8536 50.1371 22.9527 50.1501 23.0576C50.1631 23.1625 50.146 23.2689 50.1009 23.3645C50.0558 23.46 49.9844 23.5409 49.8952 23.5975C49.8059 23.6541 49.7024 23.6842 49.5968 23.6843H45.6466C45.5534 23.6841 45.4618 23.6604 45.3801 23.6157C45.2984 23.5709 45.2292 23.5064 45.1788 23.428C45.1284 23.3496 45.0984 23.2598 45.0916 23.1669C45.0848 23.074 45.1014 22.9808 45.1398 22.8959L45.5055 22.0875C45.6815 21.7003 45.7723 21.2799 45.7717 20.8546V17.021C45.7717 16.308 45.5163 15.6178 45.0519 15.0768L44.5919 14.5397C44.2811 14.1775 44.5382 13.6176 45.0142 13.6176H48.1753C48.5341 13.6176 48.8255 13.909 48.8255 14.2689V14.8259C48.8255 15.103 48.7506 15.3756 48.6118 15.6149L48.3907 16.0012C48.3815 16.0174 48.3756 16.0353 48.3733 16.0538C48.3711 16.0724 48.3727 16.0912 48.3778 16.1091C48.383 16.127 48.3917 16.1438 48.4034 16.1583C48.4151 16.1728 48.4297 16.1849 48.4461 16.1937L48.6078 16.28C48.6741 16.3154 48.7563 16.2925 48.794 16.2274C49.567 14.8791 50.1292 13.2942 53.0327 13.2942ZM39.726 18.7744C39.0444 18.7932 38.3068 18.9075 37.8337 19.1166C37.1327 19.4194 36.8111 20.0501 36.8111 20.77C36.8111 21.6996 37.3978 22.2869 38.2691 22.2869C39.0147 22.2869 39.5437 21.8698 39.6997 21.1619L39.726 21.0168V18.7744ZM71.3671 18.7744C70.6855 18.7932 69.9479 18.9075 69.4754 19.1166C68.7744 19.4194 68.4528 20.0496 68.4528 20.77C68.4528 21.6996 69.0395 22.2869 69.9108 22.2869C70.6564 22.2869 71.1854 21.8698 71.3414 21.1619L71.3671 21.0168V18.7744ZM14.9076 11.374C14.1792 10.9089 12.8851 10.1314 12.1595 11.0192C11.8996 11.3677 11.7864 11.7705 11.7047 12.103C11.5539 12.7126 11.238 12.9486 11.0134 13.3199C10.6569 13.9101 10.4113 14.5803 10.3924 15.2699C10.3896 16.2657 11.0037 17.2415 11.9847 17.8511C12.7983 18.2785 13.2165 18.279 13.5427 18.1916C13.6021 18.1711 13.7329 18.0791 13.6438 17.9288C13.6273 17.8968 13.5821 17.826 13.5541 17.7803C13.4616 17.6089 13.5884 17.4523 13.7769 17.5992C13.9009 17.6963 14.0283 17.7934 14.1734 17.8528C14.2963 17.9025 14.4362 17.9225 14.5631 17.8888L14.6156 17.8683C14.666 17.8475 14.7096 17.8131 14.7414 17.7689C14.7732 17.7246 14.792 17.6724 14.7956 17.618C14.8025 17.553 14.7901 17.4874 14.7598 17.4294C14.7295 17.3715 14.6827 17.3238 14.6254 17.2924C14.4562 17.2101 14.0809 17.0033 13.9226 16.8867C13.7668 16.7717 13.6209 16.6436 13.4867 16.5039C13.2713 16.2737 13.2085 16.0492 13.0748 16.0492C13.0516 16.0514 13.0301 16.0624 13.0148 16.08C12.9308 16.1703 12.9302 16.3188 12.9262 16.4039C12.9234 16.4668 12.9319 16.5616 12.8451 16.5616C12.628 16.5616 12.6291 16.1097 12.6291 15.9857C12.6291 15.8178 12.6908 15.3801 12.9508 15.3801C13.0308 15.3801 13.1399 15.4881 13.1828 15.5298C13.7552 16.1663 14.4208 16.6622 15.2641 16.6622C15.9097 16.6622 16.449 16.2965 16.7878 15.9549C17.0535 15.6875 17.2277 15.3533 17.2403 15.0076C17.2472 14.7888 17.142 14.2043 16.8112 14.2038L16.7684 14.2112C16.6696 14.2449 16.5724 14.3923 16.5456 14.6077C16.4782 14.9545 16.501 15.5949 16.1931 15.5955C15.9794 15.5955 15.96 15.1653 15.6012 14.77C15.2298 14.3855 14.6956 14.346 14.3534 14.0701C14.1632 13.9375 14.0495 13.7747 14.062 13.4953C14.0632 13.4828 14.1112 13.052 14.7019 13.132C14.9876 13.1622 15.4504 13.2314 15.736 13.2645C16.2462 13.3216 16.3713 12.9411 16.3862 12.812C16.4187 12.5092 16.0982 12.2578 15.8948 12.0807C15.6377 11.8568 15.3578 11.6557 15.0676 11.4751L14.9076 11.374ZM12.1384 14.2735C12.4617 14.1009 12.9097 14.1923 13.1188 14.4934C13.1537 14.5388 13.1758 14.5926 13.1828 14.6494C13.1868 14.7065 13.1622 14.7682 13.1125 14.7957L13.0822 14.8082C13.0108 14.8265 12.9297 14.782 12.8554 14.7574C12.684 14.7008 12.4892 14.7585 12.3475 14.8705C12.2504 14.9482 12.1761 15.0499 12.1155 15.159C12.0498 15.2784 12.0373 15.4361 11.8967 15.4361C11.7807 15.4361 11.7219 15.275 11.7093 15.2087C11.6408 14.8482 11.8156 14.4466 12.1384 14.2735ZM8.65272 10.2388C8.00541 10.2388 7.52607 10.6958 7.35581 11.2449C7.26792 11.5807 7.3153 11.9377 7.48779 12.239C7.53692 12.3178 7.65804 12.2853 7.66261 12.1933C7.63576 11.5642 7.90943 11.1563 8.03226 11.0301C8.24933 10.8054 8.54612 10.6753 8.8584 10.6678C9.27775 10.6678 9.49543 10.9101 9.63597 11.0415C9.69025 11.0918 9.77823 11.0392 9.75824 10.9678C9.71539 10.7952 9.50228 10.2388 8.65272 10.2388ZM8.86583 11.2152C8.81934 11.2181 8.77394 11.2305 8.7324 11.2516C8.69086 11.2726 8.65406 11.3019 8.62422 11.3377C8.59439 11.3735 8.57216 11.415 8.55888 11.4596C8.54561 11.5042 8.54158 11.5511 8.54703 11.5974C8.54953 11.6439 8.56163 11.6893 8.58256 11.7309C8.6035 11.7725 8.63282 11.8092 8.66867 11.8389C8.70452 11.8686 8.74613 11.8905 8.79088 11.9033C8.83563 11.9162 8.88255 11.9195 8.92867 11.9133C9.13092 11.895 9.26918 11.7379 9.25147 11.5345C9.24823 11.4878 9.23554 11.4422 9.21417 11.4005C9.1928 11.3588 9.16319 11.3219 9.12714 11.292C9.09109 11.2621 9.04934 11.2398 9.00442 11.2265C8.9595 11.2132 8.91235 11.2097 8.86583 11.2152ZM1.72426 2.17338C1.25292 2.17338 0.993535 3.25204 0.993535 4.26328C0.993535 6.51488 1.9745 8.11059 2.27445 8.11173C2.32187 8.11173 2.38414 8.07917 2.36014 7.9769C1.99621 6.22407 2.24531 4.90945 2.09276 2.97495C2.07905 2.79155 2.01335 2.17395 1.72426 2.17338Z" fill="var(--fill-0, #111111)" fill-opacity="0.4"/>
</svg>
