<svg preserveAspectRatio="none" width="100%" height="100%" overflow="visible" style="display: block;" viewBox="0 0 93.1861 32.8162" fill="none" xmlns="http://www.w3.org/2000/svg">
<path id="Vector" d="M37.023 0H57.772V5.63139H43.2913V13.3075H57.772V18.7881H43.2913V32.7995H37.0063V0H37.023ZM61.962 0H68.2471V5.63139H61.962V0ZM61.962 9.26833H68.2471V32.7995H61.962V9.26833ZM72.4203 9.26833H78.6886V13.6595H78.7892C79.8115 10.9611 81.4875 8.5644 85.7949 8.5644C90.1022 8.5644 93.1861 10.5253 93.1861 16.693V32.7995H86.9178V19.1065C86.9178 14.3969 83.3814 14.7824 82.8619 14.8327C79.4261 15.1344 78.6886 17.6986 78.6886 22.4418V32.8162H72.4203V9.26833ZM30.2017 0C30.0173 0 29.833 0.0670403 29.6989 0.201121L21.6876 8.21244C21.3524 8.54764 20.7657 8.21244 20.8998 7.75992L22.7434 0.888285C22.8608 0.435762 22.5256 0 22.0563 0H19.2406C18.9221 0 18.6372 0.217881 18.5534 0.519563L17.1456 5.79899C17.0618 6.11743 17.0618 6.45263 17.1456 6.77107L18.1679 10.5589C18.7043 12.5701 20.2797 14.1455 22.2909 14.6818L26.0787 15.7042C26.3971 15.788 26.7323 15.788 27.0508 15.7042L32.3302 14.2964C32.6487 14.2126 32.8498 13.9276 32.8498 13.6092V10.7935C32.8498 10.3242 32.414 9.98901 31.9615 10.1063C29.548 10.76 26.7994 11.4807 25.0731 11.9499C24.6038 12.0673 24.2686 11.4974 24.6206 11.1622L32.6319 3.1509C32.766 3.01682 32.833 2.83245 32.833 2.64809C32.833 1.18997 31.6598 0.0167601 30.2017 0.0167601V0ZM30.2017 32.7995C30.0173 32.7995 29.833 32.7324 29.6989 32.5984L21.6876 24.587C21.3524 24.2518 20.7657 24.587 20.8998 25.0396L22.7434 31.9112C22.8608 32.3637 22.5256 32.7995 22.0563 32.7995H19.2406C18.9221 32.7995 18.6372 32.5816 18.5534 32.2799L17.1456 27.0005C17.0618 26.6821 17.0618 26.3469 17.1456 26.0284L18.1679 22.2406C18.7043 20.2294 20.2797 18.654 22.2909 18.1177L26.0787 17.0953C26.3971 17.0115 26.7323 17.0115 27.0508 17.0953L32.3302 18.5031C32.6487 18.5869 32.8498 18.8719 32.8498 19.1903V22.006C32.8498 22.4753 32.414 22.8105 31.9615 22.6932C29.548 22.0395 26.7994 21.3188 25.0731 20.8495C24.6038 20.7322 24.2686 21.3021 24.6206 21.6373L32.6319 29.6486C32.766 29.7827 32.833 29.967 32.833 30.1514C32.833 31.6095 31.6598 32.7827 30.2017 32.7827V32.7995ZM2.66485 0C2.84921 0 3.03358 0.0670403 3.16766 0.201121L11.179 8.21244C11.5142 8.54764 12.1008 8.21244 11.9667 7.75992L10.1231 0.888285C10.0058 0.435762 10.341 0 10.8103 0H13.626C13.9444 0 14.2293 0.217881 14.3131 0.519563L15.721 5.79899C15.8048 6.11743 15.8048 6.45263 15.721 6.77107L14.6986 10.5589C14.1623 12.5701 12.5868 14.1455 10.5756 14.6818L6.78784 15.7042C6.46939 15.788 6.13419 15.788 5.81575 15.7042L0.536323 14.2964C0.217881 14.2126 0 13.9276 0 13.6092V10.7935C0 10.3242 0.435762 9.98901 0.888285 10.1063C3.30174 10.76 6.05039 11.4807 7.75992 11.9499C8.2292 12.0673 8.5644 11.4974 8.21244 11.1622L0.234641 3.13414C0.100561 3.00006 0.0335202 2.81569 0.0335202 2.63133C0.0167601 1.17321 1.20673 0 2.66485 0ZM2.66485 32.7995C2.84921 32.7995 3.03358 32.7324 3.16766 32.5984L11.179 24.587C11.5142 24.2518 12.1008 24.587 11.9667 25.0396L10.1231 31.9112C10.0058 32.3637 10.341 32.7995 10.8103 32.7995H13.626C13.9444 32.7995 14.2293 32.5816 14.3131 32.2799L15.721 27.0005C15.8048 26.6821 15.8048 26.3469 15.721 26.0284L14.6986 22.2406C14.1623 20.2294 12.5868 18.654 10.5756 18.1177L6.78784 17.0953C6.46939 17.0115 6.13419 17.0115 5.81575 17.0953L0.536323 18.5031C0.217881 18.5869 0 18.8719 0 19.1903V22.006C0 22.4753 0.435762 22.8105 0.888285 22.6932C3.30174 22.0395 6.05039 21.3188 7.75992 20.8495C8.2292 20.7322 8.5644 21.3021 8.21244 21.6373L0.234641 29.6654C0.100561 29.7994 0.0335202 29.9838 0.0335202 30.1682C0.0335202 31.6263 1.20673 32.7995 2.66485 32.7995Z" fill="var(--fill-0, #FF5600)"/>
</svg>
