<svg preserveAspectRatio="none" width="100%" height="100%" overflow="visible" style="display: block;" viewBox="0 0 27.8957 27.9025" fill="none" xmlns="http://www.w3.org/2000/svg">
<path id="Vector" d="M25.6586 0.000965616C25.4993 0.000965616 25.3448 0.0646898 25.2319 0.177655L18.4134 6.99614C18.1228 7.28628 17.6337 7.00483 17.7409 6.60703L19.3074 0.759862C19.3315 0.670416 19.3345 0.576645 19.3165 0.485811C19.2984 0.394977 19.2597 0.309517 19.2033 0.236049C19.147 0.162581 19.0744 0.103076 18.9913 0.0621429C18.9083 0.0212099 18.8169 -5.32784e-05 18.7243 1.00252e-07H16.3274C16.0546 1.00252e-07 15.8157 0.183448 15.7442 0.447035L14.5421 4.93186C14.4692 5.20466 14.4692 5.49182 14.5421 5.76462L15.4043 8.98365C15.6299 9.82467 16.0728 10.5915 16.6885 11.2072C17.3042 11.8229 18.0711 12.2658 18.9121 12.4914L22.1311 13.3541C22.4039 13.4265 22.6911 13.4265 22.9634 13.3541L27.4487 12.152C27.5771 12.1175 27.6905 12.0416 27.7714 11.9361C27.8522 11.8306 27.8959 11.7013 27.8957 11.5683V9.17048C27.8957 8.77462 27.5216 8.48641 27.1392 8.58924L21.2877 10.1572C20.8909 10.2634 20.609 9.7749 20.8996 9.48428L27.719 2.66483C27.832 2.55186 27.8957 2.39786 27.8957 2.23807C27.896 1.94422 27.8383 1.6532 27.726 1.38167C27.6136 1.11013 27.4488 0.863416 27.2411 0.655632C27.0333 0.447847 26.7866 0.283073 26.515 0.170738C26.2435 0.0584027 25.9525 0.000711638 25.6586 0.000965616ZM25.6586 27.8991C25.4993 27.8991 25.3448 27.8354 25.2319 27.7229L18.4134 20.9039C18.1228 20.6133 17.6337 20.8948 17.7409 21.2926L19.3074 27.1402C19.3315 27.2297 19.3345 27.3234 19.3165 27.4143C19.2984 27.5051 19.2597 27.5906 19.2033 27.664C19.147 27.7375 19.0744 27.797 18.9913 27.8379C18.9083 27.8789 18.8169 27.9001 18.7243 27.9001H16.3274C16.0546 27.9001 15.8157 27.7166 15.7442 27.453L14.5421 22.9677C14.4694 22.6949 14.4694 22.4078 14.5421 22.135L15.4043 18.9159C15.6299 18.0749 16.0728 17.3081 16.6885 16.6924C17.3042 16.0766 18.0711 15.6338 18.9121 15.4082L22.1311 14.5455C22.4038 14.4729 22.6907 14.4729 22.9634 14.5455L27.4487 15.7481C27.7123 15.8186 27.8957 16.0575 27.8957 16.3312V18.7291C27.8957 19.125 27.5216 19.4132 27.1392 19.3103L21.2877 17.7433C20.8909 17.6371 20.609 18.1252 20.8996 18.4158L27.719 25.2352C27.832 25.3482 27.8957 25.5022 27.8957 25.662C27.8958 25.9562 27.8379 26.2475 27.7254 26.5194C27.6128 26.7912 27.4478 27.0382 27.2398 27.2462C27.0318 27.4543 26.7848 27.6193 26.513 27.7319C26.2412 27.8445 25.9499 27.9025 25.6557 27.9025L25.6586 27.8991ZM2.24097 0.000965616C2.40076 0.000965616 2.55476 0.0646898 2.66773 0.177655L9.48621 6.99614C9.77683 7.28628 10.2663 7.00483 10.1592 6.60703L8.59262 0.759862C8.5688 0.670519 8.56583 0.576896 8.58394 0.486223C8.60205 0.39555 8.64076 0.310251 8.69707 0.236912C8.75338 0.163572 8.82579 0.104154 8.90871 0.0632437C8.99163 0.0223335 9.08285 0.00102586 9.17531 0.000965616H11.5722C11.8445 0.000965616 12.0839 0.184414 12.1554 0.448L13.3574 4.93283C13.4299 5.20607 13.4299 5.49283 13.3574 5.76559L12.4948 8.9851C12.2692 9.82597 11.8263 10.5927 11.2107 11.2083C10.5951 11.8239 9.82838 12.2667 8.98752 12.4923L5.768 13.355C5.49533 13.4276 5.2084 13.4276 4.93572 13.355L0.450898 12.153C0.321771 12.1201 0.207306 12.0451 0.125633 11.9398C0.0439603 11.8345 -0.000251333 11.705 1.07479e-06 11.5717V9.17386C1.07479e-06 8.778 0.375587 8.48834 0.757932 8.59165L6.60752 10.1592C7.00531 10.2654 7.28676 9.77731 6.99517 9.48669L0.177173 2.66821C0.0644577 2.55472 0.000979521 2.4014 0.000483831 2.24145C0.000483824 1.94725 0.0584391 1.65593 0.17104 1.38413C0.283641 1.11233 0.448681 0.865368 0.656735 0.657358C0.86479 0.449349 1.11178 0.284362 1.38361 0.17182C1.65543 0.0592775 1.94676 0.00138497 2.24097 0.00144838V0.000965616ZM2.24097 27.8991C2.40076 27.8991 2.55476 27.8354 2.66773 27.7224L9.48621 20.9044C9.77683 20.6138 10.2663 20.8952 10.1592 21.293L8.59262 27.1407C8.56862 27.2301 8.56552 27.3239 8.58357 27.4147C8.60163 27.5056 8.64035 27.591 8.69673 27.6645C8.75312 27.738 8.82565 27.7975 8.90873 27.8384C8.9918 27.8793 9.08318 27.9006 9.17579 27.9006H11.5727C11.845 27.9006 12.0844 27.7171 12.1559 27.454L13.3579 22.9687C13.4306 22.6959 13.4306 22.4088 13.3579 22.1359L12.4952 18.9169C12.2697 18.0759 11.8269 17.3091 11.2113 16.6934C10.5957 16.0777 9.82892 15.6348 8.988 15.4092L5.76848 14.5465C5.49581 14.4739 5.20888 14.4739 4.93621 14.5465L0.45138 15.749C0.322494 15.7819 0.208208 15.8567 0.126561 15.9617C0.044913 16.0666 0.00055361 16.1958 0.000483831 16.3288V18.7267C0.000483831 19.1226 0.37607 19.4122 0.758415 19.3089L6.608 17.7414C7.00579 17.6352 7.28724 18.1237 6.99566 18.4139L0.177173 25.2328C0.121084 25.2889 0.0766078 25.3555 0.0462894 25.4289C0.015971 25.5022 0.000405612 25.5807 0.000483831 25.6601C0.000483824 25.9543 0.0584391 26.2456 0.17104 26.5174C0.283641 26.7892 0.448681 27.0361 0.656735 27.2442C0.86479 27.4522 1.11178 27.6172 1.38361 27.7297C1.65543 27.8422 1.94676 27.9001 2.24097 27.9001V27.8991Z" fill="var(--fill-0, white)"/>
</svg>
