<svg preserveAspectRatio="none" width="100%" height="100%" overflow="visible" style="display: block;" viewBox="0 0 66.6568 17.1145" fill="none" xmlns="http://www.w3.org/2000/svg">
<path id="Vector" d="M14.3711 3.90477H11.8031V1.35529C11.8031 0.606369 11.1922 1.13827e-05 10.4386 1.13827e-05H1.36639C1.18768 -0.000719525 1.01058 0.0337562 0.845195 0.10147C0.679811 0.169184 0.529384 0.26881 0.402503 0.394659C0.275622 0.520509 0.174771 0.670118 0.10571 0.834943C0.0366482 0.999768 0.00072793 1.17658 0 1.35529L0 14.2665C0 15.0155 0.610986 15.6209 1.36454 15.6209H13.1131L14.3841 16.8836C14.4947 16.9937 14.6353 17.0688 14.7884 17.0993C14.9415 17.1298 15.1001 17.1144 15.2445 17.0551C15.3888 16.9957 15.5125 16.8951 15.5998 16.7658C15.6872 16.6365 15.7345 16.4842 15.7357 16.3282V5.26005C15.7357 4.51113 15.1247 3.90477 14.3711 3.90477ZM14.4258 14.3193H1.31084V1.30067H10.4905V3.90384H5.29799C4.54444 3.90384 3.93346 4.5102 3.93346 5.25912V10.3599C3.93346 11.1098 4.54444 11.7152 5.29799 11.7152H10.4377C11.1912 11.7152 11.8022 11.1089 11.8022 10.3609V5.20821H14.4258V14.3193ZM10.4914 5.20636V10.4136H5.24615V5.20636H10.4914ZM35.6372 4.31117C35.1076 3.97883 34.4837 3.81127 33.7838 3.81127C33.084 3.81127 32.46 3.97883 31.9314 4.31117C31.3944 4.65286 30.9645 5.13892 30.691 5.71366C30.3966 6.31169 30.2475 7.01802 30.2475 7.81508C30.2481 8.61368 30.396 9.30984 30.691 9.90355C30.9853 10.4997 31.4038 10.9691 31.9314 11.3014C32.4591 11.6337 33.084 11.8013 33.7838 11.8013C34.4837 11.8013 35.1076 11.6337 35.6372 11.3014C36.1735 10.961 36.6034 10.4766 36.8777 9.90355C37.1711 9.31015 37.3202 8.60751 37.3202 7.81601C37.3202 7.02358 37.1711 6.30983 36.8777 5.71459C36.6038 5.13979 36.174 4.6535 35.6372 4.31117ZM35.764 9.20554C35.6066 9.62582 35.3604 9.9702 35.0345 10.2285C34.7105 10.4831 34.2893 10.6136 33.7848 10.6136C33.2784 10.6136 32.8572 10.484 32.5332 10.2285C32.2003 9.96129 31.9479 9.60726 31.8037 9.20554C31.6417 8.76032 31.5605 8.28976 31.5639 7.81601C31.5603 7.34064 31.6418 6.86847 31.8046 6.42185C31.962 5.99786 32.2073 5.64978 32.5341 5.38873C32.8581 5.13045 33.2802 4.99899 33.7857 4.99899C34.2911 4.99899 34.7114 5.12859 35.0354 5.38873C35.3632 5.64978 35.6094 5.99694 35.7668 6.42185C35.926 6.84954 36.0065 7.31981 36.0065 7.81601C36.0098 8.28945 35.9286 8.75969 35.7668 9.20461L35.764 9.20554ZM41.9405 5.00269L41.9313 3.87052C41.9308 3.85044 41.9227 3.8313 41.9086 3.81702C41.8945 3.80273 41.8754 3.79438 41.8553 3.79368L41.6054 3.7909C41.1351 3.7909 40.7074 3.91218 40.3316 4.15287C40.0157 4.34708 39.7629 4.62879 39.604 4.96381V3.98623C39.6037 3.96577 39.5954 3.94623 39.5809 3.93185C39.5663 3.91746 39.5467 3.9094 39.5262 3.9094H38.4042C38.3837 3.9094 38.3641 3.91746 38.3495 3.93185C38.335 3.94623 38.3267 3.96577 38.3264 3.98623V11.6143C38.3264 11.656 38.3616 11.6902 38.4042 11.6902H39.566C39.5865 11.6902 39.6061 11.6822 39.6207 11.6678C39.6352 11.6534 39.6435 11.6338 39.6438 11.6134V6.76715C39.6438 6.43944 39.7243 6.1432 39.8845 5.88677C40.0468 5.62942 40.2671 5.42668 40.5454 5.27856C40.8241 5.1323 41.1472 5.05639 41.5054 5.05639C41.6258 5.05639 41.7415 5.06348 41.8526 5.07768C41.8634 5.07914 41.8743 5.07826 41.8848 5.07511C41.8952 5.07195 41.9048 5.06659 41.913 5.05939C41.9211 5.05219 41.9276 5.04332 41.9321 5.03338C41.9365 5.02344 41.9388 5.01265 41.9387 5.00177L41.9405 5.00269ZM50.9887 3.91032H52.1505C52.193 3.91032 52.2273 3.9455 52.2273 3.98809V11.6449C52.2271 11.6652 52.2189 11.6846 52.2045 11.6989C52.1902 11.7133 52.1708 11.7215 52.1505 11.7217H50.9887C50.9682 11.7217 50.9486 11.7136 50.934 11.6992C50.9194 11.6849 50.9111 11.6653 50.9109 11.6449V3.98809C50.9109 3.9455 50.9461 3.91032 50.9887 3.91032ZM51.5793 1.06183C51.3413 1.05808 51.1115 1.14899 50.9405 1.31456C50.8554 1.39147 50.7875 1.48548 50.7412 1.59045C50.695 1.69542 50.6714 1.80898 50.6721 1.92369C50.6721 2.16068 50.7616 2.36373 50.9405 2.53283C51.1164 2.69946 51.3321 2.78555 51.5793 2.78555C51.8173 2.7893 52.047 2.6984 52.218 2.53283C52.3032 2.45592 52.3711 2.3619 52.4173 2.25693C52.4636 2.15196 52.4872 2.0384 52.4865 1.92369C52.4872 1.80898 52.4636 1.69542 52.4173 1.59045C52.3711 1.48548 52.3032 1.39147 52.218 1.31456C52.0465 1.14985 51.8171 1.05909 51.5793 1.06183ZM58.4945 4.26025C58.2003 4.08343 57.8767 3.96083 57.5392 3.89829C57.255 3.8444 56.9666 3.81528 56.6773 3.81127C56.2885 3.81127 55.8867 3.86496 55.4868 3.96865C55.0787 4.07503 54.697 4.26477 54.3658 4.52594C54.0427 4.77681 53.7779 5.12397 53.5789 5.55721C53.5744 5.56693 53.572 5.57748 53.5719 5.58818C53.5717 5.59888 53.5738 5.60949 53.578 5.61934C53.5822 5.62918 53.5884 5.63805 53.5962 5.64536C53.604 5.65268 53.6132 5.65828 53.6233 5.66182L54.7249 6.06174C54.7426 6.06814 54.762 6.06792 54.7796 6.06111C54.7971 6.0543 54.8116 6.04137 54.8203 6.02471C54.9487 5.7797 55.1554 5.54826 55.4405 5.3304C55.7451 5.09619 56.1746 4.97862 56.7181 4.97862C57.2615 4.97862 57.6281 5.10823 57.8799 5.36281C58.1329 5.61954 58.2594 5.98212 58.2594 6.45055V6.49035C58.2594 6.65236 58.2057 6.76159 58.0928 6.82547C57.9669 6.89583 57.7638 6.94643 57.4836 6.97729C57.1052 7.01863 56.7271 7.06399 56.3496 7.11337C55.9951 7.15966 55.6368 7.22261 55.2859 7.3013C54.9454 7.37407 54.6164 7.49338 54.3084 7.65586C54.0152 7.81115 53.7675 8.04026 53.59 8.32054C53.4095 8.60196 53.3187 8.97225 53.3187 9.41846C53.3187 9.92484 53.44 10.3627 53.6798 10.721C53.9186 11.0783 54.2454 11.3551 54.65 11.5421C55.0548 11.7291 55.505 11.8229 56.0006 11.8235C56.4548 11.8235 56.8412 11.7556 57.1596 11.6199C57.4433 11.5051 57.7025 11.3374 57.9234 11.1255C58.0653 10.9823 58.1779 10.8447 58.2613 10.7126V11.6236C58.2613 11.6624 58.2927 11.693 58.3316 11.693H59.5073C59.5165 11.6931 59.5256 11.6914 59.5341 11.688C59.5427 11.6845 59.5504 11.6794 59.557 11.673C59.5635 11.6665 59.5687 11.6588 59.5723 11.6504C59.5758 11.6419 59.5777 11.6328 59.5777 11.6236V6.57274C59.5777 5.96083 59.474 5.46279 59.2712 5.09434C59.0645 4.72528 58.8056 4.44663 58.4945 4.26025ZM58.2613 8.82414C58.2606 9.12778 58.1816 9.41784 58.0243 9.69433C57.8669 9.96835 57.6318 10.1961 57.3226 10.3701C57.0143 10.5442 56.6301 10.633 56.1802 10.633C55.7303 10.633 55.3535 10.533 55.0628 10.3359C54.7759 10.1415 54.637 9.86096 54.637 9.47678C54.637 9.19844 54.7111 8.97935 54.8592 8.81951C55.027 8.64596 55.2363 8.51818 55.4674 8.44829C55.7266 8.3625 56.0071 8.30017 56.3089 8.26129L56.8041 8.19834C57.0167 8.17249 57.2287 8.14256 57.4401 8.10854C57.6605 8.07398 57.8558 8.03201 58.0261 7.98264C58.1218 7.95549 58.2002 7.92586 58.2613 7.89377V8.82414ZM66.13 8.10576C65.7866 7.76046 65.2598 7.49941 64.5683 7.33277L63.4324 7.05505C62.9927 6.94674 62.6668 6.80881 62.4632 6.64773C62.2678 6.49313 62.1716 6.28577 62.1716 6.01545C62.1716 5.71088 62.3132 5.46556 62.6067 5.2656C62.9029 5.06194 63.2834 4.96011 63.7361 4.96011C64.0638 4.96011 64.3378 5.01195 64.5442 5.11471C64.7541 5.21777 64.9192 5.34892 65.0395 5.50815C65.1424 5.64053 65.2285 5.78512 65.2959 5.93861C65.3117 5.97564 65.3496 5.99416 65.3885 5.98397L66.4309 5.68218C66.4411 5.67903 66.4505 5.67388 66.4587 5.66703C66.4669 5.66018 66.4737 5.65178 66.4786 5.64231C66.4835 5.63283 66.4865 5.62248 66.4873 5.61184C66.4882 5.6012 66.487 5.5905 66.4837 5.58035C66.3055 5.08008 65.9858 4.64236 65.5635 4.32043C65.1191 3.98161 64.5035 3.81127 63.7351 3.81127C63.1899 3.81127 62.6946 3.90847 62.2651 4.09917C61.8576 4.27017 61.5027 4.54616 61.2366 4.89901C60.9848 5.24023 60.8515 5.6544 60.857 6.0784C60.857 6.61811 61.0274 7.07449 61.3662 7.43275C61.7013 7.79009 62.2317 8.05485 62.9427 8.22241L64.2184 8.51864C64.5905 8.60504 64.8652 8.73341 65.0423 8.90375C65.2154 9.07038 65.2987 9.27219 65.2987 9.51844C65.2987 9.82393 65.1497 10.0785 64.8423 10.2988C64.5331 10.521 64.1082 10.634 63.5768 10.634C63.1115 10.634 62.7357 10.5358 62.4493 10.3396C62.1839 10.1569 61.9981 9.88781 61.892 9.53232C61.8864 9.51342 61.8738 9.49736 61.8568 9.48739C61.8398 9.47742 61.8196 9.47429 61.8004 9.47863L60.6941 9.7508C60.6745 9.75605 60.6576 9.7685 60.6468 9.78566C60.636 9.80282 60.632 9.82343 60.6358 9.84337C60.7839 10.4692 61.1153 10.9543 61.6208 11.2857C62.141 11.6282 62.8057 11.8022 63.5972 11.8022C64.1999 11.8022 64.7349 11.7004 65.1904 11.4986C65.6477 11.2968 66.0097 11.0154 66.268 10.6654C66.5262 10.3109 66.6568 9.90447 66.6568 9.45641C66.6568 8.91023 66.4809 8.45384 66.1347 8.10484L66.13 8.10576ZM24.7875 10.0831C24.1303 10.0831 23.872 9.91651 23.872 9.50455C23.872 9.00466 24.5293 8.75748 24.5293 8.75748C24.9653 8.92134 25.4781 9.00188 26.0317 9.00188C27.898 9.00188 29.2274 8.0243 29.2274 6.46351C29.2274 6.12746 29.1154 5.55443 28.6553 4.99899H30.0698C30.0901 4.99875 30.1095 4.99058 30.1239 4.97622C30.1382 4.96186 30.1464 4.94246 30.1466 4.92215V3.98716C30.1466 3.9667 30.1386 3.94706 30.1242 3.9325C30.1098 3.91794 30.0902 3.90964 30.0698 3.9094H26.0317C24.184 3.9094 22.8713 4.88698 22.8713 6.46443C22.8713 7.28649 23.2341 7.95487 23.8562 8.402C23.1823 8.69361 22.7167 9.15648 22.7167 9.80727C22.7167 10.3211 22.9722 10.7774 23.5378 11.0255C23.2925 11.0885 22.164 11.4699 22.164 12.6724C22.164 14.062 23.8562 14.6961 25.8947 14.6961C28.1406 14.6961 30.2475 13.974 30.2475 12.1068C30.2475 10.9404 29.3838 10.0831 27.7434 10.0831H24.7875ZM26.0373 5.00084C27.1889 5.00084 27.8962 5.52111 27.8962 6.47276C27.8962 7.42442 27.1907 7.91321 26.0382 7.91321C24.8857 7.91321 24.1978 7.39202 24.1978 6.47276C24.1978 5.55351 24.9042 5.00084 26.0382 5.00084H26.0373ZM25.8966 13.5917C24.4746 13.5917 23.4906 13.2047 23.4906 12.3169C23.4906 11.5578 24.1756 11.3162 24.9653 11.3162H27.4407C28.3368 11.3162 28.9154 11.5421 28.9154 12.1873C28.9154 13.2047 27.6508 13.5917 25.8966 13.5917ZM44.4206 10.0831C43.7642 10.0831 43.5059 9.91651 43.5059 9.50455C43.5059 9.00466 44.1632 8.75748 44.1632 8.75748C44.5983 8.92134 45.1112 9.00188 45.6657 9.00188C47.531 9.00188 48.8613 8.0243 48.8613 6.46351C48.8613 6.12746 48.7484 5.55443 48.2874 4.99899H49.7028C49.7233 4.99899 49.7429 4.99093 49.7575 4.97654C49.772 4.96216 49.7803 4.94262 49.7806 4.92215V3.98716C49.7806 3.96654 49.7724 3.94676 49.7578 3.93217C49.7432 3.91759 49.7234 3.9094 49.7028 3.9094H45.6657C43.817 3.9094 42.5043 4.88698 42.5043 6.46443C42.5043 7.28649 42.8672 7.95487 43.4893 8.402C42.8163 8.69361 42.3506 9.15648 42.3506 9.80727C42.3506 10.3211 42.6052 10.7774 43.1708 11.0255C42.9255 11.0885 41.797 11.4699 41.797 12.6724C41.797 14.062 43.4893 14.6961 45.5277 14.6961C47.7736 14.6961 49.8806 13.974 49.8806 12.1068C49.8806 10.9404 49.0178 10.0831 47.3764 10.0831H44.4206ZM45.6703 5.00084C46.8228 5.00084 47.5301 5.52111 47.5301 6.47276C47.5301 7.42442 46.8238 7.91321 45.6712 7.91321C44.5187 7.91321 43.8318 7.39202 43.8318 6.47276C43.8318 5.55351 44.5363 5.00084 45.6703 5.00084ZM45.5296 13.5917C44.1077 13.5917 43.1245 13.2047 43.1245 12.3169C43.1245 11.5578 43.8096 11.3162 44.5983 11.3162H47.0737C47.9698 11.3162 48.5484 11.5421 48.5484 12.1873C48.5484 13.2047 47.2848 13.5917 45.5296 13.5917Z" fill="var(--fill-0, white)"/>
</svg>
