<svg preserveAspectRatio="none" width="100%" height="100%" overflow="visible" style="display: block;" viewBox="0 0 14 14" fill="none" xmlns="http://www.w3.org/2000/svg">
<path id="Vector" fill-rule="evenodd" clip-rule="evenodd" d="M2 0C1.46957 0 0.960859 0.210714 0.585786 0.585786C0.210714 0.960859 0 1.46957 0 2V12C0 12.5304 0.210714 13.0391 0.585786 13.4142C0.960859 13.7893 1.46957 14 2 14H12C12.5304 14 13.0391 13.7893 13.4142 13.4142C13.7893 13.0391 14 12.5304 14 12V2C14 1.46957 13.7893 0.960859 13.4142 0.585786C13.0391 0.210714 12.5304 0 12 0H2ZM11.5 5C11.8291 4.99989 12.149 4.89155 12.4105 4.69168C12.6719 4.49181 12.8604 4.21151 12.9468 3.89396C13.0333 3.57642 13.0129 3.23926 12.8888 2.93445C12.7647 2.62964 12.5438 2.3741 12.2602 2.2072C11.9766 2.0403 11.6459 1.97132 11.3192 2.01088C10.9925 2.05043 10.6878 2.19634 10.4522 2.42611C10.2166 2.65587 10.0631 2.95675 10.0154 3.28236C9.96762 3.60798 10.0283 3.94026 10.188 4.228L8.525 7H8.5C8.36533 7.00067 8.23567 7.01733 8.111 7.05L6.95 5.889C7.00929 5.66664 7.0167 5.43363 6.97165 5.20796C6.9266 4.98229 6.8303 4.76998 6.69017 4.58743C6.55005 4.40489 6.36985 4.25698 6.16349 4.15512C5.95713 4.05327 5.73013 4.0002 5.5 4C5.2388 3.99991 4.9821 4.06803 4.7553 4.19763C4.52851 4.32722 4.33949 4.51378 4.20695 4.73886C4.07441 4.96394 4.00294 5.21973 3.99962 5.48091C3.99629 5.7421 4.06123 5.99962 4.188 6.228L2.525 9H2.5C2.1709 9.00011 1.85097 9.10845 1.58952 9.30832C1.32807 9.50819 1.1396 9.78849 1.05317 10.106C0.966731 10.4236 0.987126 10.7607 1.11121 11.0655C1.23529 11.3704 1.45617 11.6259 1.7398 11.7928C2.02344 11.9597 2.3541 12.0287 2.68081 11.9891C3.00752 11.9496 3.31215 11.8037 3.54776 11.5739C3.78338 11.3441 3.93688 11.0433 3.98463 10.7176C4.03238 10.392 3.97172 10.0597 3.812 9.772L5.475 7H5.5C5.63467 6.99933 5.764 6.98267 5.888 6.95L7.051 8.111C6.99173 8.33328 6.9843 8.5662 7.0293 8.79179C7.0743 9.01739 7.17051 9.22964 7.31052 9.41217C7.45054 9.5947 7.6306 9.74263 7.83684 9.84455C8.04307 9.94646 8.26996 9.99965 8.5 10C8.7612 10.0001 9.01791 9.93197 9.2447 9.80238C9.47149 9.67279 9.66051 9.48622 9.79305 9.26114C9.92559 9.03606 9.99706 8.78027 10.0004 8.51909C10.0037 8.2579 9.93877 8.00038 9.812 7.772L11.475 5H11.5Z" fill="var(--fill-0, white)"/>
</svg>
