<svg preserveAspectRatio="none" width="100%" height="100%" overflow="visible" style="display: block;" viewBox="0 0 8.26433 11.7738" fill="none" xmlns="http://www.w3.org/2000/svg">
<path id="Vector" d="M3.97944 0.0201143C3.935 0.0378914 3.65056 0.126777 3.35724 0.215662C2.91281 0.340102 2.72615 0.464542 2.24617 0.953413C1.92618 1.2734 1.57064 1.74449 1.45509 1.98449C1.33954 2.23337 1.19732 2.53558 1.12621 2.66891C1.0551 2.79334 1.00177 2.96223 1.00177 3.04222C1.00177 3.11333 0.948439 3.30888 0.877331 3.46888C0.45068 4.48217 0.0684713 7.5665 0.0062514 10.5708C-0.0204143 11.9308 -0.0381917 11.9219 1.66841 11.5841C2.01507 11.513 2.62838 11.3975 3.04614 11.3175C3.4639 11.2375 4.0861 11.1219 4.42387 11.0508C4.77052 10.9797 5.38383 10.8642 5.80159 10.7842C6.21936 10.7042 6.84155 10.5797 7.17932 10.5086C7.52597 10.4375 7.87263 10.3842 7.96151 10.3842C8.24595 10.3842 8.29928 9.99308 8.24595 8.12648C8.12151 3.7622 7.40153 1.41562 5.89048 0.482319C5.43716 0.197885 4.27276 -0.0776598 3.97944 0.0201143Z" fill="var(--fill-0, #111111)" fill-opacity="0.6"/>
</svg>
