<svg preserveAspectRatio="none" width="100%" height="100%" overflow="visible" style="display: block;" viewBox="0 0 54.484 22.3546" fill="none" xmlns="http://www.w3.org/2000/svg">
<path id="Vector" d="M54.484 16.022H54.4707V16.0167H52.9055V0L37.7101 16.8753H26.0448C25.5409 16.8753 25.1396 16.6913 25.1396 16.1887C25.1396 15.8447 25.3262 15.5581 25.5995 15.3995C25.6129 15.3928 25.6129 15.3901 25.6275 15.3861C26.8047 14.7822 27.9379 14.4662 28.5832 14.2796L28.7845 14.2236C29.1711 14.1089 29.6604 14.0076 30.1617 13.893C30.335 13.8503 30.5216 13.8076 30.7083 13.7783C33.7919 13.0757 37.9687 11.6519 37.9687 6.72984C37.9687 5.63931 37.6954 4.53411 37.0635 3.54357C36.0596 1.96643 34.1652 0.689249 31.0655 0.315961C30.4132 0.240546 29.7571 0.202267 29.1004 0.201309C24.293 0.201309 21.0508 2.72633 20.9361 6.51521V6.71518C20.9358 7.21273 21.0335 7.70547 21.2237 8.16523C21.4139 8.62498 21.6928 9.04275 22.0446 9.39463C22.3964 9.74651 22.814 10.0256 23.2737 10.216C23.7334 10.4063 24.2261 10.5042 24.7236 10.5041C25.7281 10.5026 26.691 10.103 27.4012 9.39276C28.1115 8.68251 28.5111 7.71962 28.5125 6.71518C28.5117 6.18889 28.4013 5.66854 28.1885 5.1872C27.9757 4.70585 27.6651 4.27404 27.2764 3.91921C26.8877 3.56438 26.4295 3.29429 25.9308 3.12611C25.4321 2.95793 24.9039 2.89534 24.3797 2.94231H24.365C23.5905 3.01297 23.4811 3.05829 22.9119 3.28093C23.3132 2.75566 23.4131 2.68767 24.0931 2.1944C24.1064 2.1944 24.1064 2.18107 24.1211 2.18107C25.4129 1.34784 27.134 0.887892 29.1578 0.887892C29.3724 0.887892 29.5884 0.887892 29.7897 0.902557H29.9177C30.363 0.959883 30.6643 1.23985 30.6643 1.69979V12.1665C30.6621 12.3994 30.5838 12.6251 30.4412 12.8092C30.2987 12.9934 30.0999 13.1259 29.875 13.1864C29.847 13.1864 29.8324 13.1997 29.803 13.1997C29.3724 13.2864 28.9858 13.3864 28.6405 13.4877L28.4539 13.545C27.5206 13.8023 25.5849 14.3476 23.8771 15.6541C23.2745 16.1127 22.7572 16.6153 22.3133 17.1739C21.1934 18.5951 20.6335 20.3322 20.6335 22.3546H32.8173L37.7381 16.8886H46.6783V22.3546H52.9202V16.8926H54.4694V16.8886H54.484V16.022ZM46.6636 16.014L39.7485 16.0047L46.6636 8.16834V16.014ZM8.27899 4.62077C7.50575 6.2419 5.89795 6.41388 5.89795 6.41388L6.67119 8.06435V8.07768L0 22.3439H0.943885L3.18628 17.5632H11.112L13.3357 22.3426H20.2175L10.1321 0.674585L8.27899 4.62077ZM3.60489 16.6886L7.15646 9.10289L10.6987 16.6886H3.60489Z" fill="var(--fill-0, #111111)" fill-opacity="0.4"/>
</svg>
