<svg preserveAspectRatio="none" width="100%" height="100%" overflow="visible" style="display: block;" viewBox="0 0 28.7518 12.6003" fill="none" xmlns="http://www.w3.org/2000/svg">
<path id="Vector" d="M1.93595 0H0V12.4563H1.93595V0ZM21.0115 10.0329C21.0115 9.41862 21.1743 8.80949 21.5892 8.33922C21.9657 7.91351 22.4811 7.65352 23.012 7.46724C24.1731 7.06039 25.2359 7.02439 26.5759 7.02611L26.8176 7.02439V6.79526C26.8176 6.04613 26.3799 5.37929 25.6616 5.12387C25.4226 5.04121 25.1712 4.99986 24.9182 5.00159C23.8531 5.00159 23.0897 5.51129 22.9457 6.54955H21.0292C21.2949 4.73759 22.8754 3.45248 24.9182 3.45248C27.1547 3.45248 28.7518 4.70274 28.7518 6.88383V12.4603H26.8176V11.1757C26.4256 11.9671 25.3428 12.6003 24.1354 12.6003C22.2189 12.6003 21.0115 11.4917 21.0115 10.0317V10.0329ZM25.0765 8.51864C24.7674 8.54835 24.46 8.59292 24.1588 8.66835C23.7874 8.76263 23.3937 8.9192 23.1577 9.23405C23.1188 9.28586 23.0851 9.3411 23.0566 9.39976C22.9792 9.57087 22.9411 9.75714 22.9451 9.94489C22.9451 10.7014 23.532 11.1231 24.4542 11.1231C25.8565 11.1231 26.8165 10.1026 26.8165 8.69578V8.46093C26.8165 8.46093 26.3062 8.45864 26.2708 8.45921C25.6456 8.4655 25.6222 8.4735 25.2988 8.49921C25.2241 8.50455 25.1497 8.51121 25.0754 8.51921L25.0765 8.51864Z" fill="var(--fill-0, white)" fill-opacity="0.4"/>
</svg>
