<svg preserveAspectRatio="none" width="100%" height="100%" overflow="visible" style="display: block;" viewBox="0 0 24.3131 24.43" fill="none" xmlns="http://www.w3.org/2000/svg">
<path id="Vector" d="M0 24.43L1.717 18.157C0.656623 16.3161 0.0996209 14.2285 0.102 12.104C0.105 5.43104 5.535 3.75493e-05 12.208 3.75493e-05C13.7992 -0.00393782 15.3753 0.307782 16.8452 0.917147C18.315 1.52651 19.6494 2.42141 20.771 3.55004C21.898 4.67288 22.7912 6.00794 23.3992 7.47805C24.0072 8.94816 24.3177 10.5242 24.313 12.115C24.31 18.79 18.88 24.221 12.208 24.221C10.1851 24.2214 8.19445 23.7146 6.418 22.747L0 24.43ZM6.715 20.555C8.421 21.568 10.049 22.175 12.203 22.175C17.749 22.175 22.266 17.662 22.269 12.113C22.271 6.55304 17.775 2.04604 12.212 2.04404C6.662 2.04404 2.147 6.55804 2.145 12.105C2.145 14.37 2.808 16.066 3.923 17.84L2.906 21.554L6.715 20.555ZM18.305 14.993C18.23 14.867 18.029 14.792 17.725 14.64C17.423 14.488 15.936 13.756 15.658 13.656C15.381 13.555 15.18 13.504 14.978 13.807C14.776 14.11 14.195 14.792 14.019 14.993C13.843 15.195 13.666 15.22 13.364 15.069C13.062 14.918 12.086 14.599 10.931 13.567C10.032 12.765 9.425 11.774 9.248 11.471C9.072 11.169 9.23 11.005 9.381 10.854C9.517 10.719 9.683 10.501 9.835 10.324C9.988 10.149 10.038 10.023 10.14 9.82004C10.24 9.61904 10.191 9.44104 10.115 9.29004C10.038 9.13904 9.434 7.65004 9.182 7.04404C8.936 6.45404 8.687 6.53404 8.502 6.52504L7.922 6.51504C7.72 6.51504 7.392 6.59004 7.115 6.89304C6.838 7.19704 6.056 7.92804 6.056 9.41704C6.056 10.906 7.14 12.344 7.291 12.546C7.442 12.748 9.424 15.803 12.458 17.113C13.18 17.425 13.743 17.611 14.182 17.751C14.907 17.981 15.567 17.948 16.088 17.871C16.668 17.784 17.878 17.139 18.13 16.433C18.382 15.725 18.382 15.119 18.306 14.993" fill="var(--fill-0, #313130)"/>
</svg>
