<svg preserveAspectRatio="none" width="100%" height="100%" overflow="visible" style="display: block;" viewBox="0 0 10.999 7.61601" fill="none" xmlns="http://www.w3.org/2000/svg">
<path id="Vector" d="M0.846 3.30753e-06C0.68566 -0.00045765 0.528881 0.0472728 0.396 0.137003L5.16 4.65C5.369 4.848 5.64 4.848 5.848 4.65L10.603 0.137003C10.4701 0.0472728 10.3133 -0.00045765 10.153 3.30753e-06H0.846ZM0.052 0.582003C0.0183093 0.676741 0.000732544 0.776456 0 0.877003V6.739C0 6.917 0.05 7.081 0.136 7.219L3.503 3.858L0.052 0.582003ZM10.947 0.582003L7.505 3.852L10.863 7.219C10.9527 7.07502 10.9998 6.90862 10.999 6.739V0.877003C10.9983 0.776456 10.9807 0.676741 10.947 0.582003ZM7.095 4.244L6.235 5.06C6.03728 5.24686 5.77555 5.35097 5.5035 5.35097C5.23145 5.35097 4.96972 5.24686 4.772 5.06L3.913 4.248L0.581 7.572C0.666222 7.6015 0.755818 7.61638 0.846 7.616H10.153C10.2432 7.61638 10.3328 7.6015 10.418 7.572L7.095 4.244Z" fill="var(--fill-0, white)"/>
</svg>
