<svg preserveAspectRatio="none" width="100%" height="100%" overflow="visible" style="display: block;" viewBox="0 0 10.5882 12" fill="none" xmlns="http://www.w3.org/2000/svg">
<g id="Group">
<path id="Vector" d="M10.5882 12C10.5882 12 8.80571 11.3044 7.36377 10.7476H1.29971C0.582353 10.7476 0 10.1347 0 9.37994V1.36641C0 0.612353 0.582353 0 1.29971 0H9.28818C10.0059 0 10.5879 0.612 10.5879 1.36694V8.26835L10.5882 12ZM9.02294 7.50671C8.99457 7.47054 8.959 7.44067 8.91847 7.41898C8.87795 7.39729 8.83336 7.38426 8.78753 7.38071C8.74166 7.37701 8.69552 7.3828 8.65199 7.3977C8.60845 7.41261 8.56845 7.43632 8.53447 7.46735C8.52318 7.47706 7.39447 8.47271 5.29376 8.47271C3.21918 8.47271 2.07318 7.48429 2.05253 7.46629C2.0186 7.43534 1.97863 7.41173 1.93515 7.39694C1.89166 7.38215 1.84559 7.37651 1.79982 7.38035C1.75411 7.38416 1.70966 7.3973 1.66923 7.41898C1.6288 7.44065 1.59324 7.47039 1.56476 7.50635C1.50424 7.58135 1.47476 7.67612 1.48182 7.77194C1.48835 7.86724 1.53141 7.95618 1.60218 8.02076C1.656 8.06894 2.93982 9.20206 5.29376 9.20206C7.64806 9.20206 8.93188 8.06894 8.98553 8.02094C9.05629 7.95618 9.09918 7.86706 9.10553 7.77194C9.11293 7.67625 9.08327 7.58135 9.02294 7.50671Z" fill="var(--fill-0, white)"/>
</g>
</svg>
