<svg preserveAspectRatio="none" width="100%" height="100%" overflow="visible" style="display: block;" viewBox="0 0 124.932 40.7543" fill="none" xmlns="http://www.w3.org/2000/svg">
<path id="Vector" d="M73.2354 0.610967C73.1798 0.958107 73.1382 5.06825 73.1382 9.77547C73.1382 14.4688 73.1104 18.3984 73.0826 18.4956C73.041 18.5928 72.9854 21.9948 72.9299 26.0494C72.8466 32.659 72.8605 33.4366 73.0549 33.506C73.277 33.5893 78.4008 33.6587 78.4841 33.5754C78.5675 33.506 78.9701 8.73405 78.9701 4.26288V0H73.3187L73.2354 0.610967ZM14.9297 3.83243C14.1799 3.92963 13.4439 4.08237 13.3051 4.16568C13.1523 4.23511 12.9024 4.30454 12.7496 4.30454C12.1526 4.30454 9.36156 5.6931 8.23682 6.54012C7.47311 7.12332 6.04289 8.53965 5.30696 9.44222C4.41828 10.5253 3.16857 12.7886 2.55761 14.3716C1.90498 16.0934 1.68281 16.8016 1.3079 18.2596C0.419221 21.731 0.127623 24.1054 0.0304235 28.8821C-0.0251189 31.4093 -0.0112333 32.1869 0.127623 32.3535C0.29425 32.5479 0.613619 32.7145 1.76613 33.2144C2.02995 33.3255 2.50206 33.5338 2.80755 33.6587C3.51571 33.9781 4.22388 34.2836 4.75153 34.4919C4.98759 34.5891 5.40416 34.7696 5.69575 34.8945C5.97347 35.0195 6.43169 35.2139 6.69552 35.325C6.97323 35.45 7.40368 35.6305 7.66751 35.7555C7.93134 35.8665 8.36179 36.047 8.61173 36.1581C9.20881 36.422 9.98641 36.7552 10.5418 37.0052C11.4999 37.4217 12.3747 37.4912 13.8327 37.2829C14.6103 37.1579 15.3879 37.0052 15.5962 36.9357C15.7906 36.8524 16.1794 36.7969 16.471 36.7969C17.1792 36.7969 17.4985 36.4358 17.5263 35.5749C17.5541 35.2139 17.6096 33.6448 17.6513 32.0758C17.7485 29.1459 18.0123 26.3549 18.3733 24.647C18.4844 24.1054 18.5677 23.55 18.5677 23.4111C18.5677 23.2584 18.6649 22.8002 18.7899 22.3697C18.9149 21.9393 19.1093 21.245 19.2203 20.8284C19.7897 18.8011 20.9144 16.4267 21.9419 15.0659C23.7332 12.7053 26.0382 11.3168 29.0514 10.7752C31.6618 10.3031 33.7864 10.6642 35.7859 11.9139C36.5496 12.3999 38.2853 14.08 38.6047 14.6632C39.1601 15.6769 40.146 17.7458 40.2432 18.1068C40.2987 18.3429 40.4098 18.7178 40.4792 18.9539C40.8819 20.1897 41.0624 20.8284 41.0624 21.0506C41.0624 21.2033 41.1457 21.7449 41.2568 22.2864C41.6317 24.0915 41.8955 26.7159 41.9094 28.8821C41.9372 31.1177 42.0205 31.6037 42.3954 31.7564C42.5204 31.7981 43.1175 31.7147 43.7146 31.5759C44.6588 31.3537 44.8393 31.2704 44.9087 30.9788C45.0476 30.4511 44.8254 24.7858 44.5894 22.8418C44.2144 19.6481 43.7562 17.6347 42.8398 15.1353C42.2843 13.6634 41.0902 11.7611 39.9238 10.5392C38.1187 8.63685 36.2996 7.70652 32.3145 6.62344C31.8979 6.49847 31.2036 6.31795 30.7871 6.20687C30.3705 6.0819 29.6207 5.8875 29.1208 5.76253C28.6209 5.63756 27.9127 5.44316 27.5239 5.34596C27.149 5.23488 26.4547 5.05436 25.9965 4.94328C25.5383 4.83219 24.7885 4.65168 24.3302 4.5406C20.8588 3.6658 17.8179 3.44363 14.9297 3.83243ZM100.326 8.95622C100.285 8.99788 100.41 9.4561 100.59 9.96987C100.784 10.4836 100.979 11.0807 101.048 11.3168C101.104 11.5389 101.243 11.9555 101.34 12.2193C101.631 13.0525 101.84 13.6634 102.048 14.2328C102.409 15.2186 102.603 15.7463 102.715 16.1767C102.784 16.3989 102.964 16.9404 103.131 17.357C103.298 17.7736 103.478 18.3151 103.548 18.5512C103.603 18.8011 103.7 19.0649 103.756 19.1621C103.811 19.2593 103.909 19.5232 103.978 19.7731C104.034 20.0092 104.409 21.1061 104.797 22.217C105.186 23.3278 105.561 24.4109 105.631 24.647C105.7 24.8691 105.978 25.6884 106.255 26.4521C106.533 27.2158 106.811 28.0351 106.866 28.2711C106.936 28.521 107.033 28.7849 107.089 28.8821C107.144 28.9793 107.241 29.2431 107.297 29.493C107.366 29.7291 107.547 30.2706 107.699 30.6872C107.866 31.1038 107.991 31.5481 107.991 31.687C107.991 31.8258 107.089 33.7143 105.978 35.9082C104.867 38.0882 103.964 39.9906 103.964 40.1294C103.964 40.3377 104.103 40.4071 104.561 40.4627C105.575 40.5876 107.741 40.7404 108.671 40.7404L109.56 40.7543L111.476 37.0052C112.518 34.9362 114.115 31.8119 115.003 30.0624C115.892 28.2989 117.406 25.369 118.336 23.5361C119.28 21.7032 120.585 19.1344 121.252 17.843C121.904 16.5378 122.515 15.3575 122.599 15.2047C122.682 15.052 122.807 14.8298 122.863 14.7187L123.751 12.9414C124.196 12.0388 124.612 11.3862 124.737 11.3862C124.848 11.3862 124.932 11.3029 124.932 11.2057C124.932 11.0529 124.362 10.9696 122.613 10.8169C121.321 10.7197 119.905 10.6364 119.461 10.6225H118.641L117.419 12.983C116.753 14.2744 115.67 16.3989 115.003 17.7042C113.726 20.2313 113.615 20.4119 113.406 20.7868C113.323 20.9256 113.226 21.1339 113.184 21.245C113.143 21.3561 113.045 21.5644 112.976 21.7032C112.893 21.8421 112.573 22.4669 112.254 23.0918C111.935 23.7166 111.601 24.3137 111.504 24.4109C111.268 24.6608 111.046 24.4942 111.046 24.0915C111.046 23.911 110.963 23.55 110.851 23.3001C110.754 23.0501 110.56 22.4947 110.435 22.0781C110.324 21.6616 110.032 20.7451 109.824 20.0647C109.602 19.3704 109.213 18.1624 108.977 17.357C108.727 16.5517 108.435 15.6907 108.324 15.4408C108.213 15.1909 108.13 14.8715 108.13 14.7187C108.13 14.566 108.047 14.2466 107.936 13.9967C107.824 13.7468 107.533 12.8858 107.297 12.0805C106.783 10.3726 106.464 9.5533 106.255 9.41445C106.186 9.3589 105.644 9.30336 105.075 9.30336C104.506 9.30336 103.381 9.20616 102.576 9.09508C100.993 8.87291 100.437 8.84514 100.326 8.95622ZM59.5997 9.28948C56.9892 9.62273 54.2537 10.9557 52.5736 12.7331C50.8379 14.5521 50.1714 15.8713 49.6576 18.4679C49.1577 20.9534 49.5465 23.7027 50.7823 26.2993C51.6016 28.0212 53.5039 30.0485 55.0175 30.8261C55.3229 30.9927 55.6701 31.1732 55.7812 31.2287C56.0866 31.4093 56.9892 31.7286 57.8779 31.9925C58.961 32.3118 62.7934 32.2979 64.0848 31.9925C67.3201 31.201 69.8889 29.4375 71.3886 26.952C71.9162 26.0911 71.9301 25.7578 71.4302 25.619C71.0137 25.5079 69.153 24.758 67.6672 24.1054L67.1257 23.8694L66.1398 24.883C64.6402 26.4104 63.085 27.1186 61.1965 27.1047C59.0026 27.1047 57.2391 26.2022 56.17 24.5498C55.4062 23.3417 55.1841 22.5225 55.1841 20.7729C55.1702 18.6206 55.6562 17.3015 56.9614 15.9268C58.3222 14.4966 60.9466 13.9273 63.1405 14.566C64.4319 14.9409 64.9179 15.2325 65.7233 16.0657C66.1121 16.4683 66.5147 16.8016 66.6119 16.8016C66.6953 16.8016 67.7367 16.2184 68.917 15.5241C70.3611 14.6493 71.0553 14.1494 71.0553 13.9967C71.0553 13.6773 69.0836 11.6639 68.2088 11.0807C67.2784 10.4698 66.1121 9.91433 65.0567 9.58107C64.0709 9.2617 61.0716 9.10896 59.5997 9.28948Z" fill="var(--fill-0, black)"/>
</svg>
