<svg preserveAspectRatio="none" width="100%" height="100%" overflow="visible" style="display: block;" viewBox="0 0 77.6948 21.7932" fill="none" xmlns="http://www.w3.org/2000/svg">
<path id="Vector" d="M77.5949 14.9708L75.2171 11.9269L77.3873 10.2081C77.4553 10.1603 77.5106 10.0964 77.5481 10.0222C77.5856 9.94791 77.6043 9.86557 77.6025 9.78239C77.6049 9.71458 77.5932 9.64701 77.5681 9.58396C77.5431 9.52091 77.5052 9.46375 77.4569 9.4161C77.4086 9.36845 77.3509 9.33134 77.2875 9.30713C77.2241 9.28291 77.1564 9.27212 77.0886 9.27543C77.0209 9.27197 76.9533 9.28336 76.8904 9.30879C76.8275 9.33422 76.771 9.37308 76.7247 9.42266L73.6101 11.9269V6.42742C73.6069 6.32329 73.5726 6.2225 73.5115 6.13806C73.4505 6.05363 73.3656 5.98945 73.2677 5.95379C73.2024 5.92976 73.1331 5.91822 73.0635 5.91977C72.9955 5.91777 72.9279 5.92947 72.8645 5.95417C72.8012 5.97887 72.7434 6.01605 72.6947 6.06352C72.6466 6.11079 72.6089 6.16755 72.5839 6.2302C72.5589 6.29285 72.5472 6.36001 72.5496 6.42742V15.2985C72.5526 15.4028 72.5869 15.5037 72.6479 15.5883C72.7089 15.6729 72.794 15.7372 72.892 15.7729C72.9576 15.7967 73.0271 15.8081 73.0968 15.8062C73.1646 15.8082 73.2322 15.7966 73.2954 15.772C73.3586 15.7474 73.4162 15.7104 73.4649 15.6631C73.513 15.6159 73.5508 15.5591 73.5758 15.4965C73.6007 15.4338 73.6124 15.3666 73.6101 15.2992V13.1547L74.3392 12.5825L76.7407 15.5777C76.792 15.646 76.8567 15.703 76.9309 15.7453C77.0051 15.7876 77.0871 15.8142 77.172 15.8236C77.274 15.8269 77.3746 15.799 77.4602 15.7435C77.5459 15.688 77.6125 15.6076 77.6512 15.5131C77.6761 15.4505 77.6876 15.3833 77.6852 15.3159C77.6985 15.2561 77.6979 15.194 77.6836 15.1345C77.6693 15.0749 77.6416 15.0194 77.6025 14.9721L77.5949 14.9708ZM69.1293 12.0089C68.3342 11.7311 67.689 11.5019 67.689 10.9345C67.689 10.3678 68.4182 10.2144 68.8155 10.2144C69.0799 10.1992 69.3446 10.2394 69.5926 10.3325C69.8407 10.4255 70.0665 10.5693 70.2558 10.7546C70.302 10.8043 70.3585 10.8433 70.4213 10.8689C70.4842 10.8944 70.5519 10.9059 70.6197 10.9026C70.7412 10.9007 70.8574 10.8519 70.9439 10.7666C71.0304 10.6812 71.0807 10.5657 71.0843 10.4442C71.0803 10.3256 71.0398 10.2112 70.9683 10.1164C70.7075 9.81107 70.3788 9.57108 70.0085 9.41571C69.637 9.25961 69.2343 9.19163 68.8321 9.2171C67.4897 9.2171 66.6619 9.90462 66.6619 10.9352C66.6619 12.2283 67.8217 12.6137 68.8321 12.9818C69.5939 13.2269 70.2724 13.4402 70.2724 14.0124C70.2724 14.5853 69.4106 14.9124 68.8974 14.9124C68.2724 14.9437 67.6647 14.711 67.2237 14.2742C67.1229 14.1792 66.9959 14.1166 66.8591 14.0943C66.7377 14.0964 66.6218 14.1452 66.5354 14.2306C66.449 14.3159 66.3988 14.4313 66.3952 14.5527C66.3987 14.6707 66.439 14.786 66.5112 14.8805C66.8126 15.2152 67.1869 15.4777 67.6057 15.6513C68.0245 15.8245 68.4767 15.9023 68.9293 15.8791C70.4537 15.8791 71.3482 15.1583 71.3482 14.0124C71.3482 12.8665 70.1391 12.3596 69.1287 12.0158L69.1293 12.0089ZM62.868 10.1428C63.9549 10.1428 64.4986 10.7484 64.5417 11.9269H61.0131C61.1284 10.781 61.7749 10.1421 62.8673 10.1421L62.868 10.1428ZM65.5855 11.9269C65.5819 11.3166 65.4035 10.7202 65.0716 10.2081C64.819 9.87016 64.485 9.60163 64.1007 9.42752C63.7147 9.25299 63.2911 9.17824 62.8687 9.21015C61.0298 9.21015 59.9693 10.4213 59.9693 12.5332C59.9693 14.6451 61.0131 15.8881 63.0173 15.8881C63.8252 15.9181 64.6138 15.6372 65.2209 15.1034C65.2775 15.062 65.3235 15.0077 65.3552 14.945C65.3868 14.8824 65.4031 14.8131 65.4028 14.743C65.3993 14.6216 65.3491 14.5062 65.2627 14.4209C65.1763 14.3355 65.0604 14.2867 64.9389 14.2846C64.8341 14.2861 64.7337 14.327 64.6577 14.3992C64.2079 14.7651 63.6471 14.9671 63.0673 14.9721C61.8736 14.9721 61.1124 14.1867 61.0791 12.9256H64.9716C65.5848 12.8603 65.5848 12.288 65.5848 11.9276L65.5855 11.9269ZM55.9921 14.9374C54.7664 14.9374 54.1532 14.1527 54.1532 12.5485C54.1532 10.9442 54.7664 10.1581 55.9921 10.1581C56.3545 10.1776 56.7057 10.2905 57.0116 10.4859C57.3172 10.681 57.5644 10.9519 57.7311 11.2706V13.1374C57.7151 14.2506 57.0692 14.9381 55.9754 14.9381L55.9921 14.9374ZM58.245 5.88643C58.1771 5.88404 58.1095 5.89549 58.0462 5.92009C57.9829 5.94468 57.9253 5.98191 57.8769 6.02949C57.8286 6.07678 57.7906 6.13363 57.7655 6.19641C57.7404 6.25919 57.7287 6.32651 57.7311 6.39409V9.89698C57.259 9.43554 56.6252 9.17707 55.965 9.17682C54.0872 9.17682 53.1483 10.2845 53.1483 12.4998C53.1483 14.7256 54.1587 15.8541 56.0477 15.8541C57.9366 15.8541 58.8304 14.8235 58.8304 13.1054V6.42673C58.8144 6.27992 58.7453 6.14405 58.6359 6.04477C58.525 5.94586 58.3824 5.88972 58.2339 5.88643H58.245ZM49.4481 9.17612C49.1194 9.16112 48.7915 9.2217 48.4898 9.35321C48.1891 9.48344 47.9221 9.68059 47.7092 9.92962V6.42534C47.7114 6.35367 47.6988 6.28233 47.6721 6.21577C47.6455 6.14921 47.6054 6.08887 47.5543 6.03852C47.5027 5.98782 47.4413 5.94814 47.3738 5.92188C47.3064 5.89562 47.2343 5.88332 47.162 5.88574C47.0911 5.88275 47.0203 5.89488 46.9545 5.92135C46.8886 5.94781 46.8291 5.98799 46.78 6.03921C46.7313 6.09017 46.6943 6.15109 46.6716 6.21776C46.6488 6.28443 46.6408 6.35526 46.6481 6.42534V15.2972C46.646 15.3661 46.6577 15.4347 46.6823 15.4991C46.707 15.5634 46.7442 15.6223 46.7918 15.6722C46.8396 15.7228 46.8969 15.7634 46.9604 15.7918C47.0239 15.8201 47.0924 15.8357 47.162 15.8375C47.2343 15.8399 47.3064 15.8276 47.3738 15.8013C47.4413 15.775 47.5027 15.7354 47.5543 15.6847C47.6055 15.6342 47.6456 15.5738 47.6723 15.5071C47.6989 15.4404 47.7115 15.3689 47.7092 15.2972V11.9582C47.7092 10.747 48.2889 10.1414 49.4481 10.1414C50.6079 10.1414 51.0058 10.6484 51.0058 11.8595V15.2972C51.0036 15.3688 51.0163 15.4402 51.0429 15.5067C51.0696 15.5733 51.1097 15.6336 51.1607 15.684C51.212 15.7349 51.2733 15.7748 51.3407 15.801C51.4081 15.8273 51.4801 15.8395 51.5524 15.8368C51.6233 15.8397 51.694 15.8276 51.7599 15.8011C51.8257 15.7747 51.8852 15.7345 51.9343 15.6833C51.983 15.6323 52.02 15.5714 52.0428 15.5047C52.0656 15.4381 52.0736 15.3672 52.0663 15.2972V11.6818C52.0323 10.0289 51.1718 9.17821 49.4322 9.17821L49.4481 9.17612ZM43.1868 12.0075C42.3917 11.7297 41.7465 11.5005 41.7465 10.9331C41.7465 10.3664 42.4757 10.213 42.8729 10.213C43.1374 10.1978 43.4021 10.238 43.6501 10.3311C43.8981 10.4241 44.124 10.5679 44.3133 10.7533C44.4065 10.8436 44.5313 10.8942 44.6612 10.8942C44.7911 10.8942 44.9158 10.8436 45.0091 10.7533C45.0589 10.7079 45.0981 10.6522 45.1239 10.59C45.1497 10.5279 45.1615 10.4608 45.1584 10.3935C45.1549 10.2752 45.1146 10.1608 45.0431 10.0664C44.7823 9.76073 44.4533 9.52049 44.0827 9.36502C43.7111 9.20891 43.3085 9.14093 42.9063 9.1664C41.5646 9.1664 40.7361 9.85392 40.7361 10.8852C40.7361 12.1783 41.8958 12.563 42.9063 12.9311C43.6688 13.1769 44.3466 13.3895 44.3466 13.9624C44.3466 14.5353 43.4855 14.8617 42.9715 14.8617C42.3465 14.8937 41.7389 14.6603 41.2979 14.2242C41.1973 14.1291 41.0706 14.0662 40.934 14.0436C40.8124 14.0457 40.6964 14.0946 40.61 14.1801C40.5236 14.2656 40.4735 14.3812 40.4701 14.5027C40.4735 14.6207 40.5138 14.7353 40.5854 14.8305C40.8784 15.1722 41.2444 15.4458 41.6562 15.6326C42.0691 15.8194 42.5177 15.9142 42.9709 15.9104C44.4945 15.9104 45.3897 15.1902 45.3897 14.0443C45.3897 12.8985 44.1799 12.3658 43.1702 12.0151L43.1868 12.0075ZM36.9575 10.1414C38.045 10.1414 38.5888 10.747 38.6311 11.9262H35.0859C35.2012 10.7796 35.8484 10.1414 36.9408 10.1414H36.9575ZM39.6256 11.9262C39.6221 11.3157 39.4438 10.719 39.1117 10.2067C38.859 9.86902 38.5251 9.60074 38.1408 9.42683C37.7547 9.25194 37.3308 9.17695 36.9082 9.20876C35.0699 9.20876 34.0094 10.4199 34.0094 12.5318C34.0094 14.6437 35.0525 15.9034 37.0408 15.9034C37.8487 15.9334 38.6373 15.6525 39.2443 15.1187C39.301 15.0772 39.347 15.023 39.3786 14.9603C39.4102 14.8977 39.4266 14.8284 39.4263 14.7582C39.4227 14.6369 39.3726 14.5215 39.2862 14.4361C39.1998 14.3508 39.0838 14.302 38.9624 14.2999C38.8576 14.3014 38.7571 14.3423 38.6811 14.4145C38.2314 14.7803 37.6705 14.9824 37.0908 14.9874C35.897 14.9874 35.1359 14.202 35.1025 12.9415H39.0124C39.6249 12.8596 39.6256 12.2866 39.6256 11.9262ZM33.2087 9.21015C32.8608 9.19199 32.5137 9.26023 32.1985 9.40879C31.8834 9.55735 31.6099 9.78161 31.4024 10.0616V9.78378C31.4021 9.71231 31.3876 9.64162 31.3599 9.57574C31.3322 9.50986 31.2918 9.45009 31.2409 9.39984C31.1901 9.3496 31.1299 9.30987 31.0637 9.28292C30.9975 9.25597 30.9266 9.24233 30.8552 9.24279C30.7836 9.24206 30.7127 9.2555 30.6463 9.28235C30.58 9.3092 30.5197 9.34892 30.4688 9.39922C30.4179 9.44952 30.3775 9.50941 30.3499 9.57541C30.3223 9.64141 30.308 9.71223 30.3079 9.78378V15.2999C30.3058 15.3716 30.3186 15.443 30.3453 15.5096C30.3721 15.5761 30.4123 15.6365 30.4635 15.6868C30.5151 15.7374 30.5764 15.777 30.6437 15.8033C30.711 15.8295 30.783 15.8419 30.8552 15.8395C30.928 15.8446 31.0012 15.8341 31.0697 15.8088C31.1382 15.7834 31.2005 15.7437 31.2524 15.6923C31.3045 15.6416 31.3449 15.5802 31.3708 15.5123C31.3967 15.4444 31.4075 15.3717 31.4024 15.2992V12.2554C31.4024 10.9623 32.0983 10.2088 33.208 10.2088C33.276 10.2113 33.3438 10.1999 33.4072 10.1753C33.4706 10.1507 33.5283 10.1134 33.5768 10.0657C33.6249 10.0185 33.6627 9.9617 33.6876 9.89905C33.7126 9.8364 33.7243 9.76924 33.7219 9.70183C33.7171 9.56926 33.6606 9.44383 33.5646 9.35225C33.4686 9.26067 33.3407 9.21018 33.208 9.21154L33.2087 9.21015ZM29.0662 6.24755C27.2606 6.24755 26.5981 7.50801 26.5981 8.68652V9.40669H26.2502C26.1514 9.38836 26.0494 9.39938 25.9569 9.43838C25.8643 9.47738 25.7852 9.54266 25.7293 9.62614C25.6735 9.7088 25.6437 9.80626 25.6437 9.90601C25.6437 10.0058 25.6735 10.1032 25.7293 10.1859C25.7852 10.2694 25.8643 10.3346 25.9569 10.3736C26.0494 10.4126 26.1514 10.4237 26.2502 10.4053H26.6141V15.3479C26.6118 15.4196 26.6243 15.4911 26.651 15.5578C26.6776 15.6245 26.7178 15.6849 26.7689 15.7354C26.8203 15.7864 26.8817 15.8263 26.9492 15.8526C27.0167 15.8789 27.0889 15.891 27.1613 15.8881C27.2342 15.8933 27.3073 15.8828 27.3758 15.8574C27.4443 15.832 27.5066 15.7923 27.5585 15.7409C27.6101 15.6899 27.6501 15.6284 27.6759 15.5606C27.7016 15.4928 27.7125 15.4202 27.7079 15.3479V10.3553H28.8676C28.9856 10.3352 29.0926 10.2739 29.1698 10.1824C29.2469 10.0909 29.2892 9.97501 29.2892 9.85531C29.2889 9.73585 29.2465 9.62033 29.1693 9.5291C29.0922 9.43787 28.9854 9.37681 28.8676 9.35668H27.7051V8.63583C27.7051 7.99831 27.9537 7.21286 29.1128 7.21286C29.177 7.21721 29.2414 7.20877 29.3023 7.18803C29.3632 7.16729 29.4194 7.13465 29.4676 7.09203C29.5161 7.05008 29.5553 6.99843 29.5825 6.94041C29.6098 6.8824 29.6246 6.8193 29.626 6.75521C29.6163 6.6171 29.5544 6.48786 29.4529 6.39371C29.3514 6.29956 29.2179 6.24756 29.0794 6.24825L29.0662 6.24755ZM10.9892 0.000127362H19.2729C19.639 -0.00337877 20.0022 0.0655372 20.3416 0.202912C20.6805 0.340416 20.9882 0.542506 21.2472 0.79807C21.5063 1.05433 21.7111 1.35851 21.85 1.69393C21.9889 2.02867 22.0584 2.38701 22.0556 2.74952V10.9338C22.0535 12.3629 21.7678 13.7774 21.215 15.0953C20.6623 16.4132 19.8534 17.6082 18.8353 18.6112C16.7639 20.6519 13.9721 21.7951 11.0643 21.7932H11.0017C9.55795 21.7946 8.12804 21.5154 6.79328 20.9703C5.46042 20.4277 4.2473 19.6282 3.22302 18.6174C2.20248 17.6121 1.39144 16.4145 0.836833 15.0937C0.284827 13.7767 0.000360238 12.3631 0 10.9352C0 4.91765 4.91197 0.0640182 10.9899 0.00221061L10.9892 0.000127362Z" fill="var(--fill-0, white)"/>
</svg>
