<svg preserveAspectRatio="none" width="100%" height="100%" overflow="visible" style="display: block;" viewBox="0 0 20.708 20.7065" fill="none" xmlns="http://www.w3.org/2000/svg">
<path id="Vector" d="M10.355 0C16.187 0 20.708 4.273 20.708 10.043C20.708 15.814 16.188 20.086 10.355 20.087C9.34235 20.0893 8.33399 19.9554 7.357 19.689C7.17353 19.6386 6.9783 19.6527 6.804 19.729L4.749 20.636C4.62493 20.6908 4.4893 20.7142 4.35404 20.7043C4.21878 20.6944 4.08803 20.6514 3.97328 20.5791C3.85853 20.5068 3.76329 20.4074 3.69593 20.2897C3.62858 20.172 3.59117 20.0396 3.587 19.904L3.531 18.062C3.52678 17.9499 3.49988 17.8398 3.45192 17.7384C3.40397 17.637 3.33596 17.5464 3.252 17.472C1.238 15.67 0 13.062 0 10.043C0 4.273 4.522 0 10.355 0ZM16.77 7.363C17.132 6.803 16.46 6.151 15.911 6.53L12.149 9.126C12.0869 9.16902 12.0134 9.19257 11.9379 9.19364C11.8624 9.19471 11.7883 9.17325 11.725 9.132L8.385 6.972C8.24931 6.88421 8.08432 6.85385 7.92626 6.8876C7.76821 6.92135 7.63 7.01644 7.542 7.152L3.937 12.723C3.575 13.283 4.247 13.934 4.795 13.555L8.559 10.959C8.62118 10.9161 8.69472 10.8928 8.77024 10.8919C8.84576 10.891 8.91983 10.9126 8.983 10.954L12.322 13.114C12.4577 13.2018 12.6227 13.2321 12.7807 13.1984C12.9388 13.1647 13.077 13.0696 13.165 12.934L16.77 7.363Z" fill="var(--fill-0, #313130)"/>
</svg>
