<svg preserveAspectRatio="none" width="100%" height="100%" overflow="visible" style="display: block;" viewBox="0 0 109.61 22.3452" fill="none" xmlns="http://www.w3.org/2000/svg">
<path id="Vector" d="M99.0734 0L102.259 0.0274216L102.286 5.24489L102.368 5.21747L102.45 5.08036L102.531 5.05294L102.559 4.97159L102.64 4.94416L102.721 4.80706L102.804 4.77963L102.885 4.64435L102.966 4.61693L102.994 4.53466L103.076 4.50724L103.157 4.37013L103.239 4.34271L103.321 4.20651L103.402 4.17909L103.43 4.09683L103.511 4.06941L103.593 3.93321L103.675 3.90579L104.137 3.33267L104.22 3.30525L104.301 3.16814L104.382 3.14072L104.41 3.05937L104.546 2.9771L104.573 2.89484L104.655 2.86741L104.736 2.73122L104.818 2.7038L105.771 1.63891L105.88 1.58407L106.016 1.66634L106.043 1.7486L106.125 1.77602L106.207 1.91222L106.288 1.93964L106.316 2.02191L106.452 2.10417L106.479 2.18552L106.561 2.21294L106.642 2.35005L106.724 2.37656L106.914 2.62244L106.997 2.64987L107.187 2.95059L107.269 2.97802L107.295 3.06028L107.432 3.14163L107.459 3.2239L107.595 3.30616L107.623 3.38752L107.704 3.41494L107.785 3.55205L107.868 3.57856L107.895 3.66082L107.976 3.68824L108.031 3.79702L107.84 4.0429L106.888 4.83539L106.805 4.9725L106.724 4.99901L106.533 5.24489L106.452 5.27231L106.37 5.40942L106.288 5.43684L106.261 5.5182L106.125 5.60046L106.098 5.68273L106.016 5.70923L105.934 5.84634L105.853 5.87377L105.826 5.95512L105.689 6.03738L105.662 6.11965L105.363 6.30977L105.336 6.39204L105.253 6.41946L105.227 6.50173L105.091 6.58399L105.063 6.66534L104.927 6.74761L104.9 6.82988L104.437 7.18453L104.356 7.32164L104.274 7.34906L104.301 7.43041L109.61 7.45784L109.582 10.4898L104.22 10.5172L104.301 10.6543L104.546 10.8444L104.573 10.9267L105.145 11.391L105.172 11.4733L105.308 11.5556L105.336 11.6369L105.472 11.7192L105.498 11.8015L106.397 12.593L106.479 12.7301L106.561 12.7576L106.588 12.8389L106.669 12.8663L106.752 13.0035L106.833 13.0309L106.914 13.1671L106.997 13.1945L107.023 13.2768L107.159 13.3581L107.187 13.4404L107.269 13.4678L107.35 13.604L107.432 13.6314L107.459 13.7137L107.595 13.795L107.623 13.8773L107.704 13.9047L107.731 13.987L107.868 14.0683L107.895 14.1506L107.976 14.178L108.031 14.2868L107.922 14.3416L107.84 14.4788L107.759 14.5053L107.731 14.5875L107.595 14.6698L107.568 14.7511L107.486 14.7786L107.404 14.9157L107.323 14.9431L107.295 15.0244L107.159 15.1067L107.133 15.189L107.05 15.2155L106.969 15.3526L106.888 15.38L106.86 15.4614L106.778 15.4888L106.697 15.6259L106.615 15.6533L106.533 15.7895L106.452 15.8169L106.424 15.8992L106.343 15.9257L106.261 16.0628L106.179 16.0902L106.098 16.2264L106.016 16.2539L105.989 16.3361L105.88 16.3901L105.689 16.2529L105.662 16.1716L105.581 16.1442L105.498 16.0071L105.417 15.9796L105.39 15.8983L105.253 15.816L105.227 15.7338L105.145 15.7063L105.063 15.5711L104.982 15.5436L104.954 15.4614L104.818 15.3791L104.791 15.2968L104.71 15.2694L104.627 15.1332L104.546 15.1058L104.518 15.0235L104.437 14.9961L104.356 14.8608L104.274 14.8334L104.192 14.6963L104.11 14.6689L104.083 14.5866L104.001 14.5592L103.92 14.423L103.838 14.3956L103.756 14.2594L103.675 14.232L103.647 14.1497L103.566 14.1223L103.484 13.9861L103.402 13.9586L103.321 13.8215L103.239 13.795L103.212 13.7128L103.13 13.6853L103.049 13.5491L102.966 13.5217L102.885 13.3846L102.804 13.3572L102.776 13.2758L102.695 13.2484L102.613 13.1113L102.531 13.0839L102.45 12.9486L102.368 12.9212L102.178 12.6744L102.095 12.647L102.014 12.5108L101.933 12.4834L101.742 12.2384L101.66 12.211L101.578 12.0739L101.497 12.0464L101.306 11.8005L101.224 11.7731L100.87 11.3636L100.789 11.3362L100.653 11.1452L100.462 11.2823L100.434 11.3645L100.353 11.392L100.272 11.5272L100.189 11.5547L100.163 11.6369L100.027 11.7192L99.9994 11.8015L99.918 11.8289L99.8357 11.9651L99.7544 11.9925L99.6721 12.1287L99.5908 12.1561L99.5634 12.2384L99.482 12.2658L99.4006 12.402L99.3184 12.4294L99.237 12.5665L99.1557 12.593L99.1283 12.6753L99.046 12.7027L98.9646 12.8389L98.8833 12.8663L98.801 13.0035L98.7197 13.0309L98.6922 13.1122L98.6109 13.1396L98.5286 13.2768L98.4473 13.3033L98.3659 13.4404L98.2837 13.4678L98.2572 13.5491L98.1749 13.5766L98.0935 13.7137L98.0122 13.7411L97.9299 13.8773L97.8486 13.9047L97.8211 13.987L97.7398 14.0135L97.6575 14.1506L97.5762 14.178L97.4948 14.3142L97.4126 14.3416L97.3861 14.4239L97.3038 14.4513L97.2224 14.5875L97.1402 14.6149L97.0588 14.7511L96.9775 14.7786L96.95 14.8608L96.8687 14.8883L96.7864 15.0244L96.7051 15.0519L96.6237 15.189L96.5415 15.2155L96.514 15.2978L96.4327 15.3252L96.3513 15.4614L96.2691 15.4888L96.1877 15.6259L96.1064 15.6533L96.0789 15.7347L95.9967 15.7621L95.9153 15.8992L95.834 15.9257L95.7517 16.0628L95.6704 16.0902L95.6429 16.1716L95.5616 16.199L95.4802 16.3361L94.9629 15.9796L94.9355 15.8983L94.5269 15.5436L94.4994 15.4614L94.0918 15.1058L94.0643 15.0235L93.6558 14.6689L93.6283 14.5866L93.2746 14.2868L93.302 14.1497L93.3834 14.1223L93.4108 14.04L93.547 13.9586L93.5744 13.8764L93.7106 13.795L93.7371 13.7128L93.8194 13.6853L93.8459 13.6031L93.9821 13.5217L94.0095 13.4395L94.7993 12.7567L94.8267 12.6744L94.9629 12.593L94.9894 12.5108L95.0716 12.4834L95.0991 12.4011L95.398 12.211L95.589 11.9642L95.6704 11.9367L95.7517 11.8005L95.834 11.7731L96.0241 11.5282L96.1064 11.5007L96.1877 11.3636L96.2691 11.3362L96.3513 11.1991L96.4327 11.1726L96.4601 11.0903L96.5415 11.0629L96.6237 10.9267L96.7051 10.8993L96.7864 10.7622L96.8687 10.7347L96.8952 10.6534L96.9775 10.626L97.0314 10.5163L91.6412 10.4624V7.51177L91.7225 7.4295L96.9775 7.40208L96.95 7.32073L96.8139 7.23846L96.7864 7.1562L96.7051 7.12969L96.6777 7.04742L96.5415 6.96516L96.514 6.8838L95.8879 6.36462L95.8066 6.22751L95.7252 6.20009L95.6429 6.06389L95.5616 6.03647L95.5342 5.9542L95.4528 5.9277L95.3705 5.79059L95.2892 5.76316L95.2618 5.68181L94.9629 5.48986L94.9355 5.40851L94.7993 5.32624L94.7718 5.24398L94.6905 5.21747L94.6082 5.08036L94.5269 5.05294L94.4994 4.97159L94.3632 4.88932L94.3367 4.80706L94.0918 4.61693L94.0643 4.53466L93.9282 4.4524L93.9007 4.37013L93.6558 4.17909L93.6283 4.09683L93.3294 3.9067L93.2746 3.74217L93.4108 3.55113L93.547 3.46887L93.5744 3.3866L93.7106 3.30525L93.7371 3.22298L93.8194 3.19556L93.8459 3.1133L93.9821 3.03194L94.0095 2.94968L94.1457 2.86741L94.1731 2.78606L94.2545 2.75864L94.2819 2.67637L94.4181 2.59502L94.4455 2.51276L94.5269 2.48534L94.6082 2.34914L94.6905 2.32172L94.7718 2.18461L94.8532 2.15719L95.153 1.7486L95.3705 1.58407L95.5067 1.66634L95.5342 1.7486L95.6704 1.83087L95.6978 1.91222L95.834 1.99448L95.8614 2.07675L95.9427 2.10417L96.0241 2.24037L96.1064 2.26779L96.1329 2.35005L96.2151 2.37656L96.2965 2.51367L96.3778 2.54109L96.4601 2.67729L96.5415 2.70471L96.5689 2.78698L96.6502 2.8144L96.7325 2.95059L96.8139 2.97802L97.7663 4.0429L97.9025 4.12516L97.9299 4.20743L98.0122 4.23485L98.0935 4.37105L98.1749 4.39847L98.4747 4.80797L98.8833 5.16263L98.9098 5.24489L99.0195 5.29973L99.0734 0ZM0.0274216 2.45883L3.10416 2.48625V18.9851L3.18551 19.0673L11.8161 19.0948L11.7887 21.9622L0 21.8799L0.0274216 2.45883ZM14.5117 2.45883C15.2588 2.36438 15.7941 2.48259 16.1177 2.81348L16.1451 2.89575L16.2804 2.92317L16.3078 3.00544L16.4449 3.0877L16.4714 3.16905L16.5537 3.19648L16.7438 3.66082L16.8261 3.68824L16.88 4.78055L16.5263 5.5182L16.444 5.54562L16.3617 5.68273L16.2813 5.71015L16.199 5.84634L16.1168 5.87377L16.0902 5.95603L15.8453 6.03738L15.8179 6.11965L15.4915 6.22842L15.4093 6.201L15.3818 6.28327C14.8017 6.35639 14.3572 6.29241 14.0482 6.09131L14.0208 6.00905L13.7758 5.9277L13.7484 5.84543L13.6131 5.76316L13.5857 5.68181L13.5034 5.65439L13.4221 5.51728L13.3398 5.49077L13.3124 5.35366L13.232 5.32624L13.1497 4.97159L13.0674 4.94416L13.0135 4.12516L13.2585 3.33267L13.3407 3.30525L13.5309 3.00544L13.6131 2.97802L13.6406 2.89575L13.7758 2.86833L13.8033 2.78606L14.5117 2.45883ZM32.643 2.45883L35.611 2.48625L35.6384 14.7511L35.7206 14.7237L35.9108 14.423L35.9921 14.3956L36.0744 14.2585L36.1557 14.231L36.1832 14.0958L36.2645 14.0683L36.5095 13.7128L36.5918 13.6853L36.6183 13.5482L36.7005 13.5208L36.7819 13.3846L36.8641 13.3572L37.217 12.8389L37.2992 12.8115L37.4894 12.5108L37.5716 12.4834L37.9254 11.9651L38.0076 11.9377L38.0881 11.8005L38.1703 11.7731L38.1978 11.636L38.2791 11.6086L38.3614 11.4733L38.4427 11.4459L38.6329 11.0903L38.77 11.0081L38.7965 10.9258L38.8787 10.8984L39.3952 10.1616L39.4774 10.1342L39.5049 10.0519L39.5862 10.0245L39.8312 9.61502L39.9125 9.5876L39.9948 9.45141L40.0762 9.42398L40.1036 9.28687L40.1849 9.25945L40.4299 8.9048L40.5122 8.87737L40.5396 8.74118L40.6209 8.71376L40.7023 8.57665L40.7846 8.54923L41.1374 8.03095L41.2197 8.00353L41.2471 7.92127L44.9216 7.94869L44.8403 8.14064L44.7041 8.22291L44.6766 8.30426L44.5953 8.33168L44.513 8.46879L44.4317 8.49621L44.4042 8.63149L44.3229 8.65891L44.2406 8.79602L44.1602 8.82345L44.0779 9.01448L43.9957 9.04191L43.9692 9.17902L43.833 9.26037L43.8055 9.34263L43.7242 9.37005L43.6419 9.50625L43.5606 9.53367L43.5331 9.61594L43.4518 9.64336L43.0981 10.1616L42.9619 10.2439L42.8257 10.4898L42.6895 10.572L42.662 10.6534L42.5807 10.6808L42.2269 11.2L42.0898 11.2823L42.0633 11.3636L41.9811 11.391L41.9536 11.5282L41.8184 11.6095L41.7909 11.6918L41.7087 11.7192L41.6273 11.8554L41.546 11.8828L41.3558 12.2375L41.2187 12.3197L41.1913 12.402L41.1109 12.4294L41.0286 12.5656L40.9463 12.593L40.9198 12.7301L40.8376 12.7576L40.5935 13.1122L40.5113 13.1396L40.3211 13.4395L40.2389 13.4669L40.2114 13.5491L40.0762 13.6314L40.0487 13.7137L39.9665 13.7402L39.6127 14.2594L39.4765 14.3416L39.4491 14.4239L39.3678 14.4504L39.3403 14.5875L39.2051 14.6698L39.1776 14.7511L39.0954 14.7786L39.0405 14.997L39.1228 15.1341L39.2051 15.1606L39.3952 15.4614L39.4774 15.4888L39.5588 15.6259L39.6411 15.6524L39.9939 16.1716L40.0762 16.199L40.1584 16.3361L40.2398 16.3626L40.2672 16.4449L40.3485 16.4723L40.376 16.6085L40.5113 16.6908L40.5387 16.773L40.6209 16.8005L40.8659 17.1551L40.9473 17.1825L40.9747 17.3187L41.1109 17.401L41.1383 17.4833L41.2197 17.5107L41.3019 17.6469L41.3824 17.6743L41.5734 18.029L41.7096 18.1112L41.737 18.1935L41.8184 18.2209L41.9006 18.3571L41.982 18.3845L42.0094 18.5207L42.0908 18.5482L42.173 18.6853L42.2544 18.7127L42.6081 19.231L42.6904 19.2584L42.7708 19.3955L42.8531 19.4229L42.8805 19.5043L42.9619 19.5317L43.1529 19.8315L43.2342 19.8589L43.4792 20.2145L43.5615 20.2419L43.588 20.379L43.7242 20.4604L43.7516 20.5426L43.8339 20.5701L43.9152 20.7063L43.9966 20.7337L44.3503 21.252L44.4865 21.3342L44.5139 21.4165L44.5962 21.4439L44.6227 21.5801L44.705 21.6075L44.7863 21.7446L44.8677 21.7721L44.9225 21.8808L44.7854 21.9082H41.2462L41.1109 21.826L41.0286 21.634L40.9463 21.6066L40.9198 21.4713L40.7836 21.3891L40.7562 21.3068L40.6749 21.2794L40.5926 21.1423L40.5113 21.1148L40.4838 20.9796L40.4025 20.9521L40.3202 20.7602L40.1849 20.6779L40.0487 20.433L39.9125 20.3507L39.8851 20.2684L39.8029 20.241L39.5588 19.8315L39.4765 19.8041L39.4491 19.7218L39.3678 19.6944L39.2864 19.5043L39.2041 19.4768L38.8504 18.9577L38.7691 18.9302L38.6868 18.7931L38.6054 18.7657L38.4153 18.411L38.2782 18.3288L38.2517 18.2474L38.1694 18.22L38.1429 18.0829L38.0607 18.0555L37.9793 17.9193L37.897 17.8919L37.5442 17.3736L37.4619 17.3462L37.2718 17.0454L37.1896 17.018L36.8358 16.4988L36.6996 16.4166L36.6722 16.3352L36.5908 16.3078L36.5634 16.1707L36.4821 16.1433L36.2371 15.7886L36.1548 15.7612L36.1274 15.625L35.9921 15.5427L35.9647 15.4605L35.8824 15.433L35.8011 15.2968L35.7197 15.2694L35.6923 15.1332L35.611 15.2155V21.8808L35.5287 21.9631L32.7518 21.9082L32.6165 21.8808L32.643 2.45883ZM46.311 4.3162H49.1967L49.2789 4.39847V7.83991L49.3603 7.92218L52.8721 7.9496L52.8447 10.381L49.278 10.4075V18.0564L49.4151 18.4659L49.4956 18.4933L49.5778 18.6853L49.6601 18.7127L49.8502 18.9577L49.9855 18.9851L50.0129 19.0673L50.5577 19.231L52.7085 19.2584L52.6811 21.9622L48.9517 21.826L48.9243 21.7437L47.917 21.3891L47.8896 21.3068L47.5898 21.1158L47.5623 21.0335L47.3722 20.9512L47.2899 20.815L47.2095 20.7876L47.1272 20.5966L47.045 20.5691L47.0185 20.432L46.8823 20.3507C46.5703 19.8632 46.3707 19.2623 46.2836 18.5482L46.311 4.3162ZM25.0206 7.53919C25.9895 7.45936 26.797 7.54162 27.4429 7.78598L27.4703 7.86734L27.7153 7.89476L27.7427 7.97702L28.75 8.4953L28.7774 8.57756L29.0772 8.76952L29.1047 8.85087L29.2399 8.93313L29.2674 9.0154L29.3496 9.04191L29.3771 9.12417L29.4575 9.15159L29.5398 9.34263L29.622 9.37005L29.8122 9.72471L29.9483 9.80698L29.9758 9.94409L30.0571 9.97151L30.2472 10.4898L30.3295 10.5172L30.6833 11.8005L30.7655 11.828L30.9822 13.6853V21.8808L30.8469 21.9082L28.1239 21.9631L27.9877 21.8808L27.9603 13.2758L27.8789 13.2484L27.6879 12.2384L27.6065 12.211L27.5243 11.8554L27.4429 11.828L27.2528 11.4185L27.1705 11.391L27.0892 11.1991L27.0069 11.1726L26.9804 11.0903L26.8981 11.0629L26.8168 10.9267L26.7354 10.8993L26.708 10.817L26.2994 10.626L26.272 10.5437L25.1294 10.2165H24.3671L23.5225 10.4084L23.4951 10.4898L23.0874 10.572L23.06 10.6543L22.6514 10.8444L22.624 10.9267L22.4887 11.009L22.4613 11.0912L22.2163 11.2823L22.1889 11.3645L22.0527 11.4459L22.0253 11.5282L21.943 11.5556L21.5902 12.402L21.5079 12.4294L21.2355 13.4669L21.1807 14.232V21.8808L21.1002 21.9631L18.3772 21.9082L18.2675 21.9631L18.241 7.9496L21.1542 7.92218L21.209 9.77955L21.3452 9.75213L21.3726 9.61502L21.454 9.5876L21.8077 9.06933L21.9439 8.98706L21.9713 8.9048L22.1066 8.82253L22.134 8.74118L22.2163 8.71376L22.2437 8.63149L22.6514 8.38652L22.6788 8.30426L23.5225 7.9496L23.5499 7.86734L24.3936 7.67538L24.421 7.59403L25.0206 7.53919ZM60.3044 7.53919L61.7477 7.62145L61.7202 10.3801L60.4131 10.3252L59.8418 10.4075L59.8144 10.4898L59.1334 10.6808L59.106 10.7631L58.9159 10.8454L58.8885 10.9267L58.6984 11.009L58.6709 11.0912L58.5347 11.1177L58.4525 11.2549L58.3711 11.2823L58.3437 11.4185L58.2623 11.4459L58.1801 11.6369L58.0987 11.6644L58.0713 11.8015L57.99 11.828L57.9086 12.0739L57.8263 12.1013L57.745 12.402L57.6636 12.4294L57.4726 13.2758L57.3912 13.3033L57.3364 14.1223L57.2276 14.232L57.2002 21.9622L54.4233 21.9073L54.3145 21.9622L54.2332 21.8251L54.288 8.05837L54.3154 7.92127L57.2276 7.94869L57.2551 9.61502L57.3373 9.5876L57.4187 9.34263L57.5009 9.31521L57.5274 9.1781L57.6097 9.15068L58.1262 8.46787L58.3711 8.38561L58.3985 8.30334C58.7508 7.98342 59.2139 7.77441 59.7879 7.6763L59.8144 7.59403L60.3044 7.53919ZM68.1452 7.53919L70.2421 7.62145L70.2695 7.70372L71.2768 7.89476L71.3042 7.97702L71.7667 8.05837L71.7941 8.14064L72.3106 8.33168L72.338 8.41395L72.583 8.4953L72.6104 8.57756L73.019 8.7686L73.0464 8.85087L73.2365 8.93313L73.2639 9.01448L73.6177 9.26037L73.6451 9.34263L73.7274 9.37005L73.8087 9.50625L73.8901 9.53367L74.135 9.88833L74.2173 9.91575L74.4074 10.2165L74.4897 10.2439L74.5711 10.4898L74.6524 10.5172L74.6798 10.6534L74.7612 10.6808L74.8434 10.9267L74.9248 10.9541L75.1149 11.5272L75.1972 11.5547L75.2785 11.9642L75.3608 11.9916L75.5509 13.0025L75.6332 13.03L75.6871 14.0683L75.7959 14.178V15.5976L65.0419 15.625L64.9597 15.7072L65.0968 16.6085L65.1781 16.6359L65.2595 17.1551L65.3418 17.1825L65.5319 17.7557L65.6142 17.7831L65.6955 18.029L65.8308 18.1112L65.9679 18.3571L66.0492 18.3845L66.1315 18.5207L66.2119 18.5482L66.2394 18.6304L66.3765 18.7118L66.403 18.794L67.084 19.1487L67.1114 19.231C67.7939 19.5661 68.7012 19.6752 69.8335 19.5582L70.296 19.4759L70.3234 19.3946L71.0044 19.2035L71.0318 19.1213L71.3307 19.039L71.3581 18.9577L71.7119 18.7657L71.7393 18.6844L72.0391 18.4933L72.338 18.0838L72.4203 18.0564L72.7192 17.3187L75.6871 17.3462L75.6323 18.0015L75.3325 18.794L75.2511 18.8215L75.1688 19.1213L75.0875 19.1487L74.8974 19.5591L74.8151 19.5865L74.4614 20.1048L74.3261 20.1871L74.2987 20.2693L74.2164 20.2968L74.189 20.3781L74.0537 20.4604L74.0263 20.5426L73.8892 20.624L73.8627 20.7063L73.5089 20.8973L73.4815 20.9796L73.2914 21.0618L73.2639 21.1432L72.8554 21.3342L72.8279 21.4165L72.583 21.4988L72.5555 21.5801L71.4669 22.017L70.4048 22.209L70.3773 22.2903L68.4176 22.3452L67.6827 22.2629L67.6553 22.1806L66.5392 21.9896L66.5118 21.9073L65.5045 21.5527L65.477 21.4704L64.797 21.1158L64.7696 21.0335L64.5785 20.9512L64.5511 20.8699L63.9259 20.3507L63.8436 20.2136L63.7613 20.1862L63.6809 19.996L63.5986 19.9686L63.5164 19.8315L63.435 19.8041L63.4076 19.6679L63.3263 19.6405L63.244 19.3946L63.1635 19.3672L62.9725 18.9577L62.8902 18.9302L62.8089 18.6295L62.7275 18.6021L62.5365 17.9193L62.4552 17.8919L62.3729 17.3736L62.2915 17.3462L62.1288 15.7612L62.0191 15.5976V14.3416L62.1288 14.178V13.4678L62.2915 12.7027L62.5913 11.8015L62.6736 11.774L62.9177 11.0912L62.9999 11.0638L63.1901 10.5995L63.2723 10.572L63.3546 10.3262L63.435 10.2987L63.7897 9.78047L63.871 9.75305L63.9533 9.61594L64.0347 9.58852L64.0621 9.45232L64.1434 9.4249L64.1709 9.34263L64.307 9.31521L64.3884 9.17902L64.4707 9.15159L64.4972 9.06933L64.6334 8.98798L64.6608 8.90571L66.1032 8.11413L66.1306 8.03187L67.52 7.6763L67.5465 7.59403L68.1452 7.53919ZM68.1726 10.3252L67.8463 10.3801L67.7915 10.4898L67.1379 10.6534L67.0831 10.7631L66.8655 10.8179L66.8107 10.9267L66.3216 11.2539L66.2668 11.3636L66.1571 11.4185L66.0492 11.6369H65.9944L65.7769 11.9642H65.722L65.6132 12.2384H65.5584L65.2321 13.1662L65.3418 13.221H72.529L72.5839 12.8938L72.529 12.8389L72.4193 12.4559L72.3645 12.4011L71.9843 11.7457L71.9294 11.6909L71.8746 11.5821L71.8206 11.5272L71.7119 11.4176L71.657 11.3636L71.6031 11.3088L71.5482 11.2539L71.4395 11.1442L71.3307 11.0903L71.2759 11.0355L71.0583 10.9258L71.0035 10.8719C70.7859 10.6171 70.4776 10.4898 70.0784 10.4898L70.0236 10.4349L68.1726 10.3252ZM83.283 7.53919L85.3789 7.62145L85.4063 7.70372L86.4136 7.89476L86.4411 7.97702H86.5498L87.4484 8.33168L87.4758 8.41395L87.7208 8.4953L87.7482 8.57756L87.9931 8.65983L88.0197 8.74118L88.1558 8.7686L88.1833 8.85087L88.7006 9.20552L88.782 9.34263L88.8642 9.37005L88.8917 9.45141L89.027 9.53367L89.0544 9.61594L89.1366 9.64336L89.218 9.77955L89.2993 9.80698L89.4904 10.1616L89.5717 10.1891L89.654 10.381L89.7353 10.4075L89.8167 10.6534L89.899 10.6808L90.0891 11.2L90.1704 11.2274L90.5251 12.3472L90.6065 12.3746L90.7701 13.6305L90.8788 13.7402L90.9328 15.5976L80.1523 15.6524L80.2072 16.5811L80.7785 17.9193L80.8598 17.9467L80.9421 18.1935L81.0773 18.2749L81.1048 18.3571L81.187 18.3845L81.2684 18.5207L81.3497 18.5482L81.3772 18.6304L81.5134 18.7118L81.5408 18.794L81.8945 18.9851L81.9219 19.0673L83.0097 19.5043L85.0252 19.5591L85.4338 19.4768L85.4612 19.3946C86.0486 19.3111 86.5115 19.1018 86.8497 18.7666L86.8762 18.6844L87.0672 18.6021L87.1486 18.4659L87.2308 18.4385L87.3122 18.2474L87.4484 18.1652L87.7482 17.4824L87.8295 17.4549L87.8569 17.3178H90.7966L90.8788 17.4001L90.579 18.5207L90.4977 18.5482L90.1439 19.3946L90.0617 19.422L89.8167 19.8315L89.7353 19.8589L89.5443 20.1596L89.463 20.1871L89.4355 20.2693L89.2993 20.3516L89.2728 20.433L89.1906 20.4604L89.1631 20.5426L88.8642 20.7337L88.8368 20.8159L88.4282 21.0609L88.4008 21.1432L87.9931 21.3342L87.9657 21.4165L87.1211 21.7711L87.0946 21.8534L85.5425 22.2081L85.5151 22.2903L83.5005 22.3452C82.2409 22.2282 81.1791 21.9095 80.315 21.3891L80.2876 21.3068L79.7163 20.9521L79.6889 20.8699L79.3891 20.6779L79.3617 20.5966L79.2264 20.5143L79.1989 20.432L79.1167 20.4046L79.0893 20.3233L78.954 20.241L78.9266 20.1587L78.8443 20.1322L78.8178 19.9951L78.6816 19.9138L78.6542 19.8315L78.5728 19.8041L78.4906 19.5591L78.4092 19.5317L78.2191 19.1213L78.1368 19.0939L78.0555 18.848L77.9732 18.8205L77.7831 18.2474L77.7008 18.22L77.6204 17.7557L77.5381 17.7282L77.2118 16.0345V13.9047L77.5655 12.2375L77.6478 12.21L77.7291 11.8005L77.8105 11.7731L78.0015 11.2L78.0829 11.1726L78.6002 10.2165L78.6825 10.1891L78.709 10.0519L78.7913 10.0245L79.0353 9.61502L79.2803 9.42398L79.3077 9.34172L79.4448 9.25945L79.4713 9.1781L79.9887 8.82345L80.0161 8.74118L80.1514 8.71376L80.1788 8.63149L80.4238 8.54923L80.4512 8.46787L80.6962 8.38561L80.7236 8.30334L81.1861 8.11322L81.2135 8.03095L81.6221 7.94869L81.6495 7.86642L82.6569 7.67538L82.6843 7.59312L83.283 7.53919ZM83.3104 10.3252L82.9832 10.3801L82.9283 10.4898L82.0033 10.817L81.9485 10.9267H81.8397L81.7309 11.0912L81.5134 11.2L81.4585 11.3097L81.3497 11.3636L81.0234 11.8005H80.9686L80.8589 12.0739H80.805L80.315 13.1662L80.4786 13.221H87.6659L87.7208 13.1662L87.6659 12.7292L87.612 12.6744L87.2308 11.9102L87.176 11.8554L87.1211 11.7457L87.0124 11.636L86.9584 11.5821L86.7409 11.3636L86.686 11.3088L86.4685 11.0903L86.4136 11.0355L86.25 10.9258L86.1961 10.8719L85.9785 10.7622L85.9237 10.7073C85.2698 10.3435 84.3987 10.2162 83.3104 10.3252ZM13.4769 7.92218L16.3901 7.9496V21.8799L16.3078 21.9622L13.5857 21.9073L13.476 21.9622L13.4769 7.92218Z" fill="var(--fill-0, #111111)" fill-opacity="0.6"/>
</svg>
