<svg preserveAspectRatio="none" width="100%" height="100%" overflow="visible" style="display: block;" viewBox="0 0 5.91853 5.91977" fill="none" xmlns="http://www.w3.org/2000/svg">
<path id="Vector" d="M1.54767 4.38068C2.33002 5.16477 3.33016 5.69536 4.41807 5.90348C4.70607 5.95988 5.00487 5.86748 5.21487 5.66348L5.83167 5.04548C5.88741 4.98738 5.91853 4.90999 5.91853 4.82948C5.91853 4.74897 5.88741 4.67157 5.83167 4.61348L4.71567 3.49748C4.65758 3.44174 4.58018 3.41062 4.49967 3.41062C4.41916 3.41062 4.34177 3.44174 4.28367 3.49748L3.71847 4.06148C3.67152 4.10973 3.60991 4.14108 3.54327 4.15063C3.47662 4.16018 3.40869 4.1474 3.35007 4.11428C2.7013 3.7536 2.16635 3.21865 1.80567 2.56988C1.77402 2.51108 1.76207 2.44367 1.77157 2.37758C1.78108 2.31148 1.81154 2.25017 1.85847 2.20268L2.42247 1.63868C2.47978 1.58091 2.51193 1.50284 2.51193 1.42148C2.51193 1.34011 2.47978 1.26204 2.42247 1.20428L1.30647 0.088276C1.24881 0.0316967 1.17126 0 1.09047 0C1.00969 0 0.932133 0.0316967 0.874474 0.088276L0.257674 0.706276C0.154931 0.808655 0.0792173 0.934944 0.0373282 1.07381C-0.004561 1.21267 -0.0113145 1.35976 0.0176738 1.50188C0.218074 2.55188 0.725674 3.55868 1.53927 4.37228L1.54767 4.38068Z" fill="var(--fill-0, #080F1E)"/>
</svg>
