<svg preserveAspectRatio="none" width="100%" height="100%" overflow="visible" style="display: block;" viewBox="0 0 47.697 12.7182" fill="none" xmlns="http://www.w3.org/2000/svg">
<path id="Vector" d="M3.74435 12.7182C4.73742 12.7182 5.68981 12.3237 6.39201 11.6215C7.09421 10.9193 7.48871 9.96695 7.48871 8.97389C7.48871 7.98083 7.09421 7.02843 6.39201 6.32623C5.68981 5.62403 4.73742 5.22954 3.74435 5.22954C2.75129 5.22954 1.7989 5.62403 1.0967 6.32623C0.394494 7.02843 0 7.98083 0 8.97389C0 9.96695 0.394494 10.9193 1.0967 11.6215C1.7989 12.3237 2.75129 12.7182 3.74435 12.7182ZM45.2773 12.3005C44.5132 12.3005 43.9252 12.0987 43.5132 11.6951C43.11 11.2919 42.9084 10.7036 42.9084 9.9303V6.27716H41.3584V4.14688H42.9084V1.37414H45.4921V4.14688H47.697V6.2765H45.4914V9.38897C45.4914 9.64939 45.5588 9.8468 45.6937 9.9812C45.8276 10.1156 46.025 10.1828 46.2859 10.1828H47.697V12.2999H45.2779L45.2773 12.3005ZM32.8016 4.14556H35.146V4.82635C35.4189 4.52908 35.7547 4.29649 36.1289 4.14556C36.5448 3.97409 36.9897 3.88433 37.4396 3.88117C37.8922 3.86949 38.3423 3.95093 38.7622 4.12044C39.1737 4.28833 39.5309 4.52363 39.8336 4.82635C40.1454 5.15361 40.382 5.54497 40.5269 5.97312C40.6948 6.41817 40.7788 6.96412 40.7788 7.61098V12.2992H38.1825V7.87603C38.1825 7.53938 38.149 7.27896 38.082 7.09477C38.0279 6.90918 37.9282 6.74011 37.7919 6.60302C37.5486 6.36771 37.2168 6.25006 36.7964 6.25006C36.3765 6.25006 36.0447 6.36771 35.801 6.60302C35.6567 6.73819 35.5484 6.9072 35.4858 7.09477C35.4272 7.27984 35.3979 7.54026 35.3979 7.87603V12.2992H32.8016V4.14556ZM27.342 12.514C26.4934 12.514 25.7203 12.325 25.0227 11.9469C24.3466 11.588 23.7805 11.0523 23.3849 10.3969C22.99 9.74215 22.7926 9.01553 22.7926 8.21709C22.7926 7.41864 22.99 6.68762 23.3849 6.02401C23.7813 5.36613 24.3469 4.82656 25.0227 4.4615C25.7203 4.07505 26.4934 3.88183 27.342 3.88183C28.1907 3.88183 28.9594 4.07505 29.6481 4.4615C30.3279 4.82358 30.8953 5.36519 31.2886 6.02737C31.682 6.68955 31.8861 7.44694 31.8789 8.21709C31.8789 9.01509 31.6813 9.74171 31.286 10.3969C30.8957 11.0566 30.3283 11.5936 29.6481 11.9469C28.959 12.325 28.1907 12.514 27.342 12.514ZM27.342 10.2205C27.6946 10.2205 28.0096 10.1323 28.2872 9.95608C28.5728 9.77938 28.7953 9.53989 28.9548 9.23761C29.1173 8.92232 29.1995 8.57177 29.1941 8.21709C29.1996 7.86218 29.1174 7.51139 28.9548 7.1959C28.8035 6.90239 28.572 6.65783 28.2872 6.49065C28.0096 6.3144 27.6946 6.22627 27.342 6.22627C26.9999 6.2209 26.6633 6.31257 26.3711 6.49065C26.0935 6.65854 25.8754 6.89362 25.7167 7.1959C25.5539 7.51133 25.4714 7.86212 25.4768 8.21709C25.4768 8.59472 25.5566 8.93489 25.7161 9.23761C25.876 9.54033 26.0986 9.77982 26.3836 9.95608C26.6701 10.1323 26.9895 10.2205 27.342 10.2205ZM17.0429 4.1449H19.3741V5.11585C19.6416 4.77914 19.9819 4.50749 20.3695 4.32137C20.7648 4.1363 21.1891 4.04377 21.6426 4.04377C21.9365 4.04421 22.2222 4.06955 22.4998 4.11978V6.56534C22.298 6.48955 22.0206 6.45166 21.6677 6.45166C21.0464 6.45166 20.5551 6.64047 20.1937 7.0181C19.9966 7.21821 19.8459 7.4592 19.7522 7.72401C19.6597 8.00161 19.6134 8.35853 19.6134 8.79477V12.2979H17.0429V4.1449ZM9.60974 0H16.2128V2.45746H12.2688V4.86402H16.1374V7.23291H12.2688V12.2992H9.60974V0Z" fill="var(--fill-0, white)"/>
</svg>
