<svg preserveAspectRatio="none" width="100%" height="100%" overflow="visible" style="display: block;" viewBox="0 0 123.255 25.932" fill="none" xmlns="http://www.w3.org/2000/svg">
<path id="Vector" d="M120.633 3.78367C122.423 3.78367 123.255 2.99361 123.255 1.89549C123.255 0.797365 122.419 0 120.633 0C118.847 0 118.003 0.790062 118.003 1.89549C118.003 3.00091 118.85 3.78367 120.633 3.78367ZM3.02946 25.922C1.21298 25.922 0 24.6579 0 22.6701C0 20.6824 1.27937 19.3904 3.02879 19.3904C3.72435 19.3875 4.40892 19.5638 5.01656 19.9023L4.80411 20.4832C4.26534 20.152 3.64594 19.9752 3.01352 19.972C1.6505 19.972 0.647319 20.9459 0.647319 22.6522C0.647319 24.3074 1.59871 25.3411 3.0341 25.3411C3.56012 25.3437 4.07805 25.2116 4.53854 24.9573V23.2537H2.72406V22.6701H5.16196V25.2999C4.5246 25.7049 3.78433 25.9207 3.02813 25.922M8.74911 25.7912H8.1071V19.5212H9.79014C11.3251 19.5212 12.0674 20.2322 12.0674 21.327C12.0674 22.2711 11.4274 22.8414 10.6134 23.0924L12.3482 25.7912H11.6073L10.0033 23.2019L8.74978 23.2843L8.74911 25.7912ZM9.87246 22.6708C10.7037 22.6423 11.4274 22.1795 11.4274 21.3576C11.4274 20.537 10.8132 20.1021 9.72109 20.1021H8.74911V22.7113L9.87246 22.6708ZM14.9169 25.7912V19.5212H18.7079V20.1121H15.5589V22.3608H18.188V22.941H15.5589V25.2003H18.7079V25.7912H14.9169ZM21.509 25.7912V19.5212H25.3079V20.1121H22.151V22.3608H24.7794V22.941H22.1503V25.2003H25.3072V25.7912H21.509ZM32.3813 19.5212H33.0054V25.8523H32.3122L28.7311 20.4241V25.7965H28.109V19.5212H28.8306L32.3912 24.8929L32.3813 19.5212ZM45.3436 20.3139L43.2967 25.7501H42.5956L40.5189 20.3039L40.4007 25.7912H39.7694L39.9791 19.5212H40.8409L42.9595 25.0596L45.0442 19.5212H45.8986L46.0978 25.7912H45.4458L45.3436 20.3139ZM53.8696 25.7912H53.2177L52.5551 24.0006H49.7182L49.0556 25.7912H48.4029L50.7798 19.5212H51.532L53.8696 25.7912ZM51.1403 20.1632L49.9379 23.425H52.3347L51.1403 20.1632ZM58.1034 20.122V25.7912H57.4614V20.122H55.2539V19.5212H60.3116V20.122H58.1034ZM65.3249 20.122V25.7912H64.6855V20.122H62.478V19.5212H67.5331V20.122H65.3249ZM70.7126 25.7912H70.0759V19.5212H71.7616C73.2965 19.5212 74.0381 20.2322 74.0381 21.327C74.0381 22.2711 73.3961 22.8414 72.5855 23.0924L74.3196 25.7912H73.578L71.9714 23.2019L70.7179 23.2843L70.7126 25.7912ZM71.8359 22.6708C72.6698 22.6423 73.3908 22.1795 73.3908 21.3576C73.3908 20.537 72.7794 20.1021 71.6872 20.1021H70.7126V22.7113L71.8359 22.6708ZM76.883 25.7912V19.5212H80.674V20.1121H77.525V22.3608H80.1522V22.941H77.525V25.2003H80.674V25.7912H76.883ZM86.553 24.1666C86.553 23.4323 85.9515 23.1435 84.9695 22.8521C84.0865 22.5958 83.1424 22.21 83.1424 21.0973C83.1424 20.1014 83.9843 19.391 85.1481 19.391C85.8161 19.3832 86.4717 19.5716 87.0337 19.9328L86.8033 20.4932C86.3155 20.1685 85.7446 19.9911 85.1588 19.9819C84.2147 19.9819 83.7645 20.4932 83.7645 21.0562C83.7645 21.7493 84.386 22.0102 85.3506 22.3096C86.2536 22.5805 87.1645 22.9928 87.1645 24.1261C87.1645 25.1485 86.302 25.932 85.0486 25.932C84.3354 25.9321 83.6366 25.7308 83.0329 25.351L83.2633 24.7781C83.7911 25.1525 84.4218 25.3557 85.0691 25.359C85.9362 25.3484 86.553 24.8292 86.553 24.1666ZM93.0222 24.1666C93.0222 23.4323 92.4214 23.1435 91.4388 22.8521C90.5564 22.5958 89.6123 22.2094 89.6123 21.0967C89.6123 20.1021 90.4568 19.3904 91.6207 19.3904C92.2886 19.3835 92.944 19.572 93.5062 19.9328L93.2732 20.4932C92.7852 20.1684 92.2141 19.9909 91.628 19.9819C90.6865 19.9819 90.2338 20.4932 90.2338 21.0562C90.2338 21.7493 90.8558 22.0102 91.8198 22.3096C92.7234 22.5805 93.6363 22.9928 93.6363 24.1261C93.6363 25.1485 92.7719 25.932 91.5184 25.932C90.805 25.9323 90.106 25.7309 89.5021 25.351L89.7325 24.7781C90.2609 25.1522 90.8916 25.355 91.539 25.359C92.4108 25.3484 93.0222 24.8292 93.0222 24.1666ZM95.8771 20.9081C95.8729 20.7038 95.9095 20.5007 95.9848 20.3107C96.06 20.1208 96.1725 19.9477 96.3155 19.8018C96.4585 19.6558 96.6292 19.5398 96.8176 19.4607C97.0061 19.3816 97.2083 19.3408 97.4127 19.3409C97.617 19.3409 97.8193 19.3817 98.0077 19.461C98.1961 19.5402 98.3667 19.6562 98.5097 19.8022C98.6527 19.9483 98.765 20.1213 98.8402 20.3113C98.9154 20.5014 98.952 20.7045 98.9477 20.9088C98.9392 21.3104 98.7737 21.6928 98.4867 21.9738C98.1996 22.2549 97.8138 22.4122 97.412 22.4122C97.0103 22.4121 96.6246 22.2545 96.3376 21.9734C96.0507 21.6922 95.8853 21.3098 95.8771 20.9081ZM97.412 19.5086C97.1349 19.5062 96.8633 19.5862 96.6317 19.7384C96.4001 19.8907 96.219 20.1083 96.1112 20.3636C96.0035 20.619 95.974 20.9006 96.0266 21.1727C96.0792 21.4448 96.2114 21.6952 96.4065 21.8921C96.6016 22.0889 96.8507 22.2234 97.1223 22.2784C97.394 22.3334 97.6758 22.3065 97.9322 22.2011C98.1885 22.0957 98.4077 21.9165 98.562 21.6863C98.7164 21.4561 98.7988 21.1853 98.799 20.9081C98.8004 20.631 98.7195 20.3597 98.5667 20.1286C98.4139 19.8974 98.196 19.7168 97.9405 19.6095C97.7709 19.5382 97.5888 19.5012 97.4047 19.5006L97.412 19.5086ZM97.1133 21.7161H96.8238V20.0636H97.4227C97.829 20.0636 98.0567 20.2561 98.0567 20.5748C98.0634 20.6786 98.0362 20.7817 97.979 20.8686C97.9219 20.9554 97.838 21.0213 97.74 21.0562L98.1463 21.7108H97.8137L97.4559 21.1225L97.1133 21.1405V21.7161ZM97.3895 20.9001C97.6603 20.9001 97.7679 20.7826 97.7679 20.6014C97.7679 20.4195 97.6398 20.3192 97.3895 20.3192H97.1106V20.9028L97.3895 20.9001Z" fill="var(--fill-0, black)"/>
</svg>
