<svg preserveAspectRatio="none" width="100%" height="100%" overflow="visible" style="display: block;" viewBox="0 0 63.6273 27.8372" fill="none" xmlns="http://www.w3.org/2000/svg">
<path id="Vector" d="M28.5546 13.223H32.282C35.8942 13.223 38.0909 15.0949 38.0909 18.7729C38.0909 22.3643 35.779 24.2561 32.2629 24.2561H28.5555L28.5546 13.223ZM32.2144 22.5852C34.7958 22.5852 35.8561 21.097 35.8561 18.6768C35.8561 16.1907 34.7291 14.8835 32.1859 14.8835H30.702V22.5843L32.2144 22.5852ZM46.9542 22.4986C46.2794 23.9192 44.825 24.4095 43.342 24.4095C40.7884 24.4095 39.1798 22.7099 39.1798 20.1944C39.1798 17.8322 40.8169 16.0079 43.2545 16.0079C45.8748 16.0079 47.1465 17.5342 47.1465 20.6457H41.1548C41.1548 22.0091 41.9448 23.0079 43.4182 23.0079C44.2948 23.0079 45.0173 22.6527 45.4417 21.8359L46.9542 22.4986ZM45.2104 19.3784C45.1524 18.1588 44.4109 17.4095 43.264 17.4095C42.0513 17.4095 41.3375 18.2644 41.1738 19.3784H45.2104ZM49.5832 21.8446C49.882 22.6328 50.7093 23.0166 51.5867 23.0166C52.213 23.0166 52.9926 22.8251 52.9926 22.0568C52.9926 21.2503 52.1169 21.058 51.1147 20.8467C49.8144 20.5781 48.36 20.2611 48.36 18.4463C48.36 16.7849 49.9106 15.9975 51.3745 15.9975C52.6565 15.9975 54.1291 16.4774 54.6593 17.7542L53.2239 18.3692C52.906 17.6494 52.116 17.38 51.4516 17.38C50.8063 17.38 50.1895 17.6399 50.1895 18.2922C50.1895 19.0319 50.9795 19.1852 51.9627 19.3775C53.282 19.6374 54.862 19.9345 54.862 21.8168C54.862 23.7173 53.2629 24.3895 51.5772 24.3895C50.1514 24.3895 48.6104 23.9096 48.1088 22.4596L49.5832 21.8446ZM56.3926 12.5326H58.3286V19.705L61.2564 16.1907H63.3865L60.1693 19.8869L63.6273 24.2561H61.3924L58.3191 20.32V24.257H56.3831V12.5326H56.3926ZM28.5754 9.72776L32.1391 4.60056H28.941V3.59314H33.8152V4.09295L30.3382 9.22015H33.7095V10.2284H28.5754V9.72776ZM36.8609 5.27362C38.3439 5.27362 39.4804 6.3105 39.4804 7.79867C39.4804 9.32497 38.2858 10.3333 36.8124 10.3333C35.3294 10.3333 34.1349 9.30591 34.1349 7.82726C34.1349 6.29144 35.3961 5.27362 36.8609 5.27362ZM38.2287 7.79867C38.2287 6.90559 37.7756 6.15631 36.8124 6.15631C35.8301 6.15631 35.4351 6.93418 35.4351 7.82813C35.4351 8.69176 35.8976 9.42199 36.841 9.42199C37.8146 9.43065 38.2287 8.65277 38.2287 7.79867ZM40.3275 3.16956H41.4935V6.14678C41.8114 5.54129 42.4463 5.27276 43.1211 5.27276C44.2871 5.27276 44.8744 6.08874 44.8744 7.19318V10.2371H43.6989V7.30839C43.6989 6.60675 43.3333 6.22301 42.6594 6.22301C41.9075 6.22301 41.4935 6.68384 41.4935 7.37509V10.2276H40.3275V3.16956ZM48.3618 5.27362C49.8456 5.27362 50.9821 6.3105 50.9821 7.79867C50.9821 9.32497 49.7876 10.3333 48.3141 10.3333C46.8303 10.3333 45.6358 9.30591 45.6358 7.82726C45.6358 6.29144 46.897 5.27362 48.3618 5.27362ZM49.7304 7.79867C49.7304 6.90559 49.2774 6.15631 48.3141 6.15631C47.3318 6.15631 46.9368 6.93418 46.9368 7.82813C46.9368 8.69176 47.3985 9.42199 48.3427 9.42199C49.3155 9.43065 49.7304 8.65277 49.7304 7.79867ZM0.819763 27.8371C0.659226 27.8352 0.502378 27.7887 0.366726 27.7028C0.235438 27.6176 0.131847 27.4959 0.0686194 27.3526C0.00539158 27.2094 -0.0147328 27.0509 0.010707 26.8964L2.35125 12.5603C2.47595 11.7963 2.86873 11.1016 3.45916 10.6009C4.05202 10.1001 4.80276 9.82495 5.57882 9.82391H15.2208L15.7605 6.52965H14.8552C14.4499 6.52965 14.0748 6.35641 13.8149 6.04976C13.555 5.74312 13.439 5.34812 13.5065 4.95485L14.1224 1.14345C14.1734 0.823081 14.3374 0.531577 14.5849 0.321802C14.8323 0.112026 15.1467 -0.00213186 15.4711 3.01554e-05H19.0642C19.5386 0.000423395 20.0073 0.103615 20.4379 0.302501C20.8686 0.501388 21.2511 0.791243 21.559 1.15211C21.8679 1.51154 22.0944 1.9342 22.2227 2.39046C22.3509 2.84671 22.3778 3.32551 22.3013 3.79324L20.8565 12.666C20.824 12.858 20.7515 13.041 20.6436 13.2031C20.5357 13.3652 20.3948 13.5027 20.2302 13.6067L12.1569 18.5711C11.6667 18.8691 11.0395 18.8396 10.5873 18.4758L6.83051 15.489C6.74578 15.4232 6.67514 15.341 6.6228 15.2473C6.57047 15.1537 6.5375 15.0504 6.52587 14.9438C6.51423 14.8371 6.52416 14.7292 6.55507 14.6264C6.58597 14.5237 6.63723 14.4282 6.70578 14.3456C6.77206 14.2611 6.85457 14.1907 6.94847 14.1385C7.04236 14.0864 7.14574 14.0535 7.25252 14.0419C7.3593 14.0303 7.46732 14.0401 7.57024 14.0709C7.67315 14.1016 7.76888 14.1526 7.8518 14.2209L11.464 17.0924L19.2669 12.2719L20.6928 3.52471C20.7306 3.2916 20.7174 3.05304 20.6541 2.82553C20.5907 2.59803 20.4786 2.38701 20.3256 2.20709C20.1726 2.02716 19.9824 1.88263 19.768 1.78348C19.5537 1.68434 19.3203 1.63295 19.0842 1.63287H15.7215L15.1922 4.89768H16.0879C16.4924 4.89768 16.8675 5.07092 17.1282 5.37757C17.3881 5.68508 17.5042 6.07921 17.4366 6.47248L16.8103 10.3038C16.7592 10.624 16.595 10.9153 16.3476 11.1249C16.1002 11.3345 15.7859 11.4486 15.4616 11.4464H5.57795C4.76889 11.4464 4.09497 12.0224 3.95984 12.8193L1.90861 25.3883L4.78882 23.6125C5.00018 23.4783 5.25052 23.4107 5.51125 23.4107H16.0593C16.8684 23.4107 17.5423 22.8346 17.6774 22.0377L18.3323 18.0141C18.3671 17.801 18.4852 17.6105 18.6604 17.4845C18.8357 17.3584 19.0539 17.3071 19.2669 17.3419C19.7096 17.419 20.018 17.8322 19.9409 18.2731L19.286 22.2967C19.1611 23.0605 18.7683 23.7548 18.1781 24.2553C17.5856 24.7562 16.8352 25.0317 16.0593 25.0331H5.57795L1.24335 27.7124C1.11777 27.7953 0.970246 27.8388 0.819763 27.8371Z" fill="var(--fill-0, white)"/>
</svg>
