<svg preserveAspectRatio="none" width="100%" height="100%" overflow="visible" style="display: block;" viewBox="0 0 79.9721 26.0879" fill="none" xmlns="http://www.w3.org/2000/svg">
<path id="Vector" d="M46.88 0.391097C46.8444 0.613311 46.8178 3.24432 46.8178 6.25755C46.8178 9.26188 46.8 11.7773 46.7822 11.8396C46.7555 11.9018 46.72 14.0795 46.6844 16.6749C46.6311 20.9059 46.64 21.4037 46.7644 21.4481C46.9066 21.5014 50.1865 21.5459 50.2398 21.4925C50.2932 21.4481 50.5509 5.59091 50.5509 2.72879V0H46.9333L46.88 0.391097ZM9.5569 2.45324C9.07692 2.51546 8.60582 2.61324 8.51694 2.66657C8.41917 2.71101 8.25917 2.75545 8.1614 2.75545C7.77919 2.75545 5.99259 3.64431 5.27261 4.18651C4.78374 4.55983 3.86822 5.46647 3.39713 6.04422C2.82826 6.73753 2.02829 8.18636 1.63719 9.19966C1.21943 10.3018 1.07721 10.7552 0.837223 11.6885C0.268355 13.9106 0.0816949 15.4305 0.0194749 18.4882C-0.0160793 20.1059 -0.00719074 20.6037 0.0816949 20.7103C0.188358 20.8348 0.392794 20.9415 1.13055 21.2614C1.29943 21.3325 1.60164 21.4659 1.79719 21.5459C2.2505 21.7503 2.70382 21.9459 3.04159 22.0792C3.19269 22.1414 3.45935 22.257 3.64601 22.337C3.82378 22.417 4.1171 22.5414 4.28598 22.6125C4.46376 22.6925 4.7393 22.808 4.90818 22.888C5.07707 22.9592 5.35261 23.0747 5.51261 23.1458C5.89481 23.3147 6.39257 23.528 6.74812 23.688C7.36143 23.9547 7.92141 23.9991 8.8547 23.8658C9.35246 23.7858 9.85022 23.688 9.98355 23.6436C10.108 23.5902 10.3569 23.5547 10.5435 23.5547C10.9968 23.5547 11.2013 23.3236 11.2191 22.7725C11.2368 22.5414 11.2724 21.537 11.2991 20.5326C11.3613 18.6571 11.5302 16.8705 11.7613 15.7772C11.8324 15.4305 11.8857 15.075 11.8857 14.9861C11.8857 14.8883 11.9479 14.595 12.0279 14.3195C12.1079 14.0439 12.2324 13.5995 12.3035 13.3328C12.6679 12.0351 13.3879 10.5152 14.0456 9.64409C15.1922 8.13303 16.6678 7.24418 18.5966 6.89752C20.2676 6.59531 21.6276 6.82642 22.9075 7.62639C23.3964 7.93749 24.5075 9.013 24.7119 9.38632C25.0674 10.0352 25.6985 11.3596 25.7608 11.5907C25.7963 11.7418 25.8674 11.9818 25.9119 12.1329C26.1696 12.924 26.2852 13.3328 26.2852 13.4751C26.2852 13.5728 26.3385 13.9195 26.4096 14.2661C26.6496 15.4217 26.8185 17.1016 26.8274 18.4882C26.8452 19.9193 26.8985 20.2304 27.1385 20.3281C27.2185 20.3548 27.6007 20.3015 27.9829 20.2126C28.5873 20.0704 28.7029 20.017 28.7473 19.8304C28.8362 19.4926 28.694 15.8661 28.5429 14.6217C28.3029 12.5773 28.0096 11.2885 27.4229 9.68853C27.0674 8.74634 26.303 7.52861 25.5563 6.74642C24.4008 5.52869 23.2364 4.93315 20.6854 4.23984C20.4187 4.15985 19.9743 4.0443 19.7076 3.97319C19.441 3.89319 18.961 3.76875 18.641 3.68875C18.321 3.60876 17.8677 3.48432 17.6188 3.4221C17.3788 3.35099 16.9344 3.23544 16.6411 3.16433C16.3478 3.09322 15.8678 2.97767 15.5745 2.90656C13.3523 2.34658 11.4057 2.20436 9.5569 2.45324ZM64.2216 5.73312C64.1949 5.75979 64.2749 6.05311 64.3904 6.38199C64.5149 6.71086 64.6393 7.09307 64.6838 7.24418C64.7193 7.38639 64.8082 7.65305 64.8704 7.82193C65.0571 8.35525 65.1904 8.74634 65.3237 9.11078C65.5548 9.74186 65.6793 10.0796 65.7504 10.3552C65.7948 10.4974 65.9104 10.844 66.017 11.1107C66.1237 11.3774 66.2393 11.724 66.2837 11.8751C66.3193 12.0351 66.3815 12.204 66.417 12.2662C66.4526 12.3284 66.5148 12.4973 66.5592 12.6573C66.5948 12.8084 66.8348 13.5106 67.0837 14.2217C67.3326 14.9328 67.5725 15.6261 67.617 15.7772C67.6614 15.9194 67.8392 16.4438 68.017 16.9327C68.1947 17.4216 68.3725 17.946 68.4081 18.0971C68.4525 18.2571 68.5147 18.426 68.5503 18.4882C68.5858 18.5504 68.6481 18.7193 68.6836 18.8793C68.7281 19.0304 68.8436 19.3771 68.9414 19.6437C69.048 19.9104 69.128 20.1948 69.128 20.2837C69.128 20.3726 68.5503 21.5814 67.8392 22.9858C67.1281 24.3813 66.5504 25.5991 66.5504 25.6879C66.5504 25.8213 66.6392 25.8657 66.9326 25.9013C67.5814 25.9813 68.968 26.079 69.5636 26.079L70.1324 26.0879L71.3591 23.688C72.0257 22.3636 73.0479 20.3637 73.6168 19.2437C74.1856 18.1149 75.1545 16.2394 75.75 15.0661C76.3544 13.8928 77.19 12.2484 77.6166 11.4218C78.0344 10.5863 78.4255 9.83075 78.4788 9.73297C78.5321 9.6352 78.6121 9.49298 78.6477 9.42187L79.2166 8.28414C79.501 7.70638 79.7676 7.28862 79.8476 7.28862C79.9188 7.28862 79.9721 7.23529 79.9721 7.17307C79.9721 7.07529 79.6077 7.02196 78.4877 6.92419C77.6611 6.86197 76.7544 6.80864 76.47 6.79975H75.9456L75.1634 8.3108C74.7367 9.13744 74.0434 10.4974 73.6168 11.3329C72.799 12.9506 72.7279 13.0662 72.5946 13.3062C72.5412 13.3951 72.479 13.5284 72.4524 13.5995C72.4257 13.6706 72.3635 13.8039 72.319 13.8928C72.2657 13.9817 72.0613 14.3817 71.8568 14.7817C71.6524 15.1817 71.4391 15.5639 71.3768 15.6261C71.2257 15.7861 71.0835 15.6794 71.0835 15.4217C71.0835 15.3061 71.0302 15.075 70.9591 14.915C70.8969 14.755 70.7724 14.3995 70.6924 14.1328C70.6213 13.8662 70.4347 13.2795 70.3013 12.844C70.1591 12.3995 69.9102 11.6262 69.7591 11.1107C69.5991 10.5952 69.4125 10.0441 69.3414 9.88408C69.2703 9.72409 69.2169 9.51965 69.2169 9.42187C69.2169 9.3241 69.1636 9.11966 69.0925 8.95967C69.0214 8.79968 68.8347 8.24858 68.6836 7.73305C68.3547 6.63976 68.1503 6.11533 68.017 6.02644C67.9725 5.99089 67.6259 5.95534 67.2614 5.95534C66.897 5.95534 66.177 5.89312 65.6615 5.82201C64.6482 5.67979 64.2927 5.66201 64.2216 5.73312ZM38.1514 5.94645C36.4804 6.15977 34.7293 7.01307 33.6538 8.15081C32.5427 9.31521 32.1161 10.1596 31.7872 11.8218C31.4672 13.4128 31.7161 15.1728 32.5072 16.8349C33.0316 17.9371 34.2493 19.2348 35.2182 19.7326C35.4137 19.8393 35.6359 19.9548 35.707 19.9904C35.9026 20.1059 36.4804 20.3104 37.0492 20.4792C37.7425 20.6837 40.1958 20.6748 41.0224 20.4792C43.0934 19.9726 44.7378 18.8438 45.6978 17.2527C46.0356 16.7016 46.0444 16.4883 45.7245 16.3994C45.4578 16.3283 44.2667 15.8483 43.3157 15.4305L42.969 15.2794L42.3379 15.9283C41.378 16.906 40.3824 17.3594 39.1736 17.3505C37.7692 17.3505 36.6403 16.7727 35.9559 15.715C35.4671 14.9417 35.3248 14.4172 35.3248 13.2973C35.316 11.9196 35.6271 11.0751 36.4626 10.1952C37.3337 9.27966 39.0136 8.91523 40.418 9.3241C41.2446 9.56409 41.5557 9.75075 42.0713 10.2841C42.3201 10.5418 42.5779 10.7552 42.6401 10.7552C42.6935 10.7552 43.3601 10.3818 44.1156 9.93741C45.04 9.37743 45.4845 9.05744 45.4845 8.95967C45.4845 8.75523 44.2223 7.46639 43.6623 7.09307C43.0668 6.70198 42.3201 6.34643 41.6446 6.13311C41.0135 5.92867 39.0936 5.8309 38.1514 5.94645Z" fill="var(--fill-0, #111111)" fill-opacity="0.6"/>
</svg>
