<svg preserveAspectRatio="none" width="100%" height="100%" overflow="visible" style="display: block;" viewBox="0 0 102.001 23.528" fill="none" xmlns="http://www.w3.org/2000/svg">
<g id="Group">
<path id="Vector" d="M7.83558 0L8.91258 1.886C9.12758 2.276 9.12758 2.754 8.91258 3.144L2.49358 14.354L5.53058 19.645C5.76381 20.051 6.09935 20.3888 6.50376 20.6248C6.90818 20.8608 7.36736 20.9867 7.83558 20.99C8.78258 20.99 9.66558 20.47 10.1396 19.645L13.1766 14.355L12.3796 12.923L8.93358 18.929C8.71858 19.319 8.28758 19.559 7.85658 19.559C7.63698 19.5606 7.42101 19.503 7.23145 19.3921C7.04189 19.2812 6.88578 19.1212 6.77958 18.929L4.13058 14.355L10.0966 3.947L11.1736 5.834C11.3896 6.224 11.3896 6.701 11.1736 7.091L7.01658 14.355L7.83558 15.786L12.3586 7.894L15.3306 13.076C15.5532 13.4695 15.6702 13.9139 15.6702 14.366C15.6702 14.8181 15.5532 15.2625 15.3306 15.656L12.3156 20.926C11.8626 21.728 10.4196 23.528 7.83558 23.528C5.25158 23.528 3.82958 21.728 3.35558 20.926L0.339583 15.656C0.116986 15.2625 0 14.8181 0 14.366C0 13.9139 0.116986 13.4695 0.339583 13.076L7.83558 0Z" fill="var(--fill-0, #191513)"/>
<path id="Vector_2" fill-rule="evenodd" clip-rule="evenodd" d="M26.7456 5.422C27.4236 5.422 27.9736 5.975 27.9736 6.658C27.9736 7.341 27.4236 7.894 26.7456 7.894C26.5837 7.89374 26.4235 7.86153 26.2741 7.79923C26.1247 7.73692 25.9891 7.64574 25.875 7.53091C25.7609 7.41609 25.6706 7.27987 25.6093 7.13008C25.548 6.98029 25.5168 6.81986 25.5176 6.658C25.5176 5.975 26.0676 5.422 26.7456 5.422ZM21.8556 5.617H23.9456V18.041H21.8556V5.617ZM27.8016 9.411H25.6906V18.041H27.8006L27.8016 9.411ZM33.3586 16.155C32.1306 16.155 31.1186 15.093 31.1186 13.575C31.1186 12.078 32.1306 10.973 33.3586 10.973C34.5856 10.973 35.5766 12.1 35.5766 13.575C35.5766 15.071 34.5646 16.155 33.3586 16.155ZM33.3366 9.195C30.9466 9.195 29.0066 10.885 29.0066 13.575C29.0066 16.263 30.6866 17.911 33.3586 17.911C34.4136 17.911 35.5336 18.453 35.5336 19.646C35.5336 20.839 34.5856 21.511 33.3586 21.511C32.1306 21.511 31.1186 20.774 31.1186 19.646H29.0076C29.0076 21.966 30.8596 23.506 33.3576 23.506C35.8346 23.506 37.6446 22.031 37.6446 19.646C37.6446 18.54 37.2996 17.499 35.8776 16.784C37.2776 16.134 37.6876 14.637 37.6876 13.553C37.6876 10.886 35.7276 9.194 33.3366 9.194M41.1336 10.473C41.9086 9.497 42.8346 9.193 43.8036 9.193C46.2376 9.193 47.3146 10.841 47.2936 13.378V18.018H45.1826V13.532C45.1826 11.971 44.3636 11.299 43.2436 11.299C41.9946 11.299 41.1336 12.361 41.1336 13.641V18.021H39.0226V5.595H41.1326L41.1336 10.473ZM52.4406 16.566C52.1826 16.566 51.9676 16.479 51.8376 16.306C51.7076 16.133 51.6436 15.872 51.6436 15.482V11.232H53.3456L53.5396 9.389H51.6656V7.026L49.5326 7.265V9.411H47.9176V11.254H49.5326V15.548C49.5326 16.437 49.7486 17.109 50.1576 17.564C50.5666 18.019 51.1916 18.258 51.9876 18.258C52.3546 18.258 52.6996 18.215 53.0656 18.106C53.4316 17.998 53.7549 17.8463 54.0356 17.651L53.3026 16.285C53.0226 16.48 52.7216 16.566 52.4406 16.566ZM58.2646 12.73C59.2526 12.794 60.2616 12.86 61.1206 13.401C61.8316 13.835 62.0906 14.637 62.0476 15.44C62.0476 16.87 60.9276 17.825 59.6126 18.128C57.8686 18.518 55.9516 18.15 54.5726 17.001C54.5726 17.001 54.5086 16.935 54.4436 16.892L55.5206 15.526C56.0166 15.851 56.4686 16.111 57.0286 16.263C57.5676 16.393 58.1056 16.437 58.6436 16.415C59.1396 16.394 59.8506 16.22 59.9576 15.635C60.1296 14.789 59.1396 14.637 58.5366 14.572L58.2226 14.535C57.4156 14.443 56.5266 14.341 55.8226 13.9C55.4748 13.6904 55.187 13.3947 54.9869 13.0414C54.7868 12.688 54.6813 12.289 54.6806 11.883C54.6806 9.888 56.7486 9.195 58.3206 9.195C59.6776 9.195 60.6906 9.455 61.6806 10.322L60.4966 11.71C59.8926 11.146 59.1826 10.95 58.3636 10.95C57.3516 10.95 56.7916 11.254 56.7916 11.797C56.7916 12.556 57.6746 12.686 58.2566 12.729L58.2646 12.73ZM67.9056 16.415C66.4636 16.415 65.4936 15.092 65.4936 13.748C65.4936 12.404 66.3976 10.973 67.9056 10.973C69.4356 10.973 70.3176 12.425 70.3176 13.748C70.3396 15.093 69.3476 16.415 67.9056 16.415ZM68.0776 9.195C67.1086 9.195 65.9676 9.607 65.2996 10.561L65.2346 9.39H63.1886V21.814L65.2996 21.576V17.022C65.9026 17.955 67.2156 18.258 68.1216 18.258C70.8566 18.258 72.4506 16.198 72.4506 13.705C72.4506 11.168 70.7056 9.195 68.0776 9.195ZM77.7056 10.951C78.9336 10.951 79.9456 11.84 80.1826 12.859H75.2076C75.5086 11.732 76.5636 10.951 77.7056 10.951ZM77.8776 16.394C76.3696 16.394 75.4436 15.504 75.2076 14.485H82.2276C82.4436 10.973 80.2896 9.195 77.7056 9.195C75.2506 9.195 73.2466 11.103 73.2466 13.705C73.2466 16.458 75.1856 18.237 77.8566 18.237C79.1486 18.237 80.6346 17.781 81.5386 16.849L80.1826 15.505C79.6866 16.003 78.6526 16.394 77.8776 16.394ZM89.9816 12.859C89.7456 11.84 88.7326 10.951 87.5046 10.951C86.3646 10.951 85.3086 11.731 85.0066 12.859H89.9816ZM84.9856 14.485C85.2226 15.505 86.1486 16.394 87.6556 16.394C88.4316 16.394 89.4656 16.004 89.9606 15.504L91.3176 16.849C90.4136 17.781 88.9276 18.237 87.6346 18.237C84.9636 18.237 83.0246 16.458 83.0246 13.705C83.0246 11.103 85.0286 9.195 87.4836 9.195C90.0686 9.195 92.2226 10.973 92.0066 14.485H84.9856ZM99.6756 13.705C99.6756 12.36 98.7056 11.038 97.2626 11.038C95.8196 11.038 94.8506 12.36 94.8506 13.705C94.8506 15.028 95.7336 16.48 97.2626 16.48C98.7706 16.48 99.6746 15.05 99.6746 13.705M99.8886 16.892C99.2216 17.846 98.0796 18.258 97.1106 18.258C94.4826 18.258 92.7376 16.285 92.7376 13.77C92.7376 11.255 94.3106 9.216 97.0466 9.216C97.9506 9.216 99.2866 9.498 99.8886 10.431V5.617H102.001V18.041H99.9546L99.8886 16.892Z" fill="var(--fill-0, #191513)"/>
</g>
</svg>
