<svg preserveAspectRatio="none" width="100%" height="100%" overflow="visible" style="display: block;" viewBox="0 0 107.335 17.1422" fill="none" xmlns="http://www.w3.org/2000/svg">
<path id="Vector" d="M35.7735 3.56672L37.89 10.5156L40.0059 3.5673H42.7121L38.7237 15.5114C38.3991 16.4977 37.5032 17.1422 36.4455 17.1422H33.8616V15.068H35.7335C36.4249 15.068 36.7506 14.4435 36.5472 13.8595L33.1085 3.56672H35.7735ZM19.9655 5.49694L19.3964 10.7905C19.1119 13.3464 17.3634 15.0166 14.6183 15.0166H3.47701L3.84271 11.3339H14.456C15.1269 11.3339 15.5331 10.971 15.5943 10.327L16.1228 5.49694H19.9655ZM28.6109 3.36559C30.9508 3.36559 32.5382 4.55412 32.7216 6.40719H30.3C30.1372 5.80321 29.4863 5.3798 28.5709 5.3798C27.655 5.3798 27.0241 5.76264 27.0241 6.34662C27.0241 6.8706 27.391 7.17287 28.1841 7.31401L30.524 7.73685C32.0908 8.0397 32.8839 9.00538 32.8839 10.5162C32.8839 12.5504 31.256 13.8401 28.6521 13.8401C26.027 13.8401 24.318 12.5704 24.1962 10.5162H26.739C26.8819 11.3424 27.5733 11.8253 28.6726 11.8253C29.7509 11.8253 30.3812 11.423 30.3812 10.7379C30.3812 10.295 30.0966 9.9722 29.5675 9.87163L27.2276 9.44879C25.4779 9.10595 24.5214 8.03856 24.5214 6.52833C24.5214 4.59469 26.0882 3.36616 28.6109 3.36616M77.4857 3.36616C80.4159 3.36616 82.2472 5.36037 82.2472 8.54311C82.2466 8.88595 82.2261 9.06652 82.2261 9.24823H74.9829C75.0029 10.7385 76.1629 11.8258 77.4857 11.8258C78.7474 11.8258 79.5199 11.3024 79.7233 10.5173H82.0832C81.9209 12.511 80.049 13.8406 77.4857 13.8406C74.5761 13.8406 72.5413 11.7253 72.5413 8.60368C72.5413 5.48151 74.5761 3.36616 77.4857 3.36616ZM87.5162 3.36673C89.8561 3.36673 91.4429 4.55526 91.6269 6.40833H89.2052C89.0424 5.80435 88.391 5.38094 87.4756 5.38094C86.5602 5.38094 85.9294 5.76378 85.9294 6.34776C85.9294 6.87174 86.2951 7.17402 87.0888 7.31516L89.4287 7.738C90.9955 8.04084 91.7897 9.00652 91.7897 10.5173C91.7897 12.5515 90.1618 13.8412 87.5567 13.8412C84.9323 13.8412 83.2226 12.5721 83.1015 10.5173H85.6448C85.7871 11.3436 86.4785 11.8264 87.5773 11.8264C88.6556 11.8264 89.287 11.4241 89.287 10.739C89.287 10.2962 89.0018 9.97334 88.4727 9.87277L86.1328 9.44993C84.3826 9.10709 83.4266 8.0397 83.4266 6.52947C83.4266 4.59583 84.9934 3.36673 87.5162 3.36673ZM101.78 3.3673C103.102 3.3673 104.12 3.91128 104.832 4.81811L105.035 3.56901H107.335V13.6401H105.035L104.832 12.3915C104.12 13.2978 103.102 13.8418 101.78 13.8418C99.0529 13.8418 97.2832 11.5653 97.2832 8.60482C97.2832 5.64379 99.0529 3.3673 101.78 3.3673ZM49.3862 3.36787C51.5221 3.36787 52.8855 4.91925 52.8855 7.3563V13.6406H50.3215V7.658C50.3215 6.32891 49.5684 5.56322 48.4496 5.56322C47.2697 5.56322 46.3943 6.45004 46.3943 7.81971V13.6406H43.8309V3.56615H46.1297L46.3337 4.87582C46.9645 3.929 48.0434 3.36559 49.3862 3.36559M58.1555 0.607977V3.56787H60.5972V5.66207H58.1555V10.6367C58.1555 11.1607 58.5418 11.5436 59.0709 11.5436H60.5972V13.6383H58.1555C56.6705 13.6383 55.5916 12.571 55.5916 11.1007V5.66207H53.8626V3.5673H55.5916V0.607406L58.1555 0.607977ZM64.6256 0V4.77468C65.2564 3.889 66.3147 3.36559 67.6169 3.36559C69.7534 3.36559 71.1162 4.91639 71.1162 7.35401V13.6378H68.5529V7.65514C68.5529 6.32605 67.7998 5.56036 66.6804 5.56036C65.5004 5.56036 64.6262 6.44719 64.6262 7.81685V13.6378H62.0617V0H64.6256ZM95.737 3.56672V13.6378H93.1731V3.56672H95.737ZM102.309 5.56094C100.904 5.56094 99.9277 6.78946 99.9277 8.60254C99.9277 10.415 100.905 11.6636 102.309 11.6636C103.896 11.6636 104.832 10.4956 104.832 8.60254C104.832 6.70946 103.896 5.56094 102.309 5.56094ZM16.4891 1.81308L16.1228 5.4958H5.51008C4.83925 5.4958 4.43241 5.85807 4.37127 6.50147L3.84329 11.3327H0L0.569122 6.0392C0.853683 3.4833 2.60276 1.81308 5.34723 1.81308H16.4891ZM77.4857 5.37866C76.2852 5.37866 75.2675 6.24491 75.0435 7.45286H79.8256C79.6016 6.10434 78.7879 5.37866 77.4857 5.37866ZM95.737 0.000571638V2.47819H93.1731V0.000571638H95.737Z" fill="var(--fill-0, white)" fill-opacity="0.4"/>
</svg>
