<svg preserveAspectRatio="none" width="100%" height="100%" overflow="visible" style="display: block;" viewBox="0 0 17.4812 17.6093" fill="none" xmlns="http://www.w3.org/2000/svg">
<path id="Vector" d="M1.24658 1.39637C1.5925 1.03629 2.00713 0.749263 2.46595 0.552278C2.92477 0.355293 3.41844 0.252356 3.91774 0.249559C4.41705 0.246761 4.91184 0.344161 5.37284 0.535993C5.83383 0.727825 6.25166 1.01019 6.60158 1.36638C6.99488 1.76538 7.28963 2.25067 7.46236 2.78364C7.6351 3.3166 7.68106 3.88252 7.59658 4.43638C7.38658 5.83538 7.77358 7.26638 8.77858 8.29638L9.26058 8.78938C10.2026 9.75538 11.5226 10.1954 12.8526 10.1154L13.1176 10.0934C13.6801 10.0283 14.2501 10.0929 14.7838 10.2822C15.3174 10.4715 15.8007 10.7804 16.1966 11.1854C16.5431 11.5387 16.8134 11.9594 16.9909 12.4214C17.1684 12.8833 17.2493 13.3768 17.2286 13.8712C17.2079 14.3657 17.086 14.8506 16.8705 15.2961C16.655 15.7416 16.3504 16.1382 15.9756 16.4614C14.6006 17.6554 12.4796 17.6604 11.1056 16.4694C10.6429 16.0733 10.2876 15.5669 10.0726 14.9971C9.85756 14.4272 9.78981 13.8124 9.87558 13.2094C10.0836 11.7564 9.63258 10.2794 8.59658 9.21838L8.59558 9.21738L8.31559 8.93238C7.27859 7.87038 5.80259 7.37938 4.32759 7.53238C3.72672 7.59646 3.11929 7.51281 2.55811 7.28869C1.99693 7.06456 1.49899 6.70676 1.10758 6.24638L1.06758 6.19638C-0.0534163 4.84038 -0.0134158 2.83937 1.13258 1.52137L1.24658 1.39637Z" fill="var(--fill-0, #020917)" stroke="var(--stroke-2, #020917)" stroke-width="0.499"/>
</svg>
