<svg preserveAspectRatio="none" width="100%" height="100%" overflow="visible" style="display: block;" viewBox="0 0 81.2001 14" fill="none" xmlns="http://www.w3.org/2000/svg">
<g id="Group">
<path id="Vector" d="M42.1611 0C44.5081 0 46.4161 1.92 46.4161 4.28V13.685H43.3021V4.28C43.3021 3.97553 43.1811 3.68353 42.9658 3.46824C42.7505 3.25295 42.4585 3.132 42.1541 3.132C41.8496 3.132 41.5576 3.25295 41.3423 3.46824C41.127 3.68353 41.0061 3.97553 41.0061 4.28V9.72C41.0061 12.08 39.0971 14 36.7501 14C34.4031 14 32.4941 12.08 32.4941 9.72V4.288C32.4941 3.98353 32.3731 3.69153 32.1578 3.47624C31.9425 3.26095 31.6505 3.14 31.3461 3.14C31.0416 3.14 30.7496 3.26095 30.5343 3.47624C30.319 3.69153 30.1981 3.98353 30.1981 4.288V13.685H27.0841V4.288C27.0841 1.928 28.9921 0.00800037 31.3391 0.00800037C33.6861 0.00800037 35.5951 1.928 35.5951 4.288V9.72C35.5951 10.0245 35.716 10.3165 35.9313 10.5318C36.1466 10.7471 36.4386 10.868 36.7431 10.868C37.0475 10.868 37.3395 10.7471 37.5548 10.5318C37.7701 10.3165 37.8911 10.0245 37.8911 9.72V4.28C37.8901 1.92 39.8001 0 42.1471 0H42.1611ZM63.7751 0C66.1221 0 68.0311 1.92 68.0311 4.28V13.685H64.9161V4.28C64.9161 3.97553 64.7951 3.68353 64.5798 3.46824C64.3645 3.25295 64.0725 3.132 63.7681 3.132C63.4636 3.132 63.1716 3.25295 62.9563 3.46824C62.741 3.68353 62.6201 3.97553 62.6201 4.28V9.72C62.6201 12.08 60.7111 14 58.3641 14C56.0171 14 54.1091 12.08 54.1081 9.72V4.28C54.1081 3.97553 53.9871 3.68353 53.7718 3.46824C53.5565 3.25295 53.2645 3.132 52.9601 3.132C52.6556 3.132 52.3636 3.25295 52.1483 3.46824C51.933 3.68353 51.8121 3.97553 51.8121 4.28V13.685H48.6981V4.28C48.6981 1.92 50.6061 0 52.9531 0C55.3001 0 57.2091 1.92 57.2091 4.28V9.72C57.2091 10.0245 57.33 10.3165 57.5453 10.5318C57.7606 10.7471 58.0526 10.868 58.3571 10.868C58.6615 10.868 58.9535 10.7471 59.1688 10.5318C59.3841 10.3165 59.5051 10.0245 59.5051 9.72V4.28C59.5051 1.92 61.4141 0 63.7611 0H63.7751ZM75.5401 0.0220003C78.6621 0.0220003 81.2001 2.574 81.2001 5.711V13.686H78.1291V9.684H72.9521V13.686H69.8811V5.71C69.8811 2.573 72.4181 0.0219999 75.5401 0.0209999M12.0431 3.21H7.03406C6.36906 3.21 5.74706 3.379 5.19106 3.716C4.63287 4.04341 4.17031 4.51148 3.84955 5.07352C3.52879 5.63555 3.36105 6.27188 3.36306 6.919C3.36306 7.586 3.52506 8.209 3.85306 8.773C4.18103 9.32609 4.64067 9.78951 5.19106 10.122C5.74655 10.4584 6.38468 10.6336 7.03406 10.628H8.90606V8.297H6.11306V5.431H12.0351V13.677H6.93206C5.72457 13.6858 4.5357 13.3793 3.4829 12.7879C2.43011 12.1966 1.54984 11.3407 0.929058 10.305C0.316254 9.27967 -0.00496294 8.10649 5.79708e-05 6.912C5.79708e-05 5.695 0.314058 4.552 0.936058 3.519C1.55692 2.48313 2.43736 1.6272 3.49034 1.03582C4.54332 0.444434 5.7324 0.138069 6.94006 0.147H12.0431V3.21ZM19.5671 0.0139999C22.6891 0.0139999 25.2271 2.565 25.2271 5.702V13.677H22.1551V9.675H16.9781V13.677H13.9081V5.702C13.9081 2.565 16.4451 0.0139999 19.5681 0.0139999M75.5411 3.107C74.8531 3.11018 74.1944 3.38592 73.7093 3.87381C73.2242 4.36171 72.9523 5.02199 72.9531 5.71V6.831H78.1301V5.71C78.1309 5.02182 77.8588 4.36139 77.3735 3.87346C76.8882 3.38553 76.2292 3.10991 75.5411 3.107ZM19.5681 3.093C18.8804 3.09617 18.222 3.37164 17.737 3.85911C17.2519 4.34657 16.9798 5.00634 16.9801 5.694V6.816H22.1561V5.694C22.1571 5.0061 21.8852 4.34587 21.4 3.85823C20.9148 3.3706 20.256 3.09538 19.5681 3.093Z" fill="var(--fill-0, #111111)" fill-opacity="0.4"/>
</g>
</svg>
