<svg preserveAspectRatio="none" width="100%" height="100%" overflow="visible" style="display: block;" viewBox="0 0 121.741 13.3929" fill="none" xmlns="http://www.w3.org/2000/svg">
<path id="Vector" d="M79.1196 0C82.9266 0 85.5978 2.7817 85.5978 6.71719C85.5978 10.6112 82.9058 13.3929 79.1196 13.3929C75.2926 13.3929 72.6 10.6112 72.6 6.71719C72.6 2.78237 75.3134 0.000669643 79.1196 0ZM115.916 0C118.776 0 120.984 1.79263 121.741 4.57433H118.734C118.229 3.31741 117.262 2.59621 115.916 2.59621C113.686 2.59621 112.319 4.14174 112.319 6.71719C112.319 9.25179 113.687 10.7967 115.916 10.7967C117.262 10.7967 118.25 10.0754 118.734 8.81853H121.741C121.005 11.5795 118.797 13.3922 115.916 13.3929C112.088 13.3929 109.396 10.6112 109.395 6.71719C109.395 2.7817 112.109 0 115.916 0ZM65.6076 0.241072C68.615 0.241072 70.4444 1.725 70.4444 4.17656C70.4444 5.88683 69.5612 7.12299 67.9841 7.72031L71.1174 13.1812H67.9841L65.1442 8.11205H61.9895V13.1812H59.1502V0.241072H65.6076ZM8.28683 0.220982L13.5449 13.1806H10.5998L9.52768 10.4605H4.01719L2.94509 13.1806H0L5.27946 0.220313L8.28683 0.220982ZM55.6775 13.1806H52.8382V7.88504H46.6132V13.1806H43.7739V0.241072H46.6132V5.39263H52.8382V0.220313H55.6775V13.1806ZM24.7962 9.28594V0.220982H27.5304V13.1605H24.3134L18.3609 4.09487V13.1605H15.6268V0.220982H18.8451L24.7962 9.28594ZM41.5105 2.71406H37.0734V13.1605H34.2342V2.71406H29.7964V0.220313H41.5112L41.5105 2.71406ZM94.7049 0.220313C97.7123 0.220313 99.5417 1.78661 99.5417 4.36205C99.5417 6.9375 97.7123 8.48304 94.7049 8.48304H91.0875V13.1598H88.2482V0.220982L94.7049 0.220313ZM108.846 13.1598H105.965L100.686 0.220313H103.568L108.846 13.1598ZM79.1196 2.59621C76.8904 2.59621 75.5237 4.14174 75.5237 6.71719C75.5237 9.25112 76.8911 10.7967 79.1196 10.7967C81.3281 10.7967 82.6748 9.25179 82.6748 6.71719C82.6748 4.14174 81.3281 2.59621 79.1196 2.59621ZM4.98415 8.05045H8.60223L6.79353 3.49688L4.98415 8.05045ZM91.0875 5.9692H94.5783C95.9879 5.9692 96.7031 5.41339 96.7031 4.34196C96.7031 3.27054 95.9665 2.71406 94.5783 2.71406H91.0875V5.9692ZM61.9895 5.59821H65.481C66.8692 5.59821 67.6051 5.10335 67.6051 4.1558C67.6051 3.20826 66.8692 2.71406 65.481 2.71406H61.9895V5.59821Z" fill="var(--fill-0, #111111)" fill-opacity="0.6"/>
</svg>
