<svg preserveAspectRatio="none" width="100%" height="100%" overflow="visible" style="display: block;" viewBox="0 0 73.95 21.6486" fill="none" xmlns="http://www.w3.org/2000/svg">
<path id="Vector" d="M24.4913 5.57413C20.1814 5.57413 17.5661 7.52058 17.3577 10.9126H21.8461C22.0245 9.61484 22.8566 8.93646 24.3129 8.93646C25.7693 8.93646 26.5718 9.58515 26.5423 10.6176C26.5123 11.414 26.0071 11.768 24.7292 11.945L22.8865 12.1811C18.7254 12.6824 16.7635 14.2456 16.7635 17.0475C16.7635 19.8494 18.7251 21.6486 21.9945 21.6486C24.075 21.6486 25.6503 20.9112 26.6313 19.4954V21.3238H31.268V11.296C31.268 7.52058 28.9796 5.57413 24.4913 5.57413ZM23.5107 18.4336C22.1733 18.4336 21.4302 17.8439 21.4302 16.7525C21.4302 15.72 22.0839 15.2187 23.8971 14.9533L24.7292 14.8353C25.4653 14.7325 26.0712 14.5863 26.5718 14.3811V15.9267C26.5718 17.4015 25.3238 18.4336 23.5107 18.4336ZM32.9028 0.324441H37.6585V21.3238H32.9028V0.324441ZM10.08 10.118L17.2097 21.3238H11.0272L5.2015 11.6801V21.3238H0V0.324345H5.2014V9.493L11.4435 0.324345H17.0017L10.08 10.118ZM68.5996 2.50683C68.5996 1.15006 69.7886 0 71.2749 0C72.7611 0 73.95 1.15006 73.95 2.50683C73.95 3.8636 72.761 5.01366 71.2749 5.01366C69.7886 5.01366 68.5996 3.89291 68.5996 2.50683ZM52.193 16.5164C52.193 19.9671 49.6666 21.6482 45.4757 21.6482C41.2848 21.6482 38.6989 19.8197 38.5505 16.4867H42.9493C43.1278 17.7548 43.722 18.4629 45.4461 18.4629C46.9324 18.4629 47.6455 17.8732 47.6455 16.9881C47.6455 16.103 46.7835 15.6606 44.614 15.3367C40.4824 14.7763 38.8182 13.5669 38.8182 10.4702C38.8182 7.19662 41.8203 5.57413 45.1788 5.57413C48.775 5.57413 51.3907 6.8422 51.7476 10.4112H47.4377C47.2297 9.2905 46.5756 8.73012 45.2083 8.73012C43.9303 8.73012 43.2168 9.31981 43.2168 10.1162C43.2168 11.0009 43.9303 11.3253 46.0404 11.6203C50.1124 12.1807 52.193 13.2127 52.193 16.5164ZM68.897 5.89847H73.6527V21.3238H68.897V5.89847ZM67.2622 11.0896V21.3238H62.5065V11.9153C62.5065 10.2635 61.8229 9.40851 60.3367 9.40851C58.8505 9.40851 57.8103 10.3522 57.8103 12.2104V21.3238H53.0546V0.324345H57.8103V8.196C58.5584 6.72188 60.1333 5.57422 62.4172 5.57422C65.2707 5.57422 67.2618 7.37326 67.2618 11.0892L67.2622 11.0896Z" fill="var(--fill-0, white)" fill-opacity="0.4"/>
</svg>
