<svg preserveAspectRatio="none" width="100%" height="100%" overflow="visible" style="display: block;" viewBox="0 0 25.4149 17.6081" fill="none" xmlns="http://www.w3.org/2000/svg">
<path id="Vector" d="M3.4475 5.23865C5.2175 5.23865 6.6455 6.65465 6.6455 8.39465C6.6455 10.1347 5.2165 11.5517 3.4475 11.5517C1.6775 11.5517 0.2495 10.1357 0.2495 8.39465C0.2495 6.65465 1.6785 5.23865 3.4475 5.23865ZM9.4395 1.14866C10.7725 -0.00934412 12.8045 -0.0493447 14.1795 1.03166L14.3095 1.13966C14.7437 1.51139 15.0837 1.98066 15.3016 2.50904C15.5196 3.03743 15.6093 3.60992 15.5635 4.17966L15.5395 4.39966C15.4397 5.07242 15.4856 5.75878 15.674 6.41229C15.8624 7.06581 16.1889 7.67124 16.6315 8.18766L16.8185 8.39166L17.0985 8.67666C18.1355 9.73766 19.6115 10.2307 21.0875 10.0777C21.6894 10.0135 22.2979 10.0976 22.8599 10.3226C23.4219 10.5477 23.9202 10.9068 24.3115 11.3687L24.3475 11.4117C25.5045 12.8117 25.4245 14.8987 24.1675 16.2117C23.8216 16.5717 23.407 16.8587 22.9482 17.0557C22.4894 17.2527 21.9958 17.3556 21.4965 17.3585C20.9973 17.3614 20.5025 17.2642 20.0415 17.0725C19.5805 16.8808 19.1626 16.5987 18.8125 16.2427C18.4435 15.8682 18.1609 15.4175 17.9847 14.9222C17.8085 14.4269 17.7429 13.899 17.7925 13.3757L17.8185 13.1717C18.0155 11.8607 17.6865 10.5217 16.8185 9.51066L16.6375 9.31266L16.1525 8.81765C15.1485 7.78765 13.7155 7.35766 12.2975 7.51666C11.772 7.57738 11.2395 7.525 10.7359 7.36305C10.2323 7.2011 9.76913 6.93331 9.3775 6.57766L9.2195 6.42466L9.0865 6.28166C8.77023 5.92249 8.52832 5.50418 8.37475 5.05092C8.22119 4.59766 8.15902 4.11845 8.19185 3.64101C8.22468 3.16357 8.35185 2.69737 8.566 2.2694C8.78016 1.84142 9.07705 1.46015 9.4395 1.14765V1.14866Z" fill="var(--fill-0, #020917)" stroke="var(--stroke-2, #020917)" stroke-width="0.499"/>
</svg>
