<svg preserveAspectRatio="none" width="100%" height="100%" overflow="visible" style="display: block;" viewBox="0 0 15.5634 25.383" fill="none" xmlns="http://www.w3.org/2000/svg">
<path id="Vector" d="M12.1159 18.8195C13.8849 18.8195 15.3139 20.2355 15.3139 21.9755C15.3139 23.7155 13.8839 25.1325 12.1159 25.1335C10.3459 25.1335 8.9169 23.7165 8.9169 21.9755C8.9169 20.2345 10.3469 18.8195 12.1159 18.8195ZM4.3059 2.59347C4.9539 0.906473 6.8279 -0.0735288 8.6109 0.346471C10.6779 0.832471 11.8909 2.91647 11.3129 4.90447V4.90547C11.1658 5.41247 10.9102 5.88141 10.5638 6.27978C10.2175 6.67814 9.78856 6.9964 9.3069 7.21247L9.1159 7.29247C7.7879 7.81147 6.7229 8.85547 6.3239 10.2325L6.1319 10.8895C5.7329 12.2655 6.0719 13.7115 6.9219 14.8465C7.5379 15.6725 7.7969 16.7465 7.5559 17.8075L7.5009 18.0205C6.9219 20.0105 4.7739 21.1415 2.7579 20.4705C1.0229 19.8895 -0.0370959 18.0815 0.317904 16.3125C0.431269 15.7504 0.674128 15.2227 1.02882 14.7722C1.38352 14.3216 1.83912 13.9607 2.3589 13.7185L2.5639 13.6285C3.9399 13.0785 5.0109 11.9615 5.4239 10.5415L5.5339 10.1595C5.9459 8.73947 5.6409 7.22847 4.7679 6.03947C4.40584 5.5508 4.17349 4.97836 4.09253 4.37559C4.01156 3.77282 4.08463 3.15937 4.3049 2.59247L4.3059 2.59347Z" fill="var(--fill-0, #020917)" stroke="var(--stroke-2, #020917)" stroke-width="0.499"/>
</svg>
