<svg preserveAspectRatio="none" width="100%" height="100%" overflow="visible" style="display: block;" viewBox="0 0 125.336 19.427" fill="none" xmlns="http://www.w3.org/2000/svg">
<path id="Vector" d="M115.781 0C115.836 0.000294459 115.891 0.0118914 115.942 0.0340882C115.993 0.056285 116.039 0.0886195 116.078 0.129133L125.135 9.2227C125.263 9.3525 125.336 9.52788 125.336 9.71066C125.336 9.89344 125.263 10.0688 125.135 10.1986L116.073 19.303C116.035 19.3423 115.989 19.3736 115.938 19.3949C115.888 19.4162 115.833 19.4271 115.778 19.427C115.698 19.4277 115.619 19.4054 115.551 19.3629C115.483 19.3204 115.428 19.2594 115.394 19.1871C115.36 19.119 115.346 19.0429 115.353 18.9673C115.36 18.8917 115.387 18.8194 115.433 18.7585L119.977 12.4739L112.019 15.7382C111.965 15.7612 111.907 15.7737 111.848 15.7748C111.756 15.7746 111.666 15.7444 111.593 15.6887C111.519 15.633 111.466 15.5549 111.44 15.4662C111.415 15.3794 111.418 15.2866 111.449 15.2017C111.481 15.1169 111.539 15.0447 111.616 14.996L118.615 10.846L106.292 10.1341C106.192 10.1169 106.102 10.065 106.037 9.98773C105.973 9.91042 105.937 9.81265 105.938 9.7118C105.938 9.6111 105.974 9.51366 106.038 9.43642C106.103 9.35918 106.193 9.30701 106.292 9.28898L118.621 8.57932L111.62 4.42936C111.543 4.38135 111.485 4.30927 111.453 4.22433C111.421 4.1394 111.418 4.04636 111.445 3.95969C111.47 3.8715 111.524 3.79386 111.597 3.7382C111.67 3.68255 111.759 3.65183 111.851 3.65057C111.911 3.65057 111.968 3.66352 112.021 3.68942L119.981 6.95774L115.436 0.675946C115.391 0.614953 115.363 0.542635 115.357 0.467C115.35 0.391364 115.364 0.315362 115.398 0.247409C115.432 0.174418 115.486 0.112494 115.554 0.0687349C115.621 0.0249761 115.7 0.00115431 115.781 0ZM94.6388 7.27142L96.7981 12.791L98.9339 7.27142H100.997L97.3854 16.0536C97.0761 16.8059 96.6861 17.3342 96.2153 17.6386C95.667 17.9636 95.0362 18.1224 94.3994 18.0957H92.727V16.3176H94.404C94.6857 16.337 94.9668 16.2719 95.2113 16.1307C95.4107 15.9839 95.5593 15.7788 95.6381 15.5433L95.809 15.1422L92.5761 7.27142H94.6388ZM19.6167 7.27142V12.1676C19.5882 12.5773 19.7184 12.9818 19.9801 13.2972C20.1159 13.4316 20.2785 13.5359 20.4573 13.6032C20.6361 13.6705 20.8271 13.6995 21.0178 13.6881C21.4086 13.6954 21.7909 13.5733 22.1051 13.3407C22.4309 13.0903 22.6789 12.7527 22.8205 12.367C22.991 11.9148 23.0744 11.4344 23.0662 10.9511V7.27142H25.0843V15.1571H23.0662V13.1475C22.8792 13.7816 22.5226 14.3526 22.0348 14.7988C21.549 15.2111 20.9266 15.427 20.2898 15.4039C19.9201 15.4211 19.5514 15.3544 19.2111 15.2087C18.8709 15.0631 18.5681 14.8422 18.3254 14.5628C17.8424 14.0109 17.6009 13.2245 17.6009 12.2036V7.27142H19.6167ZM40.7156 7.03087C41.235 7.02973 41.7527 7.0943 42.2555 7.224C42.481 7.28114 42.702 7.35275 42.9183 7.43884L42.9326 9.40268C42.6096 9.24621 42.272 9.12181 41.9247 9.03129C41.5547 8.93753 41.1744 8.89107 40.7928 8.89301C40.3294 8.87914 39.8704 8.98543 39.4603 9.20156C39.1116 9.39047 38.8291 9.68158 38.6507 10.0358C38.4779 10.4049 38.3884 10.8075 38.3884 11.2151C38.3884 11.6227 38.4779 12.0253 38.6507 12.3944C38.8279 12.7481 39.1109 13.0377 39.4603 13.223C39.8818 13.4371 40.3506 13.5411 40.8231 13.5252C41.5553 13.5272 42.2778 13.3575 42.9326 13.0298L42.9183 14.9468C42.7046 15.0177 42.5035 15.0885 42.2767 15.1617C42.0373 15.2371 41.7924 15.2937 41.5441 15.3308L41.5361 15.3268C41.2581 15.3672 40.979 15.3862 40.6991 15.3839C39.9 15.4012 39.1091 15.221 38.3964 14.8594C37.7533 14.5269 37.2189 14.0171 36.8565 13.3904C36.487 12.7366 36.2983 11.9963 36.3097 11.2454C36.2984 10.4894 36.4847 9.74348 36.8502 9.08157C37.2082 8.44613 37.7392 7.92541 38.3815 7.57997C39.0997 7.20002 39.9034 7.01095 40.7156 7.03087ZM68.9523 7.02459C69.5845 7.00906 70.2124 7.13273 70.7915 7.38684C71.2785 7.6022 71.693 7.95358 71.9852 8.39876C72.2669 8.8473 72.412 9.37012 72.4017 9.90036V15.1508H70.411V13.4652C70.2067 14.0035 69.8541 14.4728 69.3939 14.8188L69.4117 14.8245C68.9282 15.1685 68.3448 15.3434 67.7518 15.3222C67.2896 15.3322 66.8322 15.2261 66.4216 15.0137C66.0536 14.8239 65.7475 14.5329 65.5394 14.1749C65.3324 13.8096 65.2263 13.3959 65.232 12.9761C65.2184 12.6136 65.2956 12.2533 65.4567 11.9282C65.6178 11.6031 65.8575 11.3234 66.1542 11.1145C66.7719 10.6557 67.5981 10.4409 68.666 10.4409H70.4219V9.90036C70.4256 9.74064 70.3926 9.5822 70.3256 9.43719C70.2585 9.29218 70.1591 9.16447 70.035 9.06385C69.7294 8.83139 69.3504 8.7166 68.9671 8.74045C68.4382 8.73484 67.9124 8.82106 67.413 8.99529C66.9073 9.18099 66.4256 9.42783 65.9794 9.72894L65.9171 7.85881C66.2005 7.68625 66.4961 7.53883 66.8039 7.41656C67.1349 7.28706 67.4773 7.18873 67.8266 7.12286C68.198 7.05544 68.5751 7.02287 68.9523 7.02459ZM12.255 7.02459C12.8878 7.00881 13.5164 7.13248 14.096 7.38684C14.5794 7.6034 14.99 7.95474 15.2788 8.39876C15.5645 8.84673 15.7136 9.36897 15.7068 9.90036V15.1571H13.7201V13.4715C13.5165 14.01 13.1637 14.4794 12.703 14.8245C12.2237 15.1664 11.6453 15.3413 11.0568 15.3222C10.5939 15.3318 10.1359 15.2258 9.72437 15.0137C9.35373 14.8245 9.04472 14.5335 8.83359 14.1749C8.62656 13.8096 8.52046 13.3959 8.52618 12.9761C8.5118 12.6132 8.58894 12.2525 8.7505 11.9272C8.91205 11.6019 9.15283 11.3224 9.45068 11.1145C10.0659 10.6654 10.9024 10.4409 11.9602 10.4409H13.7223V9.90036C13.7263 9.74083 13.6937 9.5825 13.6271 9.43751C13.5604 9.29251 13.4615 9.1647 13.3378 9.06385C13.032 8.83126 12.6528 8.71646 12.2693 8.74045C11.7404 8.73484 11.2146 8.82106 10.7152 8.99529C10.21 9.18156 9.72894 9.42783 9.28212 9.72894L9.2227 7.85881C9.50458 7.68701 9.79922 7.53959 10.1066 7.41656C10.4384 7.28628 10.7801 7.18838 11.1317 7.12286C11.5024 7.05651 11.8784 7.02362 12.255 7.02459ZM58.6925 4.27452C59.714 4.24517 60.7261 4.47725 61.6328 4.94875C62.4274 5.38046 63.0719 6.04367 63.4807 6.85032C63.9184 7.74688 64.1344 8.7355 64.1104 9.73294C64.1356 10.7285 63.9196 11.7154 63.4807 12.6093C63.0711 13.4117 62.4264 14.0701 61.6328 14.4966C60.7244 14.9625 59.713 15.1913 58.6925 15.1617L54.5254 15.1571V4.27452H58.6925ZM32.0683 7.03087C32.437 7.01475 32.8046 7.08131 33.1442 7.22565C33.4838 7.36999 33.7868 7.58847 34.031 7.86509C34.519 8.41667 34.7632 9.20308 34.7635 10.2243V15.1571H32.73V10.2546C32.7582 9.84595 32.6285 9.44205 32.3677 9.12614C32.2316 8.99224 32.0686 8.88865 31.8896 8.82218C31.7106 8.75571 31.5195 8.72786 31.329 8.74045C30.941 8.73279 30.5615 8.85485 30.2507 9.08728C29.9284 9.3394 29.683 9.67665 29.5422 10.0609C29.3717 10.5131 29.2883 10.9936 29.2965 11.4768V15.1622L27.2796 15.1571V7.27142H29.2965V9.28726C29.4851 8.65589 29.8394 8.08736 30.3216 7.63997C30.8061 7.22383 31.4301 7.00626 32.0683 7.03087ZM46.7386 4.27052V9.28726C46.9276 8.65513 47.2842 8.08592 47.7705 7.63997C48.2584 7.22377 48.885 7.00634 49.5258 7.03087C49.8933 7.01399 50.2599 7.08023 50.5982 7.22467C50.9365 7.36911 51.2379 7.58802 51.4799 7.86509C51.9626 8.41667 52.2039 9.20308 52.2039 10.2243V15.1571H50.1875V10.2546C50.2161 9.8458 50.0861 9.44168 49.8246 9.12614C49.6863 8.99134 49.521 8.88731 49.3396 8.82084C49.1582 8.75438 48.9648 8.72698 48.7721 8.74045C48.3877 8.73623 48.0124 8.85805 47.7037 9.08728C47.3779 9.33761 47.1298 9.67523 46.9883 10.0609C46.8177 10.5131 46.7344 10.9936 46.7426 11.4768V15.1622L44.7519 15.1571V4.27052H46.7386ZM2.07812 4.27052V13.3172H7.49884V15.1571H0V4.27052H2.07812ZM78.5184 7.18515C78.6612 7.18324 78.8035 7.19105 78.9452 7.20857C79.0785 7.22457 79.2095 7.25257 79.3383 7.29257V9.22956C79.0695 9.14645 78.7894 9.10521 78.5081 9.10728C78.2221 9.09614 77.9376 9.1527 77.6777 9.27235C77.4177 9.39199 77.1897 9.57135 77.0122 9.7958C76.6431 10.2529 76.4597 10.9214 76.4597 11.7968V15.1571H74.441V7.27142H76.4597V9.15813C76.5998 8.62029 76.8729 8.12632 77.2539 7.72167C77.4169 7.55071 77.6132 7.41491 77.8306 7.32264C78.0481 7.23037 78.2821 7.18358 78.5184 7.18515ZM82.6277 4.28995V10.0809L85.4915 7.27142H88.0159L84.723 10.5483L88.0782 15.1571H85.7069L83.358 11.9105L82.6335 12.6047V15.1571H80.641V4.28937L82.6277 4.28995ZM91.3351 4.27052V15.1571H89.3312V4.27052H91.3351ZM12.411 11.6311C11.9356 11.6012 11.4612 11.7028 11.0397 11.9248C10.8947 12.0094 10.7754 12.1317 10.6942 12.2787C10.613 12.4256 10.5731 12.5918 10.5786 12.7596C10.5716 12.8962 10.5981 13.0325 10.6557 13.1566C10.7134 13.2806 10.8005 13.3888 10.9094 13.4715C11.1694 13.6515 11.4808 13.7406 11.7962 13.7263C12.1573 13.7327 12.512 13.6306 12.8144 13.4332C13.0918 13.2584 13.3204 13.0162 13.4789 12.7293C13.6144 12.4882 13.6881 12.2167 13.6926 11.9402V11.6317L12.411 11.6311ZM69.1082 11.6311C68.6328 11.6009 68.1583 11.7025 67.7369 11.9248C67.5924 12.0099 67.4733 12.1323 67.3922 12.2791C67.3111 12.426 67.2709 12.5919 67.2758 12.7596C67.2682 12.8947 67.2938 13.0296 67.3504 13.1525C67.407 13.2754 67.4928 13.3826 67.6004 13.4646L67.6067 13.4715C67.8661 13.6509 68.1763 13.7401 68.4906 13.7263C68.8534 13.7333 69.2099 13.6312 69.5139 13.4332C69.7905 13.2581 70.0182 13.016 70.1762 12.7293C70.3104 12.4882 70.3836 12.2167 70.3899 11.9402V11.6317L69.1082 11.6311ZM56.5972 6.11037V13.3172H58.6599C59.6968 13.3184 60.5106 13.0066 61.1014 12.3819C61.6923 11.7572 61.9877 10.8729 61.9877 9.72894C61.9861 8.58618 61.6907 7.69749 61.1014 7.06287C60.5118 6.42825 59.6979 6.11075 58.6599 6.11037H56.5972Z" fill="var(--fill-0, white)" fill-opacity="0.4"/>
</svg>
