<svg preserveAspectRatio="none" width="100%" height="100%" overflow="visible" style="display: block;" viewBox="0 0 30.879 21.377" fill="none" xmlns="http://www.w3.org/2000/svg">
<path id="Vector" d="M2.376 0C1.92686 0.0020334 1.48815 0.135525 1.114 0.384001L14.486 13.052C15.072 13.607 15.831 13.607 16.416 13.052L29.766 0.384001C29.3918 0.135525 28.9531 0.0020334 28.504 0H2.376ZM0.149 1.633C0.0526944 1.89923 0.00231093 2.17989 0 2.463V18.915C0 19.415 0.14 19.875 0.384 20.263L9.836 10.824L0.149 1.633ZM30.731 1.633L21.069 10.813L30.496 20.264C30.74 19.877 30.879 19.416 30.879 18.916V2.462C30.879 2.168 30.821 1.895 30.731 1.633ZM19.918 11.913L17.506 14.203C16.9509 14.7275 16.2162 15.0197 15.4525 15.0197C14.6888 15.0197 13.9541 14.7275 13.399 14.203L10.986 11.925L1.633 21.253C1.867 21.333 2.115 21.377 2.376 21.377H28.504C28.764 21.377 29.012 21.333 29.246 21.253L19.918 11.913Z" fill="var(--fill-0, #313130)"/>
</svg>
