<svg preserveAspectRatio="none" width="100%" height="100%" overflow="visible" style="display: block;" viewBox="0 0 65.2744 18.2856" fill="none" xmlns="http://www.w3.org/2000/svg">
<path id="Vector" d="M39.0401 12.6433L41.4093 5.42842H43.0007L40.4579 13.2056C40.4076 13.361 39.9647 14.7158 39.5716 15.7438C38.7641 17.8536 37.7899 18.2856 36.575 18.2856H34.8699V16.7638H36.7087C37.1681 16.7638 37.5939 16.6473 38.1476 15.201L38.2344 14.9707L38.2453 14.9438L34.8453 5.42842H36.4624L39.0401 12.6433ZM2.12986 0.00727521C5.12986 1.54042 8.13157 5.81299 8.347 6.22785C8.899 7.28956 8.75272 8.94613 8.751 8.96499C9.92014 9.13413 10.2853 9.73642 10.291 9.74499C9.70814 10.777 8.46357 11.0044 8.46357 11.0044C7.25957 14.9153 3.267 17.6084 2.52529 18.0044C1.52186 18.5558 1.81272 18.1198 1.81272 18.1198L2.11786 17.7067C2.97443 16.6496 5.11786 13.0113 5.38072 11.7484L7.979 11.1061L7.97786 11.105C6.11957 11.4593 3.36357 11.5124 3.35843 11.5124L0.343002 12.3873C0.317288 12.3953 0.301288 12.361 0.323002 12.3467C0.75786 12.0633 2.17215 11.1524 2.17215 11.1524L0.0161448 10.5467C-0.0084266 10.5393 -0.00385536 10.5021 0.0224304 10.5016C0.960716 10.5118 5.28757 10.4633 5.715 8.69585C5.98014 7.60042 4.86986 5.46042 4.86072 5.4427C3.88643 3.3347 2.44186 0.785561 2.04586 0.0941326C2.01443 0.0398469 2.07386 -0.0212962 2.12986 0.00727521ZM20.231 6.8947L18.0693 6.88899C17.4121 6.88899 16.6196 6.9147 16.3207 7.11756C16.0133 7.32728 15.8704 7.57528 15.8704 7.89756C15.8704 8.58156 16.5081 8.80613 17.3413 9.02899L18.6019 9.33813C19.3847 9.52956 19.9813 9.82728 20.3721 10.2221C20.9064 10.7656 20.9653 11.4536 20.963 11.9227C20.9602 12.3954 20.8086 12.8552 20.5299 13.237C20.2303 13.6508 19.8246 13.9761 19.3556 14.1787C18.671 14.4673 17.9144 14.4913 17.259 14.4913L14.8584 14.4873L14.8579 13.0198L17.0624 13.0227C17.7584 13.0227 18.6127 12.989 19.0487 12.7324C19.2893 12.5896 19.4487 12.3381 19.483 12.0393C19.5027 11.8885 19.4869 11.7351 19.4369 11.5915C19.3869 11.4478 19.3041 11.3178 19.195 11.2118C19.0464 11.0673 18.703 10.9318 18.175 10.8096L16.7579 10.477C15.9544 10.2861 15.3521 9.98156 14.9693 9.57185C14.5807 9.15756 14.383 8.62956 14.383 8.0027C14.383 7.49185 14.5293 7.03356 14.819 6.64099C15.6659 5.49013 17.0961 5.46042 18.3567 5.43299L19.7396 5.42842L20.231 6.8947ZM48.7653 1.46785C48.9961 1.46785 49.7241 1.53299 49.9527 1.55356V2.90899C49.6131 2.90304 49.2735 2.89809 48.9339 2.89413C48.3293 2.90613 47.599 3.19585 47.351 3.72613C47.2253 3.9947 47.1539 4.3987 47.1419 4.92842V5.42785H49.3264V6.81356H47.1419V14.4878H45.4973L45.4984 14.4867V6.81299H43.6927L44.1464 5.4267H45.4984V4.87413C45.4984 3.77299 45.783 2.91985 46.3441 2.33928C46.907 1.76156 47.7219 1.46785 48.7653 1.46785ZM24.9653 12.585L27.3247 5.42842H28.9527L31.3207 12.581L33.7476 5.61699L34.559 7.8867L32.3481 14.4873H30.2859L28.139 8.07813L25.9927 14.4873H23.931L20.8944 5.42842H22.595L24.9653 12.585ZM65.2744 14.4861H63.547L61.1756 11.0164L58.8019 14.4861H57.0887L60.3116 9.76899L57.3504 5.42842H59.083L65.2744 14.4861ZM53.491 5.42728H56.0121L56.9584 6.81299H53.4921V11.5261C53.4921 11.549 53.4813 12.1278 53.8401 12.4987C54.083 12.7484 54.4704 12.8747 54.9944 12.8747H56.847L55.7476 14.485H54.9933C54.0041 14.485 53.2213 14.1878 52.6636 13.5993C51.8767 12.7696 51.8733 11.6918 51.8813 11.4838V6.81413H50.4224V5.42728H51.8824V2.97585H53.491V5.42728ZM65.1024 5.42842L62.7213 8.81699L61.8699 7.57128L63.3887 5.42842H65.1024Z" fill="var(--fill-0, black)"/>
</svg>
