<svg preserveAspectRatio="none" width="100%" height="100%" overflow="visible" style="display: block;" viewBox="0 0 54.7337 16.5818" fill="none" xmlns="http://www.w3.org/2000/svg">
<path id="Vector" d="M44.4706 0.113034C42.6307 0.477465 41.1818 1.57965 40.3463 3.26847C40.2041 3.55291 40.0885 3.86401 40.0885 3.95289C40.0885 4.11289 40.3463 4.27288 41.0218 4.54843C41.3329 4.68175 41.7863 4.86841 42.2218 5.06396C42.7551 5.29506 43.0307 5.40173 43.1107 5.40173C43.1551 5.40173 43.2795 5.21507 43.3951 4.98397C43.6529 4.45954 44.2839 3.81067 44.7817 3.55291C45.0839 3.39291 45.3061 3.35736 45.9194 3.35736C46.7727 3.35736 47.2616 3.52624 47.7149 3.97067C48.0349 4.29066 48.3816 5.17951 48.3371 5.58839L48.3105 5.8906L46.8883 5.98837C45.0306 6.11281 44.1151 6.29947 42.844 6.81501C41.6618 7.2861 40.7996 8.02385 40.3019 8.96604C40.053 9.42825 40.053 9.48158 40.053 10.7349C40.053 12.0059 40.0619 12.0326 40.3463 12.6192C41.0307 14.0325 42.364 14.7525 44.3551 14.7525C45.9283 14.7614 47.3238 14.2547 48.3549 13.3125C48.9593 12.7615 49.0393 12.7348 49.1904 13.0192C49.3504 13.3303 49.9993 13.9525 50.3548 14.1392C50.7459 14.3525 51.537 14.5569 51.9459 14.5569C52.6747 14.5481 53.8569 14.1481 54.4702 13.6859C54.8169 13.437 54.8169 13.3303 54.4969 12.5126C54.1236 11.5615 54.0258 11.3126 53.9814 11.1082C53.9191 10.8326 53.7325 10.7704 53.4658 10.9482C53.1636 11.1437 52.7725 11.126 52.5681 10.9037C52.2481 10.5482 52.1681 9.97045 52.0881 7.40165C52.0081 4.63731 51.937 4.20177 51.4303 3.14403C50.8081 1.86408 49.7149 0.886339 48.3105 0.370802C47.3061 0.00637146 45.5817 -0.10918 44.4706 0.113034ZM48.3816 8.79716C48.6482 9.00159 48.2927 9.95267 47.7238 10.5571C46.9594 11.3571 46.2572 11.6682 45.1995 11.6682C44.2662 11.6682 44.0084 11.5437 43.7862 10.9571C43.6084 10.4949 43.6084 10.2638 43.7862 9.91712C44.1684 9.17937 44.915 8.95715 47.6883 8.74383C47.8838 8.73494 48.0882 8.71716 48.1416 8.70827C48.186 8.69938 48.3016 8.74383 48.3816 8.79716ZM6.84532 1.05522C6.67644 1.09966 6.33867 1.17077 6.08979 1.21522C4.32097 1.54409 2.72103 2.95737 1.75218 5.04619C1.3433 5.92615 1.01443 6.81501 0.889987 7.35721C0.854432 7.52609 0.783324 7.84608 0.729992 8.0683C0.321118 9.74823 0.098905 11.757 0.0277965 14.2458C-0.0344234 16.7702 -0.0699782 16.6724 0.818878 16.5124C1.88551 16.3169 2.16994 16.2102 2.23216 15.9791C2.26771 15.8547 2.29438 15.2769 2.30327 14.6903C2.32993 10.9126 2.96102 7.25944 3.81432 5.83727C3.92099 5.66838 4.03654 5.43728 4.08987 5.32173C4.2232 5.02841 5.23649 4.04178 5.60092 3.85512C6.72977 3.28625 7.9475 3.27736 9.15635 3.82845C9.37856 3.92623 9.79633 4.2551 10.0985 4.54843C11.4052 5.86393 12.0274 8.17496 12.134 12.1659C12.1518 13.1259 12.2051 13.9792 12.2318 14.0592C12.3207 14.2814 12.5518 14.2992 13.2451 14.1214C13.7073 14.0059 13.9206 13.9081 13.9651 13.7925C13.9917 13.6948 14.0095 12.9659 13.9828 12.157C13.894 8.2194 13.2006 5.15285 11.9651 3.24181C11.6451 2.75294 10.8274 1.90852 10.4807 1.71298C9.36967 1.08189 7.83195 0.806342 6.84532 1.05522Z" fill="var(--fill-0, #111111)" fill-opacity="0.6"/>
</svg>
