<svg preserveAspectRatio="none" width="100%" height="100%" overflow="visible" style="display: block;" viewBox="0 0 43.1442 16.2481" fill="none" xmlns="http://www.w3.org/2000/svg">
<path id="Vector" d="M18.0198 2.1604H19.9357V11.8082C19.9357 14.3524 18.7953 16.1286 16.1519 16.1286C15.1576 16.1286 14.381 15.9601 13.8477 15.768V13.9204C14.4301 14.1604 15.1331 14.2799 15.8361 14.2799C17.4619 14.2799 18.0198 13.3198 18.0198 11.9277V2.1604ZM23.4517 1.4158C24.2038 1.4158 24.7372 1.87238 24.7372 2.68845C24.7372 3.47999 24.2038 3.96003 23.4517 3.96003C22.6997 3.96003 22.1663 3.50453 22.1663 2.68845C22.1663 1.89585 22.6997 1.4158 23.4517 1.4158ZM22.5055 5.47164H24.3489V16.0326H22.5055V5.47164ZM28.9082 16.0326H27.1139V5.47164H28.9082V7.32034C29.5387 6.07223 30.6055 5.18361 32.692 5.30416V7.08032C30.3388 6.8403 28.9082 7.53582 28.9082 9.79203V16.0326ZM41.3008 14.1359C40.6224 15.528 39.3369 16.2481 37.6877 16.2481C34.8501 16.2481 33.4196 13.8724 33.4196 10.7521C33.4196 7.77585 34.9237 5.25615 37.9064 5.25615C39.4585 5.25615 40.6704 5.95168 41.3008 7.32034V5.47164H43.1442V16.0326H41.3008V14.1359ZM38.1731 14.5679C39.8223 14.5679 41.2774 13.5364 41.2774 11.1842V10.3446C41.2774 7.9924 39.9439 6.95977 38.3672 6.95977C36.3052 6.95977 35.2384 8.3039 35.2384 10.7521C35.2629 13.2963 36.2817 14.5679 38.1731 14.5679ZM8.39116 0.0002067H0C0 2.06439 1.69722 3.74455 3.78381 3.74455H5.33595V5.20815C5.33595 7.27233 7.03317 8.95249 9.1187 8.95249V0.720272C9.12002 0.624714 9.10204 0.529872 9.06585 0.441422C9.02966 0.352972 8.976 0.272732 8.90807 0.205505C8.84015 0.138279 8.75936 0.0854464 8.67054 0.0501708C8.58172 0.0148953 8.4867 -0.00209832 8.39116 0.0002067Z" fill="var(--fill-0, white)"/>
</svg>
