<svg preserveAspectRatio="none" width="100%" height="100%" overflow="visible" style="display: block;" viewBox="0 0 24.0002 18.193" fill="none" xmlns="http://www.w3.org/2000/svg">
<g id="Group">
<path id="Vector" d="M15.3776 0.000999451C15.1443 0.418333 14.9323 0.847333 14.7416 1.288C12.9204 1.01604 11.0688 1.01604 9.2476 1.288C9.0596 0.847333 8.84727 0.418 8.6106 0C6.90002 0.291926 5.2347 0.805235 3.6566 1.527C0.5266 6.165 -0.320399 10.683 0.100601 15.14C1.93552 16.4968 3.99014 17.5278 6.1746 18.188C6.66697 17.5273 7.10252 16.8262 7.4766 16.092C6.76642 15.8267 6.08081 15.4998 5.4276 15.115C5.5996 14.991 5.7676 14.862 5.9306 14.737C7.82975 15.6306 9.90274 16.0939 12.0016 16.0939C14.1005 16.0939 16.1735 15.6306 18.0726 14.737C18.2356 14.871 18.4026 15.001 18.5756 15.115C17.9196 15.5023 17.2353 15.8297 16.5226 16.097C16.8967 16.8312 17.3322 17.5323 17.8246 18.193C20.0116 17.533 22.0646 16.503 23.8986 15.149C24.3956 9.979 23.0466 5.499 20.3326 1.532C18.7568 0.809057 17.0924 0.297304 15.3826 0.0100002L15.3776 0.000999451ZM8.0126 12.397C6.8296 12.397 5.8486 11.325 5.8486 9.999C5.8486 8.673 6.7916 7.596 8.0076 7.596C9.2236 7.596 10.1906 8.678 10.1706 9.999C10.1516 11.32 9.2186 12.397 8.0126 12.397ZM15.9866 12.397C14.7996 12.397 13.8276 11.325 13.8276 9.999C13.8276 8.673 14.7706 7.596 15.9866 7.596C17.2026 7.596 18.1636 8.678 18.1446 9.999C18.1256 11.32 17.1926 12.397 15.9866 12.397Z" fill="var(--fill-0, #313130)"/>
</g>
</svg>
