<svg preserveAspectRatio="none" width="100%" height="100%" overflow="visible" style="display: block;" viewBox="0 0 41.4449 5.15962" fill="none" xmlns="http://www.w3.org/2000/svg">
<path id="Vector" fill-rule="evenodd" clip-rule="evenodd" d="M0.0124293 4.46502C-0.0221134 4.55513 0.0251945 4.57315 0.0357075 4.58967C0.139335 4.66401 0.244465 4.71733 0.349595 4.7774C0.911289 5.07327 1.44144 5.15962 1.99488 5.15962C3.12352 5.15962 3.82489 4.56339 3.82489 3.60295V3.58418C3.82489 2.69658 3.03191 2.37368 2.293 2.1424L2.19538 2.11161C1.63518 1.93139 1.15159 1.77369 1.15159 1.40874V1.38997C1.15159 1.07683 1.43544 0.845545 1.87248 0.845545C2.37139 0.85694 2.86123 0.981198 3.30525 1.20899C3.30525 1.20899 3.41488 1.27958 3.45543 1.17445C3.47646 1.11738 3.66569 0.615761 3.68522 0.559442C3.70699 0.500869 3.66945 0.456565 3.6304 0.434037C3.20612 0.176469 2.61965 0.00225298 2.0129 0.00225298H1.90026C0.866985 0.00225298 0.145344 0.62252 0.145344 1.51012V1.52964C0.145344 2.4653 0.942078 2.77017 1.68625 2.98118L1.8064 3.01873C2.34706 3.18393 2.81639 3.32736 2.81639 3.70508V3.72385C2.81639 4.07153 2.51152 4.3306 2.02191 4.3306C1.50763 4.33459 1.00311 4.19014 0.568866 3.91459C0.489268 3.86878 0.443462 3.83574 0.382637 3.79894C0.350347 3.77942 0.269998 3.74413 0.233953 3.84926L0.0116781 4.46351M16.5298 4.46351C16.4953 4.55362 16.5418 4.57165 16.5531 4.58742C16.6567 4.66251 16.7619 4.71583 16.867 4.77665C17.4287 5.07176 17.9588 5.15812 18.5123 5.15812C19.6409 5.15812 20.3423 4.56114 20.3423 3.60145V3.58268C20.3423 2.69508 19.5516 2.37143 18.8104 2.1409L18.7128 2.10936C18.1533 1.92913 17.6697 1.77219 17.6697 1.40724V1.38847C17.6697 1.07458 17.9528 0.844043 18.3891 0.844043C18.875 0.844043 19.4509 1.00474 19.8234 1.20749C19.8234 1.20749 19.9323 1.27733 19.9728 1.17295C19.9939 1.11588 20.1831 0.614259 20.2011 0.557939C20.2229 0.499367 20.1846 0.455063 20.1463 0.431784C19.722 0.174967 19.1356 0 18.5288 0L18.4162 0.000751947C17.3829 0.000751947 16.6612 0.621018 16.6612 1.50861V1.52814C16.6612 2.46379 17.4572 2.76867 18.2021 2.97968L18.3215 3.01723C18.8652 3.18243 19.3323 3.32586 19.3323 3.70358V3.72235C19.3323 4.07003 19.0267 4.3291 18.5378 4.3291C18.0233 4.33323 17.5185 4.18878 17.084 3.91308C17.0044 3.86728 16.9579 3.83574 16.8978 3.79669C16.8775 3.78393 16.7821 3.74713 16.7499 3.84775L16.5268 4.46201M27.8088 2.58244C27.8088 3.12461 27.7066 3.55264 27.5076 3.85526C27.3086 4.15488 27.0083 4.30131 26.5893 4.30131C26.171 4.30131 25.8721 4.15563 25.6761 3.85827C25.4779 3.55639 25.3788 3.12686 25.3788 2.58469C25.3788 2.04252 25.4786 1.616 25.6754 1.31713C25.8714 1.01976 26.1687 0.877835 26.5893 0.877835C27.0098 0.877835 27.3094 1.02126 27.5076 1.31713C27.7081 1.61675 27.808 2.04252 27.808 2.58469M28.7512 1.57845C28.6657 1.28077 28.5197 1.00392 28.3224 0.765196C28.1255 0.530637 27.878 0.343734 27.5985 0.21852C27.3117 0.085606 26.9715 0.0180224 26.5878 0.0180224C26.2033 0.0180224 25.8664 0.0848551 25.577 0.21852C25.2988 0.345903 25.0518 0.53247 24.8531 0.765196C24.6558 1.00392 24.5098 1.28077 24.4243 1.57845C24.3297 1.90541 24.283 2.24434 24.2854 2.58469C24.2854 2.94364 24.332 3.28155 24.4243 3.59094C24.5167 3.90182 24.6609 4.17516 24.8524 4.40344C25.0454 4.63247 25.2894 4.8157 25.577 4.94636C25.8661 5.07627 26.2055 5.14235 26.5878 5.14235C26.97 5.14235 27.3086 5.07627 27.5963 4.94636C27.8839 4.81645 28.1279 4.63247 28.3201 4.40344C28.5124 4.17516 28.6558 3.90182 28.7482 3.59018C28.8408 3.2808 28.8871 2.94539 28.8871 2.58394C28.8871 2.22725 28.8405 1.88783 28.7489 1.5777M36.4925 4.14888C36.4617 4.05801 36.3723 4.09181 36.3723 4.09181C36.2349 4.14437 36.0885 4.19243 35.9331 4.21646C35.7625 4.24185 35.5903 4.25415 35.4179 4.25325C34.9629 4.25325 34.5994 4.11809 34.3403 3.85151C34.079 3.58418 33.9341 3.15465 33.9356 2.57268C33.9371 2.04252 34.0662 1.64453 34.2975 1.33966C34.5258 1.03853 34.878 0.88159 35.3428 0.88159C35.7311 0.88159 36.0284 0.926646 36.3393 1.02276C36.3393 1.02276 36.4136 1.05505 36.4489 0.958184C36.5315 0.731404 36.5924 0.569204 36.6817 0.319896C36.7065 0.248557 36.6442 0.218521 36.6224 0.20951C36.4178 0.13893 36.2075 0.0861677 35.9939 0.0518142C35.7593 0.0188652 35.5226 0.00330345 35.2858 0.00525647C34.89 0.00525647 34.5378 0.0728401 34.2367 0.205754C33.9348 0.339419 33.682 0.521395 33.4783 0.75168C33.2722 0.989059 33.1164 1.2657 33.0202 1.56493C32.9158 1.89082 32.8638 2.23123 32.8663 2.57343C32.8663 3.34839 33.0765 3.97691 33.4925 4.43648C33.9093 4.8983 34.5363 5.13184 35.3526 5.13184C35.8362 5.13184 36.331 5.03422 36.687 4.89455C36.687 4.89455 36.7546 4.86226 36.7253 4.78341L36.4925 4.14888ZM38.1408 2.06055C38.1858 1.75867 38.2684 1.50786 38.3998 1.31337C38.5951 1.01601 38.8932 0.853055 39.3115 0.853055C39.7297 0.853055 40.0068 1.01676 40.2051 1.31337C40.3365 1.50861 40.3936 1.76919 40.4153 2.06055H38.131H38.1408ZM41.3149 1.39748C41.2346 1.12353 41.0952 0.870528 40.9064 0.656311C40.7012 0.43654 40.4989 0.283852 40.2997 0.198246C40.0106 0.0759291 39.6997 0.0133481 39.3858 0.0142684C38.9878 0.0142684 38.6259 0.0818522 38.333 0.217019C38.0402 0.354439 37.7923 0.540668 37.5994 0.773456C37.3992 1.01489 37.2516 1.29547 37.1661 1.59722C37.0709 1.92535 37.0238 2.26557 37.0264 2.60722C37.0264 2.97292 37.0752 3.31234 37.1713 3.61947C37.2675 3.92885 37.4236 4.19919 37.6339 4.42447C37.8447 4.65175 38.1122 4.82771 38.4366 4.95237C38.758 5.07627 39.1485 5.1401 39.5953 5.1386C40.5167 5.13559 41.0018 4.93209 41.2001 4.82171C41.2354 4.80218 41.2691 4.76764 41.2271 4.67002L41.0191 4.08955C40.9875 4.0032 40.8989 4.03473 40.8989 4.03473C40.6707 4.11959 40.347 4.27128 39.5893 4.26977C39.0937 4.26827 38.728 4.12334 38.4975 3.89581C38.2624 3.66303 38.1453 3.32361 38.1273 2.84151L41.3217 2.84376C41.3217 2.84376 41.4058 2.84376 41.4148 2.76116C41.4178 2.72812 41.5237 2.11086 41.3195 1.39823L41.3149 1.39748ZM12.6055 2.06055C12.6505 1.75867 12.7339 1.50786 12.8646 1.31337C13.0598 1.01601 13.3579 0.853055 13.7762 0.853055C14.1952 0.853055 14.4715 1.01676 14.6698 1.31337C14.8012 1.50861 14.859 1.76919 14.88 2.06055H12.5957H12.6055ZM15.7797 1.39748C15.6995 1.12359 15.5604 0.870599 15.3719 0.656311C15.1666 0.43654 14.9644 0.283852 14.7652 0.198246C14.476 0.0759291 14.1652 0.0133481 13.8513 0.0142684C13.4533 0.0142684 13.0913 0.0818522 12.7977 0.217019C12.5049 0.354439 12.2578 0.540668 12.0641 0.773456C11.8703 1.00624 11.7239 1.28183 11.6315 1.59722C11.5363 1.92535 11.4893 2.26557 11.4919 2.60722C11.4919 2.97292 11.5399 3.31234 11.6368 3.61947C11.7329 3.92885 11.8891 4.19919 12.0971 4.42447C12.3084 4.65175 12.5762 4.82771 12.9006 4.95237C13.2212 5.07627 13.6095 5.1401 14.0585 5.1386C14.9807 5.13559 15.4658 4.93209 15.664 4.82171C15.6993 4.80218 15.7323 4.76764 15.691 4.67002L15.4823 4.08955C15.4507 4.0032 15.3621 4.03473 15.3621 4.03473C15.1339 4.11959 14.8102 4.27128 14.0525 4.26977C13.5592 4.26827 13.1912 4.12334 12.9607 3.89581C12.7256 3.66303 12.6085 3.32361 12.5905 2.84151L15.7849 2.84376C15.7849 2.84376 15.869 2.84376 15.8773 2.76116C15.881 2.72812 15.9869 2.11086 15.7819 1.39823L15.7797 1.39748ZM5.71197 4.1286C5.58732 4.02948 5.56929 4.00545 5.52799 3.94087C5.46441 3.84325 5.43262 3.70608 5.43262 3.52936C5.43262 3.25152 5.52574 3.05102 5.71798 2.9166C5.71573 2.9166 5.99282 2.67931 6.64387 2.68757C6.93373 2.69258 7.22208 2.71711 7.50894 2.76116V4.20069C7.50894 4.20069 7.10494 4.28705 6.64838 4.31483C5.99957 4.35313 5.71197 4.12935 5.71422 4.12935L5.71197 4.1286ZM6.98179 1.89985C6.81629 1.8896 6.65049 1.88485 6.48467 1.88558C6.21984 1.88413 5.95598 1.91771 5.69996 1.98545C5.46132 2.0468 5.23586 2.15113 5.03463 2.29333C4.84163 2.42859 4.68317 2.60738 4.57206 2.81523C4.45434 3.04044 4.39569 3.29183 4.4016 3.54588C4.4016 3.82673 4.45041 4.07003 4.54728 4.26902C4.64265 4.46577 4.78608 4.63698 4.96405 4.76464C5.14126 4.89229 5.36054 4.98766 5.61285 5.04398C5.89055 5.10443 6.17421 5.13315 6.45839 5.12959C6.7858 5.12959 7.1117 5.1018 7.42709 5.04924C7.69542 5.00318 7.96275 4.95162 8.22908 4.89455C8.33571 4.86977 8.45361 4.83823 8.45361 4.83823C8.53245 4.81795 8.52645 4.7346 8.52645 4.7346L8.52419 1.84278C8.52419 1.20824 8.35373 0.735909 8.01732 0.4453C7.68165 0.15394 7.19055 0.00750945 6.55301 0.00750945C6.2665 0.0102084 5.9807 0.0363276 5.69845 0.085606C5.69845 0.085606 5.00234 0.219271 4.71549 0.443047C4.71549 0.443047 4.65241 0.481346 4.68695 0.569204L4.91298 1.17145C4.94152 1.24954 5.01811 1.22251 5.01811 1.22251C5.01811 1.22251 5.04214 1.2135 5.07068 1.19623C5.68268 0.86582 6.45989 0.875582 6.45989 0.875582C6.80307 0.875582 7.06965 0.944668 7.24837 1.07984C7.42183 1.21275 7.51119 1.41325 7.51119 1.83527V1.96893C7.23785 1.92989 6.98554 1.90736 6.98554 1.90736L6.98179 1.89985ZM32.6583 0.267331C32.6629 0.256761 32.6653 0.245362 32.6655 0.233821C32.6656 0.22228 32.6634 0.210835 32.6589 0.200173C32.6545 0.189511 32.648 0.179853 32.6397 0.171779C32.6315 0.163705 32.6217 0.157381 32.6109 0.15319C32.4362 0.106297 32.2575 0.0761251 32.077 0.0630791C31.6768 0.0375475 31.4538 0.105131 31.254 0.19374C31.0565 0.28235 30.8373 0.425026 30.7164 0.589479V0.204253C30.7164 0.151688 30.6781 0.108134 30.624 0.108134H29.807C29.7544 0.108134 29.7161 0.150937 29.7161 0.204253V4.92308C29.7165 4.94858 29.7269 4.97292 29.745 4.99088C29.7631 5.00884 29.7875 5.01901 29.813 5.0192H30.6495C30.675 5.01901 30.6994 5.00884 30.7175 4.99088C30.7356 4.97292 30.746 4.94858 30.7464 4.92308V2.55391C30.7464 2.23626 30.7817 1.92087 30.8515 1.72263C30.9216 1.52488 31.0147 1.36969 31.1309 1.25705C31.2417 1.14822 31.3768 1.06738 31.5251 1.02126C31.6653 0.981212 31.808 0.961188 31.9531 0.961188C32.1206 0.961188 32.3038 1.00399 32.3038 1.00399C32.3646 1.0115 32.3992 0.973954 32.4202 0.918386C32.475 0.774207 32.6305 0.340171 32.6605 0.253814" fill="var(--fill-0, #1E1E1E)"/>
</svg>
