<svg preserveAspectRatio="none" width="100%" height="100%" overflow="visible" style="display: block;" viewBox="0 0 77.9411 24.3273" fill="none" xmlns="http://www.w3.org/2000/svg">
<path id="Vector" fill-rule="evenodd" clip-rule="evenodd" d="M14.5981 8.13732C14.9981 8.13465 15.3967 8.14532 15.7247 8.17198C15.8874 8.18532 16.042 8.20398 16.1753 8.22798C16.294 8.24931 16.4446 8.28398 16.57 8.35064L16.5833 8.35464C16.6055 8.36264 16.6357 8.37197 16.674 8.38263C16.7486 8.4053 16.8393 8.42796 16.9219 8.44263V8.44396C17.0459 8.46796 17.1752 8.50262 17.2846 8.54262C17.3388 8.56217 17.3935 8.58484 17.4486 8.61061C17.4872 8.63061 17.5459 8.66394 17.6045 8.71194C17.7379 8.72394 17.8605 8.7746 17.9245 8.80393C18.0178 8.84793 18.1205 8.90792 18.2125 8.97592L18.3498 9.06658L18.3551 9.06924C18.3871 9.07991 18.4067 9.08702 18.4138 9.09057L18.4925 9.12657C18.5351 9.14879 18.5782 9.17368 18.6218 9.20123C18.7085 9.25456 18.8124 9.32789 18.9164 9.40388C19.923 10.1452 20.607 11.0677 20.8496 12.1023L20.8896 12.3116L20.9989 12.9289L21.0216 13.1982C21.0278 13.312 21.0336 13.4542 21.0389 13.6249C21.0509 13.9608 21.0616 14.3955 21.0696 14.8474C21.0803 15.558 21.0829 15.994 21.0696 16.2793C21.0603 16.5046 21.0376 16.6659 20.9909 16.8126L20.9363 16.9592C20.8896 17.0646 20.8296 17.1672 20.7683 17.2526C20.7334 17.2985 20.6955 17.3422 20.655 17.3832C20.5914 17.4466 20.5156 17.4965 20.4323 17.5299C20.3896 17.5472 20.355 17.5539 20.3456 17.5565C20.3173 17.561 20.2889 17.5646 20.2603 17.5672L20.1697 17.5725L19.8977 17.5792C19.5889 17.5855 19.28 17.59 18.9711 17.5925C18.2032 17.5992 17.1566 17.6019 16.0207 17.6005C14.7661 17.5979 13.7209 17.6019 12.9769 17.6139C12.605 17.6179 12.3103 17.6245 12.105 17.6325L11.973 17.6392C11.9677 17.6783 11.9628 17.7325 11.9584 17.8018C11.9512 17.9826 11.948 18.1635 11.949 18.3445C11.949 18.9097 11.9637 19.0924 12.0197 19.2297C12.073 19.363 12.1797 19.4924 12.561 19.8763C12.8703 20.1856 12.9476 20.2003 12.9769 20.2056C13.1689 20.2403 13.4329 20.3336 13.5982 20.4456L13.5849 20.4349C13.5969 20.4389 13.6342 20.4483 13.7142 20.4549C13.8782 20.4683 14.1462 20.4736 14.6235 20.4736L15.6234 20.4723L16.0433 20.243C16.1967 20.159 16.35 20.0816 16.4753 20.023C16.5622 19.9827 16.6512 19.9471 16.742 19.9163L16.7566 19.911C16.7966 19.8843 16.8993 19.8123 16.9939 19.751C17.1992 19.6177 17.5006 19.447 17.8739 19.3564L17.9312 19.343H17.9912C18.0672 19.343 18.1298 19.359 18.1565 19.367L18.2472 19.3964C18.2978 19.4177 18.3494 19.4421 18.4018 19.4697L18.7404 19.667L19.0871 19.875C19.2124 19.9457 19.3404 20.0123 19.4337 20.055H19.4311C19.6764 20.171 19.951 20.3243 20.167 20.4576C20.2737 20.5243 20.375 20.5923 20.455 20.6536C20.498 20.6866 20.5389 20.7222 20.5776 20.7603C20.6573 20.8349 20.7124 20.932 20.7355 21.0387C20.7586 21.1454 20.7486 21.2566 20.7069 21.3575C20.6928 21.3919 20.6772 21.4258 20.6603 21.4589C20.6292 21.5131 20.5958 21.5669 20.5603 21.6202C20.3449 21.9317 20.1003 22.2219 19.8297 22.4868L19.6857 22.6108L19.2111 22.9694C18.9044 23.1987 18.3738 23.4534 17.8699 23.6547C17.5 23.8056 17.12 23.9303 16.7326 24.028L16.41 24.0906C16.2941 24.1071 16.1802 24.1352 16.07 24.1746C16.0159 24.2005 15.9578 24.2201 15.8994 24.2333L15.77 24.2573C15.6834 24.2693 15.5794 24.28 15.4701 24.288C14.9737 24.3244 14.4757 24.3355 13.9782 24.3213C13.8838 24.3184 13.7895 24.3122 13.6955 24.3026C13.6167 24.2978 13.5392 24.2797 13.4662 24.2493L13.4356 24.2333L13.3289 24.2093C13.1927 24.1804 13.0558 24.1551 12.9183 24.1333C12.4708 24.0648 12.0325 23.9458 11.6117 23.7787L11.1491 23.5827C11.0712 23.5475 10.9926 23.5141 10.9131 23.4827C10.8684 23.4703 10.825 23.4534 10.7838 23.432L10.7171 23.3934L10.5545 23.292C10.3955 23.1895 10.2377 23.085 10.0812 22.9787C9.0746 22.2948 8.52131 21.5562 8.10002 20.351C8.06002 20.2376 8.02002 20.1203 7.98936 19.9563C7.95619 19.7558 7.93837 19.553 7.93603 19.3497C7.91603 18.8231 7.9147 17.8992 7.9147 16.102V12.3236L7.99069 12.2036L8.14535 11.9543C8.17941 11.8988 8.20756 11.8398 8.22934 11.7783C8.2388 11.6766 8.26493 11.577 8.30667 11.4837C8.34955 11.3874 8.4037 11.2966 8.46799 11.2131C8.49287 11.1802 8.51198 11.1522 8.52531 11.1291C8.54523 11.0596 8.5763 10.9939 8.61731 10.9344C8.65997 10.8651 8.71596 10.7891 8.77329 10.7171C8.88928 10.5718 9.03994 10.4011 9.20126 10.2331C9.43457 9.9905 9.71721 9.71852 9.95853 9.5252L10.1838 9.36122C10.3038 9.28522 10.4638 9.1639 10.8718 8.95325C10.9322 8.91414 10.9904 8.88126 11.0464 8.85459C11.1326 8.8146 11.238 8.77105 11.3624 8.72394C11.6117 8.63061 11.973 8.51196 12.4823 8.35064C12.7223 8.27464 13.0663 8.22665 13.4182 8.19465C13.7835 8.16132 14.1968 8.14399 14.5981 8.13999M56.3159 8.19865C56.4999 8.21198 56.6719 8.23198 56.8106 8.26531C56.8922 8.28394 56.9715 8.31213 57.0465 8.3493C57.1265 8.39197 57.2452 8.47196 57.3199 8.61861C57.4905 8.95458 57.2772 9.24123 57.2185 9.31589C57.117 9.43507 57.004 9.54402 56.8812 9.64119C56.7325 9.76345 56.5871 9.88971 56.4453 10.0198C56.2756 10.2019 56.1162 10.3933 55.968 10.5931C55.88 10.7131 55.8013 10.8211 55.748 10.9024L55.7107 10.9611L55.692 11.0304C55.6379 11.1688 55.5633 11.2982 55.4707 11.4144L55.4547 11.4464L55.4507 11.4544C55.4478 11.5558 55.4218 11.6552 55.3747 11.745C55.3103 11.8649 55.2144 11.965 55.0974 12.0343C54.9281 12.137 54.6907 12.2023 54.4441 12.2636C54.2081 12.321 53.9375 12.4423 53.6762 12.6169C53.4796 12.7393 53.294 12.8785 53.1215 13.0329C53.0402 13.1145 52.9774 13.2128 52.9376 13.3209C52.9149 13.3715 52.8802 13.3969 52.8629 14.0848C52.8469 14.7648 52.8469 16.022 52.8496 18.4791C52.8509 20.5363 52.8469 21.8068 52.8349 22.5721C52.8282 22.9521 52.8202 23.2174 52.8082 23.3947C52.8011 23.4827 52.7918 23.5613 52.7802 23.6307C52.7703 23.6735 52.7583 23.7157 52.7442 23.7573C52.7362 23.7813 52.7109 23.8507 52.6522 23.9213L52.5816 23.9906C52.5069 24.0545 52.416 24.0965 52.3189 24.112C52.2706 24.1231 52.2216 24.1316 52.1723 24.1373C52.0736 24.1493 51.947 24.1586 51.8097 24.1666C51.0398 24.2095 50.2683 24.2153 49.4978 24.184C49.4482 24.1801 49.3988 24.1734 49.3499 24.164C49.3171 24.1563 49.2846 24.1474 49.2525 24.1373C49.1671 24.1097 49.0903 24.0604 49.0295 23.9943C48.9688 23.9282 48.9262 23.8475 48.9059 23.76C48.8956 23.7008 48.888 23.6412 48.8832 23.5813L48.8699 23.2747C48.8619 23.0201 48.8566 22.6521 48.8512 22.1868C48.8392 21.2549 48.8326 19.9243 48.8326 18.3031C48.8326 15.75 48.8339 14.4155 48.8512 13.6742C48.8686 12.9329 48.9046 12.7236 48.9979 12.457C49.04 12.3379 49.0765 12.2169 49.1072 12.0943L49.1099 12.081L49.1085 12.093L49.1072 12.1303C49.1072 11.9837 49.1592 11.8437 49.1912 11.7637C49.2312 11.6637 49.2859 11.5544 49.3459 11.449C49.4632 11.2384 49.6205 11.0024 49.7845 10.8064C49.8511 10.7264 49.9085 10.6518 49.9485 10.5984L49.9698 10.5651L49.9751 10.5518C50.0104 10.4817 50.0543 10.4163 50.1058 10.3571C50.1525 10.3038 50.2125 10.2465 50.2711 10.1931C50.5525 9.93813 50.8504 9.70207 51.163 9.48654C51.2297 9.44121 51.3004 9.39588 51.363 9.36122C51.399 9.3413 51.436 9.32306 51.4737 9.30656L51.5337 9.28389C51.5997 9.22283 51.6743 9.17163 51.755 9.1319C51.8451 9.08759 51.9399 9.0536 52.0376 9.03058L52.0563 9.02391L52.0803 9.01325L52.0843 9.01058C52.1638 8.93759 52.2554 8.87895 52.3549 8.83726C52.4483 8.79727 52.5563 8.76393 52.6642 8.74527C52.7168 8.73446 52.7682 8.71838 52.8176 8.69727C52.8791 8.65381 52.9464 8.61925 53.0175 8.59462C53.0789 8.5724 53.1442 8.55284 53.2135 8.53595C53.3509 8.49996 53.5175 8.46663 53.6828 8.44263C53.8689 8.4145 54.0539 8.37981 54.2374 8.33864L54.2761 8.3293C54.4001 8.27998 54.5561 8.25198 54.6894 8.23331C54.8361 8.21331 55.0094 8.19865 55.188 8.18932C55.5467 8.17065 55.9613 8.17065 56.3159 8.19865ZM13.2916 24.1333C13.3149 24.1565 13.3404 24.1775 13.3676 24.196L13.3822 24.204C13.3495 24.1833 13.3191 24.1592 13.2916 24.132M27.5877 8.46129C28.2996 8.46129 29.0142 8.46796 29.5702 8.48396C29.8462 8.49062 30.0902 8.49996 30.2741 8.51196C30.3675 8.51729 30.4488 8.5244 30.5181 8.53329C30.5608 8.53862 30.6688 8.54929 30.7594 8.58662L30.8168 8.59995C30.8648 8.6115 30.9252 8.62395 30.9981 8.63728L31.4887 8.70661L31.7847 8.74527C31.8833 8.7586 31.978 8.77416 32.0687 8.79193C32.23 8.8226 32.414 8.86526 32.5353 8.91592C32.6059 8.94525 32.7846 8.98258 32.8859 8.98258C33.1582 8.9852 33.4252 9.05724 33.6619 9.1919C33.7156 9.22269 33.7742 9.24389 33.8352 9.25456L33.8512 9.25723C33.9592 9.25723 34.0738 9.26389 34.1778 9.28656C34.3405 9.31738 34.486 9.40768 34.5858 9.53987C34.7711 9.80251 34.6658 10.0692 34.5884 10.1865C34.5211 10.283 34.4382 10.3677 34.3431 10.4371C34.237 10.5297 34.1412 10.635 34.0605 10.7504L34.0592 10.7491L33.6752 11.2917C33.6245 11.3584 33.5312 11.561 33.4965 11.7077C33.4699 11.8223 33.4352 11.9357 33.4005 12.0303C33.3762 12.1064 33.3412 12.1787 33.2966 12.245C33.2864 12.3432 33.2545 12.4379 33.2032 12.5223C33.1206 12.656 32.9899 12.7528 32.8379 12.7929C32.5899 12.8596 32.3566 12.7663 32.2206 12.6983C32.2393 12.7076 32.2366 12.7036 32.194 12.6916L32.054 12.6569C31.9257 12.6306 31.7962 12.6106 31.666 12.5969C31.5086 12.5795 31.352 12.555 31.1967 12.5236C31.1304 12.5106 31.0646 12.495 30.9994 12.477C30.9745 12.4707 30.9439 12.4618 30.9074 12.4503L30.8541 12.4263L30.8168 12.417C30.5599 12.3785 30.3014 12.3518 30.0422 12.337L29.6369 12.3183V12.341C29.6262 12.5676 29.6182 12.9063 29.6129 13.3755C29.6009 14.3128 29.5969 15.7553 29.5995 17.8285C29.6037 19.3671 29.5979 20.9056 29.5822 22.4441C29.5769 22.8801 29.5675 23.1814 29.5555 23.3814C29.5493 23.4791 29.5409 23.5631 29.5302 23.6333C29.5211 23.7171 29.4943 23.798 29.4515 23.8707C29.4098 23.9426 29.3518 24.0038 29.2822 24.0493L29.2796 24.0506C29.2036 24.0986 29.1316 24.116 29.1182 24.1186L29.0436 24.132C29.0027 24.1382 28.96 24.1435 28.9156 24.148C28.8033 24.1566 28.6908 24.1628 28.5783 24.1666C28.3116 24.1773 27.961 24.1826 27.5877 24.1826C27.2144 24.1826 26.8638 24.1773 26.5971 24.1666C26.4413 24.1601 26.2857 24.149 26.1305 24.1333L26.0585 24.12C26.0452 24.116 25.9705 24.0986 25.8958 24.0506C25.7919 23.9834 25.7133 23.882 25.6759 23.764C25.663 23.721 25.6523 23.6774 25.6439 23.6333C25.6318 23.5493 25.6238 23.4648 25.6199 23.38C25.6065 23.1814 25.5985 22.8801 25.5932 22.4441C25.5799 21.5709 25.5759 20.1283 25.5785 17.8272C25.5785 15.882 25.5732 14.4368 25.5625 13.4675C25.5563 12.9849 25.5488 12.6214 25.5399 12.377C25.5399 12.3565 25.5385 12.3374 25.5359 12.3196H25.4465C25.2039 12.321 24.7133 12.365 24.3706 12.417C24.0107 12.4716 23.484 12.5476 23.1987 12.5863C23.0324 12.6101 22.8683 12.6476 22.7081 12.6983L22.6148 12.7516C22.5726 12.7712 22.5294 12.7885 22.4855 12.8036C22.4308 12.8207 22.3745 12.8319 22.3175 12.8369C22.2 12.8491 22.0819 12.8219 21.9815 12.7596C21.8669 12.6876 21.8109 12.5889 21.7989 12.5649C21.7814 12.5319 21.7654 12.4981 21.7509 12.4636C21.7326 12.4126 21.7175 12.3605 21.7055 12.3076C21.6803 12.1943 21.6625 12.0794 21.6522 11.9637C21.6416 11.8698 21.621 11.7772 21.5909 11.6877C21.4889 11.5526 21.415 11.3985 21.3736 11.2344V11.2304L21.3682 11.2197L21.3576 11.1957L21.3536 11.1917C21.2624 11.1093 21.1936 11.0052 21.1536 10.8891L21.1256 10.8491C21.0723 10.7824 20.9923 10.6891 20.9029 10.5958C20.7788 10.4724 20.6672 10.3371 20.5696 10.1918C20.4986 10.0751 20.4677 9.9384 20.4816 9.80251C20.493 9.71473 20.5251 9.6309 20.5751 9.5579C20.6252 9.4849 20.6918 9.42481 20.7696 9.38255C20.9787 9.27636 21.1992 9.1945 21.4269 9.13857C21.6722 9.07191 21.9468 9.01858 22.2055 8.99058C22.3626 8.97184 22.5184 8.94379 22.6721 8.90659L22.6961 8.89992L22.6695 8.91326C22.7409 8.87832 22.816 8.85149 22.8934 8.83326C22.9601 8.81726 23.0339 8.80171 23.1147 8.7866C23.2747 8.75727 23.4734 8.72927 23.6694 8.70927C23.9001 8.68328 24.1297 8.64725 24.3573 8.60128L24.4146 8.58662C24.5066 8.54929 24.616 8.53862 24.6586 8.53329C24.7279 8.5244 24.8088 8.51729 24.9013 8.51196C25.0852 8.49996 25.3279 8.49062 25.6052 8.48396C26.2659 8.46808 26.9268 8.46052 27.5877 8.46129ZM40.8959 8.20532C41.3145 8.20532 41.6158 8.21065 41.8385 8.22931C42.0651 8.24931 42.2451 8.28664 42.4158 8.36264C42.5224 8.4039 42.6349 8.42775 42.7491 8.4333C42.9824 8.4333 43.2997 8.50929 43.5077 8.61461C43.6197 8.67194 43.7917 8.73327 43.8597 8.74794L44.0103 8.78927C44.0583 8.80704 44.1041 8.82615 44.1476 8.84659C44.2247 8.88245 44.2964 8.92865 44.3609 8.98392L44.3876 9.01058L44.4143 9.02125L44.4329 9.02658L44.5929 9.07591C44.6436 9.09635 44.6969 9.11991 44.7529 9.14657L45.2142 9.38655L45.3329 9.44921L45.3729 9.51587L45.3942 9.53187C45.7358 9.75678 46.051 10.0193 46.3341 10.3145C46.6914 10.6798 47.0021 11.1704 47.23 11.669C47.4567 12.1663 47.6167 12.7116 47.6407 13.1969C47.6567 13.5169 47.6593 15.0007 47.6553 16.4033C47.6523 17.2641 47.6452 18.125 47.634 18.9857L47.6273 19.1884L47.614 19.3484L47.5073 19.9617C47.4034 20.5603 47.162 21.0949 46.7834 21.5842L46.6101 21.7908C46.3728 22.0628 46.0928 22.3428 45.8555 22.5548C45.7355 22.6614 45.6195 22.7587 45.5182 22.8307C45.4675 22.8681 45.4142 22.9023 45.3582 22.9334C45.3097 22.9585 45.2588 22.9786 45.2062 22.9934C45.1329 23.0641 45.0462 23.1241 44.9916 23.1587C44.7555 23.3086 44.5044 23.4332 44.2423 23.5307C44.1868 23.548 44.1296 23.5591 44.0716 23.564H44.0796L44.053 23.5707C44.0196 23.5827 43.9867 23.596 43.9543 23.6107C43.381 23.8947 42.8117 24.0373 42.0358 24.108C41.2046 24.2009 40.3651 24.192 39.536 24.0813C39.3259 24.0572 39.1169 24.0247 38.9094 23.984C38.7395 23.9535 38.573 23.9066 38.4121 23.844C38.3458 23.814 38.2771 23.7895 38.2068 23.7707L38.2561 23.7733L38.1015 23.7533L38.0122 23.7267C37.7898 23.6437 37.571 23.5517 37.3562 23.4507C37.2201 23.3864 37.0832 23.3237 36.9456 23.2627L36.8216 23.2094L36.8056 23.204L36.7909 23.2C36.7419 23.1859 36.6953 23.1648 36.6523 23.1374L36.5389 23.0654C36.2209 22.84 35.9127 22.6011 35.615 22.3494C35.3284 22.1028 35.0457 21.7255 34.8151 21.3402C34.5805 20.9562 34.3955 20.5441 34.2645 20.1136C34.0592 19.363 34.0245 18.6644 34.0205 16.138C34.0192 14.6154 34.0285 13.7208 34.1058 13.0796C34.1858 12.4023 34.3445 11.9997 34.6058 11.4584C34.8164 11.0237 35.0631 10.6958 35.4657 10.2905C35.8645 9.9015 36.2973 9.54901 36.7589 9.23723C36.8194 9.19634 36.8802 9.16079 36.9416 9.13057C36.9769 9.11389 37.0129 9.09876 37.0496 9.08524C37.0691 9.07724 37.0976 9.0688 37.1349 9.05991H37.1429C37.1749 9.04569 37.2131 9.02702 37.2575 9.00391L37.5455 8.87992C37.6548 8.83726 37.7722 8.79727 37.8695 8.76927C38.0322 8.71994 38.2428 8.63728 38.3228 8.59595V8.59862C38.5488 8.49313 38.7947 8.43678 39.0441 8.4333C39.1574 8.42705 39.269 8.40274 39.3747 8.3613C39.559 8.28422 39.7552 8.23956 39.9547 8.22931C40.1773 8.21065 40.4759 8.20532 40.8959 8.20532ZM63.666 8.19198C63.87 8.19865 64.0939 8.21465 64.2433 8.25331C64.3686 8.28531 64.7459 8.3573 65.0832 8.41196C65.2658 8.4413 65.4485 8.47996 65.5965 8.51996C65.6698 8.53995 65.7431 8.55995 65.8058 8.58395C65.8391 8.59595 65.9311 8.63195 66.0151 8.69461L66.0511 8.71061C66.0898 8.72394 66.1338 8.73727 66.1684 8.7426C66.2751 8.76127 66.3831 8.79593 66.4764 8.83593C66.5755 8.87775 66.6666 8.93639 66.7457 9.00925L66.7497 9.01058L66.7964 9.02925C66.8853 9.04791 66.9706 9.07502 67.0497 9.11057C67.0888 9.12746 67.1315 9.15101 67.1777 9.18123C67.199 9.1959 67.2443 9.2279 67.291 9.27856L67.2977 9.28256C67.3101 9.29145 67.3261 9.30167 67.3457 9.31322L67.4043 9.34255C67.5323 9.40388 67.7216 9.50254 67.831 9.56253C67.9376 9.6212 68.0589 9.71985 68.1589 9.80651C68.2696 9.90251 68.3936 10.0172 68.5149 10.1358C68.7429 10.3598 69.0029 10.6358 69.1282 10.8224H69.1255C69.3261 11.1304 69.4979 11.4562 69.6388 11.7957C69.6584 11.8437 69.6761 11.8917 69.6921 11.9397C69.7028 11.9836 69.7113 12.0281 69.7175 12.073L69.7255 12.0917C69.7388 12.1243 69.7553 12.1556 69.7748 12.185V12.1863C69.9241 12.4116 69.9535 12.6369 69.9708 13.1062C69.9894 13.5942 69.9934 14.4688 69.9961 16.098C70.0058 17.1077 70.0014 18.1175 69.9828 19.1271C69.9628 19.659 69.9228 19.8497 69.8348 20.107C69.5428 20.9589 69.1562 21.6415 68.6376 22.1495C68.3745 22.4081 68.1656 22.6023 68.0109 22.7321C67.9397 22.7919 67.8654 22.848 67.7883 22.9001C67.721 22.946 67.6461 22.9794 67.567 22.9987L67.5337 23.0187C67.4579 23.0639 67.3845 23.1129 67.3137 23.1654C67.195 23.2494 67.059 23.3294 66.931 23.3934C66.8041 23.4601 66.6699 23.512 66.5311 23.548C66.4519 23.568 66.3747 23.5952 66.3004 23.6293L66.2804 23.6413L66.2791 23.64C66.1848 23.7031 66.082 23.7525 65.9738 23.7867C65.8659 23.821 65.7537 23.8398 65.6405 23.8427L65.6271 23.8453C65.5749 23.8539 65.5239 23.8687 65.4752 23.8893C65.2652 23.9829 65.0422 24.0441 64.8139 24.0706C64.5632 24.1093 64.2633 24.1373 63.9473 24.1533C63.4727 24.1773 62.9394 24.1773 62.4407 24.148L61.9568 24.108C61.7958 24.0904 61.6356 24.0655 61.4768 24.0333C61.3346 24.0068 61.1959 23.9639 61.0635 23.9053L61.0235 23.8893L60.9275 23.8613C60.8561 23.8401 60.7829 23.825 60.7089 23.816C60.5094 23.7858 60.3139 23.733 60.1263 23.6587L59.9556 23.5787C59.904 23.5498 59.8506 23.5244 59.7956 23.5027L59.7636 23.4894C59.6758 23.476 59.5915 23.4451 59.5157 23.3987C59.4382 23.352 59.3692 23.2925 59.3117 23.2227C59.3232 23.2378 59.3321 23.248 59.3383 23.2534L59.3517 23.264L59.3477 23.2614L59.3277 23.252L59.3223 23.2494C59.2008 23.2143 59.0829 23.1637 58.9744 23.0987C58.8552 23.0318 58.7395 22.9588 58.6277 22.8801C58.3771 22.7055 58.1388 22.514 57.9145 22.3068C57.6583 22.0519 57.4262 21.7738 57.2212 21.4762C57.1209 21.3359 57.0275 21.1909 56.9412 21.0416C56.8614 20.9092 56.8013 20.7659 56.7626 20.6163C56.748 20.5534 56.727 20.4922 56.6999 20.4336L56.6919 20.4176C56.6367 20.3235 56.5962 20.2214 56.5719 20.115C56.5442 20.0071 56.5233 19.8975 56.5093 19.787C56.4694 19.483 56.4427 19.1774 56.4293 18.8711C56.3877 17.878 56.3771 16.8838 56.3973 15.89C56.4186 14.2701 56.4293 13.4102 56.4813 12.8796C56.5079 12.6049 56.5479 12.3943 56.6132 12.1996C56.6758 12.0242 56.753 11.8543 56.8439 11.6917C56.9159 11.5544 56.9812 11.421 57.0265 11.3211L57.0732 11.2077C57.0905 11.1237 57.1212 11.0637 57.1265 11.0531C57.147 11.0166 57.1661 10.9869 57.1839 10.9637C57.2159 10.9158 57.2523 10.8678 57.2932 10.8198C57.3732 10.7224 57.4798 10.6038 57.5892 10.4865C57.8051 10.2558 58.0785 9.9865 58.2598 9.84384C58.5784 9.60039 58.9124 9.37772 59.2597 9.17723C59.3597 9.11598 59.4661 9.06591 59.577 9.02791L59.6157 9.01058C59.629 9.00347 59.6388 8.99725 59.645 8.99192L59.641 8.99591C59.7231 8.93092 59.8142 8.87836 59.9116 8.83993C59.9956 8.80526 60.0916 8.77327 60.1863 8.7546C60.2716 8.73594 60.4169 8.68794 60.4796 8.65728C60.5809 8.60661 60.7196 8.56262 60.8329 8.53329C60.966 8.49746 61.1008 8.46854 61.2369 8.44663C61.3735 8.42257 61.5088 8.39142 61.6422 8.3533C61.6755 8.34264 61.6755 8.3413 61.6582 8.35064C61.7496 8.30564 61.8478 8.27591 61.9488 8.26264C62.0315 8.24931 62.1288 8.23598 62.2288 8.22665C62.7063 8.1878 63.1857 8.17622 63.6646 8.19198M10.9451 23.4894L10.9771 23.4947L11.0384 23.4987C11.0057 23.4981 10.9732 23.4946 10.9411 23.488L10.9451 23.4894ZM59.769 23.492L59.7956 23.496L59.8543 23.4987C59.8232 23.4987 59.7943 23.496 59.7676 23.4907L59.769 23.492ZM67.4217 23.0187C67.475 23.0187 67.515 23.0107 67.531 23.0067L67.539 23.0041C67.5005 23.0133 67.4612 23.0182 67.4217 23.0187ZM40.8959 12.045C40.5586 12.045 40.2866 12.0677 40.2026 12.0903C39.756 12.2103 39.4987 12.2823 39.3454 12.3316C39.2227 12.3716 39.2014 12.3876 39.2147 12.3796L39.1121 12.453C39.0116 12.5136 38.9035 12.5606 38.7908 12.5929C38.7881 12.5929 38.7854 12.5947 38.7828 12.5983C38.6537 12.6908 38.5332 12.7948 38.4228 12.9089L38.4201 12.9076C38.3296 12.9941 38.2486 13.0902 38.1788 13.1942C38.1668 13.2142 38.1535 13.2409 38.1348 13.3902L38.1321 13.4142L38.1281 13.4809L38.1228 13.6969C38.1115 14.5892 38.1093 15.4816 38.1161 16.374L38.1361 18.8937L38.2348 19.0324C38.2921 19.1151 38.3481 19.1991 38.3908 19.2724C38.4095 19.3035 38.4268 19.3364 38.4428 19.371L38.4774 19.3977C38.7098 19.5663 38.953 19.7195 39.2054 19.8563C39.2632 19.8865 39.3107 19.9101 39.348 19.927C39.3907 19.9457 39.3907 19.9417 39.3654 19.9377L39.496 19.9697C39.6333 20.0096 39.788 20.071 39.896 20.139C39.9506 20.1777 40.0157 20.1991 40.0826 20.2003C40.2346 20.2163 40.4839 20.2176 40.9919 20.2123C41.3745 20.207 41.6012 20.199 41.7438 20.183C41.8865 20.167 41.8852 20.1496 41.8558 20.1696C42.0118 20.0656 42.2598 19.9723 42.4411 19.9337C42.4544 19.9283 42.5118 19.903 42.6198 19.8363C42.8753 19.6772 43.1139 19.4922 43.3317 19.2844C43.3495 19.2648 43.3637 19.2484 43.3744 19.235C43.3859 19.2039 43.3939 19.1839 43.3984 19.1751C43.4478 19.0722 43.5072 18.9744 43.5757 18.8831C43.5823 18.8484 43.593 18.7684 43.601 18.6004C43.6183 18.2138 43.621 17.4979 43.621 16.0873C43.621 14.7234 43.617 14.0048 43.601 13.6049C43.5994 13.4906 43.5905 13.3766 43.5743 13.2636L43.5717 13.2609C43.5072 13.1626 43.4493 13.0602 43.3984 12.9542C43.3726 12.9296 43.346 12.9061 43.3184 12.8836C43.2029 12.7953 43.0828 12.7134 42.9584 12.6383C42.6571 12.4503 42.3558 12.301 42.2198 12.2636L41.5892 12.0903C41.3598 12.0551 41.1279 12.04 40.8959 12.045ZM62.6501 12.089C62.5112 12.0946 62.373 12.1111 62.2368 12.1383C62.0101 12.189 61.7995 12.285 61.3288 12.5289C60.9262 12.7369 60.7329 12.9116 60.5289 13.2222L60.4289 13.3729L60.4129 16.038C60.4006 16.8477 60.4019 17.6575 60.4169 18.4671C60.4236 18.6391 60.4343 18.7138 60.4409 18.7458C60.4942 18.8178 60.5422 18.8964 60.5782 18.9711C60.5982 19.0128 60.616 19.0555 60.6316 19.0991C60.6369 19.1124 60.6422 19.1311 60.6476 19.1551L60.6649 19.1751C60.7182 19.235 60.7982 19.3177 60.9022 19.407C61.1155 19.5937 61.3475 19.755 61.4782 19.8163C61.9741 20.0456 62.1741 20.1323 62.3874 20.1736C62.6061 20.2176 62.854 20.2176 63.458 20.207C63.7753 20.2003 63.982 20.1896 64.1233 20.1723C64.2659 20.155 64.2966 20.1363 64.2886 20.1416C64.4193 20.0696 64.7099 19.9297 64.9392 19.8257C65.1299 19.7403 65.3392 19.599 65.5218 19.4284C65.7085 19.255 65.8365 19.0817 65.8951 18.9511C65.9146 18.9108 65.9289 18.8683 65.9378 18.8244C65.9498 18.7671 65.9618 18.6684 65.9698 18.4778C65.9871 18.0911 65.9898 17.4165 65.9884 16.1006C65.9884 14.9607 65.9818 14.2715 65.9671 13.8435C65.9639 13.6956 65.9546 13.548 65.9391 13.4009L65.9218 13.3009C65.8685 13.1702 65.6965 12.9542 65.4352 12.7383C65.1779 12.5249 64.9125 12.3823 64.7392 12.3383C64.5719 12.2959 64.4146 12.2207 64.2766 12.117L64.1886 12.105C63.9063 12.0874 63.6235 12.0799 63.3407 12.0823L62.6501 12.089ZM7.60806 0.0100091C7.69472 0.0193416 7.94403 0.0473393 8.10802 0.276653C8.16536 0.356034 8.2045 0.447073 8.22267 0.543297C8.23734 0.611291 8.24534 0.683285 8.24934 0.74328L8.25067 0.953929C8.24156 1.09049 8.20626 1.22402 8.14668 1.34723L8.04002 1.53121C8.01864 1.56278 7.99862 1.59525 7.98003 1.62854L7.97603 1.63387C7.9617 1.71867 7.93378 1.8006 7.89337 1.87652C7.8731 1.91627 7.85085 1.95498 7.82671 1.99251L7.74671 2.10317L7.72538 2.1365L7.70538 2.16849C7.70538 2.17116 7.70405 2.17294 7.70138 2.17383C7.69605 2.20049 7.69605 2.22449 7.69338 2.23382L7.66672 2.32048C7.64717 2.3747 7.62317 2.4338 7.59473 2.4978C7.53036 2.64741 7.46145 2.79502 7.38808 2.94043C7.31875 3.07908 7.25475 3.2164 7.21076 3.32573L7.16543 3.44838C7.16543 3.45194 7.1641 3.45505 7.16143 3.45772C7.15014 3.55503 7.12359 3.64997 7.08277 3.73903C7.03748 3.84241 6.97924 3.93962 6.90945 4.02834L6.89345 4.06033L6.88812 4.07633L6.89079 4.063L6.89345 4.02034L6.87345 4.19099C6.84183 4.33749 6.78305 4.47677 6.70013 4.60162C6.71347 4.58162 6.7148 4.57496 6.7068 4.59362L6.6828 4.66162C6.6633 4.72531 6.64859 4.79037 6.63881 4.85627C6.60551 5.1149 6.52508 5.36524 6.40149 5.59487C6.37545 5.64156 6.35657 5.69189 6.3455 5.74419C6.34372 5.75663 6.34328 5.75308 6.34416 5.73352C6.34416 5.92284 6.2735 6.18415 6.20284 6.35481L6.17351 6.44013C6.1744 6.45791 6.17618 6.47346 6.17885 6.48679C6.17854 6.53268 6.17587 6.57851 6.17085 6.62412C6.15961 6.71111 6.14178 6.79713 6.11752 6.88143C6.10764 6.91105 6.10534 6.94268 6.11085 6.97342C6.11885 7.03741 6.14152 7.1414 6.20151 7.33872C6.31883 7.72402 6.51348 7.98267 6.76946 8.15199C7.03211 8.32531 7.40541 8.43196 7.92136 8.43196C8.13335 8.43196 8.316 8.43196 8.45465 8.44263C8.52265 8.44796 8.60131 8.45729 8.67597 8.47596C8.79136 8.50231 8.89766 8.55891 8.98394 8.63995C9.05116 8.70721 9.10014 8.79049 9.12627 8.88192C9.15239 8.97336 9.1548 9.06994 9.13326 9.16257C9.1099 9.26131 9.0643 9.35343 8.99994 9.43188C8.91116 9.54024 8.81398 9.64143 8.7093 9.73452C8.52531 9.90784 8.32 10.1305 8.16268 10.3211C8.10034 10.3958 8.04075 10.4728 7.98403 10.5518L7.96803 10.5731C7.93172 10.7074 7.85659 10.828 7.75205 10.9198L7.73871 10.9557C7.68242 11.149 7.59014 11.33 7.46674 11.489L7.46807 11.4917L7.46274 11.501C7.45299 11.5192 7.44539 11.5384 7.44007 11.5584V11.5344C7.43647 11.6436 7.41946 11.7519 7.38941 11.857C7.36275 11.9517 7.32275 12.057 7.27209 12.153C7.28142 12.1356 7.25875 12.185 7.22942 12.3596C7.19942 12.5498 7.1763 12.741 7.1601 12.9329C7.1186 13.4117 7.10303 13.8923 7.11343 14.3728C7.12143 14.6661 7.1281 14.9021 7.10277 15.0554C7.08244 15.2023 7.01176 15.3375 6.90278 15.438C6.76146 15.5647 6.59614 15.582 6.55615 15.5874H6.55481C6.35052 15.6047 6.14581 15.5591 5.9682 15.4567H5.96553C5.93324 15.4437 5.89975 15.4339 5.86554 15.4274C5.61723 15.4044 5.36994 15.3715 5.12427 15.3287C4.9411 15.3014 4.76228 15.2503 4.59231 15.1767C4.55137 15.1586 4.50954 15.1426 4.46699 15.1287L4.30034 15.0834C4.19463 15.06 4.09045 15.0302 3.98836 14.9941L3.67106 14.8701C3.60898 14.8414 3.54583 14.8152 3.48174 14.7914L3.42974 14.7741L3.43774 14.7754C3.46593 14.7804 3.49446 14.7831 3.52307 14.7834C3.44646 14.7845 3.37052 14.769 3.30042 14.7381C3.19659 14.6952 3.104 14.6291 3.02978 14.5448L3.01511 14.5368C2.79113 14.4795 2.54449 14.3341 2.33117 14.1888C2.08557 14.019 1.84966 13.8357 1.62456 13.6395C1.3982 13.4412 1.18321 13.2302 0.980619 13.0076C0.788012 12.8047 0.630336 12.5714 0.513992 12.317L0.489994 12.2716C0.439296 12.2236 0.398527 12.1661 0.370004 12.1023C0.348475 12.0546 0.329777 12.0056 0.314009 11.9557C0.285809 11.8596 0.264863 11.7616 0.251347 11.6624C0.230976 11.5345 0.195161 11.4096 0.14469 11.2904C-0.0192964 10.9637 -0.0152968 10.6758 0.019367 10.1425C0.0420317 9.77985 0.0793619 9.48387 0.156689 9.19057C0.235349 8.89726 0.350006 8.62395 0.508659 8.29997L0.645981 8.04266C0.8073 7.75869 1.03395 7.40805 1.26459 7.07075C1.5739 6.61745 1.91787 6.15082 2.17118 5.86418C2.3845 5.62287 2.65781 5.28556 2.77247 5.12691C2.91379 4.93226 3.26043 4.50696 3.54574 4.17766C3.73806 3.95354 3.92739 3.72687 4.11369 3.49771L4.13102 3.47505L4.46699 3.06175C4.63364 2.86577 4.84829 2.61645 5.07094 2.36048L6.20418 1.05792C6.48282 0.741947 6.6708 0.529965 6.80413 0.39131C6.92678 0.265987 7.05344 0.143331 7.19076 0.0726704C7.39741 -0.0313208 7.58539 0.00600921 7.60806 0.00867565M70.3401 0.00867565C70.452 -0.00263343 70.5651 0.0098082 70.672 0.0451875C70.7788 0.0805668 70.8769 0.138088 70.96 0.213992C71.104 0.328649 71.2773 0.5113 71.504 0.759279C71.6898 0.963795 71.8708 1.17273 72.0466 1.38589C72.077 1.42648 72.105 1.46877 72.1306 1.51255L72.1493 1.53655C72.1866 1.58276 72.2413 1.64809 72.3133 1.73253C72.4559 1.90052 72.6546 2.12983 72.8745 2.37648C73.0998 2.62712 73.3185 2.8791 73.4905 3.08175C73.6491 3.2684 73.7998 3.44972 73.8558 3.54038L73.8731 3.56304C73.8847 3.57904 73.9002 3.59948 73.9198 3.62437C73.9598 3.67592 74.0104 3.73814 74.0718 3.81102C74.1918 3.95501 74.3424 4.12966 74.4931 4.29765C74.6504 4.47363 74.809 4.65762 74.9357 4.8096C75.0388 4.92697 75.135 5.05029 75.2237 5.17891L75.2383 5.2029L75.285 5.2629C75.3214 5.31178 75.3681 5.37089 75.425 5.44022C75.537 5.57887 75.6783 5.74686 75.8183 5.90818C75.9689 6.0815 76.1169 6.26681 76.2356 6.42547C76.3396 6.56279 76.4609 6.73211 76.5156 6.85743L76.5422 6.91476L76.5662 6.95742C76.6096 6.99474 76.6506 7.03482 76.6889 7.07741C76.7422 7.14052 76.7946 7.20896 76.8462 7.28273C77.2109 7.81943 77.5103 8.39768 77.7381 9.00525L77.8235 9.31455C77.8954 9.64786 77.9314 10.0412 77.9394 10.3865C77.9448 10.6238 77.9381 10.8584 77.9128 11.0584C77.8996 11.1576 77.881 11.256 77.8568 11.353C77.827 11.4659 77.7764 11.5722 77.7075 11.6664C77.7075 11.6637 77.7052 11.6668 77.7008 11.6757L77.6875 11.7077C77.683 11.7175 77.6808 11.7246 77.6808 11.729L77.6715 11.8463C77.6542 11.9501 77.6195 12.0501 77.5688 12.1423C77.5398 12.1881 77.5053 12.2302 77.4661 12.2676L77.4635 12.2743C77.442 12.3124 77.4224 12.3516 77.4048 12.3916H77.4021C77.3625 12.4803 77.3134 12.5643 77.2555 12.6423C77.2022 12.7169 77.1355 12.7983 77.0675 12.8809C76.9112 13.0618 76.748 13.2366 76.5782 13.4049C76.4036 13.5809 76.2183 13.7528 76.0543 13.8928C75.9411 13.9882 75.8227 14.0772 75.6996 14.1595L75.565 14.2301C75.524 14.2477 75.484 14.2673 75.445 14.2888C75.4126 14.3217 75.3768 14.3512 75.3383 14.3768C75.2979 14.4026 75.256 14.4262 75.213 14.4475C75.1324 14.4832 75.0484 14.5109 74.9624 14.5301H74.9597L74.9384 14.5368L74.913 14.5448C74.8459 14.6091 74.7695 14.663 74.6864 14.7048C74.5927 14.7518 74.4938 14.7876 74.3917 14.8114L74.3651 14.8221L74.3611 14.8248C74.2845 14.8988 74.1938 14.9569 74.0944 14.9954C73.9907 15.036 73.8805 15.0577 73.7691 15.0594C73.7789 15.0594 73.7722 15.0607 73.7491 15.0634L73.6691 15.0794L73.4865 15.1354C73.232 15.2239 72.9701 15.2894 72.7039 15.3314C72.6155 15.3447 72.5278 15.3625 72.4412 15.3847L72.3772 15.402C72.2514 15.4737 72.1137 15.5221 71.9706 15.5447C71.824 15.5687 71.6466 15.578 71.4813 15.5474C71.3585 15.5296 71.243 15.4779 71.148 15.398C71.0292 15.2883 70.9543 15.139 70.9374 14.9781C70.912 14.8008 70.9187 14.4994 70.9267 14.0448C70.9323 13.8093 70.9301 13.5736 70.92 13.3382C70.9178 13.2701 70.9129 13.202 70.9054 13.1342L70.9014 13.1089L70.904 13.1156L70.9307 13.1769L70.9 13.1036C70.8602 13.0006 70.8334 12.8932 70.82 12.7836C70.7966 12.6377 70.7793 12.4909 70.768 12.3436C70.7565 12.1961 70.7423 12.0881 70.7254 12.0197L70.7121 11.9757C70.6518 11.9002 70.6 11.8184 70.5574 11.7317C70.5289 11.6639 70.5117 11.5918 70.5067 11.5184L70.5121 11.5744L70.5161 11.5997L70.5187 11.6064L70.5014 11.5584C70.477 11.4974 70.4503 11.4374 70.4214 11.3784L70.3041 11.1371C70.2352 11.0109 70.1595 10.8885 70.0774 10.7704L70.0321 10.7091L70.0108 10.6358C70.0148 10.6491 70.0081 10.6264 69.9601 10.5531C69.9063 10.4713 69.848 10.3925 69.7855 10.3171C69.6155 10.1118 69.4335 9.91676 69.2402 9.73319C69.1355 9.6401 69.0383 9.5389 68.9495 9.43054C68.8852 9.35209 68.8396 9.25998 68.8162 9.16123C68.7947 9.06861 68.7971 8.97203 68.8232 8.88059C68.8493 8.78915 68.8983 8.70588 68.9655 8.63861C69.0522 8.55737 69.159 8.50075 69.2748 8.47463C69.3513 8.45685 69.425 8.44574 69.4962 8.4413C69.6348 8.43196 69.8161 8.43063 70.0294 8.43063C70.5454 8.43063 70.9174 8.32397 71.1813 8.15065C71.4373 7.98133 71.6306 7.72402 71.7466 7.33739L71.8133 7.10408C71.8244 7.06012 71.8333 7.01562 71.84 6.97075C71.8447 6.94042 71.8424 6.9094 71.8333 6.88009L71.8 6.75077C71.7817 6.66306 71.7723 6.57372 71.772 6.48413L71.776 6.44013C71.7697 6.41613 71.76 6.38769 71.7466 6.35481C71.6647 6.15726 71.6174 5.94578 71.6066 5.73219C71.6066 5.75175 71.6062 5.7553 71.6053 5.74286L71.592 5.69486C71.5813 5.65971 71.567 5.62575 71.5493 5.59354C71.4253 5.364 71.3444 5.11366 71.3107 4.85493C71.2974 4.76535 71.2751 4.67735 71.244 4.59229L71.2507 4.60162C71.1947 4.51786 71.1494 4.42604 71.116 4.33098C71.0859 4.2473 71.068 4.15976 71.0627 4.071H71.06L71.056 4.059L71.0427 4.03234L71.0334 4.019C70.9063 3.84646 70.8151 3.65015 70.7654 3.44172C70.7654 3.43727 70.7578 3.41728 70.7454 3.38172L70.6881 3.2364C70.6366 3.11345 70.5815 2.99208 70.5227 2.87243C70.4547 2.73245 70.3894 2.59112 70.3414 2.47513C70.3079 2.3931 70.2786 2.30945 70.2534 2.22449L70.2454 2.17649C70.2392 2.15072 70.2348 2.11961 70.2321 2.08317V2.08583L70.2374 2.1285C70.2374 2.13916 70.2388 2.14805 70.2414 2.15516L70.2454 2.17649L70.2428 2.17116L70.2241 2.13783L70.2014 2.1045C70.1181 1.99624 70.0504 1.87687 70.0001 1.74986C69.9882 1.71168 69.9779 1.67298 69.9694 1.63387V1.62987C69.9508 1.59659 69.9308 1.56412 69.9095 1.53255C69.745 1.3046 69.6701 1.0242 69.6988 0.744613C69.7041 0.684618 69.7121 0.612625 69.7255 0.544631C69.7436 0.448407 69.7828 0.357367 69.8401 0.277986C69.8992 0.200369 69.9744 0.136383 70.0604 0.0903742C70.1464 0.0443652 70.2414 0.0174111 70.3387 0.0113422M72.3879 15.3967L72.3999 15.3927L72.4399 15.3647C72.423 15.3763 72.4052 15.3869 72.3866 15.3967M74.3624 14.8221L74.3704 14.8168L74.4051 14.7808C74.3908 14.7959 74.3766 14.8092 74.3624 14.8208M74.9224 14.5381L74.9357 14.5248L74.9437 14.5141L74.9224 14.5381ZM75.4716 14.2568L75.4756 14.2541L75.5156 14.1981V14.1968L75.4716 14.2568ZM14.5515 12.0743C13.9809 12.0743 13.7062 12.077 13.5422 12.0943C13.4643 12.0952 13.3883 12.1188 13.3236 12.1623C13.2087 12.2263 13.0908 12.2846 12.9703 12.337L12.9036 12.3596C12.8974 12.3596 12.8872 12.361 12.8729 12.3636C12.8405 12.3832 12.8089 12.4041 12.7783 12.4263C12.6599 12.5133 12.5464 12.6068 12.4383 12.7063C12.3306 12.8037 12.2282 12.907 12.1317 13.0156L12.0863 13.0729C12.0727 13.1602 12.0503 13.246 12.0197 13.3289L11.9677 13.4529C11.977 13.4342 11.961 13.4675 11.949 13.5889C11.9295 13.7803 11.9273 13.973 11.9424 14.1648C11.9868 14.1693 12.0419 14.1737 12.1077 14.1781C12.5116 14.1928 13.2289 14.1968 14.5181 14.1968C15.7714 14.1968 16.4886 14.1928 16.9033 14.1781C16.9646 14.1737 17.0179 14.1697 17.0633 14.1661C17.0641 14.0737 17.0619 13.9497 17.0566 13.7942C17.0546 13.6071 17.0394 13.4205 17.0113 13.2356C17.0063 13.2124 16.9982 13.1899 16.9873 13.1689L16.9153 13.0542C16.7809 12.8838 16.6329 12.7247 16.4726 12.5783C16.397 12.5086 16.3188 12.4419 16.238 12.3783L16.2127 12.3596C16.1516 12.3417 16.0919 12.3194 16.034 12.293C15.9473 12.2544 15.8628 12.2112 15.7807 12.1636C15.7034 12.121 15.678 12.1063 15.5607 12.0943C15.2247 12.0735 14.888 12.0668 14.5515 12.0743ZM16.266 12.3703L16.3686 12.3836L16.2633 12.369L16.266 12.3703ZM0.528657 12.3076L0.583319 12.3476L0.501993 12.2823L0.528657 12.3076ZM77.3768 12.341L77.4301 12.3036L77.4315 12.2996C77.4146 12.3139 77.3964 12.3276 77.3768 12.341ZM69.7215 12.105L69.7201 12.0877L69.7175 12.0783C69.7175 12.0872 69.7188 12.0961 69.7215 12.105ZM29.6529 12.0703L29.6542 12.0663V12.061L29.6529 12.0703ZM8.50798 11.1984L8.50398 11.2384L8.50665 11.2397C8.50754 11.2166 8.5102 11.1957 8.51465 11.1771L8.50798 11.1984ZM21.3629 11.2024L21.3936 11.2291C21.3811 11.2175 21.3691 11.206 21.3576 11.1944L21.3629 11.2024ZM7.72005 10.9504L7.74671 10.9278V10.9238L7.72005 10.9504ZM67.339 9.34122L67.3217 9.31455L67.315 9.30656L67.339 9.34122ZM18.3245 9.06391L18.3018 9.05858L18.2098 9.04924C18.2534 9.05102 18.2916 9.05591 18.3245 9.06391ZM37.2002 9.05058L37.1736 9.05458L37.1496 9.05858L37.2002 9.05058ZM66.791 9.05324L66.7937 9.05724H66.7964L66.791 9.05324ZM66.791 9.05324L66.7737 9.03591L66.7604 9.02125L66.7511 9.01458L66.791 9.05324ZM44.4263 9.04924L44.3996 9.01991L44.3929 9.01458L44.4263 9.04924ZM52.071 9.01991L52.0416 9.04924L52.0843 9.01058L52.071 9.01991ZM76.5529 6.94676L76.5316 6.92809L76.4782 6.88943C76.5049 6.9072 76.5298 6.92631 76.5529 6.94676ZM7.16143 3.45372L7.1641 3.44705L7.1681 3.38972C7.16721 3.41194 7.16498 3.43327 7.16143 3.45372ZM7.70405 2.16849L7.70938 2.14983L7.71472 2.12316L7.71738 2.0805C7.71738 2.11383 7.70938 2.14316 7.70405 2.16849ZM69.9654 1.59121L69.9681 1.61521C69.9646 1.5921 69.9619 1.5681 69.9601 1.54321L69.9654 1.59121ZM7.98136 1.60454L7.98403 1.59387L7.98669 1.55521C7.98669 1.57299 7.98491 1.58943 7.98136 1.60454Z" fill="var(--fill-0, #111111)" fill-opacity="0.4"/>
</svg>
