<svg preserveAspectRatio="none" width="100%" height="100%" overflow="visible" style="display: block;" viewBox="0 0 65.7885 12.7215" fill="none" xmlns="http://www.w3.org/2000/svg">
<path id="Vector" d="M45.8168 7.44882C45.6491 6.27727 44.8942 5.44035 43.5508 5.44035C42.2923 5.44035 41.3691 6.19308 41.1179 7.44882H45.8168ZM43.7192 10.8793C44.8101 10.8793 45.5656 10.4612 46.0693 9.95888L47.2437 11.2146C46.4881 11.9674 45.3972 12.5531 43.7192 12.5531C40.8661 12.5531 39.0197 10.7123 39.0197 8.11808C39.0197 5.60731 40.9503 3.68302 43.3832 3.68302C46.2363 3.68302 47.7467 5.85846 47.6625 8.78733H41.1172C41.3698 10.1265 42.2088 10.88 43.7192 10.88V10.8793ZM0 10.7965L5.11905 5.60801H0.0841833V3.93417H7.46846V5.60661L2.35012 10.7958H7.55264V12.4696H0V10.7965ZM15.3564 7.44952C15.1881 6.27797 14.4332 5.44105 13.0905 5.44105C11.832 5.44105 10.9088 6.19379 10.6576 7.44952H15.3564ZM13.3431 10.88C14.4332 10.88 15.1881 10.4619 15.6925 9.95959L16.8668 11.2153C16.112 11.9681 15.0211 12.5538 13.3423 12.5538C10.4892 12.5538 8.64352 10.713 8.64352 8.11878C8.64352 5.60801 10.5734 3.68372 13.007 3.68372C15.8601 3.68372 17.3705 5.85916 17.2863 8.78803H10.6569C10.9936 10.1273 11.832 10.8807 13.3423 10.8807L13.3431 10.88ZM35.6635 8.20226C35.6635 6.69608 34.4885 5.44105 32.9781 5.44105C31.4677 5.44105 30.2927 6.6126 30.2927 8.20226C30.2927 9.79192 31.4677 10.9642 32.9781 10.9642C34.4885 10.9642 35.6635 9.70844 35.6635 8.20226ZM28.4469 8.20226C28.4469 5.44105 30.4603 3.7672 32.7263 3.7672C33.8171 3.7672 34.908 4.2695 35.5794 5.02294V0H37.4258V12.3855H35.5794V11.2139C34.908 12.0508 33.8171 12.5524 32.7263 12.5524C30.5445 12.6366 28.4469 10.8793 28.4469 8.20086V8.20226ZM48.9217 10.713L50.5998 9.8761C51.1035 10.6295 51.7748 11.1318 52.7815 11.1318C53.7889 11.1318 54.3761 10.6295 54.3761 10.0438C54.3761 9.37381 53.3694 9.20685 52.2785 8.9557C50.8516 8.62107 49.3412 8.20226 49.3412 6.44493C49.3412 5.10642 50.5998 3.85068 52.6139 3.85068C54.2084 3.85068 55.3828 4.43646 56.0541 5.52453L54.5438 6.36145C54.1242 5.77568 53.4529 5.35756 52.6146 5.35756C51.6072 5.35756 51.1035 5.85916 51.1035 6.36145C51.1035 6.94723 51.859 7.11489 53.1169 7.44882C54.5438 7.70067 56.1383 8.20226 56.1383 9.96029C56.1383 11.1318 55.1316 12.7215 52.698 12.7215C50.9358 12.6373 49.677 11.9678 48.9217 10.713ZM61.089 8.70455L59.6628 10.2949V12.4704H57.8164V0.0848848H59.6628V8.20156L63.5226 4.01765H65.7044L62.3475 7.61648L65.7885 12.4696H63.691L61.089 8.70385V8.70455ZM22.9926 3.7665C20.8108 3.7665 19.0486 5.1892 19.0486 7.44882V12.3862H20.895V7.69996C20.895 6.27727 21.6498 5.44035 23.0767 5.44035C24.5037 5.44035 25.0901 6.27727 25.0901 7.69926V12.3855H26.9365V7.44882C26.9365 5.1892 25.0901 3.7665 22.9926 3.7665Z" fill="var(--fill-0, white)"/>
</svg>
