<svg preserveAspectRatio="none" width="100%" height="100%" overflow="visible" style="display: block;" viewBox="0 0 12.9105 18.3928" fill="none" xmlns="http://www.w3.org/2000/svg">
<path id="Vector" d="M6.21663 0.0314224C6.14721 0.0591936 5.70287 0.198049 5.24464 0.336905C4.55036 0.531304 4.25876 0.725702 3.50894 1.48941C3.00906 1.98929 2.45363 2.72523 2.27312 3.10014C2.09261 3.48894 1.87044 3.96105 1.75935 4.16933C1.64827 4.36373 1.56495 4.62756 1.56495 4.75253C1.56495 4.86361 1.48164 5.1691 1.37056 5.41904C0.704047 7.002 0.106965 11.8203 0.00976587 16.5136C-0.031891 18.6381 -0.0596626 18.6243 2.60638 18.0966C3.14791 17.9855 4.10602 17.805 4.75865 17.68C5.41127 17.5551 6.38326 17.3746 6.91092 17.2635C7.45245 17.1524 8.41056 16.9719 9.06318 16.8469C9.71581 16.7219 10.6878 16.5275 11.2155 16.4164C11.757 16.3054 12.2985 16.222 12.4374 16.222C12.8817 16.222 12.965 15.6111 12.8817 12.6951C12.6873 5.87727 11.5626 2.21146 9.20204 0.753474C8.49387 0.309134 6.67486 -0.121319 6.21663 0.0314224Z" fill="var(--fill-0, black)"/>
</svg>
