<svg preserveAspectRatio="none" width="100%" height="100%" overflow="visible" style="display: block;" viewBox="0 0 41.8738 15.9093" fill="none" xmlns="http://www.w3.org/2000/svg">
<path id="Vector" d="M7.50038 10.1375C7.50038 9.52319 7.66323 8.91406 8.07865 8.44379C8.45464 8.01808 8.97006 7.75809 9.5009 7.57181C10.662 7.16496 11.7248 7.12896 13.0648 7.13068L13.3065 7.12896V6.89982C13.3065 6.1507 12.8688 5.48386 12.1505 5.22844C11.9117 5.14585 11.6605 5.10449 11.4077 5.10616C10.342 5.10616 9.57919 5.61586 9.43519 6.65412H7.51809C7.7838 4.84216 9.36376 3.55705 11.4071 3.55705C13.6437 3.55705 15.2413 4.80731 15.2413 6.98839V12.5648H13.3065V11.2803C12.9145 12.0717 11.8323 12.7048 10.6243 12.7048C8.70778 12.7048 7.50038 11.5963 7.50038 10.1363V10.1375ZM11.566 8.62321C11.2574 8.65292 10.9494 8.69749 10.6489 8.77292C10.2775 8.8672 9.88318 9.02377 9.64776 9.33862C9.60852 9.39043 9.57481 9.44567 9.54662 9.50433C9.46922 9.67544 9.43115 9.86171 9.43519 10.0495C9.43519 10.806 10.0215 11.2277 10.9437 11.2277C12.3465 11.2277 13.3065 10.2072 13.3065 8.80035V8.5655C13.3065 8.5655 12.7957 8.56321 12.7602 8.56378C12.1351 8.57007 12.1117 8.57807 11.7888 8.60378C11.7146 8.60912 11.6401 8.61578 11.5654 8.62378L11.566 8.62321ZM15.2859 15.8385V14.2196C15.4105 14.2368 15.6053 14.2545 15.783 14.2545C16.5813 14.2545 16.8304 13.6739 16.8304 12.6888V3.69762H18.7664V12.9174C18.7664 14.8362 17.8601 15.9093 15.9962 15.9093C15.7305 15.9093 15.4282 15.8739 15.2865 15.839L15.2859 15.8385ZM16.6356 1.11197C16.6356 0.470273 17.1259 0 17.7887 0C18.4515 0 18.9584 0.470273 18.9584 1.11197C18.9584 1.75424 18.4527 2.22394 17.7887 2.22394C17.1247 2.22394 16.6356 1.75424 16.6356 1.11197ZM31.3758 11.3163V12.566H29.4233V0.10914H31.3758V4.92902C31.8906 4.10218 33.0455 3.55705 34.2877 3.55705C36.9334 3.55705 38.6733 5.36901 38.6733 8.13179C38.6733 10.894 36.9334 12.706 34.2877 12.706C33.0632 12.706 31.8906 12.1425 31.3758 11.3163ZM36.7019 8.13179C36.7019 6.39012 35.5842 5.21187 34.0386 5.21187C32.4923 5.21187 31.3752 6.39012 31.3752 8.13179C31.3752 9.87289 32.4763 11.0517 34.0386 11.0517C35.6008 11.0517 36.7019 9.85518 36.7019 8.13179ZM39.7064 1.11197C39.7064 0.513129 40.1641 0.0748555 40.7835 0.0748555C41.403 0.0748555 41.8738 0.513129 41.8738 1.11197C41.8738 1.71081 41.4018 2.14966 40.7835 2.14966C40.1653 2.14966 39.7064 1.71081 39.7064 1.11197ZM39.887 3.69819H41.8235V12.5654H39.887V3.69819ZM4.88902 3.69762L0 8.12608L4.90159 12.5648H7.50038L4.11361 9.40719L2.75364 8.12665L4.11361 6.84611L7.48953 3.69762H4.88902Z" fill="var(--fill-0, white)" fill-opacity="0.4"/>
</svg>
