<svg preserveAspectRatio="none" width="100%" height="100%" overflow="visible" style="display: block;" viewBox="0 0 10.1022 12.0855" fill="none" xmlns="http://www.w3.org/2000/svg">
<path id="Vector" d="M5.05033 0C2.26126 0 0 2.23417 0 4.98991V8.38318C0.00972285 8.82002 0.19029 9.23671 0.50281 9.54576C0.817648 9.85472 1.23828 10.0323 1.67928 10.0423H3.10853V6.14901H1.17855V5.05866C1.29661 3.00714 3.01478 1.40287 5.09547 1.40287C7.17616 1.40287 8.89988 3.01408 9.0117 5.05936V6.14901H7.05601V10.0423H8.34707V10.1048C8.33318 10.9465 7.64564 11.6258 6.7928 11.6396H5.25103C5.12603 11.6396 4.98713 11.7015 4.98713 11.8258C4.99407 11.9598 5.10797 12.0793 5.25103 12.0855H6.80461C7.33411 12.0829 7.84159 11.8733 8.21859 11.5014C8.59361 11.1306 8.80613 10.6285 8.80891 10.1041V9.98051C9.17553 9.89972 9.50351 9.69603 9.73847 9.40323C9.97342 9.11042 10.1012 8.7461 10.1007 8.37068V5.05241C10.1701 2.24112 7.9144 0 5.04963 0H5.05033Z" fill="var(--fill-0, #1E1E1E)"/>
</svg>
