<svg preserveAspectRatio="none" width="100%" height="100%" overflow="visible" style="display: block;" viewBox="0 0 20.927 23.717" fill="none" xmlns="http://www.w3.org/2000/svg">
<g id="Group">
<path id="Vector" d="M20.927 23.717C20.927 23.717 17.404 22.342 14.554 21.242H2.57C1.152 21.242 0 20.03 0 18.539V2.7C0 1.21 1.152 0 2.57 0H18.358C19.776 0 20.926 1.21 20.926 2.701V16.341L20.927 23.717ZM17.834 14.837C17.7492 14.7292 17.633 14.6505 17.5015 14.6118C17.37 14.5731 17.2296 14.5763 17.1 14.621C17.0144 14.6515 16.9356 14.6984 16.868 14.759C16.846 14.778 14.615 16.746 10.463 16.746C6.363 16.746 4.098 14.792 4.058 14.756C3.99092 14.6946 3.91188 14.6478 3.82584 14.6184C3.73981 14.589 3.64863 14.5778 3.55803 14.5853C3.46743 14.5928 3.37935 14.6189 3.29933 14.6621C3.21931 14.7052 3.14906 14.7644 3.093 14.836C2.97419 14.9834 2.91575 15.1703 2.92949 15.3591C2.94322 15.5479 3.02811 15.7244 3.167 15.853C3.274 15.948 5.811 18.187 10.463 18.187C15.115 18.187 17.653 15.947 17.759 15.853C17.8985 15.725 17.9838 15.5485 17.9975 15.3597C18.0113 15.1709 17.9534 14.9839 17.834 14.837Z" fill="var(--fill-0, #313130)"/>
</g>
</svg>
