<svg preserveAspectRatio="none" width="100%" height="100%" overflow="visible" style="display: block;" viewBox="0 0 24.266 24.239" fill="none" xmlns="http://www.w3.org/2000/svg">
<g id="Group">
<path id="Vector" d="M5.12 15.322C5.1204 15.6567 5.05476 15.9882 4.92685 16.2975C4.79894 16.6069 4.61127 16.8879 4.37459 17.1246C4.13791 17.3613 3.85686 17.5489 3.54755 17.6768C3.23823 17.8048 2.90672 17.8704 2.572 17.87C2.23728 17.8704 1.90577 17.8048 1.59646 17.6768C1.28714 17.5489 1.0061 17.3613 0.769414 17.1246C0.532732 16.8879 0.345062 16.6069 0.217152 16.2975C0.0892433 15.9882 0.0236071 15.6567 0.0240019 15.322C0.0236071 14.9873 0.0892433 14.6558 0.217152 14.3465C0.345062 14.0371 0.532732 13.7561 0.769414 13.5194C1.0061 13.2827 1.28714 13.0951 1.59646 12.9672C1.90577 12.8392 2.23728 12.7736 2.572 12.774H5.12V15.322ZM6.394 15.322C6.39361 14.9874 6.45921 14.6559 6.58706 14.3467C6.7149 14.0374 6.90248 13.7564 7.13906 13.5198C7.37564 13.2831 7.65656 13.0954 7.96576 12.9674C8.27497 12.8395 8.60637 12.7737 8.941 12.774C9.27572 12.7736 9.60723 12.8392 9.91655 12.9672C10.2259 13.0951 10.5069 13.2827 10.7436 13.5194C10.9803 13.7561 11.1679 14.0371 11.2959 14.3465C11.4238 14.6558 11.4894 14.9873 11.489 15.322V21.692C11.4893 22.0266 11.4236 22.3579 11.2957 22.667C11.1678 22.9761 10.9802 23.257 10.7436 23.4936C10.507 23.7302 10.2261 23.9178 9.91701 24.0457C9.60787 24.1736 9.27655 24.2393 8.942 24.239C8.60728 24.2394 8.27577 24.1738 7.96646 24.0458C7.65714 23.9179 7.3761 23.7303 7.13941 23.4936C6.90273 23.2569 6.71506 22.9759 6.58715 22.6665C6.45924 22.3572 6.39361 22.0257 6.394 21.691V15.322ZM8.935 5.095C8.60045 5.09527 8.26913 5.02956 7.96 4.90166C7.65086 4.77375 7.36998 4.58615 7.13342 4.34959C6.89685 4.11303 6.70925 3.83214 6.58134 3.52301C6.45344 3.21387 6.38774 2.88255 6.388 2.548C6.38761 2.21337 6.45321 1.88194 6.58106 1.57269C6.70891 1.26344 6.89648 0.982437 7.13306 0.745767C7.36964 0.509098 7.65056 0.321408 7.95976 0.19344C8.26896 0.0654722 8.60037 -0.000261437 8.935 1.77043e-06C9.26972 -0.000393023 9.60123 0.0652432 9.91055 0.193152C10.2199 0.321061 10.5009 0.50873 10.7376 0.745413C10.9743 0.982095 11.1619 1.26314 11.2899 1.57246C11.4178 1.88177 11.4834 2.21328 11.483 2.548V5.095H8.935ZM8.935 6.388C9.26972 6.38761 9.60123 6.45324 9.91055 6.58115C10.2199 6.70906 10.5009 6.89673 10.7376 7.13341C10.9743 7.37009 11.1619 7.65114 11.2899 7.96046C11.4178 8.26977 11.4834 8.60128 11.483 8.936C11.4834 9.27072 11.4178 9.60223 11.2899 9.91155C11.1619 10.2209 10.9743 10.5019 10.7376 10.7386C10.5009 10.9753 10.2199 11.1629 9.91055 11.2909C9.60123 11.4188 9.26972 11.4844 8.935 11.484H2.548C2.21328 11.4844 1.88177 11.4188 1.57246 11.2909C1.26314 11.1629 0.982096 10.9753 0.745414 10.7386C0.508731 10.5019 0.321062 10.2209 0.193153 9.91155C0.0652441 9.60223 -0.000393023 9.27072 1.77041e-06 8.936C-0.000261437 8.60137 0.0654722 8.26997 0.19344 7.96076C0.321408 7.65156 0.509098 7.37064 0.745767 7.13406C0.982437 6.89748 1.26344 6.7099 1.57269 6.58206C1.88194 6.45421 2.21337 6.38861 2.548 6.389L8.935 6.388ZM19.152 8.936C19.1517 8.60145 19.2174 8.27013 19.3453 7.961C19.4733 7.65186 19.6609 7.37098 19.8974 7.13441C20.134 6.89785 20.4149 6.71025 20.724 6.58235C21.0331 6.45444 21.3645 6.38874 21.699 6.389C22.0336 6.38861 22.3651 6.45421 22.6743 6.58206C22.9836 6.7099 23.2646 6.89748 23.5012 7.13406C23.7379 7.37064 23.9256 7.65156 24.0536 7.96076C24.1815 8.26997 24.2473 8.60137 24.247 8.936C24.2474 9.27072 24.1818 9.60223 24.0539 9.91155C23.9259 10.2209 23.7383 10.5019 23.5016 10.7386C23.2649 10.9753 22.9839 11.1629 22.6745 11.2909C22.3652 11.4188 22.0337 11.4844 21.699 11.484H19.152V8.936ZM17.878 8.936C17.8784 9.27072 17.8128 9.60223 17.6849 9.91155C17.5569 10.2209 17.3693 10.5019 17.1326 10.7386C16.8959 10.9753 16.6149 11.1629 16.3055 11.2909C15.9962 11.4188 15.6647 11.4844 15.33 11.484C14.9953 11.4844 14.6638 11.4188 14.3545 11.2909C14.0451 11.1629 13.7641 10.9753 13.5274 10.7386C13.2907 10.5019 13.1031 10.2209 12.9752 9.91155C12.8472 9.60223 12.7816 9.27072 12.782 8.936V2.548C12.7816 2.21328 12.8472 1.88177 12.9752 1.57246C13.1031 1.26314 13.2907 0.982095 13.5274 0.745413C13.7641 0.50873 14.0451 0.321061 14.3545 0.193152C14.6638 0.0652432 14.9953 -0.000393023 15.33 1.77043e-06C15.6647 -0.000393023 15.9962 0.0652432 16.3055 0.193152C16.6149 0.321061 16.8959 0.50873 17.1326 0.745413C17.3693 0.982095 17.5569 1.26314 17.6849 1.57246C17.8128 1.88177 17.8784 2.21328 17.878 2.548V8.936ZM15.33 19.144C15.6646 19.1436 15.9961 19.2092 16.3053 19.3371C16.6146 19.4649 16.8956 19.6525 17.1322 19.8891C17.3689 20.1256 17.5566 20.4066 17.6846 20.7158C17.8125 21.025 17.8783 21.3564 17.878 21.691C17.8784 22.0257 17.8128 22.3572 17.6849 22.6665C17.5569 22.9759 17.3693 23.2569 17.1326 23.4936C16.8959 23.7303 16.6149 23.9179 16.3055 24.0458C15.9962 24.1738 15.6647 24.2394 15.33 24.239C14.9953 24.2394 14.6638 24.1738 14.3545 24.0458C14.0451 23.9179 13.7641 23.7303 13.5274 23.4936C13.2907 23.2569 13.1031 22.9759 12.9752 22.6665C12.8472 22.3572 12.7816 22.0257 12.782 21.691V19.144H15.33ZM15.33 17.87C14.9953 17.8704 14.6638 17.8048 14.3545 17.6768C14.0451 17.5489 13.7641 17.3613 13.5274 17.1246C13.2907 16.8879 13.1031 16.6069 12.9752 16.2975C12.8472 15.9882 12.7816 15.6567 12.782 15.322C12.7816 14.9873 12.8472 14.6558 12.9752 14.3465C13.1031 14.0371 13.2907 13.7561 13.5274 13.5194C13.7641 13.2827 14.0451 13.0951 14.3545 12.9672C14.6638 12.8392 14.9953 12.7736 15.33 12.774H21.719C22.0536 12.7737 22.385 12.8395 22.6942 12.9674C23.0034 13.0954 23.2844 13.2831 23.5209 13.5198C23.7575 13.7564 23.9451 14.0374 24.0729 14.3467C24.2008 14.6559 24.2664 14.9874 24.266 15.322C24.2664 15.6566 24.2008 15.9881 24.0729 16.2973C23.9451 16.6066 23.7575 16.8876 23.5209 17.1242C23.2844 17.3609 23.0034 17.5486 22.6942 17.6766C22.385 17.8045 22.0536 17.8703 21.719 17.87H15.33Z" fill="var(--fill-0, #313130)"/>
</g>
</svg>
