<svg preserveAspectRatio="none" width="100%" height="100%" overflow="visible" style="display: block;" viewBox="0 0 65.1401 65.1597" fill="none" xmlns="http://www.w3.org/2000/svg">
<g id="Group">
<path id="Vector" d="M32.5929 5.86555C41.2934 5.86555 42.3232 5.90465 45.7513 6.06106C48.9317 6.19793 50.6522 6.73234 51.7993 7.18204C53.3113 7.76859 54.4062 8.47897 55.5402 9.61298C56.6872 10.7535 57.3846 11.8354 57.9711 13.3539C58.4143 14.5009 58.9487 16.228 59.0921 19.4019C59.242 22.8365 59.2876 23.8663 59.2876 32.5668C59.2876 41.2674 59.242 42.2971 59.0921 45.7252C58.9487 48.9056 58.4143 50.6262 57.9711 51.7667C57.3846 53.2852 56.6677 54.3736 55.5402 55.5141C54.4914 56.5948 53.2128 57.4257 51.7993 57.9451C50.6522 58.3883 48.9187 58.9227 45.7513 59.066C42.3167 59.2159 41.2804 59.2551 32.5864 59.2551C23.8923 59.2551 22.8496 59.2159 19.428 59.0595C16.2476 58.9227 14.527 58.3883 13.38 57.9451C11.868 57.3585 10.7731 56.6416 9.63905 55.5141C8.55752 54.4635 7.72663 53.1826 7.2081 51.7667C6.76493 50.6262 6.23051 48.8926 6.08713 45.7252C5.93724 42.2841 5.89162 41.2543 5.89162 32.5603C5.89162 23.8532 5.93724 22.8235 6.08713 19.3954C6.23051 16.215 6.76493 14.5009 7.2081 13.3539C7.79466 11.8354 8.51156 10.747 9.63905 9.61298C10.7861 8.46594 11.868 7.76207 13.38 7.18204C14.527 6.73234 16.2606 6.20444 19.428 6.06106C22.8496 5.90465 23.8858 5.86555 32.5929 5.86555ZM32.5929 0C23.7424 0 22.6345 0.0391036 19.1608 0.195518C15.7001 0.345415 13.3148 0.905901 11.2553 1.70753C9.07201 2.51722 7.09702 3.80419 5.47451 5.47451C3.81412 7.1001 2.52855 9.06851 1.70753 11.2423C0.905901 13.3148 0.345416 15.6806 0.195518 19.1477C0.0391037 22.6345 2.38419e-07 23.7424 2.38419e-07 32.5864C2.38419e-07 41.4303 0.0391037 42.5382 0.195518 46.012C0.345416 49.4791 0.912418 51.8579 1.70753 53.9174C2.55477 56.0681 3.65619 57.8929 5.47451 59.6982C7.29283 61.5035 9.10463 62.631 11.2423 63.4522C13.3148 64.2538 15.6871 64.8208 19.1477 64.9707C22.6215 65.1206 23.7294 65.1597 32.5733 65.1597C41.4173 65.1597 42.5317 65.1206 46.0054 64.9642C49.4661 64.8143 51.8514 64.2538 53.9109 63.4522C56.0485 62.6245 57.8669 61.5035 59.6787 59.6982C61.484 57.8929 62.6049 56.0746 63.4326 53.9304C64.2342 51.8579 64.7947 49.4922 64.9446 46.025C65.101 42.5513 65.1401 41.4433 65.1401 32.5994C65.1401 23.7555 65.101 22.6475 64.9446 19.1738C64.7947 15.7066 64.2342 13.3278 63.4326 11.2684C62.6491 9.07567 61.3739 7.0915 59.7047 5.46799C58.0785 3.81303 56.1099 2.53397 53.937 1.72056C51.8645 0.912418 49.4922 0.351933 46.0315 0.195518C42.5448 0.0391036 41.4368 0 32.5929 0Z" fill="var(--fill-0, #FF5600)"/>
<path id="Vector_2" d="M32.593 15.8501C28.1525 15.8501 23.8939 17.6141 20.754 20.754C17.6141 23.8939 15.8502 28.1525 15.8502 32.593C15.8502 37.0335 17.6141 41.2921 20.754 44.432C23.8939 47.5719 28.1525 49.3359 32.593 49.3359C37.0335 49.3359 41.2921 47.5719 44.432 44.432C47.5719 41.2921 49.3359 37.0335 49.3359 32.593C49.3359 28.1525 47.5719 23.8939 44.432 20.754C41.2921 17.6141 37.0335 15.8501 32.593 15.8501ZM32.593 43.4443C29.7125 43.4443 26.95 42.3 24.9131 40.2631C22.8763 38.2263 21.732 35.4637 21.732 32.5832C21.732 29.7027 22.8763 26.9402 24.9131 24.9033C26.95 22.8665 29.7125 21.7222 32.593 21.7222C35.4736 21.7222 38.2361 22.8665 40.2729 24.9033C42.3098 26.9402 43.4541 29.7027 43.4541 32.5832C43.4541 35.4637 42.3098 38.2263 40.2729 40.2631C38.2361 42.3 35.4736 43.4443 32.593 43.4443ZM53.898 15.1854C53.898 16.2225 53.486 17.2171 52.7527 17.9504C52.0193 18.6837 51.0247 19.0957 49.9876 19.0957C48.9505 19.0957 47.9559 18.6837 47.2226 17.9504C46.4893 17.2171 46.0773 16.2225 46.0773 15.1854C46.0773 14.1483 46.4893 13.1537 47.2226 12.4203C47.9559 11.687 48.9505 11.275 49.9876 11.275C51.0247 11.275 52.0193 11.687 52.7527 12.4203C53.486 13.1537 53.898 14.1483 53.898 15.1854Z" fill="var(--fill-0, #FF5600)"/>
</g>
</svg>
