<svg preserveAspectRatio="none" width="100%" height="100%" overflow="visible" style="display: block;" viewBox="0 0 65.0095 18.2828" fill="none" xmlns="http://www.w3.org/2000/svg">
<path id="Vector" d="M10.9155 0.0670326L0 5.1208L2.72029 15.466L4.79437 15.1946L4.21671 8.68215L4.89664 8.37704L6.0868 15.0249L9.62358 14.6181L8.97793 7.46113L9.65787 7.15602L10.9492 14.4484L14.5202 14.0079L13.8403 6.13841L14.5202 5.8333L15.9486 13.8382L19.4854 13.3971V2.20396L10.9155 0.0670326ZM11.188 15.7374L11.3577 16.755L19.4849 18.112V14.7198L11.188 15.7374ZM27.1704 13.6348V15.0249H28.9045C28.9045 15.2961 28.8365 15.5675 28.7005 15.8391C28.5645 16.0768 28.3262 16.2802 28.0885 16.4162C27.7774 16.5514 27.4416 16.6206 27.1024 16.6196C26.7281 16.6196 26.3196 16.5179 26.0139 16.3139C25.7082 16.0768 25.4357 15.7711 25.2997 15.4323C25.13 14.9912 25.0277 14.4827 25.062 14.0079C25.062 13.5331 25.13 13.0577 25.334 12.5829C25.47 12.2098 25.7419 11.9047 26.0482 11.7013C26.3539 11.4979 26.7624 11.3956 27.1361 11.3956C27.34 11.3956 27.544 11.4299 27.7143 11.4641C27.8846 11.5316 28.0543 11.5996 28.1902 11.7013C28.3262 11.803 28.4622 11.9384 28.5302 12.0744C28.6325 12.2098 28.7005 12.3795 28.7342 12.5486H30.6049C30.5363 12.1418 30.4346 11.7693 30.2306 11.4299C30.0257 11.0907 29.7606 10.7917 29.4484 10.5477C29.1084 10.2768 28.7342 10.1071 28.3605 9.97116C27.9311 9.83767 27.4841 9.76911 27.0344 9.76775C26.4898 9.76775 25.9802 9.86945 25.47 10.0392C24.9996 10.2377 24.5723 10.5256 24.2118 10.8871C23.8376 11.2602 23.5662 11.735 23.3616 12.2441C23.1589 12.8217 23.0553 13.4294 23.0553 14.0416C23.0553 14.9232 23.2256 15.67 23.5656 16.3139C23.8718 16.9247 24.3815 17.4338 24.9597 17.7726C26.1842 18.4171 27.68 18.4509 28.9387 17.8743C29.4833 17.6078 29.9338 17.182 30.2306 16.6533C30.5369 16.1105 30.7066 15.5003 30.7066 14.7541V13.6685L27.1704 13.6348ZM50.9399 18.112V9.80146H56.653V11.3282H52.81V13.1937H55.9045V14.7198H52.81V16.5853H56.653V18.112H50.9399ZM62.2296 12.2441C62.2296 11.9384 62.0599 11.7013 61.8554 11.4979C61.6177 11.3282 61.3114 11.2265 60.9035 11.2265C60.6652 11.2265 60.4275 11.2602 60.2235 11.3282C60.0616 11.3899 59.9201 11.4955 59.815 11.6333C59.7133 11.7687 59.679 11.9047 59.679 12.0744C59.679 12.2098 59.7133 12.3115 59.7813 12.4475C59.8493 12.5492 59.9516 12.6509 60.0533 12.7189L60.4612 12.9223C60.6315 12.9903 60.8012 13.024 60.9715 13.0577L61.7194 13.2274C62.0936 13.2954 62.4336 13.4308 62.7736 13.5668C63.0798 13.7022 63.3518 13.8719 63.5558 14.0753C63.7599 14.2787 63.93 14.5162 64.066 14.7878C64.202 15.0929 64.2357 15.3986 64.2357 15.7037C64.2357 16.1779 64.0997 16.6533 63.862 17.0264C63.59 17.3995 63.1821 17.7046 62.7398 17.9081C62.1723 18.1106 61.5741 18.214 60.9715 18.2137C60.3578 18.2144 59.7485 18.1111 59.1694 17.9081C58.6928 17.7046 58.2849 17.3995 57.9792 16.9584C57.7072 16.5516 57.5369 16.0088 57.5369 15.3986H59.339C59.339 15.9071 59.6453 16.3139 60.1213 16.4842C60.3932 16.5853 60.6652 16.6196 60.9372 16.6196C61.1754 16.6196 61.4474 16.5853 61.6857 16.4836C61.8896 16.4162 62.0256 16.3139 62.1616 16.1448C62.2639 16.0088 62.3319 15.8391 62.3319 15.6363C62.3319 15.466 62.2639 15.3306 62.1616 15.1946C62.0368 15.0635 61.8862 14.9597 61.7194 14.8895C61.4817 14.7878 61.2097 14.7198 60.9715 14.6518L60.0875 14.4484C59.3733 14.2787 58.8294 14.0079 58.3871 13.6348C57.9792 13.2617 57.7752 12.7863 57.7752 12.1418C57.7752 11.6676 57.9112 11.1922 58.1832 10.8191C58.4889 10.4123 58.8631 10.1071 59.339 9.93745C59.8493 9.69976 60.4275 9.59805 61.0057 9.59805C61.584 9.59805 62.1279 9.69976 62.6718 9.93745C63.1033 10.1344 63.4776 10.4378 63.7597 10.8191C64.0317 11.2263 64.1677 11.6672 64.1677 12.1418L62.2296 12.2441ZM49.6138 18.112H47.7437V11.803H47.5391L45.6696 18.1457H43.7995L41.9625 11.8035H41.7243V18.1457H39.8542V9.80146H43.0167L44.6148 15.3986H44.8188L46.4169 9.80146H49.5795V18.112H49.6138ZM36.9294 18.112H38.9703L36.182 9.80146H33.6308L30.8083 18.112H32.8481L33.3926 16.2802H36.4191L36.9294 18.112ZM33.768 14.8547L34.6862 11.8024H35.0261L35.9443 14.8552L33.768 14.8547ZM64.5762 10.6837C64.4889 10.6841 64.4034 10.6585 64.3306 10.6102C64.2579 10.5618 64.2012 10.4929 64.1677 10.4123C64.1333 10.3017 64.1333 10.1834 64.1677 10.0729C64.193 10.0217 64.2277 9.97581 64.27 9.93745C64.3042 9.90316 64.3722 9.86945 64.406 9.83574C64.5082 9.80146 64.6442 9.80146 64.7459 9.83574C64.8139 9.87002 64.8482 9.90316 64.8819 9.93745C64.9162 9.97173 64.9499 10.0392 64.9842 10.0729C65.0179 10.1746 65.0179 10.3106 64.9842 10.4123C64.9588 10.4634 64.9241 10.5093 64.8819 10.5477C64.8482 10.582 64.7802 10.6162 64.7459 10.6494C64.7122 10.6837 64.6442 10.6837 64.5762 10.6837ZM64.5762 10.5477C64.6442 10.5477 64.6779 10.5477 64.7459 10.514C64.7802 10.4797 64.8482 10.446 64.8482 10.4123C64.9162 10.3106 64.9162 10.1746 64.8482 10.1071L64.7459 10.0054C64.6955 9.97214 64.6364 9.95439 64.5759 9.95439C64.5155 9.95439 64.4564 9.97214 64.406 10.0054L64.3043 10.1071C64.2357 10.2088 64.2357 10.3443 64.3043 10.4123L64.406 10.514C64.4739 10.5482 64.5419 10.5477 64.5762 10.5477ZM64.4402 10.4465V10.0397H64.7122C64.7459 10.0397 64.7459 10.074 64.7802 10.074C64.7802 10.1077 64.8139 10.1077 64.8139 10.1414C64.8139 10.1757 64.8139 10.2094 64.7802 10.2094C64.7802 10.2437 64.7459 10.2437 64.7122 10.2437H64.5082V10.2094H64.6442V10.1414H64.5419V10.4808H64.4402V10.4465ZM64.7122 10.2437L64.8139 10.4465H64.6779L64.6099 10.2431L64.7122 10.2437ZM31.2511 0.135597H33.1555V8.4456H31.2511V0.135597ZM42.0985 4.30717C42.0985 5.22307 41.9283 6.00299 41.5883 6.61379C41.2826 7.22458 40.7724 7.73367 40.1599 8.0725C39.5439 8.40625 38.8544 8.58104 38.1538 8.58104C37.4532 8.58104 36.7637 8.40625 36.1477 8.0725C35.5352 7.7331 35.0593 7.22458 34.7193 6.61379C34.3793 5.96928 34.2091 5.18936 34.2091 4.30717C34.2091 3.39145 34.3791 2.61134 34.7193 1.96684C35.0593 1.35661 35.5352 0.847524 36.1134 0.508701C36.7295 0.174849 37.4191 0 38.1198 0C38.8205 0 39.5101 0.174849 40.1262 0.508701C40.7381 0.847524 41.2146 1.35661 41.5546 1.96684C41.8946 2.61134 42.0648 3.39126 42.0985 4.30717ZM40.1604 4.30717C40.1604 3.79865 40.0919 3.32384 39.9222 2.88274C39.7862 2.50964 39.5479 2.20453 39.208 2.00112C38.8862 1.80175 38.5152 1.69613 38.1367 1.69613C37.7581 1.69613 37.3871 1.80175 37.0653 2.00112C36.7597 2.20453 36.4877 2.50964 36.3511 2.88274C36.0117 3.80222 36.0117 4.81268 36.3511 5.73217C36.4877 6.10527 36.7259 6.41038 37.0653 6.61379C37.3871 6.81315 37.7581 6.91878 38.1367 6.91878C38.5152 6.91878 38.8862 6.81315 39.208 6.61379C39.5142 6.41038 39.7519 6.07099 39.9222 5.73217C40.0925 5.29107 40.1604 4.81626 40.1604 4.30717ZM27.2715 5.5619L28.2577 8.47874H30.3317L29.2439 5.35849H27.7817L27.68 5.08709C27.952 5.0191 28.4279 4.9511 28.8696 4.64599C29.1645 4.44839 29.4059 4.18079 29.5721 3.86711C29.7383 3.55343 29.8242 3.20345 29.8221 2.84846C29.8221 2.33994 29.7198 1.86456 29.4478 1.45775C29.205 1.05062 28.8512 0.721046 28.4279 0.507559C27.9177 0.27044 27.3738 0.168736 26.7955 0.168736H23.4633V8.47817H25.3334V5.56133L27.2715 5.5619ZM27.2372 3.83179C26.9758 3.92637 26.6993 3.97245 26.4213 3.96777H25.3345V1.66115H26.4224C26.6944 1.66115 26.9669 1.69544 27.2389 1.79657C27.4429 1.86513 27.6126 2.03426 27.7149 2.20396C27.8509 2.40736 27.8851 2.61077 27.8851 2.84846C27.8851 3.05187 27.8509 3.28899 27.7149 3.45868C27.6053 3.63538 27.4367 3.76756 27.2389 3.83179M42.2699 0.135025V1.66058H45.5005L45.6022 1.93255C45.3302 1.99998 44.8537 2.06797 44.4463 2.33937V8.44503H46.3164V1.66115H48.4927V0.135025H42.2699Z" fill="var(--fill-0, white)" fill-opacity="0.4"/>
</svg>
