<svg preserveAspectRatio="none" width="100%" height="100%" overflow="visible" style="display: block;" viewBox="0 0 54.443 13.696" fill="none" xmlns="http://www.w3.org/2000/svg">
<path id="Vector" d="M2.862 5.648H2.165V0.0480042H4.214C5.35 0.0480042 6.101 0.720005 6.101 1.76801C6.101 2.81601 5.35 3.496 4.213 3.496H2.862V5.648ZM2.862 0.688004V2.856H4.149C4.902 2.856 5.389 2.43201 5.389 1.76801C5.389 1.10401 4.909 0.688004 4.157 0.688004H2.862ZM9.607 5.696C8.223 5.696 7.303 4.592 7.303 2.848C7.303 1.104 8.223 0 9.607 0C10.999 0 11.927 1.112 11.927 2.848C11.927 4.584 10.999 5.696 9.607 5.696ZM9.607 5.056C10.607 5.056 11.215 4.24 11.215 2.848C11.215 1.456 10.607 0.639999 9.607 0.639999C8.623 0.639999 8.015 1.44 8.015 2.848C8.015 4.256 8.623 5.056 9.607 5.056ZM14.59 5.648H13.774L12.846 0.0480042H13.51L14.238 4.752L15.07 1.48H15.726L16.534 4.752L17.262 0.0480042H17.926L16.982 5.648H16.174L15.382 2.472L14.59 5.648ZM22.746 5.648H19.194V0.0480042H22.642V0.688004H19.89V2.48H22.202V3.12H19.89V5.008H22.746V5.648ZM24.806 5.648H24.109V0.0480042H26.109C27.245 0.0480042 28.005 0.720005 28.005 1.76801C28.005 2.55201 27.517 3.16 26.781 3.36L28.062 5.648H27.278L26.07 3.496H24.806V5.648ZM24.806 0.688004V2.856H26.053C26.805 2.856 27.293 2.42401 27.293 1.76801C27.293 1.11201 26.805 0.688004 26.061 0.688004H24.806ZM33.076 5.648H29.525V0.0480042H32.973V0.688004H30.221V2.48H32.532V3.12H30.22V5.008H33.076V5.648ZM36.184 5.648H34.442V0.0480042H36.186C37.85 0.0480042 38.746 1.168 38.746 2.848C38.746 4.52 37.85 5.648 36.186 5.648M35.139 0.688004V5.008H36.186C37.459 5.008 38.035 4.152 38.035 2.848C38.035 1.536 37.458 0.688004 36.186 0.688004H35.139ZM45.222 5.648H43.326V0.0480042H45.166C46.374 0.0480042 47.006 0.624 47.006 1.528C47.006 2.16 46.646 2.56 46.102 2.744C46.71 2.856 47.246 3.24 47.246 4.048C47.246 5.04 46.574 5.648 45.222 5.648ZM44.022 0.68V2.48H45.198C45.934 2.48 46.31 2.144 46.31 1.576C46.31 1.016 45.942 0.68 45.198 0.68H44.022ZM44.022 3.104V5.016H45.222C46.11 5.016 46.534 4.656 46.534 4.08C46.534 3.448 46.07 3.104 45.222 3.104H44.022ZM50.569 5.648H49.873V3.576L47.809 0.0480042H48.617L50.225 2.816L51.849 0.0480042H52.617L50.569 3.576V5.648ZM0.696 13.648H0V8.048H3.44V8.688H0.696V10.56H3.016V11.2H0.696V13.648ZM7.752 8.048V8.624H6.528V13.072H7.752V13.648H4.6V13.072H5.832V8.624H4.6V8.048H7.752ZM9.987 13.648H9.315V8.048H9.987L12.667 12.352V8.048H13.332V13.648H12.667L9.987 9.33601V13.648ZM18.379 13.648H17.667L19.651 8.048H20.507L22.499 13.648H21.755L21.219 12.136H18.923L18.379 13.648ZM20.059 8.80801L19.123 11.504H21.011L20.059 8.80801ZM24.415 13.648H23.719V8.048H25.767C26.903 8.048 27.655 8.72001 27.655 9.76801C27.655 10.816 26.903 11.496 25.767 11.496H24.415V13.648ZM24.415 8.688V10.856H25.703C26.455 10.856 26.943 10.432 26.943 9.76801C26.943 9.10401 26.463 8.688 25.711 8.688H24.415ZM32.624 13.648H29.072V8.048H32.52V8.688H29.768V10.48H32.08V11.12H29.768V13.008H32.624V13.648ZM34.331 13.648H33.523L35.451 10.776L33.643 8.048H34.459L35.899 10.216L37.339 8.048H38.139L36.332 10.728L38.259 13.648H37.435L35.875 11.296L34.331 13.648ZM44.896 8.048V13.024H46.312V13.648H42.76V13.024H44.232V9.72C44.1441 9.77701 44.0406 9.80499 43.936 9.8H42.776V9.2H43.864C44.112 9.2 44.24 8.992 44.24 8.72V8.048H44.896ZM48.441 13.696C48.161 13.696 47.953 13.504 47.953 13.216C47.9505 13.1512 47.9614 13.0867 47.985 13.0263C48.0086 12.9659 48.0445 12.9111 48.0903 12.8653C48.1361 12.8195 48.1909 12.7836 48.2513 12.76C48.3116 12.7364 48.3762 12.7255 48.441 12.728C48.721 12.728 48.937 12.928 48.937 13.216C48.937 13.504 48.721 13.696 48.441 13.696ZM52.459 8C53.683 8 54.443 9.016 54.443 10.72V10.976C54.443 12.68 53.683 13.696 52.459 13.696C51.235 13.696 50.475 12.68 50.475 10.976V10.72C50.475 9.016 51.235 8 52.459 8ZM51.139 10.744V10.952C51.139 11.2653 51.163 11.5427 51.211 11.784L53.491 9.272C53.267 8.832 52.915 8.60001 52.459 8.60001C51.627 8.60001 51.139 9.384 51.139 10.744ZM53.779 10.952V10.744C53.779 10.432 53.755 10.152 53.707 9.904L51.427 12.432C51.659 12.856 52.011 13.088 52.459 13.088C53.291 13.088 53.779 12.312 53.779 10.952Z" fill="var(--fill-0, #020917)"/>
</svg>
