<svg preserveAspectRatio="none" width="100%" height="100%" overflow="visible" style="display: block;" viewBox="0 0 53.8222 21.6462" fill="none" xmlns="http://www.w3.org/2000/svg">
<g id="Group">
<path id="Vector" d="M26.1166 13.8752C25.8203 14.1586 25.4766 14.3954 25.0862 14.5609C24.7077 14.7255 24.2816 14.8078 23.8309 14.8078C23.5938 14.8078 23.3685 14.7843 23.1552 14.7374C22.9405 14.6893 22.7306 14.622 22.528 14.5362C22.3311 14.4438 22.1411 14.3375 21.9593 14.2181C21.7843 14.0918 21.6217 13.9492 21.4738 13.792L27.0766 11.6306L29.4574 10.709C29.3343 9.89426 29.0351 9.11611 28.5806 8.4288C28.0603 7.64606 27.3542 7.00447 26.5253 6.5614C25.6965 6.11832 24.7707 5.88759 23.8309 5.88983C20.6921 5.88983 18.133 8.44069 18.133 11.5712C18.133 11.8665 18.1568 12.1509 18.2043 12.4343C18.3351 13.2608 18.6304 14.0407 19.0811 14.7136C19.5993 15.4809 20.2937 16.113 21.1063 16.5568C21.5086 16.7808 21.9474 16.9591 22.4091 17.0761C22.8709 17.195 23.3454 17.2535 23.8427 17.2535C24.6037 17.2568 25.3573 17.1043 26.0571 16.8055C26.7336 16.5192 27.3489 16.1061 27.8702 15.5886C28.3917 15.0722 28.8062 14.4579 29.0898 13.781C29.2087 13.4976 29.3029 13.1904 29.3742 12.8832H26.7922C26.6404 13.2583 26.41 13.5966 26.1166 13.8752ZM23.8427 8.32274C24.7662 8.32274 25.6073 8.72503 26.1998 9.33851L20.597 11.5008C20.6177 10.6527 20.9684 9.84622 21.5746 9.25272C22.1807 8.65923 22.9944 8.32559 23.8427 8.32274ZM15.8071 12.5184L15.7952 0H13.3175L13.3285 12.459C13.3285 15.0885 15.0839 16.9573 17.6439 17.1474V14.6962C16.565 14.5179 15.8071 13.6603 15.8071 12.5184ZM42.016 11.3701C41.8953 8.34651 39.3582 5.91177 36.2432 5.91177C33.0569 5.91177 30.4585 8.46446 30.4585 11.595C30.4585 14.7255 33.0569 17.2773 36.2432 17.2773C37.4246 17.2794 38.5784 16.9205 39.5502 16.2487V17.1703H42.0398L42.016 11.3938V11.3701ZM36.2432 14.8434C34.4274 14.8434 32.9481 13.3897 32.9481 11.6069C32.9481 9.82309 34.4274 8.37029 36.2432 8.37029C38.059 8.37029 39.5383 9.82309 39.5383 11.6069C39.5383 13.3897 38.0599 14.8434 36.2432 14.8434ZM48.5074 5.84777C47.0968 5.84947 45.7446 6.41121 44.748 7.40953C43.7514 8.40785 43.192 9.76104 43.1927 11.1717V17.2005H45.7198V11.168C45.7193 10.4346 46.0101 9.73094 46.5282 9.21181C47.0463 8.69267 47.7493 8.40051 48.4827 8.39954H48.5321C48.8954 8.39978 49.2551 8.47159 49.5906 8.61086C49.9261 8.75013 50.2309 8.95413 50.4876 9.21122C50.7442 9.46831 50.9477 9.77344 51.0864 10.1092C51.2252 10.4449 51.2964 10.8047 51.296 11.168V17.2005H53.8222V11.1707C53.8229 9.76012 53.2635 8.40693 52.2669 7.40861C51.2703 6.4103 49.9181 5.84947 48.5074 5.84777Z" fill="var(--fill-0, white)" fill-opacity="0.4"/>
<path id="Vector_2" fill-rule="evenodd" clip-rule="evenodd" d="M8.12617 6.38629L9.74537 4.31086L11.7111 5.84777L10.1029 7.90857C10.9639 8.93778 11.4346 10.2375 11.4322 11.5794C11.4322 14.7429 8.87223 17.3056 5.71612 17.3056C2.56 17.3056 6.75002e-07 14.7419 6.75002e-07 11.5794C-0.000466105 10.6184 0.241166 9.67281 0.702592 8.82984C1.16402 7.98687 1.83037 7.27372 2.64013 6.75623C3.44989 6.23874 4.37697 5.93358 5.33579 5.86893C6.29461 5.80427 7.25426 5.9822 8.12617 6.38629ZM5.71612 14.8462C5.28748 14.8458 4.86311 14.761 4.46725 14.5967C4.07138 14.4323 3.71176 14.1916 3.40892 13.8882C3.10609 13.5849 2.86596 13.2249 2.70227 12.8287C2.53857 12.4326 2.4545 12.0081 2.45486 11.5794C2.4545 11.1508 2.53857 10.7263 2.70227 10.3301C2.86596 9.934 3.10609 9.57397 3.40892 9.27063C3.71176 8.96728 4.07138 8.72656 4.46725 8.56219C4.86311 8.39783 5.28748 8.31305 5.71612 8.31269C6.14475 8.31305 6.56912 8.39783 6.96499 8.56219C7.36085 8.72656 7.72047 8.96728 8.02331 9.27063C8.32614 9.57397 8.56627 9.934 8.72996 10.3301C8.89366 10.7263 8.97773 11.1508 8.97737 11.5794C8.97773 12.0081 8.89366 12.4326 8.72996 12.8287C8.56627 13.2249 8.32614 13.5849 8.02331 13.8882C7.72047 14.1916 7.36085 14.4323 6.96499 14.5967C6.56912 14.761 6.14475 14.8458 5.71612 14.8462ZM11.4981 16.4782C11.214 16.8133 10.902 17.1238 10.5655 17.4062C10.3979 17.547 10.2235 17.6802 10.0425 17.8057C9.68297 18.0583 9.30139 18.278 8.9024 18.4622C8.70361 18.5551 8.50074 18.639 8.2944 18.7136C8.08808 18.7885 7.8785 18.8541 7.66629 18.9102C7.45539 18.9675 7.24145 19.0147 7.02446 19.0519C6.1584 19.2022 5.27292 19.2022 4.40686 19.0519C4.19063 19.0157 3.9764 18.9684 3.76503 18.9102L3.12411 21.3074C3.40328 21.383 3.68732 21.4461 3.97623 21.4967C4.26088 21.5467 4.5501 21.5838 4.84389 21.6082C6.89102 21.7865 8.94363 21.3334 10.7255 20.3099C10.9778 20.1637 11.2235 20.0064 11.4624 19.8382C11.7019 19.6712 11.9336 19.4941 12.1573 19.307C12.3816 19.1198 12.597 18.923 12.8037 18.7163C13.2172 18.3043 13.5941 17.8571 13.9301 17.3797L11.9013 15.9552C11.7751 16.1355 11.64 16.31 11.4981 16.4782Z" fill="var(--fill-0, white)" fill-opacity="0.4"/>
</g>
</svg>
