<svg preserveAspectRatio="none" width="100%" height="100%" overflow="visible" style="display: block;" viewBox="0 0 10.9036 10.9069" fill="none" xmlns="http://www.w3.org/2000/svg">
<g id="Group">
<path id="Vector" d="M5.45564 0.981818C6.912 0.981818 7.08436 0.988364 7.65818 1.01455C8.19055 1.03745 8.47855 1.12691 8.67055 1.20218C8.92364 1.30036 9.10691 1.41927 9.29673 1.60909C9.48873 1.8 9.60545 1.98109 9.70364 2.23527C9.77782 2.42727 9.86727 2.71636 9.89127 3.24764C9.91636 3.82255 9.924 3.99491 9.924 5.45127C9.924 6.90764 9.91636 7.08 9.89127 7.65382C9.86727 8.18618 9.77782 8.47418 9.70364 8.66509C9.60545 8.91927 9.48545 9.10145 9.29673 9.29236C9.12117 9.47326 8.90716 9.61233 8.67055 9.69927C8.47855 9.77345 8.18836 9.86291 7.65818 9.88691C7.08327 9.912 6.90982 9.91855 5.45455 9.91855C3.99927 9.91855 3.82473 9.912 3.252 9.88582C2.71964 9.86291 2.43164 9.77345 2.23964 9.69927C1.98655 9.60109 1.80327 9.48109 1.61345 9.29236C1.43242 9.11649 1.29334 8.90209 1.20655 8.66509C1.13236 8.47418 1.04291 8.184 1.01891 7.65382C0.993818 7.07782 0.986182 6.90545 0.986182 5.45018C0.986182 3.99273 0.993818 3.82036 1.01891 3.24655C1.04291 2.71418 1.13236 2.42727 1.20655 2.23527C1.30473 1.98109 1.42473 1.79891 1.61345 1.60909C1.80545 1.41709 1.98655 1.29927 2.23964 1.20218C2.43164 1.12691 2.72182 1.03855 3.252 1.01455C3.82473 0.988364 3.99818 0.981818 5.45564 0.981818ZM5.45564 0C3.97418 0 3.78873 0.00654545 3.20727 0.0327273C2.628 0.0578182 2.22873 0.151636 1.884 0.285818C1.51854 0.421351 1.18795 0.636774 0.916364 0.916364C0.638436 1.18847 0.423247 1.51795 0.285818 1.88182C0.151636 2.22873 0.0578182 2.62473 0.0327272 3.20509C0.00654542 3.78873 0 3.97418 0 5.45455C0 6.93491 0.00654542 7.12036 0.0327272 7.70182C0.0578182 8.28218 0.152727 8.68036 0.285818 9.02509C0.427636 9.38509 0.612 9.69055 0.916364 9.99273C1.22073 10.2949 1.524 10.4836 1.88182 10.6211C2.22873 10.7553 2.62582 10.8502 3.20509 10.8753C3.78655 10.9004 3.972 10.9069 5.45236 10.9069C6.93273 10.9069 7.11927 10.9004 7.70073 10.8742C8.28 10.8491 8.67927 10.7553 9.024 10.6211C9.38182 10.4825 9.68618 10.2949 9.98945 9.99273C10.2916 9.69055 10.4793 9.38618 10.6178 9.02727C10.752 8.68036 10.8458 8.28436 10.8709 7.704C10.8971 7.12255 10.9036 6.93709 10.9036 5.45673C10.9036 3.97636 10.8971 3.79091 10.8709 3.20945C10.8458 2.62909 10.752 2.23091 10.6178 1.88618C10.4867 1.51915 10.2732 1.18703 9.99382 0.915273C9.72161 0.638253 9.39209 0.424155 9.02836 0.288C8.68145 0.152727 8.28436 0.0589091 7.70509 0.0327273C7.12145 0.00654545 6.936 0 5.45564 0Z" fill="var(--fill-0, white)"/>
<path id="Vector_2" d="M5.45564 2.65309C4.71235 2.65309 3.99952 2.94836 3.47394 3.47394C2.94836 3.99952 2.65309 4.71236 2.65309 5.45564C2.65309 6.19892 2.94836 6.91176 3.47394 7.43734C3.99952 7.96291 4.71235 8.25818 5.45564 8.25818C6.19892 8.25818 6.91176 7.96291 7.43734 7.43734C7.96291 6.91176 8.25818 6.19892 8.25818 5.45564C8.25818 4.71236 7.96291 3.99952 7.43734 3.47394C6.91176 2.94836 6.19892 2.65309 5.45564 2.65309ZM5.45564 7.272C4.97347 7.272 4.51106 7.08046 4.17012 6.73952C3.82918 6.39858 3.63764 5.93616 3.63764 5.454C3.63764 4.97184 3.82918 4.50942 4.17012 4.16848C4.51106 3.82754 4.97347 3.636 5.45564 3.636C5.9378 3.636 6.40022 3.82754 6.74116 4.16848C7.0821 4.50942 7.27364 4.97184 7.27364 5.454C7.27364 5.93616 7.0821 6.39858 6.74116 6.73952C6.40022 7.08046 5.9378 7.272 5.45564 7.272ZM9.02182 2.54182C9.02182 2.71541 8.95286 2.8819 8.83011 3.00465C8.70736 3.1274 8.54087 3.19636 8.36727 3.19636C8.19368 3.19636 8.02719 3.1274 7.90444 3.00465C7.78169 2.8819 7.71273 2.71541 7.71273 2.54182C7.71273 2.36822 7.78169 2.20174 7.90444 2.07898C8.02719 1.95623 8.19368 1.88727 8.36727 1.88727C8.54087 1.88727 8.70736 1.95623 8.83011 2.07898C8.95286 2.20174 9.02182 2.36822 9.02182 2.54182Z" fill="var(--fill-0, white)"/>
</g>
</svg>
