<svg preserveAspectRatio="none" width="100%" height="100%" overflow="visible" style="display: block;" viewBox="0 0 12.5 12.5" fill="none" xmlns="http://www.w3.org/2000/svg">
<path id="Vector" d="M12.5 2.75C12.5 3.11113 12.4289 3.46873 12.2907 3.80238C12.1525 4.13602 11.9499 4.43918 11.6945 4.69454C11.4392 4.9499 11.136 5.15247 10.8024 5.29067C10.4687 5.42887 10.1111 5.5 9.75 5.5C9.38886 5.5 9.03127 5.42887 8.69762 5.29067C8.36398 5.15247 8.06082 4.9499 7.80546 4.69454C7.5501 4.43918 7.34753 4.13602 7.20933 3.80238C7.07113 3.46873 7 3.11113 7 2.75C7 2.02065 7.28973 1.32118 7.80546 0.805456C8.32118 0.289731 9.02065 0 9.75 0C10.4793 0 11.1788 0.289731 11.6945 0.805456C12.2103 1.32118 12.5 2.02065 12.5 2.75ZM2.75 12.5C3.47935 12.5 4.17882 12.2103 4.69454 11.6945C5.21027 11.1788 5.5 10.4793 5.5 9.75C5.5 9.02065 5.21027 8.32118 4.69454 7.80546C4.17882 7.28973 3.47935 7 2.75 7C2.02065 7 1.32118 7.28973 0.805456 7.80546C0.289731 8.32118 0 9.02065 0 9.75C0 10.4793 0.289731 11.1788 0.805456 11.6945C1.32118 12.2103 2.02065 12.5 2.75 12.5ZM8.25 7.25C7.98478 7.25 7.73043 7.35536 7.54289 7.54289C7.35536 7.73043 7.25 7.98478 7.25 8.25V11.25C7.25 11.5152 7.35536 11.7696 7.54289 11.9571C7.73043 12.1446 7.98478 12.25 8.25 12.25H11.25C11.5152 12.25 11.7696 12.1446 11.9571 11.9571C12.1446 11.7696 12.25 11.5152 12.25 11.25V8.25C12.25 7.98478 12.1446 7.73043 11.9571 7.54289C11.7696 7.35536 11.5152 7.25 11.25 7.25H8.25ZM1.25 0.25C0.984784 0.25 0.73043 0.355357 0.542893 0.542893C0.355357 0.73043 0.25 0.984784 0.25 1.25V4.25C0.25 4.51522 0.355357 4.76957 0.542893 4.95711C0.73043 5.14464 0.984784 5.25 1.25 5.25H4.25C4.51522 5.25 4.76957 5.14464 4.95711 4.95711C5.14464 4.76957 5.25 4.51522 5.25 4.25V1.25C5.25 0.984784 5.14464 0.73043 4.95711 0.542893C4.76957 0.355357 4.51522 0.25 4.25 0.25H1.25Z" fill="var(--fill-0, white)"/>
</svg>
