<svg preserveAspectRatio="none" width="100%" height="100%" overflow="visible" style="display: block;" viewBox="0 0 25.268 25.267" fill="none" xmlns="http://www.w3.org/2000/svg">
<path id="Vector" d="M12.635 0C19.612 0 25.268 5.657 25.268 12.634C25.268 19.611 19.612 25.267 12.635 25.267C5.658 25.267 0 19.611 0 12.634C0 5.657 5.657 0.0010004 12.634 0.0010004M9.149 6.571C9.02741 6.4513 8.86362 6.38421 8.693 6.38421C8.52238 6.38421 8.35859 6.4513 8.237 6.571L6.939 7.87C6.72373 8.08627 6.56498 8.35218 6.47674 8.64428C6.38849 8.93639 6.37347 9.24572 6.433 9.545C6.86964 11.8357 7.98654 13.9416 9.638 15.588L9.656 15.607C11.3023 17.2588 13.4082 18.3761 15.699 18.813C15.9987 18.871 16.308 18.8551 16.6002 18.7668C16.8924 18.6785 17.1586 18.5203 17.376 18.306L18.675 17.007C18.7947 16.8854 18.8618 16.7216 18.8618 16.551C18.8618 16.3804 18.7947 16.2166 18.675 16.095L16.326 13.747C16.2044 13.6273 16.0406 13.5602 15.87 13.5602C15.6994 13.5602 15.5356 13.6273 15.414 13.747L14.226 14.935C14.1272 15.0365 13.9975 15.1024 13.8573 15.1223C13.717 15.1422 13.5741 15.115 13.451 15.045C12.7762 14.6602 12.154 14.1896 11.6 13.645C11.0499 13.0954 10.5787 12.4722 10.2 11.793C10.1337 11.6692 10.1087 11.5275 10.1284 11.3885C10.1482 11.2495 10.2118 11.1204 10.31 11.02L11.499 9.832C11.6187 9.71041 11.6858 9.54663 11.6858 9.376C11.6858 9.20538 11.6187 9.04159 11.499 8.92L9.149 6.571Z" fill="var(--fill-0, #313130)"/>
</svg>
