<svg preserveAspectRatio="none" width="100%" height="100%" overflow="visible" style="display: block;" viewBox="0 0 115.341 20" fill="none" xmlns="http://www.w3.org/2000/svg">
<path id="Vector" d="M45.2267 4.95201C46.6507 4.95201 47.8969 5.25867 48.9653 5.87201C50.0321 6.48119 50.8939 7.39356 51.4413 8.49334C52.0307 9.62045 52.3253 10.9458 52.3253 12.4693C52.3253 13.9929 52.0302 15.3227 51.44 16.4587C50.8935 17.5586 50.0327 18.4714 48.9667 19.0813C47.8956 19.6947 46.6489 20.0009 45.2267 20C43.8027 20 42.5516 19.6933 41.4733 19.08C40.4041 18.4697 39.5383 17.558 38.984 16.4587C38.4044 15.3209 38.1147 13.9911 38.1147 12.4693C38.1147 10.9458 38.4044 9.62134 38.984 8.49601C39.5376 7.39519 40.4035 6.48202 41.4733 5.87067C42.5516 5.25734 43.8027 4.95201 45.2267 4.95201ZM72.632 4.95067C73.9813 4.95067 75.1227 5.17112 76.056 5.61201C76.9893 6.0449 77.692 6.66712 78.164 7.47867C78.644 8.28934 78.8844 9.25823 78.8853 10.3853V16.3347C78.8853 16.9747 78.9311 17.5698 79.0227 18.12C79.1222 18.6596 79.2622 19.0018 79.4427 19.1467V19.6067H75.16C75.0516 19.1759 74.974 18.7379 74.928 18.296C74.912 18.1307 74.8978 17.9649 74.8853 17.7987C74.7829 17.9539 74.6697 18.1018 74.5467 18.2413C74.0933 18.7729 73.5089 19.2009 72.7933 19.5253C72.0867 19.84 71.28 19.9978 70.3733 19.9987C69.4756 19.9987 68.6684 19.8231 67.952 19.472C67.2647 19.1385 66.6853 18.6182 66.28 17.9707C65.88 17.3129 65.68 16.5467 65.68 15.672C65.68 14.3387 66.0747 13.3205 66.864 12.6173C67.6533 11.9053 68.7911 11.4405 70.2773 11.2227L72.7667 10.872C73.2653 10.8 73.6596 10.7098 73.9493 10.6013C74.2391 10.4929 74.4524 10.3489 74.5893 10.1693C74.7318 9.95797 74.8033 9.70672 74.7933 9.45201C74.7933 9.15512 74.7111 8.8849 74.5467 8.64134C74.3765 8.37634 74.1302 8.16903 73.84 8.04667C73.5324 7.8929 73.1564 7.81601 72.712 7.81601C72.0053 7.81601 71.4387 8.0009 71.012 8.37067C70.5862 8.73067 70.3551 9.22667 70.3187 9.85867H66.0627C66.0852 8.94167 66.3886 8.05368 66.932 7.31467C67.4858 6.56801 68.252 5.98712 69.2307 5.57201C70.2102 5.15601 71.3449 4.9489 72.632 4.95067ZM84.8347 7.41867C84.9778 7.14312 85.1409 6.88801 85.324 6.65334C85.7473 6.11381 86.2931 5.68281 86.916 5.39601C87.5418 5.09912 88.244 4.95067 89.0227 4.95067C90.1933 4.95067 91.2093 5.25245 92.0707 5.85601C92.932 6.45867 93.5938 7.3289 94.056 8.46668C94.5182 9.59379 94.7493 10.932 94.7493 12.4813C94.7493 14.0227 94.5138 15.3609 94.0427 16.496C93.5716 17.6222 92.896 18.4876 92.016 19.092C91.1449 19.6965 90.1249 19.9987 88.956 19.9987C88.1765 19.9987 87.4787 19.8636 86.8627 19.5933C86.2529 19.3204 85.7195 18.9019 85.3093 18.3747C85.1096 18.1139 84.9371 17.8333 84.7947 17.5373V19.6067H80.7147V0.218674H84.8347V7.41867ZM108.515 4.95067C109.846 4.95067 111.029 5.23867 112.064 5.81467C113.097 6.39245 113.899 7.23067 114.469 8.32934C115.051 9.4289 115.341 10.7453 115.341 12.2787C115.341 12.828 115.337 13.2649 115.328 13.5893H105.401C105.44 14.2222 105.562 14.7725 105.767 15.24C106.02 15.8169 106.383 16.2538 106.855 16.5507C107.326 16.8387 107.884 16.9827 108.528 16.9827C109.235 16.9827 109.819 16.8027 110.281 16.4427C110.744 16.0738 111.034 15.5556 111.152 14.888H115.272C115.145 15.9333 114.787 16.84 114.197 17.608C113.617 18.3725 112.842 18.9618 111.872 19.376C110.901 19.792 109.773 19.9996 108.487 19.9987C107.036 19.9987 105.776 19.724 104.707 19.1747C103.637 18.6147 102.803 17.776 102.204 16.6587C101.615 15.5413 101.32 14.1578 101.32 12.508C101.32 10.94 101.628 9.58801 102.245 8.45201C102.86 7.30623 103.712 6.43601 104.801 5.84134C105.888 5.24756 107.126 4.95067 108.515 4.95067ZM5.86933 7.44181e-06C6.63923 -0.00121921 7.40183 0.149209 8.11359 0.442702C8.82535 0.736196 9.47233 1.16701 10.0176 1.71054C10.5629 2.25407 10.9957 2.89968 11.2915 3.6105C11.5873 4.32133 11.7401 5.08344 11.7413 5.85334V8.07734H13.6947C15.2493 8.07522 16.7411 8.69067 17.8421 9.78835C18.943 10.886 19.5629 12.376 19.5653 13.9307C19.5625 15.485 18.9424 16.9745 17.8415 18.0717C16.7406 19.1688 15.249 19.7838 13.6947 19.7813H0V5.85201C0.00247354 4.29772 0.622195 2.80805 1.72287 1.71062C2.82355 0.613198 4.31504 -0.00211595 5.86933 7.44181e-06ZM59.14 15.3947L62.1107 5.34134H66.3667L61.404 19.6093H56.82L51.6667 5.34267H56.0453L59.14 15.3947ZM30.34 15.7067H35.3333C38.972 15.7067 38.4747 19.608 38.4747 19.608H26.0733V0.218674H30.3427L30.34 15.7067ZM100.089 19.608H95.9693V0.218674H100.089V19.608ZM74.82 12.648C74.676 12.768 74.516 12.8747 74.344 12.9547C74.0258 13.1093 73.5951 13.2405 73.052 13.348L72.0053 13.5507C71.3076 13.6858 70.7813 13.8933 70.4267 14.1733C70.0827 14.4525 69.9107 14.8449 69.9107 15.3507C69.9107 15.8565 70.0969 16.2569 70.4693 16.552C70.84 16.8498 71.3156 16.9987 71.896 16.9987C72.4764 16.9987 72.9884 16.8725 73.432 16.62C73.8693 16.3659 74.224 15.9908 74.4533 15.54C74.6978 15.0796 74.82 14.556 74.82 13.9693V12.648ZM87.6787 8.07467C87.0707 8.07467 86.5493 8.25912 86.1147 8.62801C85.688 8.98801 85.3658 9.50223 85.148 10.1707C84.9311 10.8285 84.8227 11.5991 84.8227 12.4827C84.8227 13.3742 84.9311 14.1493 85.148 14.808C85.3667 15.4667 85.6889 15.976 86.1147 16.336C86.5493 16.696 87.0707 16.876 87.6787 16.876C88.2947 16.876 88.8116 16.696 89.2293 16.336C89.6542 15.976 89.9716 15.4667 90.1813 14.808C90.3982 14.1502 90.5067 13.3751 90.5067 12.4827C90.5067 11.5902 90.3982 10.8147 90.1813 10.156C89.9724 9.49912 89.6551 8.99023 89.2293 8.62934C88.8116 8.25867 88.2947 8.07379 87.6787 8.07467ZM45.2253 8.08801C44.628 8.08801 44.1116 8.25467 43.676 8.58801C43.2493 8.91334 42.9231 9.40445 42.6973 10.0613C42.4707 10.7111 42.3573 11.5138 42.3573 12.4693C42.3573 13.424 42.4707 14.2307 42.6973 14.8893C42.924 15.548 43.2502 16.0436 43.676 16.376C44.1116 16.6996 44.6284 16.8622 45.2267 16.864C45.8249 16.864 46.3369 16.7013 46.7627 16.376C47.1893 16.0418 47.516 15.5507 47.7427 14.9027C47.9693 14.2449 48.0827 13.4338 48.0827 12.4693C48.0827 11.0365 47.8329 9.94979 47.3333 9.20934C46.8347 8.46267 46.132 8.08934 45.2253 8.08934M108.42 7.91467C107.812 7.91379 107.277 8.06223 106.815 8.36001C106.361 8.64801 106.008 9.08045 105.755 9.65734C105.617 9.98623 105.518 10.3511 105.459 10.752H111.133C111.105 10.2968 111.001 9.8494 110.827 9.42801C110.617 8.92312 110.309 8.54445 109.903 8.29201C109.495 8.03956 109.001 7.91379 108.42 7.91467Z" fill="var(--fill-0, #111111)" fill-opacity="0.4"/>
</svg>
