<svg preserveAspectRatio="none" width="100%" height="100%" overflow="visible" style="display: block;" viewBox="0 0 7.82992 6.686" fill="none" xmlns="http://www.w3.org/2000/svg">
<path id="Vector" d="M5.081 6.444L7.581 3.944C7.74038 3.7846 7.82992 3.56841 7.82992 3.343C7.82992 3.11759 7.74038 2.9014 7.581 2.742L5.081 0.242C4.92097 0.0856595 4.70577 -0.00128836 4.48205 1.44318e-05C4.25833 0.00131722 4.04415 0.0907653 3.88596 0.248959C3.72777 0.407152 3.63832 0.621334 3.63701 0.84505C3.63571 1.06877 3.72266 1.28397 3.879 1.444L4.928 2.493H0.85C0.624566 2.493 0.408365 2.58255 0.248959 2.74196C0.0895533 2.90136 0 3.11757 0 3.343C0 3.56843 0.0895533 3.78463 0.248959 3.94404C0.408365 4.10345 0.624566 4.193 0.85 4.193H4.928L3.879 5.242C3.72266 5.40202 3.63571 5.61723 3.63701 5.84095C3.63832 6.06466 3.72777 6.27885 3.88596 6.43704C4.04415 6.59523 4.25833 6.68468 4.48205 6.68599C4.70577 6.68729 4.92097 6.60034 5.081 6.444Z" fill="var(--fill-0, white)"/>
</svg>
