<svg preserveAspectRatio="none" width="100%" height="100%" overflow="visible" style="display: block;" viewBox="0 0 11.9424 12" fill="none" xmlns="http://www.w3.org/2000/svg">
<path id="Vector" d="M0 12L0.8436 8.9184C0.322761 8.01445 0.0491852 6.98926 0.0504 5.946C0.0519884 4.36951 0.67895 2.85804 1.7937 1.7433C2.90844 0.62855 4.41991 0.0015884 5.9964 0C7.5864 0 9.0804 0.6204 10.2024 1.7436C10.7559 2.2952 11.1947 2.951 11.4933 3.67312C11.792 4.39523 11.9446 5.16936 11.9424 5.9508C11.9408 7.52729 11.3139 9.03876 10.1991 10.1535C9.08436 11.2683 7.57289 11.8952 5.9964 11.8968C5.0004 11.8968 4.0212 11.6472 3.1524 11.1732L0 12ZM3.2988 10.0968C4.1364 10.5936 4.9368 10.8924 5.994 10.8924C8.718 10.8924 10.938 8.676 10.938 5.9496C10.9416 3.2196 8.7324 1.0056 6 1.0044C4.68967 1.00599 3.43343 1.52705 2.50666 2.45337C1.5799 3.37969 1.05822 4.63567 1.056 5.946C1.0548 7.0584 1.38 7.8912 1.9284 8.7636L1.4292 10.5876L3.2988 10.0968ZM8.9916 7.3644C8.9556 7.302 8.856 7.266 8.7072 7.1916C8.37262 7.02249 8.03413 6.86125 7.692 6.708C7.5552 6.6576 7.4568 6.6336 7.356 6.7824C7.2576 6.93 6.972 7.266 6.8868 7.3644C6.8004 7.464 6.7128 7.476 6.564 7.4004C6.4164 7.3272 5.9364 7.17 5.37 6.6636C5.0442 6.36362 4.76511 6.01657 4.542 5.634C4.4568 5.4864 4.5336 5.406 4.608 5.3316C4.6752 5.2656 4.7568 5.1576 4.8312 5.0712C4.9068 4.9848 4.9308 4.9236 4.9812 4.824C5.0316 4.7244 5.0052 4.638 4.9692 4.5636C4.9308 4.4892 4.6332 3.7572 4.5108 3.4596C4.3896 3.1716 4.2672 3.21 4.176 3.2052L3.8904 3.2004C3.81507 3.20206 3.74092 3.21947 3.67272 3.2515C3.60452 3.28353 3.54378 3.32948 3.4944 3.3864C3.3588 3.5352 2.9748 3.894 2.9748 4.626C2.9748 5.358 3.5076 6.0636 3.582 6.162C3.6564 6.2604 4.6284 7.7628 6.12 8.406C6.474 8.5596 6.7512 8.6508 6.966 8.718C7.3224 8.832 7.6464 8.8164 7.902 8.778C8.1876 8.736 8.7816 8.418 8.9052 8.0712C9.03 7.7232 9.03 7.4268 8.9916 7.3644Z" fill="var(--fill-0, white)"/>
</svg>
