<svg preserveAspectRatio="none" width="100%" height="100%" overflow="visible" style="display: block;" viewBox="0 0 10.5 10.5" fill="none" xmlns="http://www.w3.org/2000/svg">
<path id="Vector" d="M4.61229 8.26543H5.88772V4.51457H4.61229V8.26543ZM5.25 2.04772C5.13657 2.04703 5.02414 2.06887 4.91921 2.11196C4.81429 2.15506 4.71896 2.21855 4.63875 2.29875C4.55855 2.37896 4.49506 2.47429 4.45196 2.57921C4.40887 2.68414 4.38703 2.79657 4.38772 2.91C4.38703 3.02343 4.40887 3.13587 4.45196 3.24079C4.49506 3.34572 4.55855 3.44104 4.63875 3.52125C4.71896 3.60146 4.81429 3.66495 4.91921 3.70804C5.02414 3.75113 5.13657 3.77297 5.25 3.77229C5.36343 3.77297 5.47586 3.75113 5.58079 3.70804C5.68572 3.66495 5.78104 3.60146 5.86125 3.52125C5.94146 3.44104 6.00495 3.34572 6.04804 3.24079C6.09113 3.13587 6.11297 3.02343 6.11229 2.91C6.11297 2.79657 6.09113 2.68414 6.04804 2.57921C6.00495 2.47429 5.94146 2.37896 5.86125 2.29875C5.78104 2.21855 5.68572 2.15506 5.58079 2.11196C5.47586 2.06887 5.36343 2.04703 5.25 2.04772ZM5.25 1.75229e-06C4.5604 -0.000561876 3.87746 0.134849 3.24025 0.398486C2.60303 0.662124 2.02405 1.04881 1.53643 1.53643C1.04881 2.02405 0.662124 2.60303 0.398486 3.24025C0.134849 3.87746 -0.000561876 4.5604 1.75229e-06 5.25C-0.000561876 5.9396 0.134849 6.62254 0.398486 7.25976C0.662124 7.89697 1.04881 8.47595 1.53643 8.96357C2.02405 9.45119 2.60303 9.83788 3.24025 10.1015C3.87746 10.3652 4.5604 10.5006 5.25 10.5C5.9396 10.5006 6.62254 10.3652 7.25976 10.1015C7.89697 9.83788 8.47595 9.45119 8.96357 8.96357C9.45119 8.47595 9.83788 7.89697 10.1015 7.25976C10.3652 6.62254 10.5006 5.9396 10.5 5.25C10.5006 4.5604 10.3652 3.87746 10.1015 3.24025C9.83788 2.60303 9.45119 2.02405 8.96357 1.53643C8.47595 1.04881 7.89697 0.662124 7.25976 0.398486C6.62254 0.134849 5.9396 -0.000561876 5.25 1.75229e-06ZM5.25 9.22543C4.19629 9.22362 3.18626 8.80417 2.44126 8.059C1.69625 7.31383 1.27702 6.30372 1.27543 5.25C1.27724 4.19644 1.69657 3.18654 2.44156 2.44156C3.18654 1.69657 4.19644 1.27724 5.25 1.27543C6.30357 1.27724 7.31346 1.69657 8.05845 2.44156C8.80343 3.18654 9.22276 4.19644 9.22457 5.25C9.22276 6.30357 8.80343 7.31346 8.05845 8.05845C7.31346 8.80343 6.30357 9.22362 5.25 9.22543Z" fill="var(--fill-0, #111111)" fill-opacity="0.3"/>
</svg>
