<svg preserveAspectRatio="none" width="100%" height="100%" overflow="visible" style="display: block;" viewBox="0 0 67.8988 22.1495" fill="none" xmlns="http://www.w3.org/2000/svg">
<g id="Group">
<path id="Vector" d="M39.8026 0.332053C39.7724 0.52072 39.7497 2.75453 39.7497 5.31285C39.7497 7.86363 39.7346 9.99933 39.7195 10.0522C39.6969 10.105 39.6667 11.9539 39.6365 14.1575C39.5913 17.7498 39.5988 18.1724 39.7045 18.2101C39.8252 18.2554 42.6099 18.2931 42.6552 18.2478C42.7005 18.2101 42.9193 4.74685 42.9193 2.31683V0H39.8478L39.8026 0.332053ZM8.11411 2.08288C7.70659 2.13571 7.30662 2.21872 7.23115 2.264C7.14814 2.30173 7.0123 2.33947 6.92928 2.33947C6.60477 2.33947 5.08789 3.09413 4.47661 3.55448C4.06155 3.87144 3.28424 4.6412 2.88427 5.13173C2.40128 5.72037 1.72208 6.95048 1.39003 7.8108C1.03533 8.74659 0.914588 9.13147 0.710828 9.92387C0.227841 11.8105 0.0693615 13.101 0.0165348 15.6971C-0.0136518 17.0706 -0.00610516 17.4932 0.0693615 17.5837C0.159922 17.6894 0.333495 17.7799 0.959868 18.0516C1.10325 18.112 1.35984 18.2252 1.52587 18.2931C1.91075 18.4667 2.29563 18.6327 2.5824 18.7459C2.71069 18.7987 2.93709 18.8969 3.09557 18.9648C3.24651 19.0327 3.49555 19.1383 3.63893 19.1987C3.78987 19.2666 4.02382 19.3647 4.1672 19.4327C4.31059 19.493 4.54453 19.5911 4.68037 19.6515C5.00488 19.7949 5.42749 19.976 5.72936 20.1119C6.25008 20.3383 6.72552 20.376 7.51792 20.2628C7.94054 20.1949 8.36315 20.1119 8.47635 20.0741C8.582 20.0289 8.79331 19.9987 8.95179 19.9987C9.33667 19.9987 9.51024 19.8025 9.52534 19.3346C9.54043 19.1384 9.57062 18.2856 9.59326 17.4328C9.64608 15.8405 9.78947 14.3236 9.98568 13.3953C10.0461 13.101 10.0913 12.7991 10.0913 12.7237C10.0913 12.6407 10.1442 12.3916 10.2121 12.1577C10.28 11.9237 10.3857 11.5464 10.446 11.32C10.7554 10.2182 11.3667 8.92771 11.9252 8.18813C12.8987 6.9052 14.1514 6.15053 15.7891 5.85621C17.2078 5.59963 18.3625 5.79584 19.4492 6.47504C19.8643 6.73917 20.8076 7.65232 20.9812 7.96928C21.283 8.52019 21.8189 9.64464 21.8717 9.84085C21.9019 9.96915 21.9622 10.1729 22 10.3012C22.2188 10.9729 22.3169 11.32 22.3169 11.4407C22.3169 11.5238 22.3622 11.8181 22.4226 12.1124C22.6263 13.0935 22.7697 14.5198 22.7773 15.6971C22.7924 16.9121 22.8377 17.1762 23.0414 17.2592C23.1093 17.2819 23.4338 17.2366 23.7584 17.1611C24.2715 17.0404 24.3696 16.9951 24.4074 16.8366C24.4828 16.5498 24.3621 13.4708 24.2338 12.4143C24.03 10.6785 23.781 9.58427 23.2829 8.22587C22.981 7.42592 22.332 6.39203 21.6981 5.72792C20.717 4.69403 19.7284 4.1884 17.5625 3.59976C17.3361 3.53184 16.9588 3.43373 16.7324 3.37336C16.506 3.30544 16.0985 3.19979 15.8268 3.13187C15.5551 3.06395 15.1702 2.95829 14.9589 2.90547C14.7552 2.84509 14.3778 2.74699 14.1288 2.68661C13.8798 2.62624 13.4722 2.52813 13.2232 2.46776C11.3365 1.99232 9.68382 1.87157 8.11411 2.08288ZM54.5261 4.8676C54.5035 4.89024 54.5714 5.13928 54.6695 5.41851C54.7752 5.69773 54.8808 6.02224 54.9185 6.15053C54.9487 6.27128 55.0242 6.49768 55.077 6.64107C55.2355 7.09387 55.3487 7.42592 55.4619 7.73533C55.6581 8.27115 55.7638 8.55792 55.8241 8.79187C55.8619 8.91261 55.96 9.20693 56.0505 9.43333C56.1411 9.65973 56.2392 9.95406 56.2769 10.0823C56.3071 10.2182 56.36 10.3616 56.3901 10.4144C56.4203 10.4672 56.4732 10.6106 56.5109 10.7465C56.5411 10.8747 56.7448 11.4709 56.9561 12.0747C57.1674 12.6784 57.3712 13.267 57.4089 13.3953C57.4467 13.5161 57.5976 13.9613 57.7485 14.3764C57.8995 14.7915 58.0504 15.2367 58.0806 15.365C58.1183 15.5009 58.1712 15.6442 58.2013 15.6971C58.2315 15.7499 58.2844 15.8933 58.3145 16.0291C58.3523 16.1574 58.4504 16.4517 58.5334 16.6781C58.624 16.9045 58.6919 17.146 58.6919 17.2215C58.6919 17.297 58.2013 18.3233 57.5976 19.5157C56.9939 20.7005 56.5033 21.7344 56.5033 21.8099C56.5033 21.9231 56.5788 21.9608 56.8278 21.991C57.3788 22.0589 58.556 22.1419 59.0617 22.1419L59.5446 22.1495L60.5861 20.1119C61.1521 18.9874 62.02 17.2894 62.5029 16.3385C62.9859 15.3801 63.8085 13.7878 64.3141 12.7916C64.8273 11.7954 65.5367 10.3993 65.8989 9.69747C66.2536 8.98808 66.5857 8.34661 66.631 8.2636C66.6762 8.18059 66.7442 8.05984 66.7744 7.99947L67.2573 7.03349C67.4988 6.54296 67.7252 6.18827 67.7932 6.18827C67.8535 6.18827 67.8988 6.14299 67.8988 6.09016C67.8988 6.00715 67.5894 5.96187 66.6385 5.87885C65.9367 5.82603 65.1669 5.78075 64.9254 5.7732H64.4802L63.8161 7.05613C63.4538 7.75797 62.8652 8.91261 62.5029 9.622C61.8086 10.9955 61.7483 11.0936 61.6351 11.2974C61.5898 11.3728 61.537 11.486 61.5143 11.5464C61.4917 11.6068 61.4389 11.72 61.4011 11.7954C61.3558 11.8709 61.1823 12.2105 61.0087 12.5501C60.8351 12.8897 60.654 13.2142 60.6012 13.267C60.4729 13.4029 60.3521 13.3123 60.3521 13.0935C60.3521 12.9954 60.3069 12.7991 60.2465 12.6633C60.1937 12.5275 60.088 12.2256 60.0201 11.9992C59.9597 11.7728 59.8012 11.2747 59.688 10.9049C59.5673 10.5276 59.356 9.87104 59.2277 9.43333C59.0918 8.99563 58.9334 8.52773 58.873 8.39189C58.8126 8.25605 58.7673 8.08248 58.7673 7.99947C58.7673 7.91645 58.7221 7.74288 58.6617 7.60704C58.6013 7.4712 58.4428 7.00331 58.3145 6.5656C58.0353 5.63736 57.8617 5.19211 57.7485 5.11664C57.7108 5.08645 57.4165 5.05627 57.1071 5.05627C56.7977 5.05627 56.1864 5.00344 55.7487 4.94307C54.8884 4.82232 54.5865 4.80723 54.5261 4.8676ZM32.3917 5.04872C30.973 5.22984 29.4863 5.95432 28.5731 6.92029C27.6298 7.90891 27.2676 8.62584 26.9883 10.0371C26.7166 11.3879 26.928 12.8822 27.5996 14.2934C28.0449 15.2292 29.0788 16.331 29.9013 16.7536C30.0674 16.8442 30.256 16.9423 30.3164 16.9725C30.4824 17.0706 30.973 17.2441 31.456 17.3875C32.0446 17.5611 34.1275 17.5535 34.8293 17.3875C36.5877 16.9574 37.9838 15.9989 38.7989 14.6481C39.0856 14.1802 39.0932 13.9991 38.8215 13.9236C38.5951 13.8632 37.5838 13.4557 36.7764 13.101L36.482 12.9727L35.9462 13.5236C35.1312 14.3538 34.286 14.7386 33.2596 14.7311C32.0672 14.7311 31.1088 14.2406 30.5277 13.3425C30.1126 12.6859 29.9919 12.2407 29.9919 11.2898C29.9844 10.1201 30.2485 9.40315 30.9579 8.65603C31.6974 7.87872 33.1238 7.56931 34.3161 7.91645C35.018 8.12021 35.2821 8.27869 35.7198 8.73149C35.9311 8.95035 36.15 9.13147 36.2028 9.13147C36.2481 9.13147 36.8141 8.81451 37.4556 8.43717C38.2404 7.96173 38.6177 7.69005 38.6177 7.60704C38.6177 7.43347 37.5461 6.3392 37.0707 6.02224C36.565 5.69019 35.9311 5.38832 35.3576 5.2072C34.8218 5.03363 33.1917 4.95061 32.3917 5.04872Z" fill="var(--fill-0, #111111)" fill-opacity="0.4"/>
<path id="Vector_2" d="M47.9982 5.6976C46.4361 6.00701 45.206 6.9428 44.4966 8.37666C44.3758 8.61816 44.2777 8.88229 44.2777 8.95776C44.2777 9.0936 44.4966 9.22944 45.0701 9.46338C45.3343 9.57658 45.7191 9.73506 46.0889 9.90109C46.5417 10.0973 46.7757 10.1879 46.8436 10.1879C46.8813 10.1879 46.987 10.0294 47.0851 9.83317C47.3039 9.38792 47.8398 8.83701 48.2624 8.61816C48.519 8.48232 48.7076 8.45213 49.2283 8.45213C49.9528 8.45213 50.3679 8.59552 50.7528 8.97285C51.0245 9.24453 51.3188 9.9992 51.281 10.3463L51.2584 10.6029L50.0509 10.6859C48.4737 10.7916 47.6964 10.9501 46.6172 11.3878C45.6135 11.7878 44.8815 12.4141 44.4589 13.2141C44.2475 13.6065 44.2475 13.6518 44.2475 14.7159C44.2475 15.795 44.2551 15.8177 44.4966 16.3158C45.0777 17.5157 46.2097 18.127 47.9001 18.127C49.2359 18.1345 50.4207 17.7043 51.2961 16.9044C51.8093 16.4365 51.8772 16.4139 52.0055 16.6554C52.1414 16.9195 52.6923 17.4478 52.9941 17.6062C53.3262 17.7874 53.9978 17.9609 54.345 17.9609C54.9638 17.9534 55.9675 17.6138 56.4882 17.2214C56.7826 17.01 56.7826 16.9195 56.5109 16.2252C56.1939 15.4177 56.1109 15.2064 56.0732 15.0328C56.0203 14.7989 55.8619 14.746 55.6355 14.897C55.3789 15.063 55.0468 15.0479 54.8733 14.8592C54.6016 14.5574 54.5337 14.0668 54.4657 11.8859C54.3978 9.53885 54.3374 9.16906 53.9073 8.27101C53.379 7.18429 52.4508 6.35416 51.2584 5.91645C50.4056 5.60704 48.9416 5.50893 47.9982 5.6976ZM51.3188 13.0707C51.5452 13.2443 51.2433 14.0518 50.7603 14.5649C50.1113 15.2441 49.5151 15.5083 48.6171 15.5083C47.8247 15.5083 47.6058 15.4026 47.4171 14.9045C47.2662 14.5121 47.2662 14.3159 47.4171 14.0216C47.7417 13.3952 48.3756 13.2065 50.7301 13.0254C50.8962 13.0179 51.0697 13.0028 51.115 12.9952C51.1527 12.9877 51.2509 13.0254 51.3188 13.0707ZM16.0532 6.49754C15.9098 6.53528 15.623 6.59565 15.4117 6.63338C13.9099 6.91261 12.5515 8.11253 11.729 9.886C11.3818 10.6331 11.1026 11.3878 10.9969 11.8481C10.9667 11.9915 10.9064 12.2632 10.8611 12.4519C10.5139 13.8782 10.3253 15.5837 10.2649 17.6968C10.2121 19.84 10.1819 19.757 10.9366 19.6212C11.8422 19.4552 12.0837 19.3646 12.1365 19.1684C12.1667 19.0627 12.1893 18.5722 12.1969 18.0741C12.2195 14.8668 12.7553 11.7651 13.4798 10.5576C13.5703 10.4143 13.6685 10.218 13.7137 10.1199C13.8269 9.8709 14.6873 9.03322 14.9967 8.87474C15.9551 8.39176 16.989 8.38421 18.0153 8.8521C18.204 8.93512 18.5587 9.21434 18.8153 9.46338C19.9246 10.5803 20.4529 12.5424 20.5435 15.9309C20.5586 16.7459 20.6038 17.4704 20.6265 17.5383C20.7019 17.727 20.8982 17.7421 21.4868 17.5911C21.8792 17.493 22.0603 17.41 22.0981 17.3119C22.1207 17.2289 22.1358 16.6101 22.1132 15.9233C22.0377 12.5802 21.4491 9.97656 20.4001 8.35402C20.1284 7.93896 19.4341 7.22202 19.1398 7.056C18.1965 6.52018 16.8909 6.28624 16.0532 6.49754Z" fill="var(--fill-0, #111111)" fill-opacity="0.4"/>
<path id="Vector_3" d="M16.242 9.16152C16.2042 9.17661 15.9627 9.25208 15.7137 9.32755C15.3363 9.4332 15.1779 9.53886 14.7703 9.95394C14.4986 10.2256 14.1968 10.6256 14.0986 10.8294C14.0005 11.0407 13.8798 11.2973 13.8194 11.4105C13.759 11.5161 13.7138 11.6595 13.7138 11.7275C13.7138 11.7878 13.6685 11.9539 13.6081 12.0897C13.2459 12.95 12.9213 15.5688 12.8685 18.1197C12.8459 19.2743 12.8308 19.2668 14.2798 18.98C14.5741 18.9196 15.0948 18.8215 15.4495 18.7536C15.8042 18.6857 16.3325 18.5876 16.6193 18.5272C16.9136 18.4668 17.4344 18.3687 17.7891 18.3008C18.1438 18.2329 18.6721 18.1272 18.9588 18.0668C19.2532 18.0065 19.5475 17.9612 19.623 17.9612C19.8645 17.9612 19.9097 17.6291 19.8645 16.0443C19.7588 12.3388 19.1475 10.3464 17.8645 9.55395C17.4796 9.31245 16.491 9.0785 16.242 9.16152Z" fill="var(--fill-0, #111111)" fill-opacity="0.4"/>
</g>
</svg>
