<svg preserveAspectRatio="none" width="100%" height="100%" overflow="visible" style="display: block;" viewBox="0 0 14 10" fill="none" xmlns="http://www.w3.org/2000/svg">
<path id="Vector" fill-rule="evenodd" clip-rule="evenodd" d="M1.5 0C1.10218 0 0.720644 0.158035 0.43934 0.43934C0.158035 0.720644 0 1.10218 0 1.5V2.75C0 3.026 0.228 3.243 0.493 3.32C0.856502 3.42602 1.17581 3.64708 1.403 3.95C1.63019 4.25292 1.753 4.62135 1.753 5C1.753 5.37865 1.63019 5.74708 1.403 6.05C1.17581 6.35292 0.856502 6.57398 0.493 6.68C0.228 6.757 0 6.974 0 7.25V8.5C0 8.89782 0.158035 9.27936 0.43934 9.56066C0.720644 9.84196 1.10218 10 1.5 10H12.5C12.8978 10 13.2794 9.84196 13.5607 9.56066C13.842 9.27936 14 8.89782 14 8.5V7.25C14 6.974 13.772 6.757 13.507 6.68C13.1435 6.57398 12.8242 6.35292 12.597 6.05C12.3698 5.74708 12.247 5.37865 12.247 5C12.247 4.62135 12.3698 4.25292 12.597 3.95C12.8242 3.64708 13.1435 3.42602 13.507 3.32C13.772 3.243 14 3.026 14 2.75V1.5C14 1.10218 13.842 0.720644 13.5607 0.43934C13.2794 0.158035 12.8978 0 12.5 0H1.5ZM4 2C3.80109 2 3.61032 2.07902 3.46967 2.21967C3.32902 2.36032 3.25 2.55109 3.25 2.75C3.25 2.94891 3.32902 3.13968 3.46967 3.28033C3.61032 3.42098 3.80109 3.5 4 3.5H10C10.1989 3.5 10.3897 3.42098 10.5303 3.28033C10.671 3.13968 10.75 2.94891 10.75 2.75C10.75 2.55109 10.671 2.36032 10.5303 2.21967C10.3897 2.07902 10.1989 2 10 2H4ZM3.25 6.25C3.25 6.05109 3.32902 5.86032 3.46967 5.71967C3.61032 5.57902 3.80109 5.5 4 5.5H7.5C7.69891 5.5 7.88968 5.57902 8.03033 5.71967C8.17098 5.86032 8.25 6.05109 8.25 6.25C8.25 6.44891 8.17098 6.63968 8.03033 6.78033C7.88968 6.92098 7.69891 7 7.5 7H4C3.80109 7 3.61032 6.92098 3.46967 6.78033C3.32902 6.63968 3.25 6.44891 3.25 6.25Z" fill="var(--fill-0, white)"/>
</svg>
