<svg preserveAspectRatio="none" width="100%" height="100%" overflow="visible" style="display: block;" viewBox="0 0 22.4887 2.93736" fill="none" xmlns="http://www.w3.org/2000/svg">
<path id="Vector" opacity="0.01" d="M2.91312 0.040694L4.79152 0.12296L4.81894 0.205226C5.24733 0.212538 5.56512 0.330757 5.77231 0.559882L5.79973 0.642148L6.04469 0.724414L6.07212 0.806679L6.2074 0.8341L6.28967 0.969382L6.37102 0.996803L6.39844 1.07907L6.48071 1.10649L6.56114 1.2436L6.64341 1.27102L6.67083 1.40722L6.75218 1.43464L7.10592 2.11745L7.18819 2.14487L7.26954 2.55437L7.3518 2.58179L7.26954 2.93645H0.0822693L0 2.85418L0.299815 1.95291L0.382077 1.92549L0.463433 1.68052L0.544782 1.6531L0.734907 1.35146L0.817176 1.32495L0.899439 1.133L1.03472 1.05165L1.06214 0.969382L1.5795 0.614725L1.60692 0.53246L1.85189 0.450194L1.87931 0.368843L2.55938 0.176889L2.5868 0.095539L2.91312 0.040694ZM18.0509 0.0416093C19.1618 -0.0717345 20.042 0.046483 20.6916 0.396264L20.7191 0.47853L20.964 0.560796L20.9914 0.643062L21.1816 0.724414L21.209 0.806679L21.454 0.997718L21.4814 1.07998L21.7264 1.27102L21.7538 1.35329L21.8891 1.43464L21.9165 1.57175L21.9987 1.59917L22.3525 2.39075L22.4338 2.41817L22.4887 2.85509L22.4064 2.93736H15.2191L15.0829 2.85509L15.5464 1.7893L15.6277 1.76187L15.71 1.5169L15.7913 1.48948L16.0902 1.07907L16.2274 0.996803L16.2539 0.915452L16.4988 0.778343L16.5811 0.642148L16.7164 0.614725L16.7438 0.53246L17.6972 0.177803L17.7246 0.095539L18.0509 0.0416093Z" fill="var(--fill-0, #111111)" fill-opacity="0.6"/>
</svg>
