<svg preserveAspectRatio="none" width="100%" height="100%" overflow="visible" style="display: block;" viewBox="0 0 15.5704 25.3826" fill="none" xmlns="http://www.w3.org/2000/svg">
<path id="Vector" d="M3.4475 0.2495C5.2175 0.2495 6.6465 1.6655 6.6465 3.4055C6.6465 5.1455 5.2165 6.5625 3.4485 6.5625C1.6785 6.5625 0.2495 5.1465 0.2495 3.4055C0.2495 1.6655 1.6795 0.2495 3.4485 0.2495H3.4475ZM8.0695 7.3625C8.6485 5.3725 10.7955 4.2425 12.8115 4.9125C14.5465 5.4925 15.6075 7.3005 15.2525 9.0695C15.1313 9.6688 14.8622 10.2283 14.4698 10.6972C14.0774 11.1661 13.5741 11.5296 13.0055 11.7545C11.6295 12.3045 10.5585 13.4225 10.1455 14.8425L10.0355 15.2235C9.6235 16.6435 9.9285 18.1555 10.8015 19.3435C11.4595 20.2395 11.7015 21.4205 11.3435 22.5645L11.2635 22.7905C10.6155 24.4765 8.7415 25.4555 6.9585 25.0365C4.8915 24.5505 3.6785 22.4665 4.2565 20.4775C4.4036 19.9708 4.66009 19.5021 5.0063 19.1039C5.3525 18.7057 5.78114 18.3876 6.2625 18.1715L6.4535 18.0905C7.6995 17.6045 8.7135 16.6565 9.1635 15.4055L9.2455 15.1515L9.4375 14.4935C9.8365 13.1175 9.4975 11.6715 8.6475 10.5365C8.33296 10.1185 8.1133 9.63697 8.00381 9.12543C7.89431 8.61389 7.89762 8.08463 8.0135 7.5745L8.0695 7.3625Z" fill="var(--fill-0, #020917)" stroke="var(--stroke-2, #020917)" stroke-width="0.499"/>
</svg>
