<svg preserveAspectRatio="none" width="100%" height="100%" overflow="visible" style="display: block;" viewBox="0 0 118.524 17.1421" fill="none" xmlns="http://www.w3.org/2000/svg">
<path id="Vector" d="M114.523 4.59775C116.984 4.59775 118.516 6.68457 118.516 9.28168H118.524C118.524 11.8942 116.992 13.965 114.531 13.965C112.922 13.965 111.683 13.1308 111.296 11.9251V16.949C111.296 17 111.276 17.0489 111.24 17.085C111.203 17.1212 111.155 17.1417 111.104 17.1421H109.076C109.025 17.1422 108.976 17.1218 108.939 17.0856C108.903 17.0491 108.883 16.9998 108.883 16.9484V5.04574C108.883 4.99434 108.903 4.94503 108.939 4.9086C108.976 4.87255 109.025 4.85242 109.076 4.8526H111.096C111.147 4.85275 111.196 4.87313 111.232 4.9093C111.269 4.94547 111.289 4.99451 111.289 5.04574V6.65314C111.676 5.44745 112.914 4.59775 114.523 4.59775ZM8.6896 0.00066352C10.0786 -0.0188781 11.4395 0.393657 12.5838 1.18122C12.7135 1.26008 12.8313 1.35836 12.9318 1.47264C13.0061 1.56236 13.0553 1.67093 13.0747 1.78578C13.0831 1.81321 13.0981 1.83645 13.1198 1.8555C13.3924 2.11835 13.6827 2.36749 13.9341 2.64977C14.3329 3.08592 14.6218 3.61093 14.7769 4.18118C14.9198 4.64667 14.8719 5.14984 14.6438 5.58002C14.4542 5.89821 14.1883 6.16412 13.8701 6.35372C13.5156 6.59481 13.0904 6.7099 12.6627 6.68057C12.2632 6.66161 11.8841 6.49884 11.5953 6.22229C11.2919 5.90756 10.9688 5.61249 10.6279 5.33888C10.4035 5.17009 10.1732 5.00923 9.93758 4.8566C9.65461 4.68616 9.34083 4.57315 9.01416 4.52403C8.64304 4.45613 8.26507 4.43329 7.88846 4.45603C7.06508 4.4717 6.26841 4.75088 5.61535 5.25259C5.12676 5.62227 4.72433 6.09372 4.43594 6.63429C4.27309 6.96239 4.16996 7.31687 4.13137 7.68113C4.10013 7.90589 4.08223 8.13217 4.07766 8.35998C4.09625 9.00682 4.26508 9.64047 4.5708 10.2108C4.79767 10.6531 5.0988 11.0532 5.46107 11.3937C5.79821 11.6959 6.17135 11.9559 6.57305 12.1668C7.03019 12.4136 7.53476 12.5611 8.05303 12.5976C8.73376 12.6678 9.42117 12.5646 10.0513 12.2976C10.3533 12.1562 10.6313 11.9684 10.8753 11.7411C11.2968 11.3786 11.6505 10.944 11.9198 10.4577C12.0204 10.2822 12.0907 10.0891 12.1758 9.90339C12.2017 9.84727 12.2293 9.792 12.2587 9.73767C12.2764 9.71151 12.2971 9.68754 12.3204 9.66625L12.3433 9.71996C12.3661 9.78225 12.3718 9.84967 12.3593 9.91481C12.1965 10.6524 11.801 11.3183 11.2313 11.8142C11.1996 11.8377 11.1732 11.8675 11.1536 11.9016C11.1465 11.9172 11.1429 11.934 11.1429 11.9511C11.1429 11.9681 11.1465 11.985 11.1536 12.0005C11.1652 12.0137 11.1797 12.0239 11.196 12.0306C11.2122 12.0372 11.2298 12.04 11.2473 12.0388C11.3296 12.0167 11.4088 11.9858 11.485 11.9462C11.8194 11.757 12.1147 11.5059 12.3553 11.2062C12.5004 11.0302 12.6438 10.8542 12.781 10.6725C13.0397 10.3138 13.2311 9.91106 13.3461 9.48396C13.4501 9.13825 13.5392 8.78854 13.6478 8.44283C13.692 8.3156 13.7455 8.19255 13.8084 8.0737C13.8333 8.03691 13.8625 8.00316 13.8952 7.97313H13.9221C13.9495 8.06398 13.9821 8.15084 14.0015 8.24341C14.0524 8.53483 14.0587 8.83312 14.0227 9.12683C13.9827 9.50968 13.9044 9.88682 13.7884 10.2525C13.7084 10.4782 13.5987 10.6925 13.4638 10.8908C13.1251 11.449 12.7249 11.9674 12.2707 12.4365C11.9361 12.7598 11.574 13.0533 11.1884 13.3136C11.1603 13.3282 11.1348 13.3473 11.113 13.3702C11.0906 13.3973 11.079 13.4317 11.0804 13.4668C11.0885 13.4825 11.1002 13.496 11.1146 13.5062C11.1291 13.5163 11.1458 13.5228 11.1633 13.5251C11.2448 13.5243 11.3248 13.5138 11.4033 13.4936C11.7605 13.3904 12.0947 13.2197 12.3878 12.9908C13.2075 12.3882 13.8732 11.6006 14.3307 10.6919C14.6221 10.0994 14.8107 9.46168 14.8889 8.80626C14.9358 8.39198 14.9404 7.97427 14.9027 7.55942C14.8687 7.3468 14.8751 7.12968 14.9215 6.91943C14.9341 6.87181 14.9516 6.82571 14.9741 6.78114C15.0261 6.68057 15.1021 6.67486 15.1524 6.78114C15.2049 6.88209 15.2436 6.98819 15.2684 7.09942C15.3747 7.63085 15.4078 8.17484 15.3672 8.7154C15.2917 9.59344 15.0706 10.4528 14.7129 11.2582C14.3502 12.0876 13.8062 12.8251 13.121 13.4165C12.8981 13.6096 12.6855 13.8028 12.4553 13.9845C12.1784 14.1848 11.8823 14.3571 11.5713 14.4988C10.8841 14.8397 10.153 15.0835 9.39873 15.2233C8.93645 15.3033 8.46731 15.3347 7.99818 15.3159C7.76789 15.3159 7.53533 15.3005 7.30562 15.2885C6.78515 15.2601 6.27159 15.1562 5.78107 14.9799C5.07101 14.7332 4.3885 14.4134 3.74452 14.0256C2.99359 13.5657 2.35312 12.9461 1.86855 12.2108C1.62921 11.8651 1.4206 11.4992 1.24513 11.1171C1.23623 11.0944 1.22188 11.0742 1.20334 11.0584C1.18481 11.0425 1.16265 11.0315 1.13884 11.0262C1.0118 10.9943 0.893628 10.934 0.793187 10.8498C0.692746 10.7657 0.612635 10.66 0.55885 10.5405C0.415306 10.1907 0.303615 9.82869 0.225139 9.45882C0.0837727 8.86164 0.00827593 8.25076 0 7.63713C0.00571421 7.2478 0.0411428 6.86114 0.106285 6.47715C0.179427 5.95715 0.309711 5.44573 0.493137 4.95317C0.655603 4.5217 0.884031 4.11804 1.17027 3.75661C1.33598 3.54804 1.47427 3.31433 1.63655 3.10176C2.66878 1.74043 4.14498 0.783386 5.80906 0.396658C6.1302 0.319516 6.45134 0.237803 6.77591 0.177804C7.06663 0.12516 7.35973 0.0866391 7.65418 0.0623769C7.99837 0.0281888 8.34378 0.00760178 8.6896 0.00066352ZM72.8316 4.49317C75.679 4.49317 77.2572 6.64172 77.2572 9.28568V9.77196C77.26 9.79808 77.2566 9.82447 77.2475 9.8491C77.2387 9.87351 77.2244 9.89558 77.2058 9.91367C77.1876 9.93256 77.1653 9.94702 77.1407 9.95593C77.116 9.96485 77.0896 9.96798 77.0635 9.9651H70.8733C71.0282 11.4491 72.0807 11.9902 73.2253 11.9902C73.631 12.0004 74.0329 11.9098 74.3949 11.7264C74.757 11.543 75.0678 11.2725 75.2996 10.9394C75.3139 10.9188 75.3327 10.9016 75.3544 10.8891C75.3866 10.8698 75.4241 10.8612 75.4615 10.8646C75.4989 10.868 75.5342 10.8832 75.5624 10.9079L76.9167 12.1136C76.9397 12.1294 76.9593 12.1497 76.9742 12.1733C76.9891 12.1969 76.9991 12.2232 77.0035 12.2508C77.0082 12.2783 77.0071 12.3065 77.0002 12.3336C76.9933 12.3607 76.9808 12.386 76.9635 12.4079C76.3133 13.3508 74.9361 14.0622 73.3264 14.0622C70.3556 14.0622 68.4054 12.0216 68.4054 9.28511C68.4054 6.64229 70.1545 4.49317 72.8316 4.49317ZM26.5579 1.88064C28.7093 1.88064 30.4122 2.62291 31.4179 4.09147C31.4474 4.13359 31.4605 4.18502 31.4548 4.23614C31.4492 4.28726 31.425 4.33456 31.387 4.36918L29.7465 5.77601C29.7174 5.80857 29.6776 5.82963 29.6343 5.8354C29.591 5.84116 29.5471 5.83125 29.5105 5.80744C29.4861 5.79192 29.466 5.7705 29.4522 5.74516C29.1165 5.29005 28.6798 4.91911 28.1763 4.66159C27.6729 4.40407 27.1165 4.267 26.5511 4.26118C24.4928 4.26118 23.1151 5.79144 23.1151 7.90913C23.1151 10.0268 24.4922 11.5577 26.5511 11.5577V11.5502C27.1115 11.552 27.6647 11.4245 28.1679 11.1778C28.671 10.931 29.1105 10.5716 29.4522 10.1274C29.4651 10.1029 29.4838 10.0819 29.5067 10.0664C29.5296 10.0508 29.556 10.0411 29.5835 10.0381C29.6111 10.0351 29.6389 10.0389 29.6646 10.0492C29.6904 10.0595 29.7132 10.0759 29.731 10.0971L31.387 11.4497C31.425 11.4843 31.4492 11.5316 31.4548 11.5827C31.4605 11.6338 31.4474 11.6852 31.4179 11.7274C30.5207 13.0571 28.7093 13.969 26.5585 13.969C22.8905 13.969 20.4609 11.2331 20.4609 7.90913C20.4609 4.6166 22.8825 1.88064 26.5579 1.88064ZM34.4281 4.85203C34.4793 4.85233 34.5284 4.87285 34.5645 4.90913C34.6007 4.94541 34.6211 4.99451 34.6212 5.04574V10.3325C34.6212 11.2754 35.2098 11.8325 36.2001 11.8325C37.1904 11.8325 37.7475 11.2754 37.7475 10.3325L37.7549 5.04574C37.7552 4.99441 37.7758 4.94529 37.8122 4.9091C37.8486 4.87291 37.8979 4.8526 37.9492 4.8526H39.9835C40.0348 4.8526 40.084 4.87291 40.1204 4.9091C40.1568 4.94529 40.1774 4.99441 40.1777 5.04574V13.5171C40.1774 13.5684 40.1568 13.6175 40.1204 13.6537C40.084 13.6899 40.0348 13.7102 39.9835 13.7102H37.9566C37.9062 13.7075 37.8585 13.6863 37.8227 13.6507C37.7868 13.615 37.7654 13.5675 37.7623 13.5171V12.0485C37.4069 13.1925 36.5715 13.9502 35.3332 13.9502C33.6001 13.9502 32.223 12.7753 32.223 10.4257V5.04517C32.2233 4.99413 32.2437 4.94527 32.2797 4.90913C32.3157 4.87299 32.3645 4.85248 32.4156 4.85203H34.4281ZM55.2581 4.85203C55.3095 4.85203 55.3593 4.8726 55.3947 4.90917C55.4313 4.94517 55.4518 4.99431 55.4518 5.04574V10.3325C55.4518 11.2754 56.0398 11.8325 57.0307 11.8325C58.0215 11.8325 58.5781 11.2754 58.5781 10.3325L58.5855 5.04574C58.5854 5.02031 58.5904 4.99511 58.6001 4.97161C58.6098 4.9481 58.6241 4.92675 58.6421 4.9088C58.6601 4.89084 58.6815 4.87663 58.705 4.86698C58.7286 4.85734 58.7538 4.85245 58.7792 4.8526H60.814C60.8654 4.85242 60.9147 4.87255 60.9512 4.9086C60.9874 4.94503 61.0078 4.99434 61.0077 5.04574V13.5171C61.0074 13.5683 60.9869 13.6173 60.9506 13.6535C60.9144 13.6897 60.8653 13.71 60.814 13.7102H58.7866C58.7362 13.7077 58.6885 13.6866 58.6528 13.6509C58.6171 13.6152 58.596 13.5675 58.5935 13.5171V12.0485C58.2381 13.1925 57.4015 13.9502 56.1638 13.9502C54.4307 13.9502 53.0536 12.7748 53.0536 10.4257V5.04517C53.0534 4.99385 53.0735 4.94455 53.1096 4.90803C53.1462 4.87184 53.1958 4.8517 53.2473 4.85203H55.2581ZM85.0571 2.12749H88.1365C88.1907 2.12535 88.2441 2.14076 88.2888 2.17145C88.3335 2.20214 88.3671 2.24645 88.3845 2.29778L92.7176 13.5365C92.727 13.5568 92.7302 13.5795 92.7267 13.6016C92.725 13.624 92.7178 13.6456 92.7057 13.6645C92.6937 13.6835 92.6771 13.6991 92.6576 13.7102C92.6381 13.7216 92.6162 13.7283 92.5936 13.7296H90.1799C90.1209 13.7309 90.0631 13.7126 90.0155 13.6777C89.9679 13.6428 89.9331 13.5932 89.9165 13.5365L88.9491 10.9702H84.1829L83.2389 13.5365C83.2232 13.5936 83.1887 13.6437 83.141 13.6788C83.0933 13.7138 83.0352 13.7317 82.976 13.7296H80.6081C80.5856 13.7284 80.5638 13.7219 80.5443 13.7107C80.5249 13.6995 80.5083 13.6839 80.4961 13.6651C80.484 13.6461 80.4767 13.6246 80.4749 13.6022C80.4727 13.5798 80.4761 13.5573 80.4846 13.5365L84.7943 2.29778C84.8124 2.24384 84.8482 2.19764 84.896 2.16671C84.9437 2.13578 85.0005 2.12195 85.0571 2.12749ZM49.445 2.11606C49.4965 2.11619 49.5458 2.13674 49.5822 2.17321C49.6183 2.2095 49.6386 2.25858 49.6388 2.30977V4.86003H51.4804C51.5317 4.86018 51.5808 4.88055 51.6171 4.91673C51.6533 4.9529 51.6739 5.00194 51.6742 5.05317V6.73886C51.6737 6.78999 51.6531 6.83888 51.6169 6.87493C51.5806 6.91098 51.5316 6.93128 51.4804 6.93143H49.6388V10.9314C49.6388 11.4028 49.8245 11.5959 50.3816 11.5959H51.5062C51.5321 11.5938 51.5581 11.5973 51.5826 11.6062C51.607 11.6152 51.6292 11.6293 51.6475 11.6477C51.6659 11.6661 51.6801 11.6883 51.689 11.7127C51.698 11.7371 51.7015 11.7632 51.6993 11.7891V13.5285C51.6994 13.5539 51.6944 13.579 51.6848 13.6025C51.6751 13.6259 51.6609 13.6473 51.6429 13.6652C51.625 13.6832 51.6036 13.6974 51.5802 13.7071C51.5567 13.7168 51.5315 13.7217 51.5062 13.7216H49.8496C48.0702 13.7216 47.2188 12.7479 47.2188 11.0782V6.928H45.9188C45.8675 6.928 45.8183 6.90767 45.782 6.87146C45.7457 6.83526 45.7252 6.78614 45.7251 6.73486L45.7022 5.03774C45.7025 4.98661 45.723 4.93765 45.7591 4.9015C45.7953 4.86534 45.8442 4.8449 45.8954 4.8446H47.1959V2.30977C47.1936 2.28383 47.1969 2.25767 47.2058 2.23317C47.2147 2.20868 47.2289 2.18645 47.2474 2.16806C47.2657 2.14959 47.288 2.13541 47.3125 2.12652C47.337 2.11763 47.3631 2.11426 47.3891 2.11663L49.445 2.11606ZM44.3851 1.49779C44.4111 1.49531 44.4373 1.49861 44.4619 1.50744C44.4864 1.51627 44.5087 1.53042 44.5272 1.54887C44.5456 1.56732 44.5598 1.58963 44.5686 1.61418C44.5774 1.63874 44.5807 1.66495 44.5783 1.69093V13.5211C44.578 13.5722 44.5575 13.6211 44.5214 13.6573C44.4852 13.6934 44.4362 13.7139 44.3851 13.7142H42.344C42.2927 13.7142 42.2434 13.6939 42.207 13.6577C42.1706 13.6215 42.15 13.5724 42.1497 13.5211V1.69493C42.1477 1.66887 42.1513 1.64269 42.1603 1.61815C42.1693 1.5936 42.1834 1.57127 42.2017 1.55264C42.2202 1.5341 42.2425 1.51987 42.2671 1.51097C42.2917 1.50208 42.318 1.49875 42.344 1.50121L44.3851 1.49779ZM68.0339 4.85203C68.0854 4.85215 68.1347 4.8727 68.1711 4.90917C68.207 4.94555 68.2271 4.99462 68.2271 5.04574V7.01657C68.2273 7.06788 68.2071 7.11719 68.1711 7.15371C68.1346 7.18976 68.0853 7.20989 68.0339 7.20971H67.2288C66.146 7.20971 65.3717 7.44228 65.3717 8.6634V13.5171C65.3714 13.5683 65.3509 13.6173 65.3146 13.6535C65.2783 13.6897 65.2292 13.71 65.178 13.7102H63.182C63.1308 13.71 63.0817 13.6897 63.0454 13.6535C63.0091 13.6173 62.9886 13.5683 62.9883 13.5171L62.9814 5.05317C62.9814 5.00205 63.0015 4.95298 63.0374 4.9166C63.0739 4.88034 63.1232 4.86 63.1746 4.86003H65.1711C65.2223 4.86018 65.2714 4.88055 65.3077 4.91673C65.344 4.9529 65.3645 5.00194 65.3648 5.05317V6.924C65.7363 5.45545 66.5408 4.8526 67.8408 4.8526L68.0339 4.85203ZM103.845 4.59775C105.571 4.59775 106.925 5.75659 106.925 8.04456V13.5171C106.925 13.5425 106.92 13.5677 106.91 13.5912C106.901 13.6147 106.886 13.636 106.868 13.654C106.85 13.672 106.829 13.6862 106.805 13.6958C106.782 13.7055 106.757 13.7103 106.731 13.7102H104.719C104.669 13.7072 104.621 13.6859 104.586 13.6503C104.55 13.6147 104.529 13.5673 104.526 13.5171V8.12227C104.526 7.25657 104 6.71543 103.103 6.71543C102.204 6.71543 101.709 7.25657 101.709 8.12227V13.5165C101.709 13.5678 101.689 13.6171 101.653 13.6536C101.635 13.6716 101.613 13.6859 101.59 13.6956C101.566 13.7053 101.541 13.7103 101.515 13.7102H99.4878C99.4366 13.7101 99.3875 13.6897 99.3512 13.6536C99.3152 13.6171 99.2951 13.5678 99.2952 13.5165V8.12227C99.2952 7.25657 98.7844 6.71543 97.8707 6.71543C96.9581 6.71543 96.4787 7.25657 96.4787 8.12227V13.5165C96.4785 13.5678 96.4581 13.617 96.4218 13.6533C96.3855 13.6896 96.3363 13.71 96.285 13.7102H94.273C94.2476 13.7103 94.2224 13.7055 94.1989 13.6958C94.1754 13.6861 94.1541 13.6719 94.1361 13.654C94.1181 13.636 94.1039 13.6146 94.0943 13.5911C94.0846 13.5676 94.0797 13.5425 94.0799 13.5171L94.0719 5.04574C94.0717 5.02028 94.0766 4.99505 94.0863 4.97151C94.096 4.94798 94.1103 4.9266 94.1283 4.90862C94.1463 4.89065 94.1678 4.87644 94.1913 4.86682C94.2149 4.85721 94.2401 4.85237 94.2656 4.8526H96.277C96.3282 4.85275 96.3773 4.87313 96.4136 4.9093C96.4499 4.94547 96.4704 4.99451 96.4707 5.04574V6.51429C96.9044 5.3703 97.477 4.59775 98.7461 4.59775C99.3462 4.60715 99.9246 4.82402 100.383 5.21152C100.841 5.59902 101.151 6.13324 101.26 6.72343C101.647 5.54059 102.391 4.59775 103.845 4.59775ZM113.626 6.71543C112.217 6.71543 111.289 7.71999 111.289 9.26568C111.289 10.8114 112.233 11.8325 113.626 11.8325C115.018 11.8325 115.947 10.8119 115.947 9.28168C115.947 7.75142 115.019 6.71543 113.626 6.71543ZM84.9954 8.75997H88.1217L86.5565 4.55089L84.9954 8.75997ZM72.8464 6.56058C71.779 6.56058 71.067 7.156 70.8968 8.12227H74.8127C74.6418 7.16342 73.9299 6.56058 72.8464 6.56058Z" fill="var(--fill-0, #111111)" fill-opacity="0.4"/>
</svg>
