<svg preserveAspectRatio="none" width="100%" height="100%" overflow="visible" style="display: block;" viewBox="0 0 92.5244 31.6341" fill="none" xmlns="http://www.w3.org/2000/svg">
<path id="Vector" d="M10.5239 18.648C10.7013 18.5074 10.9291 18.488 11.2074 18.5898C11.4983 18.6936 11.8764 18.9321 12.3418 19.3054C15.5473 21.9329 19.2259 23.8653 23.3776 25.1025C27.568 26.343 31.9165 26.9676 36.2867 26.9568C39.8838 26.9568 43.3355 26.5836 46.6418 25.837C49.9597 25.103 52.7735 24.1174 55.083 22.8802C55.5629 22.6233 55.9358 22.4623 56.2014 22.3974C56.3216 22.3628 56.4491 22.3625 56.5694 22.3967C56.6897 22.4309 56.798 22.4982 56.8821 22.5908C57.0207 22.7576 57.09 22.9248 57.09 23.0926C57.09 23.5434 56.6673 24.1489 55.8218 24.9091C53.4114 27.0344 50.4082 28.6832 46.812 29.8554C43.2148 31.0412 39.4286 31.6341 35.4533 31.6341C32.3506 31.6341 29.31 31.254 26.3315 30.4939C23.3908 29.757 20.577 28.5844 17.9833 27.015C15.4064 25.4643 13.1303 23.4616 11.2641 21.103C10.7968 20.5096 10.5001 20.0132 10.3741 19.6137C10.2354 19.1638 10.2853 18.8419 10.5239 18.648ZM58.3379 17.6256C59.1582 17.6256 59.9721 17.7419 60.7798 17.9746C61.6001 18.2064 62.1304 18.5021 62.3709 18.8618C62.623 19.237 62.717 19.8556 62.653 20.7176C62.5946 21.5608 62.4234 22.3923 62.144 23.19C61.6339 24.7156 60.725 26.0769 59.5116 27.1328C58.8183 27.7902 58.2884 28.1189 57.9219 28.1189C57.8503 28.1172 57.7798 28.1009 57.7148 28.0708C57.6497 28.0408 57.5915 27.9978 57.5438 27.9444C57.459 27.8683 57.3965 27.7706 57.3632 27.6616C57.3299 27.5527 57.327 27.4367 57.3547 27.3263C57.4052 27.0819 57.5564 26.7469 57.8085 26.3213C58.4639 25.2644 58.9812 24.1761 59.3603 23.0562C59.7501 21.9354 59.8325 21.2009 59.6076 20.8528C59.4553 20.6347 59.0762 20.4795 58.4702 20.3874C57.7603 20.3092 57.0446 20.2966 56.3323 20.3496C55.512 20.4146 54.7233 20.5309 53.966 20.6987C53.4997 20.7879 53.14 20.8131 52.8869 20.7743C52.6348 20.7481 52.4646 20.6327 52.3764 20.4282C52.2504 20.145 52.3192 19.874 52.5829 19.6152C52.8476 19.3582 53.2452 19.0814 53.7755 18.7847C55.1749 18.0216 56.7439 17.623 58.3379 17.6256ZM6.60577 0.00145438C8.52361 0.00145438 9.98138 0.529393 10.9791 1.58527C11.9874 2.64211 12.4916 4.18181 12.4916 6.20436V15.924C12.4924 15.992 12.4796 16.0594 12.4538 16.1224C12.4281 16.1853 12.39 16.2425 12.3418 16.2905C12.2973 16.3351 12.2442 16.3702 12.1857 16.3937C12.1272 16.4172 12.0645 16.4286 12.0015 16.4272H9.5407C9.23722 16.4272 9.04767 16.2594 8.97204 15.924L8.5939 14.1089H8.44265C8.10135 14.9592 7.59038 15.6166 6.90974 16.081C6.24072 16.5445 5.44566 16.7757 4.52456 16.7748C3.62673 16.7748 2.83749 16.576 2.15684 16.1785C1.47979 15.7696 0.929884 15.1804 0.568661 14.4768C0.189554 13.739 0 12.894 0 11.9419C0 10.7949 0.277301 9.79037 0.831903 8.92841C1.40008 8.06548 2.20192 7.40131 3.23744 6.93591C4.28459 6.47342 5.50869 6.24169 6.90974 6.24072C7.55257 6.24072 8.07614 6.28629 8.48046 6.37743V5.97021C8.48046 4.99093 8.304 4.26326 7.95107 3.78719C7.59717 3.29755 7.06051 3.05273 6.34108 3.05273C5.18048 3.05273 4.43584 3.67763 4.10715 4.92742C4.00535 5.28811 3.79689 5.44276 3.48177 5.39137L0.908984 4.92597C0.719916 4.88718 0.587568 4.8038 0.51194 4.67582C0.447948 4.54686 0.441645 4.37282 0.493033 4.1537C0.820752 2.84088 1.51497 1.82282 2.5757 1.09951C3.64709 0.367472 4.99045 0.00145438 6.60577 0.00145438ZM44.085 0.00145438C46.0038 0.00145438 47.4611 0.529393 48.4569 1.58527C49.4662 2.64211 49.9714 4.18181 49.9723 6.20436V15.924C49.9729 15.9921 49.9598 16.0596 49.9339 16.1225C49.9079 16.1855 49.8695 16.2426 49.8211 16.2905C49.7766 16.3351 49.7234 16.3702 49.6649 16.3937C49.6064 16.4172 49.5438 16.4286 49.4807 16.4272H47.0199C46.7174 16.4272 46.5284 16.2594 46.4527 15.924L46.0731 14.1089H45.9219C45.5816 14.9592 45.0701 15.6166 44.3875 16.081C43.7185 16.5445 42.9235 16.7757 42.0023 16.7748C41.0817 16.7748 40.3182 16.577 39.6375 16.1785C38.9594 15.7701 38.4085 15.1808 38.0465 14.4768C37.6683 13.7409 37.4792 12.8969 37.4792 11.9448C37.4792 10.7987 37.757 9.79425 38.3126 8.93132C38.8798 8.06839 39.6812 7.40422 40.7167 6.93882C41.7638 6.47633 42.9874 6.2446 44.3875 6.24363C45.0323 6.24363 45.5559 6.2892 45.9583 6.38034V5.97312C45.9592 4.99384 45.7828 4.26617 45.4289 3.7901C45.075 3.30046 44.5388 3.05564 43.8203 3.05564C42.6597 3.05564 41.9156 3.68054 41.5879 4.93033C41.486 5.29102 41.2776 5.44566 40.9625 5.39428L38.3882 4.92888C38.1992 4.89009 38.0663 4.80671 37.9897 4.67872C37.9277 4.54977 37.9214 4.37573 37.9708 4.1566C38.2995 2.84379 38.9937 1.82573 40.0535 1.10242C41.1258 0.368442 42.4687 0.00145438 44.085 0.00145438ZM71.0593 0.00145438C72.3081 -0.00928115 73.5281 0.376173 74.544 1.10242C75.5911 1.82379 76.4109 2.82876 77.0033 4.11734C77.6093 5.39234 77.9123 6.81569 77.9123 8.38738C77.9123 9.95907 77.6093 11.3892 77.0033 12.6778C76.4119 13.9528 75.5921 14.9573 74.544 15.6913C73.524 16.4072 72.3054 16.7856 71.0593 16.7733C69.8142 16.785 68.5967 16.4066 67.5775 15.6913C66.543 14.9573 65.729 13.9528 65.1356 12.6778C64.5423 11.3882 64.246 9.95811 64.247 8.38738C64.247 6.81569 64.5432 5.39234 65.1356 4.11734C65.7281 2.82876 66.542 1.82379 67.5775 1.10242C68.5931 0.378852 69.8123 -0.0063685 71.0593 0.00145438ZM62.6167 0.350504C62.7553 0.350504 62.8688 0.401407 62.957 0.503214C63.0588 0.593385 63.1097 0.70925 63.1097 0.850809V3.18944C63.1157 3.45261 63.0355 3.71053 62.8814 3.9239L57.013 12.1557C57.3689 12.0902 57.7302 12.058 58.0921 12.0597C59.0016 12.0597 59.8344 12.1435 60.5907 12.3113C61.3615 12.4654 62.1566 12.7229 62.9759 13.0836C63.1087 13.1327 63.2224 13.2226 63.3008 13.3405C63.3792 13.4584 63.4182 13.5981 63.4122 13.7395V15.9632C63.4122 16.1678 63.3492 16.3094 63.2231 16.3879C63.0971 16.4519 62.9395 16.4456 62.7505 16.369C61.9338 16.0461 61.0911 15.7936 60.2315 15.6142C59.453 15.4544 58.6599 15.3769 57.8652 15.3829C57.0071 15.3829 56.1869 15.46 55.3666 15.6156C54.5599 15.7708 53.6645 16.0219 52.6804 16.369C52.4903 16.433 52.3318 16.433 52.2048 16.369C52.0787 16.2914 52.0157 16.1557 52.0157 15.9618V13.5853C52.0157 13.3022 52.0918 13.0574 52.2441 12.8509L58.7175 3.59521H52.66C52.5275 3.59723 52.3991 3.54889 52.3008 3.45996C52.2142 3.3577 52.1676 3.22745 52.1699 3.09346V0.850809C52.1699 0.71022 52.2135 0.59387 52.3008 0.501759C52.3466 0.45256 52.4023 0.413542 52.4642 0.387235C52.5261 0.360928 52.5928 0.347918 52.66 0.34905L62.6167 0.350504ZM30.9491 0.00145438C31.8828 0.00145438 32.69 0.258879 33.3706 0.773728C34.0658 1.29052 34.5962 2.02497 34.9617 2.97711C35.3273 3.92924 35.5105 5.05638 35.5115 6.35853V15.924C35.5119 15.9922 35.4986 16.0597 35.4723 16.1227C35.4461 16.1857 35.4075 16.2427 35.3588 16.2905C35.3147 16.3356 35.2616 16.3709 35.203 16.3942C35.1443 16.4175 35.0815 16.4282 35.0184 16.4257H31.9904C31.8574 16.4281 31.7284 16.3797 31.6297 16.2905C31.5431 16.1882 31.4966 16.0579 31.4989 15.924V6.66686C31.4989 5.72636 31.3219 5.00547 30.968 4.5042C30.6141 4.00099 30.1027 3.74938 29.4336 3.74938C28.7026 3.74938 28.1412 4.04559 27.7495 4.638C27.3713 5.23139 27.1823 6.08801 27.1823 7.20788V15.924C27.1829 15.9921 27.1698 16.0596 27.1438 16.1225C27.1178 16.1855 27.0795 16.2426 27.031 16.2905C26.9869 16.3356 26.9338 16.3709 26.8752 16.3942C26.8166 16.4175 26.7537 16.4282 26.6907 16.4257H23.6612C23.5287 16.4277 23.4003 16.3794 23.302 16.2905C23.2148 16.1884 23.1678 16.0581 23.1696 15.924V6.66686C23.1696 5.72636 22.9927 5.00547 22.6388 4.5042C22.2859 4.00099 21.7749 3.74938 21.1059 3.74938C20.3739 3.74938 19.8125 4.04559 19.4217 4.638C19.0436 5.23139 18.854 6.08801 18.8531 7.20788V15.924C18.8537 15.9921 18.8406 16.0596 18.8146 16.1225C18.7886 16.1855 18.7503 16.2426 18.7018 16.2905C18.6577 16.3356 18.6046 16.3709 18.546 16.3942C18.4874 16.4175 18.4245 16.4282 18.3615 16.4257H15.332C15.1995 16.4277 15.0711 16.3794 14.9728 16.2905C14.8862 16.1882 14.8396 16.0579 14.8419 15.924V0.850809C14.8419 0.71022 14.8855 0.59387 14.9728 0.501759C15.0186 0.45256 15.0743 0.413542 15.1362 0.387235C15.1981 0.360928 15.2648 0.347918 15.332 0.34905H17.8321C17.9707 0.34905 18.0837 0.394136 18.171 0.484307C18.2728 0.574478 18.3363 0.696646 18.3615 0.850809L18.7396 2.74586H18.8909C19.2322 1.85675 19.7179 1.1795 20.3482 0.714098C20.992 0.239002 21.7492 0.000969583 22.6199 0C23.5536 0 24.355 0.251122 25.024 0.753366C25.7056 1.25561 26.2292 1.97068 26.5947 2.89857H26.7474C27.301 1.91929 27.9255 1.19113 28.6206 0.714098C29.3047 0.242052 30.118 -0.00687013 30.9491 0.00145438ZM87.8486 0.00145438C88.8085 0.00145438 89.6351 0.258879 90.3283 0.773728C91.0361 1.29052 91.5791 2.02497 91.9572 2.97711C92.3354 3.92924 92.5244 5.05638 92.5244 6.35853V15.924C92.525 15.9921 92.5119 16.0596 92.486 16.1225C92.46 16.1855 92.4216 16.2426 92.3732 16.2905C92.3289 16.3357 92.2756 16.3712 92.2167 16.3945C92.1578 16.4178 92.0947 16.4284 92.0314 16.4257H89.0034C88.8708 16.4277 88.7425 16.3794 88.6442 16.2905C88.5565 16.1886 88.5089 16.0583 88.5104 15.924V6.66686C88.5104 5.72636 88.3213 5.00547 87.9431 4.5042C87.565 4.00099 87.0288 3.74938 86.3346 3.74938C85.5638 3.74938 84.9772 4.04559 84.5748 4.638C84.1705 5.23139 83.9683 6.08801 83.9683 7.20788V15.924C83.9689 15.9921 83.9558 16.0596 83.9299 16.1225C83.9039 16.1855 83.8655 16.2426 83.8171 16.2905C83.773 16.3356 83.7199 16.3709 83.6613 16.3942C83.6027 16.4175 83.5398 16.4282 83.4768 16.4257H80.4488C80.3157 16.4281 80.1867 16.3797 80.0881 16.2905C80.0009 16.1884 79.9539 16.0581 79.9557 15.924V0.850809C79.9557 0.71022 79.9998 0.59387 80.0881 0.501759C80.1341 0.452376 80.19 0.41325 80.2521 0.386936C80.3143 0.360623 80.3813 0.347713 80.4488 0.34905H82.9459C83.0855 0.34905 83.1995 0.394136 83.2877 0.484307C83.3876 0.574478 83.4506 0.696646 83.4768 0.850809L83.8549 2.74586H84.0062C84.3465 1.87033 84.8448 1.19307 85.5013 0.714098C86.1712 0.239002 86.9537 0.00145438 87.8486 0.00145438ZM7.47694 8.44556C6.4424 8.44556 5.62213 8.72189 5.01614 9.27455C4.42372 9.81752 4.12703 10.5525 4.12606 11.4794C4.12606 12.162 4.29622 12.7098 4.63655 13.1228C4.99045 13.5223 5.46409 13.722 6.05747 13.722C6.83993 13.722 7.43913 13.3672 7.85508 12.6574C8.272 11.9361 8.48046 10.9054 8.48046 9.56542V8.54154C8.14936 8.48057 7.8136 8.44845 7.47694 8.44556ZM44.9562 8.44556C43.9216 8.44556 43.1014 8.72189 42.4954 9.27455C41.903 9.81752 41.6063 10.5525 41.6053 11.4794C41.6053 12.162 41.776 12.7098 42.1172 13.1228C42.4702 13.5223 42.9433 13.722 43.5367 13.722C44.3192 13.722 44.9189 13.3672 45.3358 12.6574C45.7517 11.9361 45.9597 10.9054 45.9597 9.56542V8.54154C45.6286 8.48057 45.2928 8.44845 44.9562 8.44556ZM71.0579 3.28689C70.2007 3.28689 69.5448 3.73096 69.0901 4.61909C68.6363 5.4956 68.4094 6.75121 68.4094 8.38593C68.4094 10.0226 68.6363 11.2855 69.0901 12.1746C69.5448 13.0501 70.2007 13.4879 71.0579 13.4879C71.9169 13.4879 72.5801 13.0501 73.0474 12.1746C73.5128 11.2855 73.746 10.0231 73.747 8.38738C73.747 6.75072 73.5138 5.49463 73.0474 4.61909C72.5801 3.73096 71.9169 3.28689 71.0579 3.28689Z" fill="var(--fill-0, #111111)" fill-opacity="0.4"/>
</svg>
