<svg preserveAspectRatio="none" width="100%" height="100%" overflow="visible" style="display: block;" viewBox="0 0 64.8 64.7345" fill="none" xmlns="http://www.w3.org/2000/svg">
<g id="Group">
<path id="Vector" d="M13.6702 40.9222C13.6702 42.7267 12.9533 44.4573 11.6773 45.7333C10.4013 47.0093 8.67071 47.7262 6.86618 47.7262C5.06165 47.7262 3.33102 47.0093 2.05503 45.7333C0.77903 44.4573 0.062182 42.7267 0.062182 40.9222C0.062182 37.1585 3.10582 34.1149 6.86945 34.1149H13.6702V40.9222ZM17.0738 40.9222C17.0738 40.0291 17.2497 39.1448 17.5915 38.3197C17.9333 37.4946 18.4342 36.7448 19.0657 36.1133C19.6972 35.4818 20.4469 34.9809 21.272 34.6391C22.0971 34.2974 22.9815 34.1215 23.8745 34.1215C24.7676 34.1215 25.652 34.2974 26.4771 34.6391C27.3022 34.9809 28.0519 35.4818 28.6834 36.1133C29.3149 36.7448 29.8158 37.4946 30.1576 38.3197C30.4994 39.1448 30.6753 40.0291 30.6753 40.9222V57.9273C30.6753 59.7318 29.9584 61.4624 28.6824 62.7384C27.4064 64.0144 25.6758 64.7313 23.8713 64.7313C22.0667 64.7313 20.3361 64.0144 19.0601 62.7384C17.7841 61.4624 17.0673 59.7318 17.0673 57.9273L17.0738 40.9222ZM23.8615 13.6145C22.9675 13.6145 22.0823 13.4385 21.2564 13.0964C20.4305 12.7543 19.6801 12.2529 19.048 11.6207C18.4159 10.9886 17.9145 10.2382 17.5724 9.4123C17.2303 8.58641 17.0542 7.70122 17.0542 6.80727C17.0542 5.91333 17.2303 5.02814 17.5724 4.20224C17.9145 3.37635 18.4159 2.62592 19.048 1.9938C19.6801 1.36169 20.4305 0.86027 21.2564 0.518173C22.0823 0.176075 22.9675 -1.33208e-08 23.8615 0C27.6251 0 30.6687 3.04364 30.6687 6.80727V13.6145H23.8615ZM23.8615 17.064C25.666 17.064 27.3966 17.7808 28.6726 19.0568C29.9486 20.3328 30.6655 22.0635 30.6655 23.868C30.6655 25.6725 29.9486 27.4032 28.6726 28.6792C27.3966 29.9552 25.666 30.672 23.8615 30.672H6.804C4.99947 30.672 3.26884 29.9552 1.99285 28.6792C0.716848 27.4032 0 25.6725 0 23.868C0 22.0635 0.716848 20.3328 1.99285 19.0568C3.26884 17.7808 4.99947 17.064 6.804 17.064H23.8615ZM51.1364 23.8713C51.1364 22.0659 51.8536 20.3344 53.1302 19.0578C54.4068 17.7812 56.1382 17.064 57.9436 17.064C59.749 17.064 61.4805 17.7812 62.7571 19.0578C64.0337 20.3344 64.7509 22.0659 64.7509 23.8713C64.7509 27.6284 61.7073 30.672 57.9436 30.672H51.1364V23.8713ZM47.7327 23.8713C47.7327 25.6749 47.0162 27.4047 45.7408 28.6801C44.4655 29.9555 42.7357 30.672 40.932 30.672C39.1283 30.672 37.3985 29.9555 36.1232 28.6801C34.8478 27.4047 34.1313 25.6749 34.1313 23.8713V6.80727C34.1313 5.00274 34.8481 3.27212 36.1241 1.99612C37.4001 0.720121 39.1307 0.00327273 40.9353 0.00327273C42.7398 0.00327273 44.4704 0.720121 45.7464 1.99612C47.0224 3.27212 47.7393 5.00274 47.7393 6.80727L47.7327 23.8713ZM40.932 51.12C41.8259 51.12 42.7111 51.2961 43.537 51.6382C44.3629 51.9803 45.1134 52.4817 45.7455 53.1138C46.3776 53.7459 46.879 54.4963 47.2211 55.3222C47.5632 56.1481 47.7393 57.0333 47.7393 57.9273C47.7393 58.8212 47.5632 59.7064 47.2211 60.5323C46.879 61.3582 46.3776 62.1086 45.7455 62.7407C45.1134 63.3729 44.3629 63.8743 43.537 64.2164C42.7111 64.5585 41.8259 64.7345 40.932 64.7345C37.1749 64.7345 34.1313 61.6909 34.1313 57.9273V51.12H40.932ZM40.932 47.7164C39.1283 47.7164 37.3985 46.9999 36.1232 45.7245C34.8478 44.4491 34.1313 42.7193 34.1313 40.9156C34.1313 39.112 34.8478 37.3822 36.1232 36.1068C37.3985 34.8314 39.1283 34.1149 40.932 34.1149H57.996C59.8005 34.1149 61.5312 34.8318 62.8072 36.1078C64.0832 37.3838 64.8 39.1144 64.8 40.9189C64.8 42.7234 64.0832 44.4541 62.8072 45.7301C61.5312 47.0061 59.8005 47.7229 57.996 47.7229L40.932 47.7164Z" fill="var(--fill-0, #FF5600)"/>
</g>
</svg>
