<svg preserveAspectRatio="none" width="100%" height="100%" overflow="visible" style="display: block;" viewBox="0 0 106.001 24" fill="none" xmlns="http://www.w3.org/2000/svg">
<path id="Vector" fill-rule="evenodd" clip-rule="evenodd" d="M65.5708 7.51L65.5678 7.508L65.5638 7.507C65.4923 7.47651 65.4155 7.46021 65.3378 7.459C65.216 7.46028 65.0969 7.49524 64.9938 7.56C64.8853 7.627 64.8001 7.72582 64.7498 7.843V7.846L62.3498 14.366L60.5018 9.996L60.4988 9.993C60.4462 9.87569 60.3589 9.77729 60.2488 9.711C60.1694 9.6603 60.0801 9.62724 59.9869 9.61407C59.8936 9.60091 59.7987 9.60793 59.7084 9.63467C59.6181 9.66142 59.5346 9.70725 59.4636 9.76908C59.3926 9.8309 59.3357 9.90727 59.2968 9.993L59.2948 9.995L57.4428 14.368L55.0318 7.851H55.0298C54.9887 7.73103 54.9075 7.62894 54.7998 7.562C54.6951 7.49546 54.5738 7.45976 54.4498 7.459C54.3698 7.459 54.2911 7.475 54.2138 7.507H54.2098L54.2078 7.51C54.0635 7.57793 53.9503 7.69806 53.8911 7.84616C53.8319 7.99427 53.831 8.15931 53.8888 8.308L56.8548 16.218V16.221C56.8954 16.3423 56.9824 16.4426 57.0968 16.5C57.1061 16.5107 57.1224 16.523 57.1458 16.537C57.1736 16.5523 57.2036 16.5631 57.2348 16.569C57.2878 16.586 57.3568 16.611 57.4518 16.611C57.5713 16.6088 57.6875 16.5715 57.786 16.5037C57.8845 16.436 57.9609 16.3408 58.0058 16.23L58.0138 16.224L59.8888 11.771L61.7678 16.206H61.7698C61.8101 16.3166 61.8821 16.413 61.9768 16.483C62.0708 16.5523 62.1734 16.595 62.2848 16.611H62.3648C62.4981 16.6107 62.6276 16.5661 62.7328 16.484C62.8341 16.4071 62.9126 16.3041 62.9598 16.186V16.183L65.9068 8.308C65.9646 8.15734 65.962 7.99013 65.8993 7.84139C65.8367 7.69265 65.719 7.5739 65.5708 7.51ZM52.0108 12.026C52.0108 11.096 51.6508 10.256 51.0798 9.648C50.5048 9.04 49.7268 8.668 48.8818 8.668C48.0368 8.668 47.2568 9.04 46.6838 9.648C46.0812 10.2928 45.7478 11.1435 45.7518 12.026C45.7518 12.954 46.1118 13.787 46.6838 14.391C47.2568 14.997 48.0368 15.363 48.8818 15.363C49.7268 15.363 50.5078 14.997 51.0798 14.391C51.6811 13.7508 52.015 12.9043 52.0108 12.026ZM51.9928 8.801C52.8141 9.67386 53.2709 10.8275 53.2698 12.026C53.2706 13.2242 52.8138 14.3774 51.9928 15.25C51.595 15.6774 51.1138 16.0188 50.5788 16.2528C50.0439 16.4869 49.4667 16.6088 48.8828 16.611C47.6698 16.611 46.5688 16.084 45.7778 15.25C44.9537 14.3786 44.4946 13.2248 44.4946 12.0255C44.4946 10.8262 44.9537 9.67239 45.7778 8.801C46.5678 7.967 47.6698 7.441 48.8828 7.441C50.1058 7.441 51.2048 7.967 51.9928 8.801ZM39.5028 7.456C38.5188 7.456 37.6208 7.836 36.9508 8.444V8.081C36.9519 7.91861 36.8903 7.76205 36.7788 7.644C36.7225 7.5844 36.6546 7.53697 36.5792 7.50464C36.5039 7.47231 36.4227 7.45575 36.3408 7.456C36.2568 7.45546 36.1735 7.47173 36.0959 7.50384C36.0183 7.53595 35.9478 7.58327 35.8888 7.643C35.7752 7.76051 35.7117 7.91757 35.7118 8.081V16.176L35.7378 16.201L35.7388 16.205C35.7485 16.2354 35.763 16.2641 35.7818 16.29C35.8668 16.44 36.0068 16.553 36.1808 16.604L36.2058 16.611H36.3408C36.4321 16.611 36.5214 16.5913 36.6088 16.552C36.6848 16.5145 36.7509 16.4597 36.8018 16.392H36.8038C36.8108 16.386 36.8128 16.378 36.8208 16.371C36.8234 16.3703 36.8258 16.368 36.8278 16.364C36.8596 16.3252 36.8865 16.2825 36.9078 16.237C36.9244 16.1863 36.9368 16.143 36.9448 16.107L36.9508 16.084V11.224C36.9677 10.5534 37.2433 9.91522 37.7198 9.443C37.9538 9.2087 38.2318 9.02284 38.5377 8.89603C38.8437 8.76923 39.1716 8.70398 39.5028 8.704C39.8341 8.70268 40.1624 8.76664 40.469 8.89222C40.7756 9.0178 41.0545 9.20254 41.2897 9.43589C41.5249 9.66925 41.7119 9.94664 41.8399 10.2522C41.9679 10.5579 42.0345 10.8857 42.0358 11.217V15.989C42.036 16.0722 42.0528 16.1546 42.085 16.2313C42.1173 16.308 42.1645 16.3776 42.2238 16.436C42.3426 16.5485 42.5001 16.6112 42.6638 16.6112C42.8274 16.6112 42.9849 16.5485 43.1038 16.436C43.1642 16.3784 43.2121 16.309 43.2446 16.2321C43.2771 16.1552 43.2935 16.0725 43.2928 15.989V11.217C43.2928 9.157 41.5988 7.458 39.5028 7.456ZM101.413 11.142C101.056 9.702 99.7828 8.677 98.3308 8.68C96.8418 8.68 95.5868 9.683 95.1978 11.142H101.413ZM102.789 11.732V11.793C102.789 11.8745 102.771 11.9551 102.737 12.0293C102.704 12.1034 102.654 12.1695 102.593 12.223C102.472 12.3266 102.318 12.383 102.159 12.382H95.1108C95.2908 14.09 96.6638 15.351 98.3038 15.364H98.7198C99.2618 15.366 99.7898 15.18 100.255 14.872C100.723 14.562 101.116 14.1522 101.407 13.672C101.461 13.5809 101.538 13.5057 101.631 13.4536C101.723 13.4015 101.828 13.3744 101.934 13.375C102.046 13.3732 102.157 13.403 102.253 13.461L102.26 13.464L102.267 13.47C102.354 13.5307 102.426 13.6113 102.476 13.7052C102.526 13.7991 102.553 13.9036 102.555 14.01C102.555 14.12 102.526 14.232 102.465 14.333L102.464 14.337L102.461 14.339C102.058 14.978 101.523 15.5235 100.893 15.939C100.255 16.351 99.5128 16.612 98.7198 16.612H98.2968C97.7063 16.6073 97.1226 16.4849 96.58 16.2519C96.0374 16.0189 95.5468 15.68 95.1368 15.255C94.3016 14.395 93.8351 13.2428 93.8368 12.044C93.8368 10.774 94.3368 9.622 95.1468 8.789C95.5601 8.3622 96.0551 8.02292 96.6023 7.79134C97.1494 7.55976 97.7376 7.44062 98.3318 7.441C99.5218 7.441 100.592 7.911 101.385 8.681C102.208 9.49005 102.706 10.5719 102.787 11.723L102.789 11.732ZM73.8788 3.674C73.7129 3.67426 73.5538 3.73992 73.436 3.85675C73.3183 3.97357 73.2513 4.13213 73.2498 4.298V15.99C73.2498 16.161 73.3218 16.318 73.4358 16.428C73.5488 16.539 73.7058 16.612 73.8778 16.612C74.0459 16.6149 74.2084 16.5512 74.3297 16.4346C74.4509 16.318 74.5211 16.1582 74.5248 15.99V4.298C74.5213 4.12958 74.4514 3.96936 74.3301 3.85242C74.2088 3.73547 74.0472 3.67132 73.8788 3.674ZM32.8048 11.804C32.2978 11.566 31.7228 11.391 31.1488 11.202C30.6198 11.024 30.0838 10.874 29.7018 10.675C29.5351 10.5951 29.3859 10.4829 29.2628 10.345C29.164 10.2303 29.1107 10.0834 29.1128 9.932C29.112 9.72481 29.1756 9.52248 29.2948 9.353C29.4668 9.108 29.7548 8.918 30.0698 8.794C30.4615 8.63368 30.8879 8.57697 31.3079 8.62934C31.728 8.68171 32.1274 8.84139 32.4678 9.093C32.6388 9.216 32.7828 9.341 32.9188 9.444C32.9888 9.497 33.0548 9.546 33.1308 9.582C33.2082 9.62107 33.2931 9.64291 33.3798 9.646C33.4391 9.646 33.4958 9.635 33.5498 9.613C33.6659 9.5664 33.7607 9.4784 33.8158 9.366C33.8391 9.3088 33.8517 9.24777 33.8528 9.186C33.8486 9.07663 33.8188 8.96977 33.7658 8.874C33.652 8.68492 33.5077 8.51597 33.3388 8.374C33.0277 8.1074 32.6794 7.88774 32.3048 7.722C31.9108 7.546 31.4888 7.427 31.0858 7.427C30.1528 7.427 29.3748 7.637 28.8088 8.023C28.5138 8.225 28.2548 8.446 28.0718 8.752C27.8848 9.058 27.7818 9.436 27.7678 9.927L27.7668 9.992C27.7648 10.469 27.9198 10.862 28.1628 11.17C28.5308 11.634 29.0788 11.911 29.6158 12.108C30.1518 12.304 30.6878 12.422 31.0258 12.534C31.5018 12.692 32.0078 12.862 32.3758 13.088C32.5598 13.204 32.7088 13.328 32.8098 13.464C32.9078 13.604 32.9638 13.749 32.9658 13.932V13.946C32.9638 14.211 32.8858 14.419 32.7558 14.597C32.5598 14.862 32.2348 15.057 31.8888 15.18C31.5438 15.3 31.1858 15.35 30.9548 15.35C30.1418 15.35 29.5978 15.156 29.2028 14.96C29.0048 14.862 28.8448 14.765 28.6998 14.683C28.6319 14.6443 28.5617 14.6095 28.4898 14.579C28.4179 14.5487 28.3408 14.5328 28.2628 14.532C28.2087 14.5309 28.1549 14.5407 28.1048 14.561C28.0541 14.5832 28.0075 14.6136 27.9668 14.651C27.9117 14.7029 27.8655 14.7633 27.8298 14.83C27.7979 14.8965 27.7812 14.9693 27.7808 15.043C27.7808 15.166 27.8268 15.277 27.8928 15.378C27.9958 15.524 28.1468 15.655 28.3348 15.786C28.5288 15.914 28.7594 16.0407 29.0268 16.166C29.6188 16.444 30.3768 16.589 30.9528 16.598H30.9548C31.8518 16.598 32.6248 16.393 33.2778 15.916C33.9158 15.438 34.3128 14.73 34.3128 13.93C34.3128 13.49 34.2088 13.117 34.0278 12.812C33.7538 12.349 33.3088 12.044 32.8048 11.804ZM83.3488 12.027C83.3488 11.089 82.9918 10.249 82.4228 9.643C82.1415 9.33854 81.8008 9.09502 81.4217 8.92749C81.0426 8.75995 80.6332 8.67198 80.2188 8.669C79.3728 8.669 78.5948 9.038 78.0198 9.643C77.417 10.29 77.084 11.1427 77.0888 12.027C77.0888 12.963 77.4488 13.798 78.0198 14.4C78.3014 14.7022 78.6418 14.9435 79.0202 15.1093C79.3985 15.2751 79.8067 15.3618 80.2198 15.364C81.0748 15.364 81.8558 15.002 82.4248 14.402C83.0246 13.7573 83.3552 12.9076 83.3488 12.027ZM84.4168 7.615C84.4765 7.67305 84.524 7.74256 84.5563 7.81936C84.5886 7.89616 84.6051 7.97868 84.6048 8.062V15.991C84.6039 16.1146 84.5665 16.2352 84.4972 16.3376C84.4279 16.4399 84.3299 16.5195 84.2155 16.5663C84.101 16.613 83.9753 16.6248 83.8542 16.6002C83.733 16.5756 83.6219 16.5157 83.5348 16.428C83.4761 16.3713 83.4294 16.3034 83.3975 16.2283C83.3655 16.1533 83.349 16.0726 83.3488 15.991V15.217C82.5588 16.065 81.4478 16.612 80.2188 16.612C79.6349 16.6111 79.0575 16.4901 78.5223 16.2567C77.9871 16.0233 77.5056 15.6823 77.1078 15.255C76.2847 14.3822 75.8283 13.2266 75.8328 12.027C75.8328 10.776 76.3168 9.629 77.1078 8.797C77.5061 8.37034 77.9877 8.02989 78.5228 7.79666C79.0578 7.56343 79.6351 7.44239 80.2188 7.441C81.4468 7.441 82.5588 7.973 83.3488 8.817V8.062C83.3488 7.888 83.4208 7.726 83.5368 7.615C83.6556 7.50247 83.8131 7.43976 83.9768 7.43976C84.1404 7.43976 84.2979 7.50247 84.4168 7.615ZM93.2838 8.419C93.4047 8.301 93.4741 8.13996 93.4768 7.971C93.4757 7.88926 93.4579 7.8086 93.4246 7.73397C93.3912 7.65934 93.343 7.59231 93.2828 7.537C93.2808 7.53367 93.2804 7.53233 93.2798 7.533C93.2784 7.53033 93.2774 7.529 93.2768 7.529H93.2748C93.1585 7.41347 93.0017 7.34782 92.8378 7.346C92.6715 7.34757 92.5126 7.41479 92.3958 7.533L87.4858 12.285V4.297C87.4826 4.12867 87.4128 3.96845 87.2917 3.85148C87.1706 3.73451 87.0081 3.67032 86.8398 3.673C86.674 3.67378 86.5151 3.73989 86.3978 3.857C86.2804 3.97356 86.2136 4.1316 86.2118 4.297V15.989C86.2149 16.154 86.2822 16.3113 86.3995 16.4275C86.5168 16.5436 86.6747 16.6095 86.8398 16.611C87.0078 16.6139 87.1702 16.5501 87.2913 16.4335C87.4124 16.3169 87.4823 16.1571 87.4858 15.989V14.06L89.0858 12.474L92.3448 16.38C92.4058 16.47 92.4898 16.531 92.5718 16.564C92.6574 16.5947 92.7477 16.6106 92.8388 16.611C92.9863 16.6141 93.1307 16.5676 93.2488 16.479L93.2568 16.474L93.2648 16.465C93.3286 16.4043 93.3796 16.3314 93.4148 16.2507C93.45 16.17 93.4687 16.0831 93.4698 15.995C93.4683 15.8428 93.4134 15.6959 93.3148 15.58L89.9968 11.573L93.2808 8.418L93.2838 8.419ZM71.2878 3.7H71.1478L71.0918 3.702L71.0388 3.7C70.6758 3.7 70.3248 3.74 69.9958 3.85C69.6665 3.95243 69.3712 4.14256 69.1418 4.4L69.1408 4.401C68.9008 4.666 68.7438 4.981 68.6478 5.34C68.5518 5.7 68.5118 6.107 68.5078 6.568V7.462H67.5168C67.3543 7.46067 67.1979 7.52381 67.0818 7.63759C66.9658 7.75137 66.8996 7.9065 66.8978 8.069C66.8958 8.23911 66.9599 8.40335 67.0767 8.52705C67.1935 8.65074 67.3538 8.72423 67.5238 8.732H68.5088V16.004L68.5078 16.021C68.5078 16.191 68.5798 16.349 68.6958 16.461C68.8108 16.572 68.9728 16.638 69.1488 16.638C69.3113 16.6367 69.4666 16.571 69.5808 16.4553C69.6949 16.3397 69.7586 16.1835 69.7578 16.021V8.731H70.8248C70.9921 8.72345 71.1505 8.65353 71.2688 8.535C71.3282 8.47548 71.3753 8.40484 71.4073 8.32711C71.4394 8.24938 71.4559 8.16609 71.4558 8.082V8.058C71.4508 7.89664 71.3826 7.7437 71.2658 7.6322C71.1491 7.52069 70.9932 7.45956 70.8318 7.462H69.7578V6.572C69.7648 6.178 69.8058 5.884 69.8658 5.669C69.9228 5.454 70.0018 5.318 70.0728 5.234C70.1572 5.14637 70.263 5.08226 70.3798 5.048C70.5268 5 70.7318 4.97 71.0078 4.97H71.0408C71.0581 4.96933 71.0748 4.96833 71.0908 4.967C71.1094 4.96833 71.1284 4.96933 71.1478 4.97H71.2878C71.6418 4.97 71.9278 4.686 71.9278 4.335C71.9275 4.25126 71.9107 4.1684 71.8784 4.09115C71.8461 4.0139 71.7989 3.94378 71.7394 3.8848C71.68 3.82582 71.6095 3.77915 71.532 3.74743C71.4545 3.71572 71.3715 3.69961 71.2878 3.7ZM8.03377 12.439C8.11796 12.1667 8.12282 11.876 8.04777 11.601C7.94677 11.237 7.70777 10.911 7.34877 10.707L2.25277 7.784C1.90809 7.58596 1.49906 7.53232 1.11498 7.63481C0.730898 7.73729 0.402961 7.98757 0.202766 8.331C0.104001 8.50033 0.039858 8.6876 0.0140629 8.88192C-0.0117321 9.07625 0.00133434 9.27376 0.0525037 9.46299C0.103673 9.65223 0.191926 9.82941 0.312137 9.98425C0.432349 10.1391 0.582124 10.2685 0.752766 10.365L3.59977 12.001L0.750766 13.63C0.58002 13.727 0.430233 13.857 0.310089 14.0124C0.189944 14.1677 0.10183 14.3454 0.0508568 14.535C-0.00011687 14.7247 -0.012937 14.9226 0.0131395 15.1172C0.039216 15.3119 0.10367 15.4994 0.202766 15.669C0.615766 16.38 1.53277 16.624 2.25277 16.213L7.34777 13.288C7.69177 13.092 7.92477 12.784 8.03277 12.438M9.41577 15.176C9.11248 15.1508 8.8087 15.2185 8.54477 15.37L3.44477 18.29C3.27448 18.3876 3.12516 18.5179 3.00538 18.6734C2.8856 18.8289 2.79773 19.0066 2.74681 19.1961C2.69589 19.3857 2.68292 19.5834 2.70865 19.778C2.73439 19.9726 2.79832 20.1602 2.89677 20.33C3.09726 20.6726 3.42506 20.922 3.8087 21.0239C4.19233 21.1258 4.6007 21.0719 4.94477 20.874L7.80277 19.237V22.507C7.80277 23.331 8.47277 23.999 9.30477 23.999C10.1308 23.999 10.8048 23.331 10.8048 22.507V16.661C10.8048 15.876 10.1918 15.231 9.41477 15.176M14.6378 8.822C14.9298 8.846 15.2328 8.784 15.5068 8.627L20.6048 5.704C20.775 5.60655 20.9242 5.47646 21.044 5.32119C21.1638 5.16593 21.2518 4.98853 21.3029 4.79919C21.354 4.60985 21.3672 4.41229 21.3418 4.21783C21.3164 4.02337 21.2528 3.83584 21.1548 3.666C20.9544 3.32298 20.6265 3.07314 20.2426 2.97103C19.8587 2.86893 19.45 2.92284 19.1058 3.121L16.2508 4.761V1.49C16.2508 0.668 15.5798 0 14.7488 0C13.9188 0 13.2488 0.668 13.2488 1.49V7.336C13.2488 8.12 13.8588 8.766 14.6378 8.823M3.44477 5.705L8.54477 8.628C8.81877 8.785 9.12277 8.847 9.41477 8.823C9.79124 8.79602 10.1436 8.62783 10.4014 8.3521C10.6591 8.07636 10.8032 7.71344 10.8048 7.336V1.49C10.8048 0.668 10.1308 0 9.30477 0C8.47377 0 7.80277 0.668 7.80277 1.49V4.76L4.94577 3.122C4.60151 2.92442 4.19315 2.87083 3.80957 2.97291C3.426 3.07498 3.09828 3.32445 2.89777 3.667C2.79923 3.83662 2.73523 4.02406 2.70945 4.21852C2.68367 4.41299 2.69662 4.61063 2.74756 4.80007C2.7985 4.9895 2.88641 5.16699 3.00624 5.3223C3.12607 5.47761 3.27445 5.60767 3.44477 5.705ZM13.0298 11.989C13.0229 11.8901 12.9835 11.7962 12.9178 11.722L12.3038 11.116C12.2306 11.0501 12.1371 11.0112 12.0388 11.006H12.0148C11.9168 11.0115 11.8236 11.0503 11.7508 11.116L11.1368 11.722C11.0718 11.7964 11.0338 11.8904 11.0288 11.989V12.012C11.0288 12.096 11.0758 12.214 11.1368 12.275L11.7508 12.883C11.8108 12.943 11.9288 12.993 12.0148 12.993H12.0388C12.1238 12.993 12.2428 12.943 12.3038 12.883L12.9178 12.275C12.984 12.2027 13.0235 12.1099 13.0298 12.012V11.989ZM14.7238 12.572L12.6038 14.674C12.5315 14.7417 12.4377 14.7818 12.3388 14.787H11.7148C11.6157 14.7812 11.5217 14.7412 11.4488 14.674L9.33077 12.572C9.26477 12.5001 9.22588 12.4075 9.22077 12.31V11.69C9.22077 11.604 9.26977 11.485 9.33077 11.425L11.4488 9.323C11.5222 9.25686 11.6161 9.21802 11.7148 9.213H12.3388C12.4248 9.213 12.5438 9.261 12.6048 9.323L14.7248 11.425C14.7848 11.485 14.8328 11.605 14.8328 11.69V12.31C14.8279 12.4073 14.7894 12.5 14.7238 12.572ZM20.6068 18.292L15.5088 15.372C15.2452 15.2203 14.9418 15.1523 14.6388 15.177C13.8618 15.232 13.2508 15.877 13.2508 16.662V22.508C13.2508 23.332 13.9208 24 14.7508 24C15.5808 24 16.2528 23.332 16.2528 22.508V19.238L19.1078 20.875C19.4517 21.0736 19.8603 21.128 20.2443 21.0262C20.6282 20.9245 20.9563 20.6749 21.1568 20.332C21.2551 20.1621 21.3189 19.9744 21.3445 19.7797C21.3701 19.585 21.357 19.3872 21.3059 19.1977C21.2548 19.0081 21.1667 18.8305 21.0467 18.6751C20.9267 18.5196 20.7772 18.3895 20.6068 18.292ZM23.3028 10.365L20.4558 12.001L23.3028 13.631C24.0228 14.045 24.2678 14.955 23.8528 15.67C23.6517 16.0125 23.3236 16.2618 22.9397 16.3637C22.5558 16.4656 22.1472 16.4118 21.8028 16.214L16.7028 13.289C16.3764 13.1023 16.1332 12.7984 16.0228 12.439C15.936 12.1671 15.9308 11.8758 16.0078 11.601C16.1098 11.237 16.3488 10.911 16.7028 10.707L21.8028 7.784C22.1475 7.58623 22.5564 7.53274 22.9404 7.6352C23.3245 7.73767 23.6524 7.98777 23.8528 8.331C23.9515 8.50033 24.0157 8.6876 24.0415 8.88192C24.0673 9.07625 24.0542 9.27376 24.003 9.46299C23.9519 9.65223 23.8636 9.82941 23.7434 9.98425C23.6232 10.1391 23.4734 10.2685 23.3028 10.365ZM106.001 7.448C106.001 8.268 105.448 8.952 104.525 8.952C103.609 8.952 103.063 8.262 103.063 7.448C103.063 6.628 103.609 5.944 104.525 5.944C105.448 5.944 106.001 6.628 106.001 7.448ZM105.708 7.448C105.708 6.751 105.24 6.222 104.525 6.222C103.823 6.222 103.355 6.725 103.355 7.448C103.355 8.139 103.823 8.675 104.525 8.675C105.24 8.675 105.708 8.145 105.708 7.448ZM103.947 6.77H104.577C104.922 6.77 105.149 6.958 105.149 7.248C105.149 7.428 105.058 7.565 104.922 7.648L105.169 8.004V8.074H104.811L104.571 7.732H104.291V8.075H103.947V6.77ZM104.571 7.087H104.291V7.429H104.571C104.701 7.429 104.785 7.371 104.785 7.261C104.785 7.145 104.707 7.087 104.571 7.087Z" fill="var(--fill-0, white)" fill-opacity="0.4"/>
</svg>
