<svg preserveAspectRatio="none" width="100%" height="100%" overflow="visible" style="display: block;" viewBox="0 0 60.5583 14.8539" fill="none" xmlns="http://www.w3.org/2000/svg">
<path id="Vector" d="M7.80173 1.77961C9.09402 1.77961 10.0727 2.1641 10.7388 2.94222C11.4049 3.71119 11.7283 4.8538 11.7283 6.35005V11.7494H7.74117V7.19958C7.74117 5.74332 7.14587 5.01548 5.94499 5.01548C4.63271 5.01548 3.97685 5.76389 3.97685 7.27042V11.7597H0V2.20409H3.94657V4.59043C4.27964 3.63007 4.76353 2.92222 5.38968 2.46746C6.00555 2.01213 6.8128 1.77961 7.80173 1.77961ZM21.609 2.20409H25.6059V11.7494H21.609V9.77787C20.9532 11.325 19.7014 12.0934 17.8441 12.0934C16.573 12.0934 15.604 11.7392 14.9379 11.0216C14.2714 10.3136 13.9381 9.29227 13.9381 7.9577V2.19438H17.9355V6.97677C17.9355 7.70518 18.0766 8.24106 18.3697 8.58442C18.6519 8.92834 19.1061 9.10031 19.7117 9.10031C20.9834 9.10031 21.6193 8.36218 21.6193 6.89621V2.20409H21.609ZM33.6401 12.0831C31.6718 12.0831 30.2083 11.6382 29.2496 10.7485C28.291 9.859 27.8065 8.70611 27.8065 7.3007V2.19381H31.8034V6.81452C31.8034 7.54236 31.9548 8.07881 32.2473 8.42217C32.5398 8.76609 33.0042 8.93806 33.6504 8.93806C34.296 8.93806 34.7604 8.76667 35.0529 8.42217C35.346 8.07881 35.4974 7.54236 35.4974 6.81452V2.19381H39.4943V7.30013C39.4943 8.71582 39.0098 9.86814 38.0409 10.7479C37.0411 11.638 35.5883 12.0825 33.6401 12.0825M41.7144 0H45.6912V11.7494H41.7149L41.7144 0ZM56.3392 2.20409L54.038 7.34126L51.8881 2.20409H47.6393L51.8076 10.8902L49.6778 14.8539H54.1694L60.5583 2.20409H56.3392Z" fill="var(--fill-0, #111111)" fill-opacity="0.4"/>
</svg>
