<svg preserveAspectRatio="none" width="100%" height="100%" overflow="visible" style="display: block;" viewBox="0 0 79.3546 12.9457" fill="none" xmlns="http://www.w3.org/2000/svg">
<path id="Vector" d="M6.33445 12.6731C4.77375 12.6731 3.21306 12.6753 1.65165 12.6731C0.861746 12.6717 0.255162 12.2393 0.0591012 11.5364C0.0214036 11.3963 0.00259838 11.2519 0.00318509 11.1068C0.000353895 7.91225 -0.000589832 4.71701 0.0003539 1.52106C0.0003539 0.756638 0.652237 0.0629942 1.41808 0.0120326C1.49924 0.00731394 1.58063 0.00495457 1.66227 0.00495457C4.76172 0.00495457 7.85976 0.0056624 10.9592 0C11.4398 0 11.8652 0.113248 12.2184 0.457238C12.5326 0.763008 12.6841 1.13673 12.6848 1.56778C12.6892 4.76868 12.6892 7.96959 12.6848 11.1705C12.6834 11.9399 12.0131 12.6392 11.2445 12.6555C10.1325 12.6795 9.01984 12.6696 7.90718 12.6731C7.38341 12.6741 6.85917 12.6741 6.33445 12.6731ZM6.33233 10.9766H6.48875C7.35745 10.9758 8.22024 10.8336 9.0432 10.5554C9.65686 10.3466 10.2443 10.0784 10.7596 9.67916C10.8631 9.59802 10.9408 9.4886 10.9833 9.36419C11.0335 9.19785 10.9649 9.04214 10.8092 8.94375C10.6301 8.83121 10.4546 8.85103 10.2889 8.97277C9.80802 9.32216 9.27449 9.59263 8.70841 9.774C7.77836 10.0791 6.82354 10.1668 5.8489 10.1123C4.58406 10.0415 3.41265 9.70181 2.37007 8.96357C2.31911 8.92608 2.26145 8.89869 2.20019 8.88288C2.10599 8.86013 2.00681 8.87085 1.91964 8.91321C1.83248 8.95556 1.76276 9.02692 1.72243 9.11504C1.62758 9.31393 1.68067 9.50575 1.89372 9.66075C3.21659 10.6248 4.72916 10.956 6.33233 10.9766ZM6.7655 5.1634V2.31804C6.76597 2.23075 6.7622 2.14345 6.75418 2.05616C6.74874 1.99232 6.7283 1.93066 6.69454 1.87621C6.66077 1.82176 6.61462 1.77605 6.55985 1.7428C6.50508 1.70955 6.44324 1.6897 6.37935 1.68487C6.31546 1.68004 6.25133 1.69036 6.19218 1.715C5.99541 1.79286 5.91331 1.92875 5.91331 2.1871V8.08732C5.91331 8.16305 5.91543 8.23949 5.92817 8.31381C5.95932 8.49288 6.10371 8.62524 6.28278 8.64718C6.46893 8.66983 6.64376 8.58702 6.71242 8.41786C6.74809 8.32041 6.7656 8.21726 6.76408 8.1135C6.76762 7.12966 6.76621 6.14582 6.76621 5.16269L6.7655 5.1634ZM4.64847 5.1457C4.64942 4.21471 4.64918 3.28395 4.64776 2.35343C4.64706 2.08235 4.47081 1.89761 4.22662 1.89549C3.97889 1.89336 3.79982 2.07244 3.79911 2.34565C3.79675 4.20716 3.7977 6.06867 3.80194 7.93018C3.80194 8.01937 3.82813 8.11704 3.87202 8.19419C3.91802 8.27259 3.98936 8.33297 4.07427 8.36539C4.15919 8.39782 4.25262 8.40034 4.33916 8.37256C4.53381 8.31381 4.64706 8.1588 4.64776 7.93797C4.64871 7.00698 4.64942 6.07622 4.64847 5.1457ZM8.88253 5.13862V4.99919C8.88347 4.11491 8.883 3.2311 8.88111 2.34777C8.8804 2.08872 8.70841 1.90469 8.47059 1.89619C8.22994 1.8877 8.0544 2.05616 8.03317 2.31875C8.02987 2.37679 8.02869 2.43483 8.02963 2.49287C8.02963 4.24963 8.03034 6.00591 8.03175 7.76173C8.03175 7.84879 8.02892 7.93726 8.04237 8.02291C8.05342 8.09079 8.07849 8.15564 8.11598 8.2133C8.16557 8.28602 8.23757 8.34052 8.32102 8.36851C8.40446 8.3965 8.49477 8.39643 8.57817 8.36831C8.77494 8.30319 8.88111 8.15597 8.88111 7.93018C8.88206 6.99919 8.88229 6.06891 8.88182 5.13933L8.88253 5.13862ZM10.1438 5.06784V6.88335C10.1438 7.19053 10.3158 7.38943 10.5763 7.38589C10.8361 7.38235 10.9981 7.1962 10.9996 6.89326C11.0005 6.46858 11.0005 6.0439 10.9996 5.61922V3.22686C10.9996 2.98904 10.9005 2.83049 10.7235 2.76962C10.4128 2.66345 10.1474 2.86446 10.1452 3.21624C10.1417 3.83344 10.1438 4.44993 10.1438 5.06643V5.06784ZM2.53144 5.05935H2.52932V3.22615C2.53003 3.02372 2.47057 2.85668 2.27168 2.77316C1.98007 2.65 1.68279 2.86446 1.68138 3.20067C1.67925 4.31828 1.68138 5.43519 1.68138 6.55281C1.68138 6.69861 1.6743 6.84442 1.6835 6.98881C1.68585 7.0652 1.70985 7.13935 1.75271 7.20263C1.79556 7.26591 1.85551 7.31572 1.92557 7.34625C2.07421 7.41561 2.22284 7.40287 2.35591 7.30661C2.48898 7.21035 2.53286 7.07092 2.53286 6.90954C2.53003 6.29304 2.53144 5.67584 2.53144 5.05935ZM16.0292 0H18.4194V2.55303H16.0292V0ZM16.0646 3.9835H18.3826V12.6739H16.0653L16.0646 3.9835ZM19.6446 3.9835H21.8714L21.9259 5.59515H21.9981C22.3781 4.59928 22.9939 3.71241 24.5872 3.71241C26.1804 3.71241 27.3214 4.43578 27.3214 6.71702V12.6739H25.0034V7.13462C25.0034 6.28314 24.8406 5.54065 23.7718 5.54065C22.2698 5.54065 21.962 7.31511 21.962 8.36477V12.6746H19.6439L19.6446 3.9835ZM29.2042 10.6099V5.72256H27.6831V4.18309C29.6932 4.0925 29.9098 2.98762 30.0188 1.46727H31.4854V3.9842H33.3328V5.72185H31.5215V10.3211C31.5215 10.5745 31.6305 10.6828 31.8839 10.6828H33.332V12.6753H31.0692C29.6748 12.6753 29.2042 11.9321 29.2042 10.6106V10.6099ZM33.4226 8.34708C33.4226 5.77564 35.161 3.7117 37.8407 3.7117C40.5205 3.7117 42.1498 5.59445 42.1498 8.52827H35.8306C35.8306 10.067 36.5009 11.2618 37.9306 11.2618C39.216 11.2618 39.7596 10.1753 39.8502 9.10725L42.0408 9.59564C41.6062 11.4791 40.1942 12.9456 37.9129 12.9456C35.1787 12.9456 33.4226 10.9355 33.4226 8.34708ZM39.778 7.2967C39.5968 5.93914 38.7821 5.35946 37.8407 5.35946C36.8994 5.35946 36.084 5.97524 35.9028 7.2967H39.778ZM42.9284 3.9835H45.1558L45.2096 6.06584H45.2825C45.5536 4.74438 46.2239 3.8384 47.527 3.8384C47.7811 3.8384 47.9254 3.8568 48.1066 3.8929V6.19324C47.8577 6.13184 47.6021 6.10141 47.3458 6.10265C45.6803 6.10265 45.2457 7.6414 45.2457 9.30685V12.6746H42.9284V3.9835ZM48.0826 8.34708C48.0826 5.70345 49.7848 3.7117 52.5368 3.7117C54.9447 3.7117 56.2846 5.14216 56.6286 6.93431L54.3657 7.67679C54.2744 6.26473 53.7138 5.39555 52.5368 5.39555C51.468 5.39555 50.6179 6.31853 50.6179 8.34708C50.6179 10.3742 51.5232 11.2611 52.5729 11.2611C53.8044 11.2611 54.4202 10.2114 54.583 8.76256L56.7736 9.19715C56.4658 11.4239 54.9454 12.9449 52.5736 12.9449C49.7671 12.9449 48.0833 10.9893 48.0833 8.34637L48.0826 8.34708ZM57.0561 8.32868C57.0561 5.73955 58.7576 3.7117 61.455 3.7117C64.1525 3.7117 65.8547 5.73955 65.8547 8.32868C65.8547 10.9185 64.1532 12.9456 61.455 12.9456C58.7583 12.9456 57.0561 10.9185 57.0561 8.32868ZM63.3201 8.32868C63.3201 6.35533 62.596 5.39555 61.455 5.39555C60.3141 5.39555 59.59 6.35533 59.59 8.32868C59.59 10.302 60.3141 11.2618 61.455 11.2618C62.596 11.2618 63.3201 10.3027 63.3201 8.32868ZM66.6807 3.9835H68.9082L68.9627 5.59515H69.0349C69.3973 4.47258 70.0845 3.71241 71.5879 3.71241C72.8548 3.71241 73.7785 4.25458 74.068 5.61285H74.1402C74.5026 4.58088 75.1538 3.7117 76.7109 3.7117C78.2681 3.7117 79.3546 4.43578 79.3546 6.71772V12.6739H77.0372V7.13462C77.0372 6.30154 76.856 5.54065 75.8786 5.54065C74.4658 5.54065 74.1763 7.31511 74.1763 8.36477V12.6746H71.859V7.13391C71.859 6.30083 71.6778 5.54065 70.6996 5.54065C69.2875 5.54065 68.9981 7.31511 68.9981 8.36477V12.6739H66.68L66.6807 3.9835Z" fill="var(--fill-0, white)"/>
</svg>
