<svg preserveAspectRatio="none" width="100%" height="100%" overflow="visible" style="display: block;" viewBox="0 0 32 32" fill="none" xmlns="http://www.w3.org/2000/svg">
<g id="Group">
<path id="Vector" d="M23.947 15.93C23.947 14.734 24.757 13.925 25.987 13.925C27.112 13.925 27.886 14.735 27.886 15.93C27.886 17.09 27.112 17.864 25.986 17.864C24.756 17.864 23.947 17.09 23.947 15.93ZM20.923 9.67C21.626 8.65 22.083 7.42 22.083 5.697C23.8081 6.71702 25.2476 8.15619 26.268 9.881C24.58 9.881 23.349 10.338 22.33 11.077C21.9336 10.5406 21.4594 10.0664 20.923 9.67ZM20.853 22.26C21.38 21.873 21.837 21.38 22.259 20.888C23.279 21.662 24.545 22.118 26.269 22.118C25.2668 23.8571 23.8231 25.3008 22.084 26.303C22.084 24.545 21.626 23.28 20.853 22.26ZM19.798 1.37C26.374 3.024 31.086 8.861 31.086 16C31.086 18.989 28.836 21.204 25.916 21.204C24.721 21.204 23.596 20.818 22.752 20.184C23.209 19.446 23.525 18.637 23.736 17.758C24.0171 18.078 24.3632 18.3345 24.7511 18.5103C25.1391 18.6862 25.56 18.7775 25.986 18.778C27.499 18.778 28.8 17.477 28.8 15.93C28.8 11.042 25.987 6.752 21.873 4.607C21.556 3.341 20.783 2.18 19.798 1.371M18.145 20.185C18.9163 19.7909 19.564 19.1918 20.0169 18.4534C20.4698 17.7151 20.7103 16.8662 20.712 16C20.7017 15.2387 20.8604 14.4847 21.1765 13.7921C21.4926 13.0995 21.9584 12.4856 22.5402 11.9946C23.1221 11.5036 23.8055 11.1477 24.5414 10.9526C25.2773 10.7574 26.0473 10.7279 26.796 10.866C27.182 11.71 27.464 12.659 27.675 13.609C27.198 13.2213 26.6017 13.0101 25.987 13.011C24.369 13.011 23.033 14.347 23.033 15.93C23.033 18.32 21.943 20.36 20.29 21.626C19.6903 20.9931 18.9577 20.5009 18.145 20.185ZM14.031 6.119C14.031 4.923 14.84 4.114 16.071 4.114C17.196 4.114 17.969 4.924 17.969 6.119C17.969 7.279 17.196 8.053 16.07 8.053C14.84 8.053 14.03 7.279 14.03 6.119M14.03 25.952C14.03 24.756 14.839 23.947 16.07 23.947C17.195 23.947 17.968 24.757 17.968 25.952C17.968 27.112 17.195 27.886 16.069 27.886C14.839 27.886 14.03 27.112 14.03 25.952ZM12.202 16C12.202 13.82 13.82 12.202 16.035 12.202C18.215 12.202 19.798 13.82 19.798 16C19.798 18.215 18.215 19.798 16.035 19.798C13.82 19.798 12.202 18.215 12.202 16ZM16.035 11.288C12.659 11.288 10.409 8.475 10.901 5.24C11.781 4.818 12.765 4.501 13.749 4.325C13.3443 4.83595 13.1216 5.46724 13.116 6.119C13.116 7.666 14.453 8.967 16.07 8.967C18.426 8.967 20.466 9.952 21.697 11.604C21.029 12.237 20.537 13.011 20.185 13.854C19.411 12.343 17.829 11.288 16.035 11.288ZM10.831 25.88C10.8231 24.7537 11.181 23.6553 11.851 22.75C12.5718 23.1905 13.3535 23.5224 14.171 23.735C13.8443 24.0052 13.5807 24.3436 13.3984 24.7263C13.2162 25.1091 13.1198 25.5271 13.116 25.951C13.116 27.498 14.453 28.799 16.07 28.799C20.993 28.799 25.213 26.021 27.323 21.942C28.6124 21.6308 29.7623 20.9011 30.593 19.867C28.941 26.408 23.138 31.086 16 31.086C13.081 31.086 10.83 28.836 10.83 25.881M10.408 20.325C11.0122 19.6953 11.4896 18.9552 11.814 18.145C12.2153 18.918 12.8209 19.5661 13.565 20.0187C14.3091 20.4713 15.1631 20.7111 16.034 20.712C19.41 20.712 21.625 23.702 21.098 26.831C20.1983 27.2339 19.254 27.5289 18.285 27.71C18.636 27.218 18.882 26.62 18.882 25.952C18.882 24.369 17.582 23.032 16.069 23.032C13.713 23.032 11.674 21.978 10.408 20.325ZM5.767 22.12C7.455 22.12 8.721 21.663 9.741 20.889C10.163 21.381 10.62 21.874 11.147 22.26C10.374 23.28 9.917 24.546 9.917 26.27C8.20354 25.2617 6.77528 23.8335 5.767 22.12ZM5.732 9.88C6.76362 8.17287 8.20127 6.74725 9.917 5.73C9.917 7.49 10.374 8.755 11.182 9.775C10.6466 10.1582 10.1725 10.6204 9.776 11.146C8.756 10.337 7.49 9.88 5.732 9.88ZM4.29 18.145C4.818 18.532 5.45 18.778 6.154 18.778C7.666 18.778 8.967 17.477 8.967 15.93C8.967 13.644 10.057 11.675 11.71 10.409C12.3397 11.0132 13.0798 11.4906 13.89 11.815C12.343 12.589 11.288 14.207 11.288 16C11.288 19.446 8.369 21.626 5.24 21.134C4.81238 20.1764 4.49371 19.1738 4.29 18.145ZM4.114 15.93C4.114 14.734 4.924 13.925 6.154 13.925C7.279 13.925 8.053 14.735 8.053 15.93C8.053 17.09 7.279 17.864 6.153 17.864C4.923 17.864 4.114 17.09 4.114 15.93ZM1.371 12.167C3.06 5.591 8.861 0.914 15.965 0.914C18.919 0.914 21.169 3.164 21.169 6.084C21.169 7.279 20.818 8.334 20.219 9.178C19.5021 8.74601 18.7179 8.43708 17.899 8.264C18.2052 7.99623 18.4512 7.66663 18.6208 7.29692C18.7904 6.9272 18.8798 6.52575 18.883 6.119C18.883 4.536 17.583 3.2 16.07 3.2C11.112 3.2 6.822 6.013 4.677 10.057C3.376 10.374 2.215 11.147 1.371 12.167ZM0.914 16C0.914 13.046 3.164 10.796 6.119 10.796C7.314 10.796 8.404 11.182 9.249 11.851C8.81949 12.5357 8.499 13.2829 8.299 14.066C7.771 13.433 6.998 13.011 6.154 13.011C4.536 13.011 3.2 14.347 3.2 15.93C3.2 20.923 5.978 25.178 10.092 27.358C10.409 28.659 11.182 29.785 12.202 30.628C5.626 29.012 0.914 23.175 0.914 16ZM15.964 32C24.51 32 32 25.178 32 16C32 7.138 24.862 0 15.965 0C7.138 0 0 7.138 0 16C0 24.862 7.138 32 15.965 32" fill="var(--fill-0, white)" fill-opacity="0.4"/>
<path id="Vector_2" d="M23.947 15.93C23.947 14.734 24.757 13.925 25.987 13.925C27.112 13.925 27.886 14.735 27.886 15.93C27.886 17.09 27.112 17.864 25.986 17.864C24.756 17.864 23.947 17.09 23.947 15.93ZM20.923 9.67C21.626 8.65 22.083 7.42 22.083 5.697C23.8081 6.71702 25.2476 8.15619 26.268 9.881C24.58 9.881 23.349 10.338 22.33 11.077C21.9336 10.5406 21.4594 10.0664 20.923 9.67ZM20.853 22.26C21.38 21.873 21.837 21.38 22.259 20.888C23.279 21.662 24.545 22.118 26.269 22.118C25.2668 23.8571 23.8231 25.3008 22.084 26.303C22.084 24.545 21.626 23.28 20.853 22.26ZM19.798 1.37C26.374 3.024 31.086 8.861 31.086 16C31.086 18.989 28.836 21.204 25.916 21.204C24.721 21.204 23.596 20.818 22.752 20.184C23.209 19.446 23.525 18.637 23.736 17.758C24.0171 18.078 24.3632 18.3345 24.7511 18.5103C25.1391 18.6862 25.56 18.7775 25.986 18.778C27.499 18.778 28.8 17.477 28.8 15.93C28.8 11.042 25.987 6.752 21.873 4.607C21.556 3.341 20.783 2.18 19.798 1.371M18.145 20.185C18.9163 19.7909 19.564 19.1918 20.0169 18.4534C20.4698 17.7151 20.7103 16.8662 20.712 16C20.7017 15.2387 20.8604 14.4847 21.1765 13.7921C21.4926 13.0995 21.9584 12.4856 22.5402 11.9946C23.1221 11.5036 23.8055 11.1477 24.5414 10.9526C25.2773 10.7574 26.0473 10.7279 26.796 10.866C27.182 11.71 27.464 12.659 27.675 13.609C27.198 13.2213 26.6017 13.0101 25.987 13.011C24.369 13.011 23.033 14.347 23.033 15.93C23.033 18.32 21.943 20.36 20.29 21.626C19.6903 20.9931 18.9577 20.5009 18.145 20.185ZM14.031 6.119C14.031 4.923 14.84 4.114 16.071 4.114C17.196 4.114 17.969 4.924 17.969 6.119C17.969 7.279 17.196 8.053 16.07 8.053C14.84 8.053 14.03 7.279 14.03 6.119M14.03 25.952C14.03 24.756 14.839 23.947 16.07 23.947C17.195 23.947 17.968 24.757 17.968 25.952C17.968 27.112 17.195 27.886 16.069 27.886C14.839 27.886 14.03 27.112 14.03 25.952ZM12.202 16C12.202 13.82 13.82 12.202 16.035 12.202C18.215 12.202 19.798 13.82 19.798 16C19.798 18.215 18.215 19.798 16.035 19.798C13.82 19.798 12.202 18.215 12.202 16ZM16.035 11.288C12.659 11.288 10.409 8.475 10.901 5.24C11.781 4.818 12.765 4.501 13.749 4.325C13.3443 4.83595 13.1216 5.46724 13.116 6.119C13.116 7.666 14.453 8.967 16.07 8.967C18.426 8.967 20.466 9.952 21.697 11.604C21.029 12.237 20.537 13.011 20.185 13.854C19.411 12.343 17.829 11.288 16.035 11.288ZM10.831 25.88C10.8231 24.7537 11.181 23.6553 11.851 22.75C12.5718 23.1905 13.3535 23.5224 14.171 23.735C13.8443 24.0052 13.5807 24.3436 13.3984 24.7263C13.2162 25.1091 13.1198 25.5271 13.116 25.951C13.116 27.498 14.453 28.799 16.07 28.799C20.993 28.799 25.213 26.021 27.323 21.942C28.6124 21.6308 29.7623 20.9011 30.593 19.867C28.941 26.408 23.138 31.086 16 31.086C13.081 31.086 10.83 28.836 10.83 25.881M10.408 20.325C11.0122 19.6953 11.4896 18.9552 11.814 18.145C12.2153 18.918 12.8209 19.5661 13.565 20.0187C14.3091 20.4713 15.1631 20.7111 16.034 20.712C19.41 20.712 21.625 23.702 21.098 26.831C20.1983 27.2339 19.254 27.5289 18.285 27.71C18.636 27.218 18.882 26.62 18.882 25.952C18.882 24.369 17.582 23.032 16.069 23.032C13.713 23.032 11.674 21.978 10.408 20.325ZM5.767 22.12C7.455 22.12 8.721 21.663 9.741 20.889C10.163 21.381 10.62 21.874 11.147 22.26C10.374 23.28 9.917 24.546 9.917 26.27C8.20354 25.2617 6.77528 23.8335 5.767 22.12ZM5.732 9.88C6.76362 8.17287 8.20127 6.74725 9.917 5.73C9.917 7.49 10.374 8.755 11.182 9.775C10.6466 10.1582 10.1725 10.6204 9.776 11.146C8.756 10.337 7.49 9.88 5.732 9.88ZM4.29 18.145C4.818 18.532 5.45 18.778 6.154 18.778C7.666 18.778 8.967 17.477 8.967 15.93C8.967 13.644 10.057 11.675 11.71 10.409C12.3397 11.0132 13.0798 11.4906 13.89 11.815C12.343 12.589 11.288 14.207 11.288 16C11.288 19.446 8.369 21.626 5.24 21.134C4.81238 20.1764 4.49371 19.1738 4.29 18.145ZM4.114 15.93C4.114 14.734 4.924 13.925 6.154 13.925C7.279 13.925 8.053 14.735 8.053 15.93C8.053 17.09 7.279 17.864 6.153 17.864C4.923 17.864 4.114 17.09 4.114 15.93ZM1.371 12.167C3.06 5.591 8.861 0.914 15.965 0.914C18.919 0.914 21.169 3.164 21.169 6.084C21.169 7.279 20.818 8.334 20.219 9.178C19.5021 8.74601 18.7179 8.43708 17.899 8.264C18.2052 7.99623 18.4512 7.66663 18.6208 7.29692C18.7904 6.9272 18.8798 6.52575 18.883 6.119C18.883 4.536 17.583 3.2 16.07 3.2C11.112 3.2 6.822 6.013 4.677 10.057C3.376 10.374 2.215 11.147 1.371 12.167ZM0.914 16C0.914 13.046 3.164 10.796 6.119 10.796C7.314 10.796 8.404 11.182 9.249 11.851C8.81949 12.5357 8.499 13.2829 8.299 14.066C7.771 13.433 6.998 13.011 6.154 13.011C4.536 13.011 3.2 14.347 3.2 15.93C3.2 20.923 5.978 25.178 10.092 27.358C10.409 28.659 11.182 29.785 12.202 30.628C5.626 29.012 0.914 23.175 0.914 16ZM15.964 32C24.51 32 32 25.178 32 16C32 7.138 24.862 0 15.965 0C7.138 0 0 7.138 0 16C0 24.862 7.138 32 15.965 32" fill="var(--fill-0, white)" fill-opacity="0.4"/>
</g>
</svg>
