<svg preserveAspectRatio="none" width="100%" height="100%" overflow="visible" style="display: block;" viewBox="0 0 98.1471 15.9981" fill="none" xmlns="http://www.w3.org/2000/svg">
<path id="Vector" d="M6.75362 15.9981H4.86238L9.7219 0.0207771H11.6183L6.75362 15.9981ZM16.4772 15.9981H14.5831L11.5594 6.05619H13.4535L15.5293 12.8864L19.4449 0.0207771H21.3391L16.4772 15.9981ZM83.7409 15.9981H81.7886V0.0213487H83.7409V15.9981ZM26.9774 15.9964H25.025V0.0207771H26.9774V15.9964ZM38.4322 15.9964H36.4799V0.0207771H38.4317L38.4322 15.9964ZM50.2848 0.0207771C52.4026 0.0228951 54.433 0.865162 55.9305 2.36272C57.4279 3.86028 58.27 5.89078 58.272 8.00857C58.272 9.58843 57.8035 11.1328 56.9258 12.4464C56.048 13.76 54.8005 14.7838 53.3409 15.3884C51.8813 15.9929 50.2752 16.1511 48.7257 15.8428C47.1762 15.5346 45.7529 14.7738 44.6358 13.6566C43.5187 12.5394 42.758 11.1161 42.4498 9.56656C42.1417 8.01704 42.3 6.41094 42.9046 4.95138C43.5093 3.49181 44.5332 2.24433 45.8469 1.36668C47.1605 0.489044 48.7049 0.0206641 50.2848 0.0207771ZM69.6857 0.0207771C71.8036 0.0230458 73.8341 0.86509 75.332 2.36226C76.8289 3.86014 77.6707 5.89042 77.673 8.00799C77.673 9.58785 77.2045 11.1322 76.3267 12.4458C75.449 13.7594 74.2014 14.7832 72.7418 15.3878C71.2822 15.9924 69.6761 16.1505 68.1266 15.8423C66.5771 15.534 65.1538 14.7732 64.0368 13.656C62.9197 12.5388 62.1589 11.1155 61.8508 9.56598C61.5427 8.01647 61.7009 6.41037 62.3056 4.9508C62.9102 3.49124 63.9341 2.24375 65.2478 1.36611C66.5615 0.488473 68.1059 0.0206641 69.6857 0.0207771ZM52.6206 2.36912C51.5053 1.90748 50.2783 1.78682 49.0945 2.02241C47.9108 2.25799 46.8234 2.83923 45.9699 3.69267C45.1164 4.5461 44.5351 5.63341 44.2995 6.81716C44.0638 8.00091 44.1844 9.22795 44.6459 10.3432C45.1078 11.4585 45.89 12.4118 46.8938 13.0825C47.8975 13.7531 49.0776 14.111 50.2848 14.1108C51.3894 14.1096 52.473 13.8087 53.4202 13.2402C54.3673 12.6718 55.1425 11.857 55.6632 10.8828C56.1839 9.90859 56.4305 8.81137 56.3769 7.70804C56.3232 6.6047 55.9713 5.53659 55.3586 4.61747C54.6878 3.61421 53.7351 2.8319 52.6206 2.36912ZM72.0209 2.36912C71.1874 2.02456 70.2878 1.86907 69.387 1.91383C68.4862 1.95858 67.6065 2.20247 66.8112 2.62795C66.0159 3.05342 65.3248 3.6499 64.7877 4.37446C64.2505 5.09902 63.8807 5.93364 63.7048 6.81826C63.5288 7.70288 63.5512 8.6155 63.7702 9.49044C63.9892 10.3654 64.3995 11.1809 64.9715 11.8783C65.5434 12.5757 66.2629 13.1376 67.078 13.5237C67.8932 13.9097 68.7838 14.1102 69.6857 14.1108C71.3039 14.1093 72.8553 13.4658 73.9994 12.3214C75.1435 11.1771 75.7868 9.62558 75.788 8.00742C75.7881 6.80041 75.4303 5.62048 74.7597 4.61686C74.0892 3.61324 73.1361 2.83101 72.0209 2.36912ZM88.3125 0.0202061C89.7582 0.0202061 91.1446 0.594495 92.1669 1.61674C93.1891 2.63898 93.7634 4.02543 93.7634 5.4711C93.7634 6.91677 93.1891 8.30322 92.1669 9.32546C91.1446 10.3477 89.7582 10.922 88.3125 10.922H85.6933V9.02332H88.3125C89.2355 8.99465 90.1111 8.60783 90.7539 7.94479C91.3966 7.28174 91.7561 6.39455 91.7561 5.4711C91.7561 4.54765 91.3966 3.66046 90.7539 2.99742C90.1111 2.33437 89.2355 1.94755 88.3125 1.91888H85.6933V0.0202061H88.3125ZM4.91723 9.96037H3.0237L0 0.0207771H1.8941L4.91723 9.96037ZM34.5298 8.98676H28.9269V7.03438H34.5298V8.98676ZM96.7391 0.0224914C96.9678 -0.0228157 97.2048 0.000655152 97.4202 0.0899406C97.6356 0.179226 97.8197 0.330323 97.9493 0.524157C98.1002 0.750879 98.1681 1.02282 98.1414 1.29389C98.1148 1.56496 97.9952 1.81847 97.803 2.01144C97.6658 2.14828 97.497 2.24923 97.3116 2.30536C97.1261 2.3615 96.9297 2.37111 96.7397 2.33332C96.5496 2.29554 96.3718 2.21154 96.2219 2.08873C96.0721 1.96592 95.9547 1.8081 95.8803 1.62919C95.7918 1.41376 95.7689 1.177 95.8145 0.948609C95.86 0.720213 95.972 0.510344 96.1363 0.345317C96.3009 0.180636 96.5107 0.0684883 96.7391 0.023063M96.9694 0.219615C96.8441 0.219674 96.72 0.244661 96.6045 0.293121C96.489 0.341582 96.3842 0.412546 96.2964 0.501882C96.2085 0.591218 96.1393 0.697139 96.0928 0.813477C96.0463 0.929816 96.0234 1.05425 96.0254 1.17952C96.0191 1.30719 96.0387 1.43482 96.0832 1.55465C96.1277 1.67449 96.1961 1.78402 96.2843 1.8766C96.3728 1.96877 96.479 2.04222 96.5965 2.09257C96.714 2.14292 96.8404 2.16915 96.9682 2.16971C97.1608 2.1691 97.3486 2.1099 97.5067 1.99998C97.6648 1.89006 97.7856 1.73463 97.8533 1.55434C97.8973 1.43435 97.9167 1.30694 97.9104 1.17895C97.9131 1.05374 97.8907 0.929269 97.8445 0.812877C97.7982 0.696485 97.7292 0.59054 97.6413 0.501302C97.5538 0.411862 97.4492 0.340858 97.3338 0.292478C97.2184 0.244098 97.0945 0.219323 96.9694 0.219615ZM97.0391 0.54244C97.0915 0.540455 97.1439 0.548977 97.193 0.567506C97.2422 0.586035 97.2871 0.614197 97.3252 0.650338C97.3634 0.686479 97.3939 0.729871 97.415 0.777965C97.4361 0.826059 97.4474 0.877886 97.4482 0.930402C97.4493 1.00717 97.4254 1.08223 97.3802 1.14427C97.3349 1.2063 97.2708 1.25196 97.1973 1.27437L97.4807 1.81146L97.2156 1.81374L96.9551 1.30922H96.7928V1.81374H96.5602V0.54244H97.0391ZM97.0088 0.740135H96.7928V1.12295H97.0493C97.083 1.11916 97.1152 1.10675 97.1427 1.08694C97.1702 1.06713 97.1922 1.04057 97.2065 1.00982C97.2174 0.985077 97.2231 0.958317 97.2231 0.931259C97.2231 0.904202 97.2174 0.877442 97.2065 0.852696C97.1952 0.828085 97.179 0.806055 97.1588 0.78797C97.1387 0.769886 97.115 0.756133 97.0893 0.747563C97.0633 0.739461 97.0359 0.73693 97.0088 0.740135Z" fill="var(--fill-0, white)" fill-opacity="0.4"/>
</svg>
