<svg preserveAspectRatio="none" width="100%" height="100%" overflow="visible" style="display: block;" viewBox="0 0 942.888 189.367" fill="none" xmlns="http://www.w3.org/2000/svg">
<g id="Group">
<path id="Vector" d="M3.45561 188.874C5.09145 188.874 6.41756 187.548 6.41756 185.912C6.41756 184.276 5.09145 182.95 3.45561 182.95C1.81977 182.95 0.493659 184.276 0.493659 185.912C0.493659 187.548 1.81977 188.874 3.45561 188.874Z" fill="var(--fill-0, #F4F3EC)" stroke="var(--stroke-0, #FF5600)" stroke-width="0.987317"/>
<path id="Vector_2" d="M33.6484 163.993C35.2842 163.993 36.6104 162.667 36.6104 161.031C36.6104 159.396 35.2842 158.069 33.6484 158.069C32.0126 158.069 30.6865 159.396 30.6865 161.031C30.6865 162.667 32.0126 163.993 33.6484 163.993Z" fill="var(--fill-0, #F4F3EC)" stroke="var(--stroke-0, #FF5600)" stroke-width="0.987317"/>
<path id="Vector_3" d="M63.8412 143.26C65.477 143.26 66.8031 141.934 66.8031 140.298C66.8031 138.662 65.477 137.336 63.8412 137.336C62.2054 137.336 60.8792 138.662 60.8792 140.298C60.8792 141.934 62.2054 143.26 63.8412 143.26Z" fill="var(--fill-0, #F4F3EC)" stroke="var(--stroke-0, #FF5600)" stroke-width="0.987317"/>
<path id="Vector_4" d="M94.034 139.113C95.6698 139.113 96.9959 137.787 96.9959 136.151C96.9959 134.515 95.6698 133.189 94.034 133.189C92.3981 133.189 91.072 134.515 91.072 136.151C91.072 137.787 92.3981 139.113 94.034 139.113Z" fill="var(--fill-0, #F4F3EC)" stroke="var(--stroke-0, #FF5600)" stroke-width="0.987317"/>
<path id="Vector_5" d="M124.227 134.966C125.863 134.966 127.189 133.64 127.189 132.004C127.189 130.368 125.863 129.042 124.227 129.042C122.591 129.042 121.265 130.368 121.265 132.004C121.265 133.64 122.591 134.966 124.227 134.966Z" fill="var(--fill-0, #F4F3EC)" stroke="var(--stroke-0, #FF5600)" stroke-width="0.987317"/>
<path id="Vector_6" d="M154.42 130.82C156.055 130.82 157.382 129.493 157.382 127.858C157.382 126.222 156.055 124.896 154.42 124.896C152.784 124.896 151.458 126.222 151.458 127.858C151.458 129.493 152.784 130.82 154.42 130.82Z" fill="var(--fill-0, #F4F3EC)" stroke="var(--stroke-0, #FF5600)" stroke-width="0.987317"/>
<path id="Vector_7" d="M184.612 114.233C186.248 114.233 187.574 112.906 187.574 111.271C187.574 109.635 186.248 108.309 184.612 108.309C182.977 108.309 181.65 109.635 181.65 111.271C181.65 112.906 182.977 114.233 184.612 114.233Z" fill="var(--fill-0, #F4F3EC)" stroke="var(--stroke-0, #FF5600)" stroke-width="0.987317"/>
<path id="Vector_8" d="M214.805 114.233C216.441 114.233 217.767 112.906 217.767 111.271C217.767 109.635 216.441 108.309 214.805 108.309C213.169 108.309 211.843 109.635 211.843 111.271C211.843 112.906 213.169 114.233 214.805 114.233Z" fill="var(--fill-0, #F4F3EC)" stroke="var(--stroke-0, #FF5600)" stroke-width="0.987317"/>
<path id="Vector_9" d="M244.998 105.939C246.634 105.939 247.96 104.613 247.96 102.977C247.96 101.341 246.634 100.015 244.998 100.015C243.362 100.015 242.036 101.341 242.036 102.977C242.036 104.613 243.362 105.939 244.998 105.939Z" fill="var(--fill-0, #F4F3EC)" stroke="var(--stroke-0, #FF5600)" stroke-width="0.987317"/>
<path id="Vector_10" d="M275.191 105.939C276.827 105.939 278.153 104.613 278.153 102.977C278.153 101.341 276.827 100.015 275.191 100.015C273.555 100.015 272.229 101.341 272.229 102.977C272.229 104.613 273.555 105.939 275.191 105.939Z" fill="var(--fill-0, #F4F3EC)" stroke="var(--stroke-0, #FF5600)" stroke-width="0.987317"/>
<path id="Vector_11" d="M305.384 114.233C307.019 114.233 308.346 112.906 308.346 111.271C308.346 109.635 307.019 108.309 305.384 108.309C303.748 108.309 302.422 109.635 302.422 111.271C302.422 112.906 303.748 114.233 305.384 114.233Z" fill="var(--fill-0, #F4F3EC)" stroke="var(--stroke-0, #FF5600)" stroke-width="0.987317"/>
<path id="Vector_12" d="M335.576 97.6457C337.212 97.6457 338.538 96.3195 338.538 94.6837C338.538 93.0479 337.212 91.7218 335.576 91.7218C333.94 91.7218 332.614 93.0479 332.614 94.6837C332.614 96.3195 333.94 97.6457 335.576 97.6457Z" fill="var(--fill-0, #F4F3EC)" stroke="var(--stroke-0, #FF5600)" stroke-width="0.987317"/>
<path id="Vector_13" d="M365.769 93.4989C367.405 93.4989 368.731 92.1728 368.731 90.537C368.731 88.9011 367.405 87.575 365.769 87.575C364.133 87.575 362.807 88.9011 362.807 90.537C362.807 92.1728 364.133 93.4989 365.769 93.4989Z" fill="var(--fill-0, #F4F3EC)" stroke="var(--stroke-0, #FF5600)" stroke-width="0.987317"/>
<path id="Vector_14" d="M395.962 93.4989C397.598 93.4989 398.924 92.1728 398.924 90.537C398.924 88.9011 397.598 87.575 395.962 87.575C394.326 87.575 393 88.9011 393 90.537C393 92.1728 394.326 93.4989 395.962 93.4989Z" fill="var(--fill-0, #F4F3EC)" stroke="var(--stroke-0, #FF5600)" stroke-width="0.987317"/>
<path id="Vector_15" d="M426.155 85.2055C427.791 85.2055 429.117 83.8794 429.117 82.2435C429.117 80.6077 427.791 79.2816 426.155 79.2816C424.519 79.2816 423.193 80.6077 423.193 82.2435C423.193 83.8794 424.519 85.2055 426.155 85.2055Z" fill="var(--fill-0, #F4F3EC)" stroke="var(--stroke-0, #FF5600)" stroke-width="0.987317"/>
<path id="Vector_16" d="M456.348 81.0587C457.983 81.0587 459.309 79.7326 459.309 78.0968C459.309 76.4609 457.983 75.1348 456.348 75.1348C454.712 75.1348 453.386 76.4609 453.386 78.0968C453.386 79.7326 454.712 81.0587 456.348 81.0587Z" fill="var(--fill-0, #F4F3EC)" stroke="var(--stroke-0, #FF5600)" stroke-width="0.987317"/>
<path id="Vector_17" d="M486.54 76.912C488.176 76.912 489.502 75.5859 489.502 73.95C489.502 72.3142 488.176 70.9881 486.54 70.9881C484.904 70.9881 483.578 72.3142 483.578 73.95C483.578 75.5859 484.904 76.912 486.54 76.912Z" fill="var(--fill-0, #F4F3EC)" stroke="var(--stroke-0, #FF5600)" stroke-width="0.987317"/>
<path id="Vector_18" d="M516.733 68.6185C518.369 68.6185 519.695 67.2924 519.695 65.6566C519.695 64.0207 518.369 62.6946 516.733 62.6946C515.097 62.6946 513.771 64.0207 513.771 65.6566C513.771 67.2924 515.097 68.6185 516.733 68.6185Z" fill="var(--fill-0, #F4F3EC)" stroke="var(--stroke-0, #FF5600)" stroke-width="0.987317"/>
<path id="Vector_19" d="M546.926 68.6185C548.562 68.6185 549.888 67.2924 549.888 65.6566C549.888 64.0207 548.562 62.6946 546.926 62.6946C545.29 62.6946 543.964 64.0207 543.964 65.6566C543.964 67.2924 545.29 68.6185 546.926 68.6185Z" fill="var(--fill-0, #F4F3EC)" stroke="var(--stroke-0, #FF5600)" stroke-width="0.987317"/>
<path id="Vector_20" d="M577.119 64.4718C578.755 64.4718 580.081 63.1457 580.081 61.5099C580.081 59.874 578.755 58.5479 577.119 58.5479C575.483 58.5479 574.157 59.874 574.157 61.5099C574.157 63.1457 575.483 64.4718 577.119 64.4718Z" fill="var(--fill-0, #F4F3EC)" stroke="var(--stroke-0, #FF5600)" stroke-width="0.987317"/>
<path id="Vector_21" d="M607.312 60.3251C608.947 60.3251 610.273 58.999 610.273 57.3631C610.273 55.7273 608.947 54.4012 607.312 54.4012C605.676 54.4012 604.35 55.7273 604.35 57.3631C604.35 58.999 605.676 60.3251 607.312 60.3251Z" fill="var(--fill-0, #F4F3EC)" stroke="var(--stroke-0, #FF5600)" stroke-width="0.987317"/>
<path id="Vector_22" d="M637.504 56.1783C639.14 56.1783 640.466 54.8522 640.466 53.2164C640.466 51.5805 639.14 50.2544 637.504 50.2544C635.868 50.2544 634.542 51.5805 634.542 53.2164C634.542 54.8522 635.868 56.1783 637.504 56.1783Z" fill="var(--fill-0, #F4F3EC)" stroke="var(--stroke-0, #FF5600)" stroke-width="0.987317"/>
<path id="Vector_23" d="M667.697 56.1783C669.333 56.1783 670.659 54.8522 670.659 53.2164C670.659 51.5805 669.333 50.2544 667.697 50.2544C666.061 50.2544 664.735 51.5805 664.735 53.2164C664.735 54.8522 666.061 56.1783 667.697 56.1783Z" fill="var(--fill-0, #F4F3EC)" stroke="var(--stroke-0, #FF5600)" stroke-width="0.987317"/>
<path id="Vector_24" d="M697.89 52.0316C699.526 52.0316 700.852 50.7055 700.852 49.0697C700.852 47.4338 699.526 46.1077 697.89 46.1077C696.254 46.1077 694.928 47.4338 694.928 49.0697C694.928 50.7055 696.254 52.0316 697.89 52.0316Z" fill="var(--fill-0, #F4F3EC)" stroke="var(--stroke-0, #FF5600)" stroke-width="0.987317"/>
<path id="Vector_25" d="M728.083 39.5914C729.718 39.5914 731.045 38.2653 731.045 36.6295C731.045 34.9936 729.718 33.6675 728.083 33.6675C726.447 33.6675 725.121 34.9936 725.121 36.6295C725.121 38.2653 726.447 39.5914 728.083 39.5914Z" fill="var(--fill-0, #F4F3EC)" stroke="var(--stroke-0, #FF5600)" stroke-width="0.987317"/>
<path id="Vector_26" d="M758.275 27.1512C759.911 27.1512 761.237 25.8251 761.237 24.1893C761.237 22.5534 759.911 21.2273 758.275 21.2273C756.64 21.2273 755.313 22.5534 755.313 24.1893C755.313 25.8251 756.64 27.1512 758.275 27.1512Z" fill="var(--fill-0, #F4F3EC)" stroke="var(--stroke-0, #FF5600)" stroke-width="0.987317"/>
<path id="Vector_27" d="M788.468 14.711C790.104 14.711 791.43 13.3849 791.43 11.7491C791.43 10.1132 790.104 8.78712 788.468 8.78712C786.832 8.78712 785.506 10.1132 785.506 11.7491C785.506 13.3849 786.832 14.711 788.468 14.711Z" fill="var(--fill-0, #F4F3EC)" stroke="var(--stroke-0, #FF5600)" stroke-width="0.987317"/>
<path id="Vector_28" d="M818.661 14.711C820.297 14.711 821.623 13.3849 821.623 11.7491C821.623 10.1132 820.297 8.78712 818.661 8.78712C817.025 8.78712 815.699 10.1132 815.699 11.7491C815.699 13.3849 817.025 14.711 818.661 14.711Z" fill="var(--fill-0, #F4F3EC)" stroke="var(--stroke-0, #FF5600)" stroke-width="0.987317"/>
<path id="Vector_29" d="M848.854 10.5643C850.49 10.5643 851.816 9.23818 851.816 7.60234C851.816 5.9665 850.49 4.64039 848.854 4.64039C847.218 4.64039 845.892 5.9665 845.892 7.60234C845.892 9.23818 847.218 10.5643 848.854 10.5643Z" fill="var(--fill-0, #F4F3EC)" stroke="var(--stroke-0, #FF5600)" stroke-width="0.987317"/>
<path id="Vector_30" d="M879.047 10.5643C880.682 10.5643 882.009 9.23818 882.009 7.60234C882.009 5.9665 880.682 4.64039 879.047 4.64039C877.411 4.64039 876.085 5.9665 876.085 7.60234C876.085 9.23818 877.411 10.5643 879.047 10.5643Z" fill="var(--fill-0, #F4F3EC)" stroke="var(--stroke-0, #FF5600)" stroke-width="0.987317"/>
<path id="Vector_31" d="M909.239 6.41756C910.875 6.41756 912.201 5.09145 912.201 3.45561C912.201 1.81977 910.875 0.493659 909.239 0.493659C907.604 0.493659 906.277 1.81977 906.277 3.45561C906.277 5.09145 907.604 6.41756 909.239 6.41756Z" fill="var(--fill-0, #F4F3EC)" stroke="var(--stroke-0, #FF5600)" stroke-width="0.987317"/>
<path id="Vector_32" d="M939.432 6.41756C941.068 6.41756 942.394 5.09145 942.394 3.45561C942.394 1.81977 941.068 0.493659 939.432 0.493659C937.796 0.493659 936.47 1.81977 936.47 3.45561C936.47 5.09145 937.796 6.41756 939.432 6.41756Z" fill="var(--fill-0, #F4F3EC)" stroke="var(--stroke-0, #FF5600)" stroke-width="0.987317"/>
</g>
</svg>
