<svg preserveAspectRatio="none" width="100%" height="100%" overflow="visible" style="display: block;" viewBox="0 0 166.641 16.2237" fill="none" xmlns="http://www.w3.org/2000/svg">
<path id="Vector" d="M21.7261 15.89H18.4184L16.4134 12.5638H5.30205L3.31693 15.89H0L9.20921 0.336404H12.5069L21.7261 15.89ZM7.2626 9.22295L6.84035 9.89018H14.8625L14.4615 9.22295L10.8517 2.84535L7.2626 9.22295ZM43.0737 0.336404L33.9594 15.89H30.6617L21.5481 0.336404H24.8737L28.7284 6.98753L32.3102 13.3651L35.8914 6.98753L39.7461 0.336404H43.0737ZM56.279 0.00112576C63.1638 0.00112576 66.7523 3.49068 66.7523 8.11354C66.7523 12.7364 63.1711 16.2226 56.279 16.2226C49.3869 16.2226 45.7911 12.7331 45.7911 8.11354C45.7911 3.494 49.4028 0.00112576 56.279 0.00112576ZM56.279 13.5344C61.3958 13.5344 63.8105 11.2678 63.8105 8.11354C63.8105 4.95927 61.4031 2.66941 56.279 2.66941C51.1556 2.66941 48.7223 4.93603 48.7223 8.11354C48.7223 11.2911 51.1629 13.5344 56.279 13.5344ZM90.9402 14.9791C88.3833 15.828 85.7036 16.2482 83.0097 16.2226C74.8979 16.2226 71.498 12.7331 71.498 8.11354C71.498 3.49267 74.8846 0.00112576 83.0097 0.00112576C85.7038 -0.024767 88.3834 0.396157 90.9402 1.2473L90.2723 3.8233C87.9199 3.08577 85.4721 2.69701 83.007 2.66941C76.8113 2.66941 74.4272 4.93603 74.4272 8.11354C74.4272 11.2911 76.8113 13.5338 83.007 13.5338C85.4711 13.5128 87.9189 13.131 90.2723 12.4005L90.9402 14.9791ZM116.634 15.89H113.326L111.32 12.5638H100.21L98.228 15.89H94.9077L104.117 0.336404H107.415L116.634 15.89ZM102.172 9.22295L101.748 9.89018H109.77L109.371 9.22295L105.759 2.84535L102.172 9.22295ZM121.257 15.89V0.336404H128.9C137.012 0.336404 140.399 3.49002 140.399 8.11288C140.399 12.7357 137.012 15.89 128.9 15.89H121.257ZM124.121 3.01199V13.2118H128.89C135.086 13.2118 137.447 11.2778 137.447 8.1235C137.447 4.96922 135.086 3.00735 128.89 3.00735L124.121 3.01199ZM156.168 0.00112576C163.052 0.00112576 166.641 3.49068 166.641 8.1142C166.641 12.7377 163.06 16.2233 156.168 16.2233C149.276 16.2233 145.68 12.7337 145.68 8.1142C145.68 3.49466 149.281 0.00112576 156.168 0.00112576ZM156.168 13.5344C161.284 13.5344 163.699 11.2678 163.699 8.11354C163.699 4.95927 161.292 2.66941 156.168 2.66941C151.045 2.66941 148.613 4.93603 148.613 8.11354C148.613 11.2911 151.041 13.5344 156.168 13.5344Z" fill="var(--fill-0, black)"/>
</svg>
