<svg preserveAspectRatio="none" width="100%" height="100%" overflow="visible" style="display: block;" viewBox="0 0 63.0033 21.9417" fill="none" xmlns="http://www.w3.org/2000/svg">
<g id="Group">
<path id="Vector" d="M13.0836 2.74282C10.9415 2.74282 9.65702 3.64425 9.07283 5.60344L7.5936 10.266C7.0478 11.7937 6.15277 12.4209 4.55561 12.4209H0.856634C0.629458 12.424 0.412543 12.516 0.252404 12.6771C0.0922645 12.8383 0.00165295 13.0558 5.96046e-08 13.283V15.6728C5.96046e-08 16.1034 0.350151 16.4563 0.817322 16.4563H15.8482C16.0754 16.4532 16.2923 16.3612 16.4524 16.2C16.6126 16.0388 16.7032 15.8213 16.7048 15.5942V3.56562C16.7048 3.09571 16.3547 2.74282 15.8875 2.74282H13.0836ZM0.895946 0.000122879C0.428774 0.000122879 5.96046e-08 0.430726 5.96046e-08 0.901555V7.24906C5.96046e-08 7.75829 0.389462 8.14958 0.895946 8.14958H4.08844C5.52927 8.14958 7.55429 7.836 8.09917 5.25055C8.09917 5.25055 8.64497 2.62488 8.9558 1.0972C8.98524 0.964112 8.98414 0.826087 8.95259 0.693485C8.92104 0.560883 8.85986 0.437152 8.77364 0.331581C8.68743 0.22601 8.57841 0.141342 8.45479 0.0839352C8.33117 0.0265283 8.19614 -0.00212633 8.05986 0.000122879H0.895946ZM59.5384 5.21124C59.5384 3.0564 60.9792 2.03794 63.0033 1.95932V3.72287H62.6531C61.7572 3.72287 61.2909 4.46705 61.2909 5.36849V6.77914H62.9265V8.34614H61.29V17.0441H59.5384V8.30682H58.0198V6.73983H59.5384V5.21124ZM53.4642 10.8539C53.4642 9.09032 52.4512 8.30682 51.2445 8.30682C49.8036 8.30682 48.713 9.24665 48.713 10.9316V17.1228H46.9613V10.8539C46.9613 9.09032 45.9483 8.30682 44.7415 8.30682C43.3007 8.30682 42.21 9.24665 42.21 10.9316V17.1228H40.4968V6.89617H42.2493V8.11118H42.2887C42.7549 7.0525 44.0019 6.66121 45.0533 6.66121C46.0653 6.66121 47.1944 6.93548 48.0127 8.42385C48.6352 7.13112 49.96 6.66121 51.2829 6.66121C53.4642 6.66121 55.1382 7.99324 55.1382 10.6573V17.1228H53.3856V10.8539H53.4642ZM32.3583 11.7151C30.2172 11.7151 29.5159 12.7738 29.5159 13.7538C29.5159 14.732 30.2172 15.7907 32.3592 15.7907C34.5012 15.7907 35.2015 14.733 35.2015 13.7529C35.2015 12.7738 34.461 11.7151 32.3583 11.7151ZM35.1238 10.266C35.1238 8.58109 33.449 8.18889 32.1252 8.18889C31.1908 8.18889 30.2949 8.42385 29.3605 8.89467L28.5816 7.4447C30.1001 6.77823 31.3069 6.66121 32.2029 6.66121C34.6164 6.66121 36.8755 7.71897 36.8755 10.1481V17.1228H35.2399V16.0257C34.344 16.9655 33.3713 17.3577 32.0474 17.3577C29.5937 17.3577 27.6473 15.9864 27.6473 13.6743C27.6473 11.7937 29.2042 10.1481 32.0081 10.1481C33.0595 10.1481 34.1886 10.4617 35.1229 11.3238L35.1238 10.266ZM24.3368 2.35152C24.9987 2.35152 25.5436 2.90006 25.5436 3.56562C25.5436 4.27141 24.9987 4.81995 24.3368 4.81995C23.6749 4.81995 23.13 4.27141 23.13 3.60493C23.13 2.90006 23.6749 2.35152 24.3368 2.35152ZM23.5195 6.81754H25.2721L25.3105 18.3762C25.3105 21.0411 23.5972 21.9417 21.6901 21.9417H21.0273V20.296H21.6892C23.4025 20.296 23.5579 19.3562 23.5579 18.4548L23.5195 6.81754Z" fill="var(--fill-0, #111111)" fill-opacity="0.4"/>
</g>
</svg>
