<svg preserveAspectRatio="none" width="100%" height="100%" overflow="visible" style="display: block;" viewBox="0 0 90.044 31.4843" fill="none" xmlns="http://www.w3.org/2000/svg">
<path id="Vector" d="M30.167 15.0868C30.167 20.5872 27.2225 25.3986 22.8255 28.0356C22.7436 28.0838 22.6477 28.1026 22.5537 28.089C22.4596 28.0753 22.373 28.0301 22.3081 27.9607L17.2463 22.5719C17.1984 22.5209 17.1641 22.4588 17.1464 22.3911C17.1288 22.3235 17.1284 22.2525 17.1452 22.1847C17.162 22.1169 17.1956 22.0543 17.2429 22.0028C17.2901 21.9513 17.3495 21.9124 17.4156 21.8898C19.036 21.3345 20.4049 20.219 21.276 18.7442C22.147 17.2693 22.463 15.532 22.1671 13.8449C21.8711 12.1578 20.9827 10.6317 19.6617 9.54139C18.3406 8.45108 16.6738 7.86813 14.9612 7.89748C11.0192 7.96381 7.89518 11.2627 7.89518 15.2046V27.6267C7.89518 27.9552 7.53618 28.1542 7.25523 27.9826C2.95507 25.3658 0.0674926 20.6614 0.00115626 15.278C-0.10108 6.99608 6.58952 0.116615 14.8706 0.0026728C23.3008 -0.114391 30.1701 6.68391 30.1701 15.0868H30.167ZM89.8494 18.1187H87.8515C87.8123 18.1189 87.774 18.1309 87.7417 18.1532C87.7094 18.1755 87.6846 18.207 87.6705 18.2436L85.1598 24.8468L82.5516 18.2413C82.5372 18.2053 82.5125 18.1745 82.4805 18.1527C82.4486 18.1309 82.4108 18.1191 82.3721 18.1187H80.2744C80.2423 18.1187 80.2107 18.1267 80.1825 18.1418C80.1543 18.157 80.1302 18.179 80.1126 18.2058C80.095 18.2326 80.0842 18.2633 80.0814 18.2952C80.0786 18.3272 80.0838 18.3593 80.0964 18.3888L84.0017 27.6056L83.7683 28.1987C83.432 29.0338 82.9739 29.3748 82.1864 29.3748C82.0134 29.3754 81.8412 29.351 81.6752 29.3023C81.6475 29.2938 81.6181 29.2921 81.5895 29.297C81.5609 29.302 81.5339 29.3136 81.5106 29.3309C81.4873 29.3482 81.4684 29.3707 81.4554 29.3966C81.4424 29.4226 81.4356 29.4512 81.4356 29.4802V31.1417C81.4356 31.2237 81.4887 31.2978 81.5667 31.3243C81.7478 31.3868 82.1068 31.4843 82.5907 31.4843C84.0259 31.4843 84.9803 30.5962 85.888 28.4188L90.0289 18.3888C90.0413 18.3593 90.0462 18.3271 90.0431 18.2953C90.0401 18.2635 90.0291 18.2329 90.0114 18.2063C89.9936 18.1797 89.9695 18.1579 89.9412 18.1429C89.913 18.1279 89.8814 18.1201 89.8494 18.1203V18.1187ZM47.7298 15.1742H45.8661C45.8302 15.1743 45.795 15.1844 45.7644 15.2033C45.7338 15.2221 45.7091 15.2491 45.6928 15.2811L40.9728 24.6642L36.2543 15.2803C36.2381 15.2483 36.2133 15.2213 36.1828 15.2025C36.1522 15.1836 36.117 15.1735 36.0811 15.1734H34.0988C34.0472 15.1734 33.9977 15.1938 33.9611 15.2303C33.9246 15.2667 33.9039 15.3161 33.9037 15.3677V27.7094C33.9039 27.761 33.9246 27.8104 33.9611 27.8469C33.9977 27.8833 34.0472 27.9037 34.0988 27.9037H36.0889C36.1405 27.9037 36.19 27.8833 36.2266 27.8469C36.2632 27.8104 36.2838 27.761 36.284 27.7094V20.0831L40.1666 27.7781C40.1829 27.8099 40.2076 27.8366 40.238 27.8553C40.2684 27.874 40.3034 27.884 40.3391 27.8842H41.4333C41.5058 27.8842 41.5737 27.8436 41.6065 27.7773L45.5453 19.9925V27.7078C45.5455 27.7593 45.5661 27.8086 45.6025 27.845C45.6389 27.8814 45.6882 27.902 45.7397 27.9022H47.7313C47.7827 27.9018 47.8318 27.8811 47.868 27.8448C47.9042 27.8084 47.9247 27.7592 47.9249 27.7078V15.3669C47.9249 15.3155 47.9045 15.2661 47.8683 15.2295C47.832 15.193 47.7828 15.1723 47.7313 15.1718L47.7298 15.1742ZM59.0327 23.0175C59.0326 23.6831 58.9014 24.3422 58.6465 24.9572C58.3917 25.5721 58.0183 26.1309 57.5475 26.6015C57.0767 27.0721 56.5179 27.4454 55.9029 27.7C55.2878 27.9547 54.6287 28.0857 53.963 28.0856C53.2974 28.0855 52.6383 27.9543 52.0233 27.6994C51.4084 27.4446 50.8496 27.0711 50.379 26.6004C49.9084 26.1296 49.5351 25.5708 49.2805 24.9558C49.0258 24.3407 48.8948 23.6816 48.8949 23.0159C48.8951 21.6716 49.4294 20.3824 50.3801 19.4319C51.3309 18.4815 52.6202 17.9476 53.9646 17.9478C55.3089 17.948 56.5981 18.4823 57.5486 19.433C58.4991 20.3838 59.0329 21.6731 59.0327 23.0175ZM56.8116 23.0175C56.8116 22.2623 56.5116 21.5381 55.9776 21.0041C55.4436 20.4701 54.7194 20.1701 53.9642 20.1701C53.209 20.1701 52.4848 20.4701 51.9508 21.0041C51.4168 21.5381 51.1168 22.2623 51.1168 23.0175C51.1168 23.7727 51.4168 24.4969 51.9508 25.0309C52.4848 25.5649 53.209 25.8649 53.9642 25.8649C54.7194 25.8649 55.4436 25.5649 55.9776 25.0309C56.5116 24.4969 56.8116 23.7727 56.8116 23.0175ZM65.0591 17.9494C63.5951 17.9494 62.5758 18.7922 62.2106 19.2605H62.1403V18.3138C62.1403 18.2624 62.12 18.213 62.0838 18.1764C62.0475 18.1399 61.9983 18.1191 61.9468 18.1187H60.2072C60.1556 18.1189 60.1062 18.1396 60.0698 18.1762C60.0334 18.2127 60.0129 18.2622 60.0129 18.3138V27.7078C60.0131 27.7595 60.0338 27.8089 60.0703 27.8453C60.1069 27.8817 60.1564 27.9022 60.208 27.9022H62.1716C62.2229 27.9018 62.272 27.8811 62.3082 27.8448C62.3445 27.8084 62.3649 27.7592 62.3651 27.7078V22.4259C62.3651 21.0211 63.2782 20.0394 64.6205 20.0394C65.9629 20.0394 66.8385 21.0219 66.8385 22.4259V27.7078C66.8387 27.7593 66.8593 27.8086 66.8957 27.845C66.9321 27.8814 66.9814 27.902 67.0328 27.9022H68.9933C69.0448 27.902 69.0941 27.8814 69.1305 27.845C69.1669 27.8086 69.1874 27.7593 69.1876 27.7078V22.2729C69.1876 19.6874 67.5292 17.9502 65.0623 17.9502L65.0591 17.9494ZM79.6399 20.3406C79.8225 20.6481 80.4663 21.8125 80.2806 23.2992C80.2562 23.4867 80.2205 23.6725 80.1737 23.8557C80.1631 23.8972 80.1388 23.9339 80.1049 23.9601C80.071 23.9863 80.0292 24.0003 79.9864 24H72.5864C72.7144 24.4839 73.2646 26.0736 75.3241 26.0736C76.3153 26.0736 77.0707 25.6499 77.4203 25.2542C77.4418 25.2302 77.468 25.2108 77.4973 25.1974C77.5265 25.184 77.5583 25.1767 77.5905 25.1761H79.6204C79.7663 25.1761 79.8615 25.3299 79.7936 25.4594C79.3503 26.3054 78.5317 27.1483 77.3782 27.6641C76.7376 27.9483 76.0436 28.0923 75.3428 28.0864C74.3985 28.0864 73.5198 27.86 72.7339 27.4167C71.3915 26.6597 70.1616 25.1715 70.1616 23.0167C70.1647 22.6031 70.2232 21.2857 71.1434 20.0378C71.5788 19.4642 72.1256 18.9846 72.751 18.6276C73.5327 18.1788 74.4189 17.9443 75.3202 17.9478C77.3314 17.9478 78.8555 19.0318 79.6367 20.3406H79.6399ZM77.9783 22.1785C77.8995 21.7945 77.3407 19.9426 75.3249 19.9426C73.9123 19.9426 72.847 20.8682 72.5473 22.1785H77.9783ZM64.349 9.23045C64.3567 9.20162 64.3578 9.17139 64.352 9.1421C64.3462 9.1128 64.3339 9.08522 64.3158 9.06147C64.2977 9.03772 64.2744 9.01845 64.2476 9.00512C64.2209 8.9918 64.1915 8.98478 64.1617 8.98461H62.2262C62.1842 8.98464 62.1431 8.99634 62.1074 9.01839C62.0717 9.04044 62.0429 9.07198 62.0241 9.10948C61.7386 9.68916 61.2644 10.1545 60.6794 10.429C60.0945 10.7035 59.4335 10.7708 58.8052 10.62C58.1769 10.4691 57.6186 10.109 57.2221 9.59878C56.8256 9.08859 56.6144 8.45869 56.6233 7.81259C56.6321 7.16648 56.8605 6.54261 57.2709 6.0435C57.6813 5.54439 58.2493 5.19973 58.8815 5.06615C59.5137 4.93258 60.1725 5.01804 60.7497 5.30849C61.3269 5.59894 61.7882 6.0771 62.0576 6.6644C62.0757 6.70343 62.1046 6.73649 62.1408 6.75971C62.177 6.78293 62.2191 6.79535 62.2621 6.79551H64.1788C64.2083 6.7952 64.2372 6.78823 64.2636 6.77512C64.2899 6.76202 64.313 6.74313 64.331 6.71986C64.349 6.69659 64.3615 6.66954 64.3676 6.64074C64.3737 6.61195 64.3732 6.58215 64.3661 6.55358L64.3349 6.42715C63.9911 5.24931 63.2317 4.23616 62.1977 3.57567C61.1637 2.91517 59.9251 2.65217 58.7119 2.83545C57.4987 3.01874 56.3931 3.63587 55.6003 4.57235C54.8076 5.50883 54.3814 6.70108 54.4008 7.92791C54.4414 10.6852 56.7905 12.9617 59.5454 12.9203C60.6359 12.9035 61.6919 12.5354 62.5566 11.8706C63.4213 11.2059 64.0485 10.28 64.3451 9.23045H64.349ZM48.4961 12.9203C45.7865 12.8704 43.5748 10.6586 43.5248 7.94898C43.5118 7.26724 43.6364 6.58988 43.8913 5.95745C44.1462 5.32502 44.5261 4.75053 45.0083 4.26838C45.4904 3.78623 46.0649 3.40633 46.6974 3.15142C47.3298 2.89652 48.0072 2.77186 48.6889 2.7849C51.3985 2.83562 53.6103 5.04658 53.6602 7.75622C53.6733 8.43796 53.5486 9.11532 53.2937 9.74775C53.0388 10.3802 52.6589 10.9547 52.1767 11.4368C51.6946 11.919 51.1201 12.2989 50.4877 12.5538C49.8552 12.8087 49.1779 12.9333 48.4961 12.9203ZM51.4383 7.94586C51.4509 7.55649 51.3835 7.16868 51.2403 6.8064C51.097 6.44413 50.881 6.11508 50.6055 5.83961C50.33 5.56414 50.001 5.3481 49.6387 5.20486C49.2764 5.06161 48.8886 4.99419 48.4993 5.00677C47.7772 5.03238 47.0916 5.33068 46.5807 5.84159C46.0698 6.3525 45.7715 7.03804 45.7459 7.76012C45.7333 8.14956 45.8008 8.53744 45.9441 8.89977C46.0873 9.2621 46.3035 9.59119 46.579 9.86667C46.8546 10.1421 47.1837 10.3582 47.5461 10.5014C47.9084 10.6446 48.2963 10.7119 48.6858 10.6992C49.4079 10.6736 50.0934 10.3753 50.6043 9.86439C51.1152 9.35349 51.4127 8.66794 51.4383 7.94586ZM33.9029 12.5434V0.195438C33.9031 0.143963 33.9237 0.0946547 33.9601 0.0582559C33.9965 0.021857 34.0458 0.00131743 34.0972 0.00111194H39.49C40.83 -0.00513148 43.3196 0.937625 43.3196 3.93212C43.3196 6.00494 41.9866 7.66257 39.4447 7.85221L43.7301 12.4107C43.8471 12.5356 43.7597 12.7385 43.5896 12.7385H41.0868C41.0556 12.7379 41.0248 12.7312 40.9962 12.7186C40.9677 12.706 40.9419 12.6878 40.9205 12.6651L36.5135 7.85377H36.3925V12.5449C36.3925 12.5967 36.3719 12.6463 36.3353 12.6829C36.2988 12.7195 36.2491 12.74 36.1974 12.74H34.0949C34.0433 12.7398 33.9939 12.7192 33.9574 12.6826C33.921 12.646 33.9006 12.5965 33.9006 12.5449L33.9029 12.5434ZM36.3925 5.87851H38.548C39.3389 5.87747 39.9356 5.71098 40.3383 5.37904C40.7395 5.04553 40.94 4.58586 40.94 4.00002C40.94 3.4147 40.7574 2.99327 40.3937 2.67173C40.0277 2.35176 39.4986 2.18787 38.8048 2.18787H36.3933L36.3925 5.87851ZM83.4491 4.87722H84.7915V9.41307C84.7915 12.4177 87.338 12.9219 88.3198 12.9219C88.781 12.9219 89.1322 12.8267 89.4249 12.7619C89.4678 12.7522 89.5062 12.7283 89.5339 12.694C89.5615 12.6597 89.5767 12.6171 89.5771 12.573V10.9919C89.5771 10.9628 89.5705 10.9341 89.5579 10.9079C89.5454 10.8817 89.527 10.8586 89.5043 10.8405C89.4816 10.8224 89.4551 10.8096 89.4267 10.8031C89.3984 10.7966 89.3689 10.7966 89.3406 10.803C88.6936 10.9536 87.2748 10.9552 87.2748 9.23435V4.87722H89.3843C89.4358 4.87681 89.485 4.85607 89.5212 4.81953C89.5575 4.78298 89.5778 4.73359 89.5778 4.68212V3.1478C89.5776 3.09632 89.5571 3.04701 89.5207 3.01061C89.4843 2.97421 89.435 2.95367 89.3835 2.95347H87.274V0.194658C87.2742 0.160049 87.2651 0.12602 87.2477 0.0961161C87.2303 0.0662117 87.2052 0.041526 87.175 0.0246304C87.1447 0.00773476 87.1106 -0.000752616 87.076 5.23738e-05C87.0414 0.000857364 87.0076 0.0109253 86.9782 0.0292073L84.8867 1.3333C84.8588 1.35082 84.8358 1.3751 84.8199 1.40389C84.8039 1.43269 84.7955 1.46505 84.7954 1.49797V2.95425H83.4499C83.3984 2.95445 83.3491 2.97499 83.3127 3.01139C83.2763 3.04779 83.2558 3.0971 83.2556 3.14858V4.68212C83.2558 4.73359 83.2763 4.7829 83.3127 4.8193C83.3491 4.8557 83.3984 4.87624 83.4499 4.87644L83.4491 4.87722ZM65.3588 12.7377H67.4504C67.502 12.7377 67.5515 12.7172 67.5881 12.6808C67.6246 12.6444 67.6453 12.595 67.6455 12.5434V8.83399H67.7594L71.2557 12.6955C71.2676 12.709 71.2823 12.7197 71.2987 12.727C71.3152 12.7343 71.333 12.7379 71.351 12.7377H73.9396C73.9774 12.7375 74.0143 12.7263 74.0459 12.7056C74.0775 12.6848 74.1023 12.6553 74.1175 12.6207C74.1326 12.586 74.1373 12.5478 74.1311 12.5105C74.1249 12.4732 74.108 12.4385 74.0824 12.4107L69.8221 7.85377L73.6922 3.27422C73.7163 3.24603 73.7318 3.21151 73.7368 3.17478C73.7418 3.13805 73.7362 3.10065 73.7206 3.06703C73.7049 3.03341 73.68 3.00498 73.6487 2.98513C73.6174 2.96527 73.581 2.95482 73.544 2.95503H71.1246C71.0917 2.9556 71.0592 2.96312 71.0293 2.97711C70.9995 2.99109 70.9729 3.01123 70.9514 3.03619L67.7844 6.82127H67.6439V0.195438C67.6442 0.16071 67.6351 0.126545 67.6177 0.0965243C67.6002 0.0665039 67.575 0.0417348 67.5447 0.0248146C67.5143 0.00789445 67.48 -0.000553524 67.4453 0.000356658C67.4106 0.00126684 67.3768 0.0115016 67.3474 0.0299878L65.2558 1.3372C65.228 1.35488 65.2051 1.37933 65.1892 1.40826C65.1734 1.4372 65.1652 1.46967 65.1653 1.50265V12.5457C65.1657 12.5969 65.1862 12.6459 65.2224 12.6821C65.2586 12.7183 65.3076 12.7388 65.3588 12.7392V12.7377ZM73.0804 7.85221C73.0835 7.43937 73.1428 6.12122 74.0629 4.8741C74.4983 4.30026 75.0451 3.82031 75.6706 3.46309C76.4523 3.01458 77.3386 2.78036 78.2398 2.78412C80.2509 2.78412 81.7743 3.86735 82.5556 5.17613C82.739 5.48361 83.3828 6.64879 83.1963 8.13551C83.1722 8.32296 83.1367 8.50878 83.0901 8.69195C83.0789 8.73319 83.0543 8.76957 83.0204 8.79552C82.9864 8.82146 82.9448 8.83553 82.9021 8.83555H75.5028C75.63 9.31941 76.1802 10.9099 78.2398 10.9099C79.2317 10.9099 79.9872 10.4862 80.336 10.0897C80.3575 10.0657 80.3837 10.0464 80.4129 10.0329C80.4422 10.0195 80.4739 10.0123 80.5061 10.0117H82.5368C82.682 10.0117 82.7772 10.1654 82.7093 10.2949C82.266 11.1409 81.4473 11.9838 80.2946 12.4997C79.654 12.7838 78.9601 12.9278 78.2593 12.9219C77.315 12.9219 76.4362 12.6955 75.6495 12.2523C74.3072 11.4952 73.0773 10.007 73.0773 7.85221H73.0804ZM75.4654 7.01403H80.8964C80.8168 6.63084 80.2588 4.77811 78.2429 4.77811C76.8303 4.77811 75.7651 5.70369 75.4654 7.01403Z" fill="var(--fill-0, #111111)" fill-opacity="0.4"/>
</svg>
