<svg preserveAspectRatio="none" width="100%" height="100%" overflow="visible" style="display: block;" viewBox="0 0 21.2965 20.0752" fill="none" xmlns="http://www.w3.org/2000/svg">
<path id="Vector" d="M3.68203 13.5127C5.45203 13.5127 6.88003 14.9277 6.88003 16.6687C6.88003 18.4087 5.45103 19.8257 3.68203 19.8257C1.91203 19.8257 0.484032 18.4087 0.484032 16.6687C0.484032 14.9287 1.91303 13.5127 3.68203 13.5127ZM16.768 0.294733C18.576 0.00673274 20.368 1.12173 20.89 2.85173C21.497 4.85673 20.284 6.93973 18.244 7.44173C17.6942 7.57753 17.1196 7.58634 16.5659 7.46748C16.0121 7.34862 15.4927 7.10522 15.047 6.75573C13.931 5.87673 12.485 5.49273 11.081 5.83573L10.407 6.00173H10.406C9.00403 6.34573 7.90803 7.35773 7.33603 8.65173C7.10757 9.16757 6.76356 9.62398 6.33059 9.98569C5.89763 10.3474 5.38729 10.6047 4.83903 10.7377C2.86103 11.2237 0.866032 10.0407 0.363032 8.09773L0.319031 7.90773C-0.026969 6.19273 0.949032 4.43573 2.58403 3.80373L2.74403 3.74573C3.29112 3.5595 3.874 3.50294 4.44669 3.58051C5.01937 3.65809 5.5662 3.86767 6.04403 4.19273L6.22403 4.32373C7.39403 5.22373 8.90703 5.58073 10.356 5.22373L10.746 5.12873H10.748C11.4564 4.95152 12.115 4.61504 12.6736 4.14491C13.2323 3.67477 13.6764 3.08338 13.972 2.41573C14.2077 1.89516 14.5614 1.43662 15.0051 1.07646C15.4487 0.716298 15.9701 0.464403 16.528 0.340732L16.768 0.294733Z" fill="var(--fill-0, #020917)" stroke="var(--stroke-2, #020917)" stroke-width="0.499"/>
</svg>
