<svg preserveAspectRatio="none" width="100%" height="100%" overflow="visible" style="display: block;" viewBox="0 0 13.98 14.3528" fill="none" xmlns="http://www.w3.org/2000/svg">
<g id="Group">
<path id="Vector" d="M12.483 4.2406H10.3376C10.3959 3.90391 10.6038 3.71577 11.0256 3.50199L11.4199 3.30103C12.1259 2.93988 12.5028 2.5298 12.5028 1.86225C12.5028 1.44285 12.3397 1.11083 12.0152 0.872001C11.6908 0.633176 11.3098 0.515511 10.8625 0.515511C10.5166 0.511451 10.1771 0.608422 9.88561 0.794528C9.59145 0.975103 9.37301 1.20869 9.23728 1.49994L9.85823 2.12321C10.0988 1.63566 10.4483 1.39742 10.9079 1.39742C11.297 1.39742 11.5358 1.59838 11.5358 1.87681C11.5358 2.1104 11.4205 2.30379 10.9731 2.5298L10.7192 2.65329C10.1693 2.93172 9.78717 3.25093 9.5664 3.61266C9.34505 3.97381 9.23728 4.42875 9.23728 4.97921V5.12949H12.483V4.2406ZM12.204 6.1512H8.65245L6.87699 9.22563H10.4285L12.204 12.303L13.98 9.22505L12.204 6.1512Z" fill="var(--fill-0, white)"/>
<path id="Vector_2" d="M7.1764 11.2778C4.91572 11.2778 3.07444 9.43708 3.07444 7.1764C3.07444 4.91572 4.91514 3.07443 7.17582 3.07443L8.57964 0.138635C8.11754 0.0467678 7.64755 0.000334957 7.1764 0C3.21249 0 0 3.21249 0 7.1764C0 11.1397 3.21249 14.3528 7.1764 14.3528C8.69522 14.3554 10.1752 13.873 11.4007 12.9758L9.84833 10.2835C9.10565 10.9248 8.15769 11.2777 7.1764 11.2778Z" fill="var(--fill-0, white)"/>
</g>
</svg>
