<svg preserveAspectRatio="none" width="100%" height="100%" overflow="visible" style="display: block;" viewBox="0 0 242.66 53.8248" fill="none" xmlns="http://www.w3.org/2000/svg">
<g id="Group">
<path id="Vector" d="M0.509188 25.3998C0.64513 25.2924 0.745301 25.2304 0.878866 24.7892C1.01242 24.3503 1.02435 24.057 1.17699 23.1984C1.32963 22.3422 1.43219 21.7506 1.64207 20.501C1.84956 19.2535 1.9855 18.4546 2.21447 16.9592C2.44343 15.4615 2.5579 14.5718 2.7821 13.0192C3.00629 11.4665 3.12792 10.639 3.33303 9.19603C3.53814 7.75069 3.63593 7.04712 3.80765 5.80215C3.97937 4.55717 4.07477 3.92276 4.19164 2.96638C4.31089 2.00998 4.36335 1.54491 4.39675 1.0226C4.43014 0.500282 4.29658 0.2904 4.35859 0.352413C4.42059 0.414416 4.42298 0.607606 4.70203 1.33503C4.97868 2.06007 5.22196 2.65871 5.74666 3.98239C6.27136 5.30606 6.6148 6.20997 7.32315 7.9558C8.03388 9.7016 8.48226 10.7558 9.29557 12.7139C10.1088 14.6719 10.5 15.7715 11.3919 17.7439C12.2815 19.7186 12.78 20.7299 13.7484 22.5783C14.7167 24.4267 15.2366 25.3186 16.2311 26.9858C17.2281 28.6529 17.8411 29.5305 18.7282 30.9163C19.6178 32.3043 20.0709 32.9197 20.6744 33.9166C21.2802 34.9135 21.5449 35.412 21.7524 35.9033C21.9599 36.3946 21.9026 36.3326 21.7095 36.3779C21.5163 36.4232 21.2253 36.273 20.7841 36.1275C20.3453 35.9797 19.8182 35.629 19.5106 35.6434C19.2029 35.6576 19.0359 35.9414 19.2506 36.199C19.4628 36.459 20.0447 36.8334 20.5743 36.9384C21.1037 37.0434 21.5521 36.9622 21.8931 36.7213C22.2342 36.4781 22.4394 36.3397 22.2772 35.7292C22.1173 35.1163 21.731 34.6631 21.0846 33.659C20.4383 32.6573 19.9589 32.0801 19.0455 30.7111C18.1296 29.3422 17.5167 28.4716 16.5126 26.8164C15.5085 25.1612 14.9885 24.274 14.0227 22.4352C13.0543 20.594 12.5582 19.5875 11.6758 17.6175C10.7957 15.6474 10.4046 14.548 9.61035 12.5851C8.81855 10.6223 8.38209 9.56327 7.71428 7.80316C7.0441 6.04303 6.73882 5.1415 6.26897 3.7892C5.79675 2.43691 5.72519 1.77626 5.35552 1.04406C4.98346 0.309479 4.73064 0.149683 4.41344 0.121064C4.09623 0.0948324 3.93644 0.352403 3.76949 0.90811C3.60493 1.46382 3.67409 1.93367 3.58346 2.90198C3.49522 3.86791 3.45944 4.49517 3.32111 5.74013C3.18278 6.98749 3.08738 7.69107 2.89181 9.13404C2.69386 10.577 2.57222 11.4045 2.33848 12.9548C2.10476 14.5027 1.98312 15.3923 1.72077 16.8757C1.45842 18.3616 1.30101 19.1486 1.02435 20.3817C0.747689 21.6148 0.51634 22.1823 0.337466 23.0362C0.15859 23.8924 0.158591 24.1976 0.129971 24.6556C0.103737 25.1135 0.1252 25.1779 0.199135 25.3258C0.275455 25.476 0.373241 25.5071 0.509188 25.3998Z" fill="var(--fill-0, white)" stroke="var(--stroke-2, white)" stroke-width="0.2385"/>
<path id="Vector_2" d="M4.21641 19.7541C4.40721 19.8614 4.60278 19.8924 5.1561 19.933C5.70704 19.9759 6.0624 19.9305 6.97347 19.9592C7.88216 19.9855 8.56427 19.9974 9.70191 20.0665C10.8396 20.1357 11.4668 20.1977 12.6641 20.3051C13.859 20.41 14.5625 20.4457 15.6788 20.5936C16.795 20.7438 17.3292 20.8297 18.245 21.0467C19.1608 21.2638 19.5782 21.3472 20.2532 21.6764C20.9305 22.0055 21.1261 22.2369 21.6246 22.6924C22.123 23.1455 22.3901 23.4437 22.7455 23.9469C23.1008 24.4501 23.1462 24.7555 23.4086 25.211C23.6685 25.6642 23.7019 25.9503 24.0477 26.2198C24.3936 26.487 24.6654 26.5919 25.1377 26.5513C25.6099 26.5108 25.8437 26.4106 26.4089 26.0172C26.9741 25.6236 27.2484 25.2277 27.9639 24.5861C28.677 23.9446 29.185 23.4771 29.984 22.8092C30.783 22.1415 31.2362 21.7384 31.9588 21.2447C32.6815 20.7534 33.0058 20.5483 33.5973 20.3455C34.1864 20.1452 34.3986 20.076 34.9091 20.2382C35.4195 20.398 35.5673 20.6294 36.1492 21.1493C36.7336 21.6668 37.1104 22.1105 37.8259 22.8284C38.5438 23.5486 38.9302 23.9755 39.7316 24.746C40.5352 25.5138 41.0576 25.9909 41.8375 26.6801C42.6173 27.367 43.0204 27.7248 43.631 28.1827C44.2415 28.6382 44.5993 28.8553 44.8903 28.9626C45.1836 29.0699 45.2552 28.9793 45.0882 28.7193C44.9213 28.457 44.6231 28.1684 44.0627 27.6604C43.4999 27.15 43.0562 26.8519 42.281 26.1745C41.506 25.4948 40.9813 25.0369 40.1919 24.2689C39.4024 23.5009 39.0399 23.074 38.3339 22.3346C37.6256 21.5953 37.2988 21.1255 36.6549 20.5697C36.0109 20.0141 35.77 19.7446 35.1141 19.5561C34.4559 19.3677 34.079 19.4083 33.3659 19.6253C32.6528 19.8423 32.3213 20.1213 31.5486 20.6414C30.7782 21.1636 30.3346 21.5667 29.5094 22.2273C28.6818 22.888 28.1523 23.3435 27.4154 23.9446C26.6784 24.5455 26.3016 24.8413 25.8222 25.2325C25.3404 25.6236 25.276 25.7977 25.0112 25.9002C24.7466 26.0028 24.6607 25.9622 24.4961 25.7476C24.3316 25.5305 24.3887 25.2896 24.1884 24.8198C23.9857 24.3524 23.8999 23.9517 23.4896 23.4031C23.0818 22.857 22.7312 22.5541 22.1421 22.0843C21.553 21.612 21.2954 21.3783 20.5442 21.0492C19.7905 20.72 19.3397 20.6437 18.3834 20.4362C17.4246 20.2287 16.8855 20.1619 15.755 20.0164C14.6222 19.8709 13.921 19.8351 12.7213 19.7088C11.5217 19.5824 10.8992 19.5037 9.75919 19.3844C8.61674 19.2676 7.93224 19.1769 7.00925 19.1221C6.08625 19.0696 5.70703 19.0648 5.14417 19.1197C4.5837 19.1745 4.38336 19.2676 4.19733 19.3964C4.01129 19.5227 4.02322 19.6467 4.21641 19.7541Z" fill="var(--fill-0, white)" stroke="var(--stroke-2, white)" stroke-width="0.2385"/>
<path id="Vector_3" d="M48.1187 22.0986C47.9471 21.9389 47.5941 21.8173 47.222 21.7648C46.85 21.71 46.5995 21.7433 46.2537 21.834C45.9102 21.927 45.6812 22.0009 45.5 22.2227C45.3212 22.4445 45.2759 22.683 45.3546 22.9382C45.4356 23.1934 45.6312 23.315 45.9031 23.4986C46.1774 23.6847 46.3252 23.6299 46.7212 23.8636C47.1146 24.0949 47.2506 24.238 47.8779 24.6625C48.5027 25.0895 48.9559 25.3113 49.855 25.9934C50.7566 26.6731 51.3433 27.0714 52.3808 28.0707C53.4158 29.0677 54.0121 29.7236 55.0376 30.9828C56.0632 32.2421 56.657 32.9504 57.5062 34.3648C58.3552 35.7815 58.7821 36.5781 59.2806 38.0591C59.7766 39.5378 59.9699 40.3368 59.9961 41.7631C60.0199 43.1917 59.9674 43.8761 59.407 45.1926C58.8489 46.5092 58.3719 47.2009 57.2008 48.348C56.0322 49.4952 55.25 50.0891 53.5541 50.9286C51.8608 51.7681 50.8687 52.0687 48.7317 52.5481C46.5947 53.0274 45.345 53.1658 42.8717 53.3256C40.3985 53.483 38.9126 53.4519 36.3655 53.3422C33.8206 53.2301 32.4445 53.1133 30.1405 52.7698C27.8367 52.4264 26.6609 52.1903 24.8459 51.6226C23.0333 51.055 22.2748 50.7188 21.0704 49.9269C19.8684 49.1327 19.4104 48.7034 18.8333 47.6588C18.2561 46.6142 18.1631 46.0084 18.1822 44.7038C18.2012 43.3992 18.3515 42.6288 18.9239 41.1334C19.4963 39.6404 19.9327 38.777 21.0442 37.2363C22.1556 35.698 22.9402 34.8727 24.481 33.4418C26.024 32.0107 26.9972 31.2691 28.7549 30.0813C30.5126 28.8936 31.5572 28.3856 33.2745 27.5031C34.9893 26.6182 35.7763 26.2533 37.3385 25.6594C38.8983 25.068 39.6376 24.8653 41.0806 24.5386C42.5235 24.2094 43.2033 24.114 44.5555 24.0162C45.9079 23.9184 46.5351 23.9709 47.842 24.0472C49.1515 24.1236 49.7835 24.2213 51.0952 24.3954C52.4046 24.5695 53.0962 24.7412 54.3937 24.9178C55.6935 25.0919 56.3184 25.2087 57.592 25.2707C58.8632 25.3328 59.5835 25.3924 60.7521 25.2279C61.9232 25.0608 62.5194 24.8867 63.44 24.4455C64.3607 24.0019 64.759 23.6608 65.3599 23.0145C65.961 22.3658 66.2138 21.9437 66.4428 21.2091C66.6717 20.4721 66.6526 19.9951 66.5 19.3368C66.3474 18.6761 66.1351 18.347 65.6843 17.913C65.2311 17.4813 64.8114 17.3262 64.239 17.1737C63.6666 17.0234 63.3232 17.0043 62.8223 17.1545C62.3238 17.3072 61.9685 17.498 61.7443 17.932C61.5177 18.3685 61.4962 18.7025 61.6965 19.3297C61.8945 19.957 62.1092 20.3695 62.7388 21.066C63.3685 21.7648 63.8478 22.1845 64.8448 22.8166C65.8394 23.4462 66.4761 23.761 67.7163 24.2237C68.9541 24.6841 69.653 24.9798 71.0411 25.1276C72.4291 25.2779 73.2472 25.2421 74.6591 24.9654C76.0734 24.6911 76.8438 24.4622 78.1054 23.7515C79.3694 23.0432 79.961 22.5017 80.9722 21.4166C81.981 20.3314 82.4723 19.6349 83.1616 18.3256C83.8485 17.0162 84.0989 16.2888 84.4066 14.8697C84.7143 13.4507 84.7452 12.6493 84.7023 11.2326C84.6594 9.81351 84.5259 9.0575 84.1919 7.78149C83.8604 6.50789 83.5766 5.86157 83.0424 4.85986C82.5081 3.86054 82.1313 3.33584 81.5184 2.78013C80.9078 2.22681 80.5501 2.08133 79.9872 2.08848C79.4219 2.09802 79.0403 2.29359 78.7017 2.82306C78.3654 3.35492 78.2342 3.78422 78.2962 4.74538C78.3582 5.70653 78.5824 6.35048 79.0141 7.63123C79.4458 8.91436 79.7487 9.71339 80.4547 11.1562C81.163 12.5968 81.6019 13.3982 82.551 14.8388C83.4979 16.2792 84.0823 17.1116 85.196 18.3614C86.3075 19.6111 86.9323 20.1954 88.1176 21.085C89.3031 21.9723 89.9159 22.3109 91.1204 22.8023C92.3248 23.2936 92.9926 23.4796 94.1374 23.5464C95.2798 23.6132 95.8904 23.4629 96.8349 23.1386C97.7818 22.8118 98.1728 22.497 98.8693 21.9174C99.5659 21.3378 99.9471 20.992 100.321 20.2383C100.694 19.4823 100.846 18.8956 100.732 18.142C100.617 17.3883 100.331 16.9256 99.7496 16.47C99.167 16.0146 98.7259 15.8738 97.825 15.8643C96.9254 15.8547 96.241 16.0241 95.2441 16.4176C94.2447 16.8135 93.6389 17.1665 92.8352 17.8391C92.0314 18.5116 91.6117 19.0268 91.223 19.7852C90.8366 20.5412 90.7388 20.9539 90.8914 21.6241C91.0441 22.2919 91.3446 22.6973 91.9885 23.1314C92.6349 23.5631 93.1262 23.7228 94.1184 23.792C95.1081 23.8588 95.8403 23.6966 96.9493 23.4677C98.0608 23.2411 98.7288 22.9954 99.6681 22.6496C100.608 22.3062 101.108 22.1106 101.648 21.7481C102.184 21.3856 102.249 21.0588 102.359 20.8394C102.466 20.6176 102.399 20.5866 102.189 20.6486C101.98 20.713 101.863 20.8919 101.309 21.1542C100.754 21.4166 100.316 21.6336 99.4175 21.9603C98.5166 22.2871 97.8584 22.5637 96.8086 22.7832C95.7568 23.0026 95.0485 23.1195 94.166 23.0622C93.2836 23.0026 92.9234 22.8094 92.3988 22.4922C91.8764 22.175 91.6522 21.9461 91.5449 21.4761C91.44 21.004 91.5187 20.7487 91.8693 20.1311C92.2199 19.5158 92.5705 19.0006 93.2979 18.3924C94.0253 17.7818 94.6025 17.4432 95.5064 17.0878C96.4103 16.7325 97.0686 16.6204 97.822 16.6155C98.5785 16.6132 98.8625 16.7395 99.282 17.0663C99.7015 17.3954 99.8498 17.6888 99.9235 18.2564C99.9952 18.8265 99.9402 19.2796 99.6445 19.9092C99.3458 20.5412 99.0383 20.88 98.4351 21.4142C97.8338 21.9484 97.4908 22.2585 96.6369 22.5829C95.7807 22.9048 95.2322 23.0694 94.1613 23.0288C93.0928 22.9882 92.4489 22.8357 91.2897 22.3801C90.1306 21.9245 89.5248 21.6074 88.3657 20.7512C87.2066 19.8925 86.5889 19.3225 85.4942 18.0942C84.3994 16.866 83.8199 16.0408 82.8945 14.6146C81.9715 13.1859 81.5398 12.387 80.8744 10.9559C80.2066 9.52496 79.9323 8.70922 79.5602 7.45712C79.1858 6.20738 79.0666 5.56105 79.0094 4.70006C78.9521 3.83669 79.0809 3.55765 79.2741 3.14504C79.4673 2.73243 79.6199 2.60841 79.9752 2.63465C80.333 2.66088 80.5405 2.77774 81.0556 3.27621C81.5708 3.77707 82.0169 4.20636 82.551 5.13413C83.0853 6.05952 83.381 6.68677 83.7221 7.90789C84.0608 9.13138 84.1991 9.87314 84.2492 11.2469C84.3017 12.6207 84.2731 13.4006 83.9773 14.7767C83.6839 16.1529 83.4406 16.8541 82.7752 18.1228C82.1098 19.3917 81.628 20.0691 80.6526 21.1184C79.6747 22.1678 79.1071 22.6878 77.8908 23.3675C76.6744 24.0472 75.9327 24.2619 74.5732 24.517C73.2138 24.7723 72.4291 24.8057 71.0959 24.6458C69.7627 24.4861 69.0901 24.1927 67.9119 23.7181C66.7337 23.2435 66.116 22.9095 65.2049 22.2728C64.2915 21.636 63.8884 21.1876 63.3518 20.5365C62.8128 19.8878 62.7245 19.4871 62.517 19.0244C62.3119 18.5593 62.2236 18.4329 62.3215 18.2207C62.4169 18.006 62.6648 17.9917 63.0011 17.9583C63.3374 17.925 63.5807 17.9368 64.0053 18.0513C64.4298 18.1658 64.7804 18.2374 65.1238 18.5283C65.4648 18.8216 65.6056 19.0244 65.7177 19.5158C65.8322 20.007 65.8584 20.372 65.6843 20.9825C65.5126 21.5931 65.3576 21.9795 64.8567 22.5637C64.3559 23.1504 64.0124 23.4844 63.1753 23.9089C62.3382 24.3358 61.7872 24.5219 60.6734 24.6936C59.562 24.8653 58.8561 24.8176 57.6135 24.7675C56.3708 24.715 55.7508 24.6029 54.4581 24.436C53.1678 24.2666 52.4737 24.0925 51.1572 23.9256C49.8383 23.7562 49.1944 23.6608 47.8659 23.5941C46.5399 23.5273 45.8959 23.4796 44.5221 23.5917C43.146 23.7062 42.4543 23.8135 40.9924 24.1617C39.5327 24.5099 38.7862 24.7245 37.2122 25.3351C35.638 25.9457 34.8509 26.3153 33.1243 27.2121C31.3975 28.1089 30.3505 28.6193 28.576 29.819C26.8039 31.0162 25.8237 31.7603 24.2592 33.2009C22.6946 34.6415 21.8956 35.4666 20.7532 37.0265C19.6108 38.5838 19.1505 39.4544 18.5519 40.9903C17.9532 42.5239 17.7744 43.3252 17.7624 44.699C17.7481 46.0727 17.8601 46.7501 18.4827 47.8543C19.1076 48.9586 19.6227 49.4118 20.8773 50.2226C22.1318 51.036 22.9116 51.3508 24.7552 51.916C26.6012 52.4813 27.7794 52.7078 30.1001 53.0465C32.4206 53.3851 33.7967 53.4997 36.3535 53.6118C38.9126 53.7214 40.4009 53.7548 42.8884 53.6022C45.376 53.4496 46.6329 53.3184 48.7961 52.8438C50.9593 52.3715 51.9729 52.0805 53.7068 51.2363C55.4383 50.3896 56.2517 49.7957 57.4656 48.6176C58.6772 47.4393 59.1852 46.7191 59.7719 45.3477C60.3586 43.9764 60.4183 43.2418 60.3967 41.7583C60.3753 40.2748 60.1678 39.4496 59.6598 37.9303C59.1518 36.4111 58.7106 35.6026 57.8543 34.1573C56.9981 32.7144 56.4019 31.9988 55.3788 30.7086C54.3579 29.4182 53.7641 28.7504 52.7433 27.7034C51.7201 26.6588 51.1334 26.239 50.2676 25.4854C49.4042 24.7294 49.0275 24.4288 48.4192 23.9351C47.8087 23.4415 47.6489 23.2697 47.2244 23.0145C46.7975 22.7617 46.5805 22.7426 46.2871 22.6663C45.9961 22.59 45.8554 22.6186 45.76 22.6377C45.6646 22.6568 45.6837 22.7164 45.8125 22.7593C45.9413 22.8023 46.1177 22.8476 46.3992 22.8476C46.6829 22.8499 46.8904 22.8237 47.2267 22.7665C47.563 22.7116 47.9041 22.6997 48.0829 22.5662C48.2618 22.4326 48.2904 22.2585 48.1187 22.0986Z" fill="var(--fill-0, white)" stroke="var(--stroke-2, white)" stroke-width="0.2385"/>
<path id="Vector_4" d="M124.17 3.56232C124.151 3.92961 124.288 4.41616 124.455 5.301C124.622 6.18583 124.749 6.763 125.002 7.98651C125.255 9.20998 125.403 10.0686 125.722 11.4209C126.042 12.7733 126.201 13.4696 126.597 14.748C126.991 16.0264 127.182 16.699 127.7 17.8128C128.219 18.9266 128.582 19.4774 129.19 20.3194C129.798 21.1613 130.044 21.4546 130.74 22.0223C131.437 22.5899 131.794 22.7903 132.672 23.1528C133.55 23.5152 134.08 23.6465 135.126 23.8373C136.173 24.0257 136.798 24.0328 137.905 24.0996C139.012 24.1664 139.584 24.1449 140.655 24.1688C141.726 24.1926 142.293 24.2141 143.259 24.2165C144.225 24.2189 144.68 24.1926 145.484 24.1807C146.288 24.1711 146.641 24.2165 147.273 24.1664C147.905 24.1139 148.198 24.1115 148.644 23.9302C149.091 23.7491 149.253 23.5391 149.508 23.2553C149.764 22.9739 149.854 22.7878 149.923 22.5112C149.992 22.2345 149.937 22.0128 149.854 21.8744C149.77 21.7385 149.617 21.7503 149.505 21.829C149.391 21.9077 149.398 22.0843 149.291 22.2703C149.184 22.4587 149.148 22.5684 148.967 22.764C148.788 22.9596 148.74 23.1313 148.389 23.2482C148.038 23.365 147.801 23.3078 147.213 23.346C146.627 23.3841 146.252 23.3936 145.458 23.4365C144.667 23.4795 144.211 23.5391 143.252 23.563C142.293 23.5869 141.728 23.5678 140.667 23.5511C139.605 23.5344 139.028 23.5486 137.943 23.4795C136.858 23.4103 136.247 23.3889 135.241 23.2076C134.234 23.024 133.736 22.8976 132.913 22.5661C132.088 22.2345 131.776 22.0628 131.124 21.5453C130.471 21.0301 130.242 20.7725 129.651 19.9807C129.059 19.1912 128.684 18.6666 128.169 17.5909C127.654 16.5153 127.461 15.8594 127.077 14.6025C126.692 13.3433 126.545 12.6468 126.246 11.2993C125.951 9.95409 125.82 9.09788 125.588 7.87203C125.357 6.64375 125.295 6.0475 125.088 5.16743C124.883 4.28737 124.742 3.79128 124.559 3.47169C124.375 3.14972 124.191 3.19742 124.17 3.56232Z" fill="var(--fill-0, white)" stroke="var(--stroke-2, white)" stroke-width="0.2385"/>
<path id="Vector_5" d="M148.619 18.6666C148.619 18.886 148.726 19.1174 148.936 19.5037C149.144 19.8924 149.317 20.2431 149.661 20.6056C150.007 20.9681 150.341 21.1255 150.658 21.3139C150.975 21.4999 151.09 21.531 151.25 21.5405C151.409 21.55 151.449 21.5238 151.454 21.3592C151.457 21.1923 151.447 21.0253 151.269 20.7105C151.092 20.3957 150.883 20.1429 150.565 19.7803C150.25 19.4179 150.014 19.1698 149.687 18.8955C149.363 18.6212 149.148 18.4567 148.933 18.4114C148.721 18.3661 148.619 18.4471 148.619 18.6666Z" fill="var(--fill-0, white)" stroke="var(--stroke-2, white)" stroke-width="0.2385"/>
<path id="Vector_6" d="M151.181 15.0676C151.193 15.256 151.467 15.6543 151.637 15.7355C151.806 15.8141 152.042 15.6519 152.028 15.4659C152.013 15.2799 151.739 14.8791 151.57 14.8005C151.4 14.7218 151.166 14.8816 151.181 15.0676Z" fill="var(--fill-0, white)" stroke="var(--stroke-2, white)" stroke-width="0.2385"/>
<path id="Vector_7" d="M160.127 19.7327C160.114 19.8495 160.101 19.8495 160.189 20.0475C160.278 20.2431 160.378 20.41 160.572 20.7177C160.762 21.0277 160.867 21.178 161.153 21.5906C161.439 22.0008 161.578 22.3442 162 22.7711C162.42 23.2005 162.717 23.4414 163.257 23.7347C163.796 24.0281 164.051 24.1449 164.695 24.2356C165.338 24.3285 165.776 24.3786 166.474 24.1926C167.176 24.0066 167.54 23.7919 168.198 23.303C168.857 22.8141 169.219 22.4158 169.763 21.7503C170.307 21.0826 170.545 20.6795 170.915 19.9711C171.284 19.2628 171.397 18.8454 171.609 18.2039C171.824 17.5647 171.914 17.2523 171.984 16.7657C172.055 16.2791 171.986 16.0907 171.962 15.7688C171.939 15.4492 171.945 15.287 171.869 15.1582C171.792 15.0294 171.685 15.0175 171.583 15.1272C171.48 15.2393 171.437 15.4206 171.356 15.7139C171.277 16.0073 171.309 16.1575 171.184 16.5964C171.058 17.0351 170.938 17.3094 170.731 17.9057C170.524 18.502 170.469 18.9193 170.145 19.5824C169.82 20.2431 169.603 20.6127 169.107 21.2114C168.611 21.8123 168.244 22.1677 167.669 22.5803C167.094 22.9953 166.801 23.1289 166.233 23.2815C165.664 23.4318 165.325 23.4079 164.824 23.3364C164.325 23.2624 164.139 23.1742 163.734 22.9166C163.33 22.659 163.126 22.4396 162.801 22.0461C162.477 21.6526 162.371 21.3521 162.112 20.9466C161.85 20.5435 161.763 20.3241 161.494 20.0212C161.225 19.716 161.01 19.5371 160.762 19.425C160.517 19.3129 160.39 19.3987 160.264 19.4607C160.137 19.5227 160.142 19.6158 160.127 19.7327Z" fill="var(--fill-0, white)" stroke="var(--stroke-2, white)" stroke-width="0.2385"/>
<path id="Vector_8" d="M178.989 17.5671C178.841 17.4908 178.689 17.4741 178.377 17.5386C178.064 17.6053 177.844 17.6625 177.429 17.9011C177.014 18.1395 176.7 18.3303 176.302 18.7334C175.901 19.1365 175.746 19.437 175.43 19.914C175.118 20.3886 174.937 20.6533 174.735 21.1161C174.534 21.5787 174.424 21.8149 174.426 22.2322C174.426 22.6472 174.469 22.8833 174.739 23.2029C175.006 23.5225 175.283 23.73 175.769 23.8278C176.258 23.9256 176.638 23.8564 177.176 23.6871C177.713 23.5201 177.997 23.3508 178.46 22.9835C178.925 22.6138 179.164 22.3682 179.495 21.8458C179.827 21.3236 179.946 20.8799 180.117 20.3743C180.289 19.8686 180.243 19.5873 180.353 19.3201C180.46 19.0554 180.46 18.9957 180.659 19.0411C180.856 19.0864 180.921 19.2295 181.344 19.5515C181.768 19.8758 182.111 20.174 182.776 20.6582C183.442 21.1423 183.883 21.4571 184.672 21.9675C185.464 22.4779 185.955 22.838 186.728 23.2124C187.504 23.587 187.893 23.7681 188.546 23.8397C189.201 23.9136 189.519 23.8182 190.001 23.5773C190.482 23.3341 190.659 23.0956 190.957 22.6282C191.253 22.1607 191.334 21.7314 191.486 21.2352C191.639 20.7392 191.62 20.4936 191.72 20.1478C191.822 19.8019 191.887 19.6159 191.992 19.5109C192.095 19.4084 192.064 19.4132 192.24 19.6302C192.414 19.8449 192.45 20.1668 192.87 20.5913C193.289 21.0159 193.676 21.3259 194.339 21.7553C195.002 22.1845 195.436 22.4493 196.185 22.7378C196.934 23.0265 197.33 23.1767 198.086 23.1982C198.839 23.2173 199.302 23.1337 199.958 22.8404C200.616 22.5447 200.959 22.2441 201.372 21.7242C201.783 21.2043 201.816 20.7249 202.013 20.2383C202.214 19.7518 202.183 19.5133 202.367 19.2939C202.551 19.0744 202.629 19.1078 202.93 19.1436C203.233 19.1818 203.447 19.3201 203.874 19.4847C204.304 19.6469 204.571 19.8162 205.072 19.9617C205.575 20.1072 205.906 20.1907 206.385 20.2145C206.865 20.2383 207.102 20.1954 207.471 20.0761C207.84 19.9593 207.981 19.809 208.234 19.6254C208.487 19.4418 208.592 19.3082 208.733 19.1579C208.876 19.0077 208.888 18.9433 208.945 18.8741C209.005 18.8049 209.016 18.7478 209.026 18.8098C209.033 18.8741 208.847 19.0124 208.988 19.189C209.128 19.3678 209.46 19.7136 209.725 19.7017C209.992 19.6898 210.301 19.3965 210.316 19.1245C210.328 18.8527 210.014 18.5092 209.792 18.3447C209.573 18.1801 209.436 18.3232 209.212 18.3017C208.99 18.2779 208.89 18.192 208.677 18.2349C208.468 18.2779 208.343 18.3685 208.153 18.5188C207.962 18.6714 207.905 18.8312 207.726 18.9934C207.547 19.1556 207.504 19.2749 207.261 19.3297C207.015 19.3821 206.88 19.3511 206.505 19.2653C206.133 19.1795 205.866 19.053 205.396 18.9028C204.924 18.7525 204.651 18.6165 204.153 18.514C203.657 18.4115 203.368 18.3328 202.913 18.3876C202.458 18.4424 202.227 18.4949 201.878 18.7882C201.532 19.0792 201.422 19.3726 201.174 19.8496C200.926 20.3242 200.955 20.732 200.638 21.1685C200.323 21.6074 200.104 21.8124 199.601 22.039C199.095 22.268 198.73 22.3395 198.119 22.3061C197.509 22.2752 197.18 22.1631 196.545 21.8744C195.91 21.5859 195.534 21.283 194.943 20.8632C194.353 20.4435 194.058 20.143 193.595 19.7781C193.132 19.4155 193.008 19.2057 192.631 19.0482C192.255 18.8932 192.064 18.8574 191.715 18.9982C191.365 19.1389 191.131 19.3631 190.883 19.7495C190.638 20.1382 190.621 20.4435 190.482 20.9395C190.342 21.4357 190.344 21.822 190.189 22.2299C190.031 22.6401 190.001 22.8237 189.697 22.9882C189.393 23.1528 189.185 23.1553 188.665 23.0502C188.145 22.9478 187.801 22.826 187.098 22.4683C186.394 22.1106 185.893 21.7767 185.145 21.2615C184.396 20.744 184.01 20.391 183.352 19.8854C182.695 19.3821 182.395 19.0268 181.858 18.7406C181.324 18.4544 181.093 18.4257 180.673 18.4544C180.256 18.4854 180.069 18.5903 179.764 18.8956C179.459 19.2009 179.376 19.4966 179.147 19.9807C178.915 20.4625 178.875 20.8632 178.617 21.3116C178.36 21.7576 178.21 21.9389 177.856 22.2132C177.501 22.4874 177.243 22.5447 176.847 22.683C176.451 22.819 176.194 22.8857 175.872 22.8953C175.55 22.9048 175.383 22.8476 175.238 22.7306C175.092 22.6115 175.077 22.5398 175.147 22.3061C175.216 22.0749 175.352 21.9222 175.583 21.5668C175.817 21.2115 176.008 20.9348 176.31 20.5294C176.616 20.1262 176.757 19.883 177.105 19.5467C177.451 19.2104 177.725 19.0983 178.051 18.8479C178.379 18.5974 178.529 18.483 178.741 18.2994C178.953 18.1133 179.065 18.0656 179.115 17.9201C179.164 17.7746 179.137 17.6435 178.989 17.5671Z" fill="var(--fill-0, white)" stroke="var(--stroke-2, white)" stroke-width="0.2385"/>
<path id="Vector_9" d="M218.676 21.5288C218.834 21.6719 219.172 21.6671 219.499 21.8031C219.826 21.9391 219.969 21.9462 220.315 22.2086C220.659 22.4733 220.826 22.6927 221.225 23.1197C221.629 23.5466 221.791 23.8399 222.326 24.3431C222.862 24.844 223.155 25.1875 223.905 25.6287C224.653 26.0699 225.092 26.2917 226.07 26.5445C227.047 26.7973 227.756 26.8665 228.791 26.8927C229.826 26.9166 230.365 26.8737 231.243 26.6685C232.121 26.4634 232.555 26.2918 233.175 25.8671C233.795 25.4426 234.131 25.123 234.341 24.5435C234.553 23.9639 234.53 23.5919 234.231 22.9694C233.933 22.3469 233.621 22.0082 232.853 21.431C232.087 20.8515 231.534 20.5653 230.397 20.0763C229.256 19.5898 228.569 19.3442 227.159 18.9959C225.748 18.6454 224.892 18.4975 223.342 18.3305C221.791 18.166 220.859 18.1731 219.409 18.1684C217.959 18.1636 217.219 18.2399 216.096 18.3115C214.975 18.383 214.455 18.4069 213.799 18.5285C213.143 18.6501 213.002 18.7956 212.817 18.9172C212.628 19.0389 212.647 19.0913 212.86 19.1319C213.072 19.1725 213.221 19.1725 213.878 19.1176C214.534 19.0651 215.03 18.9555 216.136 18.8601C217.243 18.7647 217.98 18.6549 219.411 18.6406C220.842 18.6263 221.768 18.6215 223.292 18.7884C224.815 18.9578 225.662 19.1128 227.034 19.4801C228.405 19.8498 229.075 20.1217 230.151 20.6273C231.224 21.133 231.727 21.4693 232.407 22.0082C233.087 22.5472 233.289 22.8645 233.551 23.3224C233.814 23.7803 233.883 23.9234 233.718 24.2979C233.554 24.6723 233.263 24.8631 232.734 25.1946C232.204 25.5261 231.856 25.7575 231.072 25.9555C230.285 26.1533 229.772 26.2082 228.808 26.1844C227.844 26.1605 227.153 26.0866 226.259 25.8409C225.362 25.5929 224.98 25.383 224.329 24.9489C223.678 24.5149 223.472 24.1762 223.003 23.6682C222.533 23.1602 222.401 22.8621 221.975 22.4113C221.548 21.9605 221.314 21.703 220.866 21.4143C220.415 21.1258 220.153 21.0351 219.723 20.9684C219.294 20.9016 218.926 20.9684 218.717 21.0805C218.509 21.1926 218.522 21.3834 218.676 21.5288Z" fill="var(--fill-0, white)" stroke="var(--stroke-2, white)" stroke-width="0.2385"/>
<path id="Vector_10" d="M239.317 18.7741C239.312 18.9148 239.411 18.9911 239.52 19.1509C239.63 19.3107 239.699 19.3441 239.869 19.5707C240.036 19.7972 240.203 19.9022 240.362 20.2837C240.524 20.6654 240.507 20.8967 240.669 21.4811C240.829 22.063 240.985 22.4494 241.163 23.1958C241.344 23.9424 241.442 24.3765 241.566 25.2136C241.688 26.0531 241.79 26.5635 241.778 27.3863C241.767 28.2091 241.865 28.6313 241.509 29.3301C241.154 30.0289 240.856 30.3295 240.006 30.8828C239.157 31.4361 238.447 31.7533 237.266 32.0943C236.088 32.4353 235.332 32.5571 234.11 32.588C232.892 32.6166 232.115 32.4473 231.168 32.2398C230.223 32.0299 229.863 31.7866 229.381 31.5457C228.899 31.3025 228.919 31.107 228.761 31.0306C228.604 30.9543 228.53 30.9615 228.594 31.1618C228.659 31.3646 228.594 31.7032 229.081 32.0442C229.567 32.3829 230.02 32.6428 231.029 32.867C232.038 33.0912 232.849 33.2081 234.127 33.1629C235.408 33.1175 236.183 32.9983 237.426 32.6428C238.666 32.2899 239.401 31.9918 240.335 31.3908C241.27 30.7921 241.66 30.4367 242.098 29.6425C242.535 28.8459 242.468 28.3212 242.525 27.415C242.582 26.511 242.475 25.9935 242.385 25.1134C242.293 24.231 242.211 23.7874 242.077 23.0075C241.941 22.2275 241.86 21.8436 241.712 21.2139C241.561 20.5843 241.54 20.322 241.327 19.8592C241.113 19.3942 240.908 19.1629 240.644 18.8934C240.376 18.6238 240.221 18.6047 239.999 18.5141C239.777 18.4235 239.673 18.3925 239.536 18.445C239.401 18.495 239.319 18.631 239.317 18.7741Z" fill="var(--fill-0, white)" stroke="var(--stroke-2, white)" stroke-width="0.2385"/>
</g>
</svg>
