<svg preserveAspectRatio="none" width="100%" height="100%" overflow="visible" style="display: block;" viewBox="0 0 113.993 23.9399" fill="none" xmlns="http://www.w3.org/2000/svg">
<path id="Vector" d="M11.3407 7.47556C11.6313 8.35551 11.9233 9.47811 12.262 10.7487C11.002 10.7487 9.69277 10.6994 8.48217 10.6994H7.85154C8.57817 7.91554 9.40212 5.76633 10.0807 5.27703C10.1301 5.2277 10.1781 5.2277 10.2754 5.2277C10.3714 5.2277 10.4207 5.27703 10.5167 5.37435C10.614 5.61834 10.9047 6.20497 11.3407 7.47556ZM23.7493 11.97C23.7493 18.5656 18.4163 23.9399 11.874 23.9399C5.33169 23.9399 0 18.5656 0 11.97C0 5.37435 5.33169 0 11.874 0C18.4176 0 23.7493 5.37435 23.7493 11.97ZM20.6961 11.6767C20.6961 11.3833 20.5015 11.09 20.2108 11.042H20.0162C18.0296 10.8954 15.9457 10.846 14.0072 10.7967C13.0859 7.23158 11.874 3.61579 10.3234 3.61579C8.87015 3.61579 7.5129 6.01032 6.3503 10.6994C5.52501 10.6994 4.79839 10.6994 4.11976 10.6514H3.77978C3.39314 10.6994 3.10249 11.0914 3.10249 11.482C3.10249 11.8726 3.39314 12.2633 3.82911 12.3126H6.05831C5.86499 13.2406 5.67167 14.1685 5.52501 15.0485L5.47701 15.4391C5.47701 15.7324 5.71967 15.9764 6.01032 15.9764C6.20364 15.9764 6.39696 15.8777 6.49429 15.7311L7.56089 12.2633H12.7473C13.1339 13.7779 13.5712 15.3404 14.1032 16.807C14.3952 17.5883 15.0738 19.4442 16.2364 19.4442C17.9816 19.4442 18.6589 16.611 19.0962 14.7551C19.1922 14.3645 19.2895 14.0219 19.3375 13.7285L19.3869 13.6312V13.4845C19.3494 13.3967 19.2798 13.3266 19.1922 13.2886C19.0469 13.2406 18.9509 13.3379 18.9016 13.4845L18.8536 13.5819C18.7069 13.9725 18.5629 14.3645 18.4669 14.7058V14.7551C17.6896 16.9043 17.351 17.8816 16.6724 17.8816C15.8004 17.8816 14.9765 14.3152 14.6858 12.9472C14.6421 12.7345 14.5932 12.5229 14.5392 12.3126H20.2108C20.3068 12.3126 20.4041 12.2633 20.5015 12.2633H20.5988C20.5988 12.2633 20.6468 12.2633 20.6468 12.214C20.5988 12.0193 20.6961 11.8726 20.6961 11.6767ZM35.8153 14.9498L36.7845 17.295H39.499L34.2647 5.03304H31.8408L26.6545 17.295H29.369L30.3382 14.9498H35.8153ZM34.846 12.6539H31.2595L33.0527 8.20752L34.846 12.6539ZM51.1304 8.45284C49.7744 8.45284 48.9505 8.84348 48.0292 9.6741C47.6923 9.286 47.275 8.97577 46.8063 8.7649C46.3376 8.55403 45.8286 8.44755 45.3147 8.45284C44.2974 8.45284 43.7641 8.74616 43.2308 9.23413V8.74616H40.807V17.295H43.2788V11.6767C43.7641 10.9927 44.2974 10.6994 44.7814 10.6994C45.9453 10.6994 46.624 11.4327 46.624 12.8006V17.295H49.0465V12.6046C49.0465 12.2633 48.9985 11.97 48.9985 11.6767C49.5318 10.9434 50.0651 10.7487 50.5984 10.7487C51.761 10.7487 52.3916 11.482 52.3916 12.8499V17.343H54.8635V12.6539C54.8635 10.0647 53.2142 8.45284 51.1304 8.45284ZM61.5511 8.55017C60.5818 8.55017 59.8059 8.79415 59.1272 9.23413V8.74616H56.6567V21.4481H59.1272V16.807C59.8072 17.247 60.5818 17.491 61.5511 17.491C63.9256 17.491 65.8175 15.5364 65.8175 13.0446C65.7682 10.5047 63.8776 8.55017 61.5511 8.55017ZM61.1151 15.3898C60.3885 15.3898 59.6619 15.1458 59.1286 14.4125V11.6767C59.6619 10.9434 60.3885 10.65 61.1151 10.65C62.375 10.65 63.2963 11.774 63.2963 13.0446C63.2963 14.2658 62.3764 15.3898 61.1151 15.3898ZM69.596 4.59307H67.1254V17.295H69.5973L69.596 4.59307ZM73.2797 7.13292C74.1037 7.13292 74.733 6.54629 74.733 5.717C74.733 4.88772 74.0557 4.25042 73.2797 4.25042C72.4558 4.25042 71.7772 4.88638 71.7772 5.717C71.7904 6.10342 71.9557 6.46899 72.2371 6.73415C72.5185 6.99932 72.8932 7.14263 73.2797 7.13292ZM72.0691 8.74616V17.295H74.5397V8.74616H72.0691ZM83.2645 15.0965C82.7946 15.2482 82.305 15.3304 81.8112 15.3404C80.89 15.3404 80.3073 14.9005 80.3073 13.9245V10.8954H83.3605V8.79415H80.262V5.717H77.8381V8.79415H76.0449V10.8954H77.8381V13.9725C77.8381 16.1724 79.1954 17.6363 81.2793 17.6363C82.1032 17.6363 82.5392 17.5883 83.6058 17.2457L83.2645 15.0965ZM93.3932 8.74616H90.9214V14.2658C90.3401 14.9498 89.7108 15.3404 89.0815 15.3404C87.9176 15.3404 87.2389 14.6071 87.2389 13.2406V8.74616H84.7684V13.4845C84.7684 15.9764 86.271 17.5883 88.5002 17.5883C89.4695 17.5883 90.2441 17.2457 90.9227 16.7084V17.295H93.3946L93.3932 8.74616ZM103.911 4.59307H101.439V9.23413C100.759 8.79415 99.9862 8.55017 99.0156 8.55017C96.641 8.55017 94.7505 10.5047 94.7505 12.9966C94.7505 15.5364 96.641 17.4417 99.0169 17.4417C99.9848 17.4417 100.761 17.1977 101.439 16.7577V17.2457H103.911V4.59307ZM99.4035 15.3898C98.0943 15.3898 97.2223 14.2658 97.2223 12.9966C97.2223 11.726 98.1423 10.65 99.4035 10.65C100.13 10.65 100.857 10.8954 101.39 11.6273V14.3645C100.857 15.1458 100.13 15.3898 99.4035 15.3898ZM113.993 12.8499C113.993 10.1621 112.152 8.45284 109.728 8.45284C107.014 8.45284 105.173 10.3581 105.173 13.0446C105.173 15.6338 107.014 17.6363 109.776 17.6363C111.812 17.6363 113.412 16.5137 113.896 14.8525H111.279C110.988 15.2924 110.552 15.4871 109.826 15.4871C108.468 15.4871 107.79 14.7058 107.596 13.6805H113.896C113.993 13.3872 113.993 13.1912 113.993 12.8499ZM109.728 10.5527C110.746 10.5527 111.376 11.1394 111.522 12.214H107.644C107.887 11.2367 108.564 10.5527 109.728 10.5527Z" fill="var(--fill-0, #111111)" fill-opacity="0.4"/>
</svg>
