<svg preserveAspectRatio="none" width="100%" height="100%" overflow="visible" style="display: block;" viewBox="0 0 6.21607 4.0413" fill="none" xmlns="http://www.w3.org/2000/svg">
<path id="Vector" d="M6.00804 0C6.04724 5.58054e-05 6.08563 0.0111713 6.1188 0.0320689C6.15196 0.0529665 6.17856 0.0827981 6.19554 0.118136C6.21251 0.153473 6.21917 0.192882 6.21474 0.231834C6.21032 0.270786 6.195 0.3077 6.17054 0.338333L3.27054 3.96333C3.25102 3.98766 3.22628 4.0073 3.19815 4.0208C3.17003 4.03429 3.13923 4.0413 3.10804 4.0413C3.07684 4.0413 3.04604 4.03429 3.01792 4.0208C2.98979 4.0073 2.96506 3.98766 2.94554 3.96333L0.0455367 0.338333C0.0210745 0.3077 0.00575211 0.270786 0.0013299 0.231834C-0.00309231 0.192882 0.00356525 0.153473 0.0205377 0.118136C0.0375101 0.0827981 0.064109 0.0529665 0.0972767 0.0320689C0.130444 0.0111713 0.168835 5.58054e-05 0.208037 0H6.00804Z" fill="var(--fill-0, #111111)"/>
</svg>
