<svg preserveAspectRatio="none" width="100%" height="100%" overflow="visible" style="display: block;" viewBox="0 0 4.747 8.78615" fill="none" xmlns="http://www.w3.org/2000/svg">
<path id="Vector" d="M2.38 1.51715C2.27886 1.51962 2.17828 1.50152 2.08435 1.46395C1.99042 1.42637 1.9051 1.37012 1.83357 1.29858C1.76203 1.22705 1.70578 1.14173 1.6682 1.0478C1.63063 0.953868 1.61253 0.853285 1.615 0.75215C1.61471 0.652215 1.6344 0.553231 1.67291 0.461013C1.71141 0.368794 1.76796 0.285201 1.83923 0.215145C1.9105 0.145088 1.99505 0.089981 2.08791 0.0530606C2.18078 0.0161401 2.28008 -0.00184902 2.38 0.000150087C2.4792 -0.00147206 2.57772 0.0168709 2.66969 0.0540881C2.76166 0.0913053 2.8452 0.146637 2.91536 0.216792C2.98551 0.286948 3.04084 0.370494 3.07806 0.462464C3.11528 0.554434 3.13362 0.652949 3.132 0.75215C3.132 1.20215 2.805 1.51715 2.38 1.51715ZM2.865 7.87615H4.747V8.78615H0.000999987V7.87615H1.871V3.50615H0V2.59615H2.864L2.865 7.87615Z" fill="var(--fill-0, #9C9FA5)"/>
</svg>
