<svg preserveAspectRatio="none" width="100%" height="100%" overflow="visible" style="display: block;" viewBox="0 0 72.1375 23.5322" fill="none" xmlns="http://www.w3.org/2000/svg">
<g id="Group">
<path id="Vector" d="M42.2873 0.352782C42.2552 0.553227 42.2312 2.92649 42.2312 5.64452C42.2312 8.35452 42.2151 10.6236 42.1991 10.6797C42.175 10.7358 42.143 12.7002 42.1109 15.0414C42.0628 18.8578 42.0708 19.3068 42.1831 19.3469C42.3113 19.395 45.2699 19.4351 45.318 19.387C45.3661 19.3469 45.5986 5.04318 45.5986 2.46146V0H42.3354L42.2873 0.352782ZM8.62064 2.21291C8.18768 2.26903 7.76274 2.35723 7.68256 2.40533C7.59437 2.44542 7.45005 2.48551 7.36185 2.48551C7.01709 2.48551 5.40551 3.28729 4.75607 3.77637C4.3151 4.11312 3.48926 4.93093 3.06432 5.45209C2.55118 6.07748 1.82958 7.38437 1.4768 8.2984C1.09997 9.2926 0.971682 9.70151 0.755202 10.5434C0.242065 12.5478 0.0736915 13.9189 0.017567 16.677C-0.0145041 18.1362 -0.00648628 18.5852 0.0736915 18.6814C0.169905 18.7937 0.354314 18.8899 1.01979 19.1785C1.17213 19.2427 1.44473 19.3629 1.62112 19.4351C2.03003 19.6195 2.43894 19.7959 2.74361 19.9162C2.87991 19.9723 3.12045 20.0765 3.28882 20.1487C3.44918 20.2208 3.71376 20.3331 3.8661 20.3972C4.02646 20.4694 4.27501 20.5736 4.42734 20.6458C4.57968 20.7099 4.82823 20.8142 4.97255 20.8783C5.31732 21.0306 5.76631 21.2231 6.08702 21.3674C6.64025 21.6079 7.14537 21.648 7.98724 21.5277C8.43623 21.4556 8.88523 21.3674 9.00549 21.3273C9.11774 21.2792 9.34224 21.2471 9.51062 21.2471C9.91952 21.2471 10.1039 21.0386 10.12 20.5415C10.136 20.3331 10.1681 19.4271 10.1921 18.5211C10.2483 16.8293 10.4006 15.2177 10.6091 14.2316C10.6732 13.9189 10.7213 13.5982 10.7213 13.518C10.7213 13.4298 10.7774 13.1652 10.8496 12.9166C10.9217 12.6681 11.034 12.2672 11.0981 12.0267C11.4269 10.8561 12.0763 9.48503 12.6696 8.69929C13.7039 7.33627 15.0349 6.53449 16.7747 6.2218C18.2821 5.94919 19.5088 6.15765 20.6633 6.87925C21.1043 7.15988 22.1065 8.13003 22.291 8.46677C22.6117 9.05207 23.1809 10.2467 23.2371 10.4552C23.2691 10.5915 23.3333 10.808 23.3734 10.9443C23.6059 11.6578 23.7101 12.0267 23.7101 12.155C23.7101 12.2431 23.7582 12.5558 23.8223 12.8685C24.0388 13.9108 24.1912 15.4262 24.1992 16.677C24.2152 17.9678 24.2633 18.2485 24.4798 18.3367C24.552 18.3607 24.8967 18.3126 25.2415 18.2324C25.7867 18.1041 25.8909 18.056 25.931 17.8877C26.0112 17.583 25.8829 14.3117 25.7466 13.1892C25.5301 11.3452 25.2655 10.1826 24.7364 8.73938C24.4157 7.88949 23.7261 6.79106 23.0526 6.08549C22.0103 4.98706 20.96 4.44987 18.6589 3.82448C18.4184 3.75232 18.0175 3.64809 17.7769 3.58395C17.5364 3.51179 17.1034 3.39954 16.8148 3.32738C16.5262 3.25522 16.1173 3.14297 15.8928 3.08684C15.6763 3.0227 15.2754 2.91847 15.0108 2.85433C14.7462 2.79019 14.3133 2.68596 14.0487 2.62181C12.0442 2.11669 10.2883 1.98841 8.62064 2.21291ZM57.93 5.17147C57.9059 5.19552 57.9781 5.46011 58.0823 5.75676C58.1946 6.05342 58.3068 6.39819 58.3469 6.53449C58.379 6.66277 58.4591 6.90331 58.5153 7.05564C58.6836 7.53671 58.8039 7.88949 58.9242 8.21822C59.1326 8.78748 59.2449 9.09216 59.309 9.34071C59.3491 9.469 59.4533 9.78169 59.5496 10.0222C59.6458 10.2628 59.75 10.5754 59.7901 10.7118C59.8222 10.8561 59.8783 11.0084 59.9104 11.0645C59.9424 11.1207 59.9986 11.273 60.0386 11.4173C60.0707 11.5536 60.2872 12.187 60.5117 12.8284C60.7362 13.4699 60.9527 14.0953 60.9928 14.2316C61.0329 14.3598 61.1932 14.8329 61.3536 15.2739C61.5139 15.7148 61.6743 16.1879 61.7063 16.3242C61.7464 16.4685 61.8026 16.6209 61.8346 16.677C61.8667 16.7331 61.9228 16.8854 61.9549 17.0298C61.995 17.1661 62.0992 17.4788 62.1874 17.7193C62.2836 17.9598 62.3558 18.2164 62.3558 18.2966C62.3558 18.3767 61.8346 19.4672 61.1932 20.734C60.5518 21.9928 60.0306 23.0912 60.0306 23.1714C60.0306 23.2916 60.1108 23.3317 60.3754 23.3638C60.9607 23.436 62.2115 23.5242 62.7487 23.5242L63.2618 23.5322L64.3682 21.3674C64.9696 20.1727 65.8916 18.3687 66.4048 17.3585C66.9179 16.3402 67.7918 14.6485 68.329 13.5901C68.8742 12.5318 69.6279 11.0485 70.0128 10.3028C70.3896 9.54917 70.7424 8.86766 70.7905 8.77947C70.8386 8.69127 70.9107 8.56299 70.9428 8.49884L71.456 7.47257C71.7125 6.95141 71.9531 6.57458 72.0252 6.57458C72.0894 6.57458 72.1375 6.52647 72.1375 6.47035C72.1375 6.38215 71.8087 6.33404 70.7985 6.24585C70.0528 6.18972 69.235 6.14162 68.9785 6.1336H68.5054L67.7999 7.49662C67.415 8.24228 66.7896 9.469 66.4048 10.2227C65.6671 11.6819 65.603 11.7861 65.4827 12.0026C65.4346 12.0828 65.3785 12.2031 65.3544 12.2672C65.3304 12.3313 65.2743 12.4516 65.2342 12.5318C65.1861 12.612 65.0017 12.9728 64.8172 13.3336C64.6328 13.6944 64.4404 14.0391 64.3843 14.0953C64.248 14.2396 64.1197 14.1434 64.1197 13.9108C64.1197 13.8066 64.0716 13.5982 64.0074 13.4538C63.9513 13.3095 63.8391 12.9888 63.7669 12.7483C63.7028 12.5077 63.5344 11.9786 63.4141 11.5857C63.2858 11.1848 63.0613 10.4873 62.925 10.0222C62.7807 9.55719 62.6124 9.06009 62.5482 8.91577C62.4841 8.77145 62.436 8.58704 62.436 8.49884C62.436 8.41065 62.3879 8.22624 62.3237 8.08192C62.2596 7.9376 62.0912 7.4405 61.9549 6.97547C61.6582 5.98928 61.4738 5.51623 61.3536 5.43605C61.3135 5.40398 61.0008 5.37191 60.6721 5.37191C60.3433 5.37191 59.6939 5.31579 59.2289 5.25164C58.3148 5.12336 57.9941 5.10732 57.93 5.17147ZM34.4138 5.36389C32.9065 5.55632 31.327 6.32603 30.3568 7.3523C29.3546 8.40263 28.9698 9.16432 28.6731 10.6636C28.3845 12.0988 28.609 13.6863 29.3225 15.1857C29.7956 16.1799 30.894 17.3505 31.768 17.7995C31.9444 17.8957 32.1448 17.9999 32.2089 18.032C32.3853 18.1362 32.9065 18.3206 33.4196 18.473C34.045 18.6574 36.2579 18.6494 37.0036 18.473C38.8717 18.0159 40.355 16.9977 41.2209 15.5625C41.5256 15.0654 41.5336 14.873 41.245 14.7928C41.0044 14.7287 39.9301 14.2957 39.0722 13.9189L38.7595 13.7826L38.1902 14.3679C37.3243 15.2498 36.4263 15.6587 35.3359 15.6507C34.0691 15.6507 33.0508 15.1295 32.4334 14.1754C31.9925 13.4779 31.8642 13.0048 31.8642 11.9946C31.8562 10.7518 32.1368 9.99015 32.8905 9.19639C33.6762 8.37056 35.1916 8.04183 36.4584 8.41065C37.204 8.62713 37.4846 8.7955 37.9497 9.27657C38.1742 9.50908 38.4067 9.70151 38.4628 9.70151C38.5109 9.70151 39.1122 9.36476 39.7938 8.96388C40.6276 8.45876 41.0285 8.17012 41.0285 8.08192C41.0285 7.89751 39.89 6.73493 39.3849 6.39819C38.8477 6.0454 38.1742 5.72469 37.5648 5.53227C36.9956 5.34786 35.2637 5.25966 34.4138 5.36389Z" fill="var(--fill-0, black)"/>
<path id="Vector_2" d="M50.9946 6.05342C49.3349 6.38215 48.028 7.37636 47.2744 8.89973C47.1461 9.1563 47.0418 9.43692 47.0418 9.5171C47.0418 9.66142 47.2743 9.80574 47.8837 10.0543C48.1643 10.1746 48.5732 10.3429 48.9661 10.5193C49.4472 10.7278 49.6957 10.824 49.7679 10.824C49.808 10.824 49.9202 10.6556 50.0244 10.4472C50.257 9.97412 50.8262 9.38882 51.2752 9.1563C51.5478 9.01198 51.7483 8.97991 52.3015 8.97991C53.0712 8.97991 53.5122 9.13225 53.9211 9.53314C54.2097 9.82178 54.5224 10.6236 54.4823 10.9924L54.4583 11.265L53.1754 11.3532C51.4997 11.4654 50.6739 11.6338 49.5273 12.0988C48.461 12.5238 47.6833 13.1892 47.2343 14.0391C47.0098 14.4561 47.0098 14.5042 47.0098 15.6347C47.0098 16.7812 47.0178 16.8053 47.2744 17.3344C47.8917 18.6093 49.0944 19.2587 50.8904 19.2587C52.3095 19.2667 53.5683 18.8097 54.4984 17.9598C55.0436 17.4627 55.1157 17.4387 55.252 17.6952C55.3964 17.9759 55.9817 18.5371 56.3024 18.7055C56.6551 18.8979 57.3687 19.0823 57.7375 19.0823C58.395 19.0743 59.4614 18.7135 60.0146 18.2966C60.3273 18.0721 60.3273 17.9759 60.0386 17.2382C59.7019 16.3803 59.6137 16.1558 59.5736 15.9714C59.5175 15.7229 59.3491 15.6667 59.1086 15.8271C58.836 16.0035 58.4832 15.9874 58.2988 15.787C58.0102 15.4663 57.938 14.9451 57.8658 12.628C57.7937 10.1345 57.7295 9.7416 57.2725 8.78748C56.7113 7.63292 55.7251 6.75097 54.4583 6.28594C53.5523 5.95721 51.9968 5.85298 50.9946 6.05342ZM54.5224 13.8868C54.7629 14.0712 54.4422 14.9291 53.9291 15.4743C53.2396 16.1959 52.6062 16.4765 51.6521 16.4765C50.8102 16.4765 50.5777 16.3643 50.3772 15.8351C50.2169 15.4182 50.2169 15.2097 50.3772 14.897C50.722 14.2316 51.3955 14.0311 53.897 13.8387C54.0734 13.8307 54.2578 13.8146 54.3059 13.8066C54.346 13.7986 54.4503 13.8387 54.5224 13.8868ZM17.0553 6.90331C16.903 6.9434 16.5983 7.00754 16.3738 7.04763C14.7783 7.34428 13.3351 8.61911 12.4612 10.5033C12.0923 11.297 11.7957 12.0988 11.6834 12.5879C11.6514 12.7402 11.5872 13.0289 11.5391 13.2293C11.1703 14.7447 10.9699 16.5567 10.9057 18.8017C10.8496 21.0787 10.8175 20.9905 11.6193 20.8462C12.5814 20.6698 12.838 20.5736 12.8941 20.3652C12.9262 20.2529 12.9502 19.7318 12.9583 19.2026C12.9823 15.795 13.5516 12.4997 14.3213 11.2169C14.4175 11.0645 14.5217 10.8561 14.5698 10.7518C14.6901 10.4873 15.6041 9.59728 15.9329 9.42891C16.9511 8.91577 18.0495 8.90775 19.14 9.40485C19.3404 9.49305 19.7172 9.78971 19.9899 10.0543C21.1685 11.2409 21.7297 13.3255 21.8259 16.9255C21.842 17.7915 21.8901 18.5612 21.9141 18.6333C21.9943 18.8338 22.2028 18.8498 22.8281 18.6894C23.2451 18.5852 23.4375 18.497 23.4776 18.3928C23.5016 18.3046 23.5177 17.6471 23.4936 16.9175C23.4134 13.3656 22.7881 10.5995 21.6736 8.87568C21.3849 8.4347 20.6473 7.67301 20.3346 7.49662C19.3324 6.92736 17.9453 6.67881 17.0553 6.90331Z" fill="var(--fill-0, black)"/>
<path id="Vector_3" d="M17.2556 9.73358C17.2155 9.74962 16.959 9.82979 16.6944 9.90996C16.2935 10.0222 16.1252 10.1344 15.6922 10.5754C15.4036 10.864 15.0829 11.2889 14.9787 11.5054C14.8744 11.7299 14.7462 12.0025 14.682 12.1228C14.6179 12.235 14.5698 12.3873 14.5698 12.4595C14.5698 12.5236 14.5217 12.7 14.4575 12.8443C14.0727 13.7583 13.728 16.5403 13.6718 19.2502C13.6478 20.4768 13.6318 20.4688 15.1711 20.1642C15.4838 20.1 16.037 19.9958 16.4138 19.9236C16.7906 19.8515 17.3518 19.7473 17.6565 19.6831C17.9691 19.619 18.5223 19.5148 18.8992 19.4426C19.276 19.3704 19.8372 19.2582 20.1418 19.1941C20.4545 19.1299 20.7672 19.0818 20.8474 19.0818C21.1039 19.0818 21.152 18.7291 21.1039 17.0454C20.9917 13.1089 20.3423 10.9923 18.9793 10.1505C18.5704 9.89393 17.5202 9.64539 17.2556 9.73358Z" fill="var(--fill-0, black)"/>
</g>
</svg>
