<svg preserveAspectRatio="none" width="100%" height="100%" overflow="visible" style="display: block;" viewBox="0 0 74.3099 19.7412" fill="none" xmlns="http://www.w3.org/2000/svg">
<path id="Vector" d="M53.1735 10.1577V17.1961H56.0534V10.5905C56.0534 7.64618 60.0569 7.64618 60.0569 7.64618V4.78491C60.0569 4.78491 58.9394 4.837 58.0551 5.03668C55.5498 5.59852 53.1735 6.83877 53.1735 10.1639V10.1577ZM31.443 4.63608C32.5666 4.63608 33.9681 5.26861 34.7297 6.38608C35.5172 5.37279 36.822 4.68073 38.4293 4.65592C40.4696 4.62988 42.9947 5.90238 42.9947 9.71244V17.1775H40.1148V9.71244C40.1148 8.43994 39.1983 7.52959 37.8229 7.52959C36.4474 7.52959 35.5296 8.43994 35.5296 9.71244V17.1775H32.6497V9.71244C32.6497 8.43994 31.7332 7.52959 30.3577 7.52959C28.9823 7.52959 28.0397 8.43994 28.0397 9.71244V17.1775H25.011V5.00443H28.0397V6.22484C28.8595 5.23636 30.0539 4.62367 31.4554 4.62367L31.443 4.63608ZM49.6288 5.16567V17.1899H46.6969V5.16567H49.6288ZM48.1554 3.25443C49.0596 3.25443 49.7888 2.52516 49.7888 1.62722C49.7888 0.72927 49.0596 0 48.1554 0C47.2513 0 46.522 0.72927 46.522 1.62722C46.522 2.52516 47.2513 3.25443 48.1554 3.25443ZM67.8842 4.61127C64.3321 4.61127 61.4584 7.47254 61.4584 11.0048C61.4584 14.537 64.3383 17.3983 67.8842 17.3983C71.4301 17.3983 74.3099 14.537 74.3099 11.0048C74.3099 7.47254 71.4301 4.61127 67.8842 4.61127ZM67.8842 14.5234C65.8762 14.5234 64.249 12.9024 64.249 10.9006C64.249 8.89884 65.8762 7.27782 67.8842 7.27782C69.8921 7.27782 71.5206 8.89884 71.5206 10.9006C71.5206 12.9024 69.8934 14.5234 67.8842 14.5234ZM14.4316 0H11.5455L13.9541 4.22927L8.65823 0H5.77215L8.4201 5.16567L2.88608 0H0L2.88608 6.5808L0 19.7412H2.88608L8.4201 5.64441L5.77215 19.7412H8.65823L13.9541 4.70057L11.5455 19.7412H14.4316L19.7275 3.29288L14.4316 0.00620119V0Z" fill="var(--fill-0, white)" fill-opacity="0.4"/>
</svg>
