<svg preserveAspectRatio="none" width="100%" height="100%" overflow="visible" style="display: block;" viewBox="0 0 13 11" fill="none" xmlns="http://www.w3.org/2000/svg">
<path id="Vector" fill-rule="evenodd" clip-rule="evenodd" d="M11 0C11.5304 0 12.0391 0.210714 12.4142 0.585786C12.7893 0.960859 13 1.46957 13 2V9C13 9.53043 12.7893 10.0391 12.4142 10.4142C12.0391 10.7893 11.5304 11 11 11H7.478C7.0939 9.38239 6.10483 7.97334 4.71403 7.06238C3.32323 6.15142 1.63634 5.80775 0 6.102V2C0 1.46957 0.210714 0.960859 0.585786 0.585786C0.960859 0.210714 1.46957 0 2 0H11ZM10.625 2.102C10.7974 2.00254 11.0022 1.97564 11.1945 2.02722C11.3867 2.07879 11.5505 2.20461 11.65 2.377C11.7495 2.54939 11.7764 2.75423 11.7248 2.94645C11.6732 3.13868 11.5474 3.30254 11.375 3.402L7.875 5.422C7.45695 5.66336 6.98273 5.79043 6.5 5.79043C6.01727 5.79043 5.54305 5.66336 5.125 5.422L1.625 3.402C1.53964 3.35275 1.46482 3.28718 1.4048 3.20902C1.34478 3.13085 1.30075 3.04163 1.27522 2.94645C1.24968 2.85127 1.24314 2.752 1.25597 2.65429C1.2688 2.55658 1.30075 2.46236 1.35 2.377C1.39925 2.29164 1.46482 2.21682 1.54298 2.1568C1.62115 2.09678 1.71037 2.05275 1.80555 2.02722C1.90073 2.00168 2 1.99514 2.09771 2.00797C2.19542 2.0208 2.28964 2.05275 2.375 2.102L5.875 4.123C6.06502 4.23271 6.28058 4.29047 6.5 4.29047C6.71942 4.29047 6.93498 4.23271 7.125 4.123L10.625 2.102Z" fill="var(--fill-0, white)"/>
</svg>
