<svg preserveAspectRatio="none" width="100%" height="100%" overflow="visible" style="display: block;" viewBox="0 0 55.0205 38.2605" fill="none" xmlns="http://www.w3.org/2000/svg">
<path id="Vector" fill-rule="evenodd" clip-rule="evenodd" d="M22.895 4.16615C24.6702 2.33088 27.1408 1.19397 29.8696 1.19397C33.5094 1.19397 36.6633 3.20271 38.3611 6.19515C39.8697 5.52528 41.5022 5.17965 43.1528 5.18065C49.7039 5.18065 55.0205 10.5017 55.0205 17.0686C55.0205 23.6354 49.7039 28.9565 43.1528 28.9565C42.3654 28.9567 41.5799 28.8795 40.8077 28.726C39.3216 31.3565 36.4808 33.1437 33.2458 33.1437C31.9296 33.1464 30.6301 32.8499 29.4454 32.2764C28.6801 34.0542 27.4104 35.5686 25.7933 36.6322C24.1762 37.6959 22.2827 38.262 20.3471 38.2605C16.0819 38.2605 12.4624 35.5895 11.0672 31.8341C10.4469 31.9647 9.81312 32.0293 9.17934 32.0293C4.10457 32.0293 0 27.8932 0 22.8124C0 19.3987 1.84803 16.4265 4.58967 14.8203C4.0086 13.4903 3.7092 12.0545 3.71033 10.6031C3.71033 4.73835 8.50125 0 14.405 0C17.8623 0 20.9561 1.63702 22.8965 4.17666" fill="var(--fill-0, white)"/>
</svg>
