<svg preserveAspectRatio="none" width="100%" height="100%" overflow="visible" style="display: block;" viewBox="0 0 16 16" fill="none" xmlns="http://www.w3.org/2000/svg">
<g id="Group">
<path id="Vector" fill-rule="evenodd" clip-rule="evenodd" d="M16 8C16 10.1217 15.1571 12.1566 13.6569 13.6569C12.1566 15.1571 10.1217 16 8 16C5.87827 16 3.84344 15.1571 2.34315 13.6569C0.842855 12.1566 0 10.1217 0 8C0 5.87827 0.842855 3.84344 2.34315 2.34315C3.84344 0.842855 5.87827 0 8 0C10.1217 0 12.1566 0.842855 13.6569 2.34315C15.1571 3.84344 16 5.87827 16 8ZM7.944 4.94C7.477 4.94 7.077 5.235 6.924 5.65C6.85116 5.8309 6.71073 5.97632 6.53247 6.05542C6.35422 6.13451 6.15217 6.14107 5.96916 6.07369C5.78615 6.00632 5.63659 5.87031 5.55218 5.69451C5.46777 5.51871 5.45515 5.31695 5.517 5.132C5.64675 4.77649 5.85292 4.45378 6.12097 4.18662C6.38902 3.91947 6.71242 3.71438 7.06836 3.58581C7.42431 3.45725 7.80412 3.40835 8.18102 3.44255C8.55792 3.47676 8.92272 3.59324 9.2497 3.78378C9.57668 3.97432 9.85788 4.23428 10.0735 4.54533C10.289 4.85637 10.4337 5.21093 10.4974 5.58399C10.561 5.95705 10.542 6.33952 10.4417 6.70445C10.3415 7.06937 10.1623 7.40784 9.917 7.696L9.901 7.716L9.883 7.735L9.064 8.575L9.059 8.582L9.054 8.587C8.812 8.827 8.694 8.967 8.694 9.23V9.507C8.694 9.70591 8.61498 9.89668 8.47433 10.0373C8.33368 10.178 8.14291 10.257 7.944 10.257C7.74509 10.257 7.55432 10.178 7.41367 10.0373C7.27302 9.89668 7.194 9.70591 7.194 9.507V9.23C7.194 8.315 7.726 7.79 7.987 7.533L7.995 7.525L8.787 6.71C8.91625 6.5506 8.9977 6.35785 9.02189 6.15406C9.04609 5.95028 9.01206 5.74381 8.92373 5.55858C8.83541 5.37334 8.6964 5.21692 8.52283 5.10745C8.34926 4.99797 8.14922 4.93991 7.944 4.94ZM7.944 12.394C8.12249 12.394 8.29367 12.3231 8.41988 12.1969C8.54609 12.0707 8.617 11.8995 8.617 11.721C8.617 11.5425 8.54609 11.3713 8.41988 11.2451C8.29367 11.1189 8.12249 11.048 7.944 11.048C7.76551 11.048 7.59433 11.1189 7.46812 11.2451C7.34191 11.3713 7.271 11.5425 7.271 11.721C7.271 11.8995 7.34191 12.0707 7.46812 12.1969C7.59433 12.3231 7.76551 12.394 7.944 12.394Z" fill="var(--fill-0, white)"/>
</g>
</svg>
