<svg preserveAspectRatio="none" width="100%" height="100%" overflow="visible" style="display: block;" viewBox="0 0 65.6292 13.8298" fill="none" xmlns="http://www.w3.org/2000/svg">
<path id="Vector" d="M21.4942 8.81178C21.9051 9.07769 22.6433 9.39601 23.4106 9.39601C24.0673 9.39601 24.5331 9.10422 24.5331 8.54652C24.5331 7.29848 21.1106 7.69702 21.1106 5.54643C21.1106 4.32492 22.2059 3.68763 23.5199 3.68763C24.451 3.68763 24.9433 3.97943 25.5735 4.37797L25.0533 5.14789C24.4231 4.88262 24.0951 4.69629 23.4656 4.69629C22.8361 4.69629 22.3424 4.96155 22.3424 5.51991C22.3424 6.79447 25.765 6.34287 25.765 8.51999C25.765 9.60887 24.8068 10.4053 23.3834 10.4053C22.2881 10.4053 21.4664 9.95372 20.974 9.58234L21.4942 8.81243V8.81178ZM27.3812 13.7768V3.84679H28.5587V4.59018C28.5587 4.77587 28.5309 4.93503 28.5309 4.93503H28.5587C28.5587 4.93503 29.1332 3.71416 30.7759 3.71416C32.5558 3.71416 33.6783 5.09483 33.6783 7.08626C33.6783 9.13075 32.4186 10.4577 30.6666 10.4577C29.161 10.4577 28.613 9.31643 28.613 9.31643H28.5859C28.5859 9.31643 28.6137 9.55517 28.6137 9.87349V13.8298H27.3812V13.7768ZM30.4751 9.36884C31.5154 9.36884 32.3914 8.54652 32.3914 7.08626C32.3914 5.67906 31.6254 4.77652 30.5294 4.77652C29.544 4.77652 28.613 5.43968 28.613 7.08626C28.613 8.22755 29.2704 9.36884 30.4751 9.36884ZM38.7966 4.98873C37.5098 4.98873 36.3601 6.3694 36.3601 7.61679V10.2992H35.1004V3.84679H36.3329V4.98808C36.3329 5.25335 36.3051 5.46621 36.3051 5.46621H36.3329C36.6337 4.61606 37.8113 3.76657 38.8238 3.76657V4.98808L38.7966 4.98873ZM40.1126 10.3251V3.84679H41.3723V10.2986H40.1126V10.3251ZM47.9153 10.3251V6.44898C47.9153 5.54643 47.7231 4.82892 46.6828 4.82892C45.3959 4.82892 44.4649 5.86475 44.4649 7.19237V10.2992H43.2058V3.84679H44.4377V4.82892C44.4377 5.01525 44.4105 5.20094 44.4105 5.20094H44.4377C44.6745 4.73876 45.0359 4.35208 45.481 4.08463C45.9261 3.81719 46.4372 3.67967 46.9564 3.68763C48.517 3.68763 49.2293 4.5106 49.2293 6.15654V10.2992H47.9153V10.3251ZM55.4171 10.3251L53.4185 7.2713H52.4325V10.3251H51.1735V0.367939H52.4325V6.18372H53.3914L55.2528 3.84679H56.5946L54.4596 6.66119V6.68772L56.8405 10.2986L55.4171 10.3251ZM60.3717 10.3251C59.3314 10.3251 58.1539 10.1394 58.1539 8.54587V0.369233H59.4135V8.36148C59.4135 9.15727 60.0981 9.18445 60.3711 9.18445V10.3257L60.3717 10.3251ZM65.6013 4.93567C64.3145 4.93567 63.1648 6.3157 63.1648 7.56374V10.2455H61.9051V3.79374H63.1376V4.93503C63.1376 5.20094 63.1098 5.4138 63.1098 5.4138H63.1376C63.4385 4.56366 64.616 3.71416 65.6292 3.71416V4.93503L65.6013 4.93567ZM40.7408 2.492C41.1795 2.492 41.5347 2.14716 41.5347 1.72209C41.5347 1.29637 41.1788 0.952169 40.7408 0.952169C40.3022 0.952169 39.947 1.29637 39.947 1.72209C39.947 2.1478 40.3022 2.492 40.7408 2.492ZM5.69153 10.8479C5.23541 9.27438 2.97936 6.6599 1.32307 6.6599C0.458692 6.6599 -0.0453115 7.4214 0.00321257 8.10656C0.0510897 8.96965 0.747249 9.40054 1.37095 9.40054C2.7872 9.40054 4.49137 10.0359 5.5479 10.9494C5.61907 11.0005 5.71547 10.9494 5.69153 10.8479ZM1.03969 2.19633C1.08692 1.45617 1.68473 0.815008 2.47406 0.863532C2.68951 0.888764 2.95283 0.888764 3.35849 1.20902C5.12865 2.81355 6.18065 5.62601 5.86945 8.06904C5.84551 8.19197 5.72647 8.19197 5.67859 8.06904C5.17588 6.31699 3.52606 4.31845 2.06646 3.70187C1.37289 3.43013 0.990516 2.91254 1.03775 2.19633M7.5775 12.64C7.55356 12.7629 7.43193 12.7629 7.38341 12.64C5.49097 6.64114 8.88765 0.0496207 11.4109 0.000449616C12.7456 -0.0241359 13.6676 0.963168 13.6676 2.07405C13.6676 2.83943 13.425 3.45666 12.5515 3.95031C10.3434 5.20935 7.86865 8.46888 7.5775 12.64ZM9.82385 10.9494C9.75397 11.0005 9.66145 10.9494 9.6841 10.8479C10.1247 9.27438 12.3063 6.6599 13.907 6.6599C14.7422 6.6599 15.2294 7.4214 15.1835 8.10656C15.1369 8.96965 14.464 9.40054 13.8604 9.40054C12.5147 9.40054 10.8687 10.0863 9.82385 10.9494Z" fill="var(--fill-0, white)"/>
</svg>
