<svg preserveAspectRatio="none" width="100%" height="100%" overflow="visible" style="display: block;" viewBox="0 0 9.14484 7.15292" fill="none" xmlns="http://www.w3.org/2000/svg">
<path id="Vector" d="M2.89292 7.15292L0.184918 4.44492C0.0664455 4.32511 0 4.16341 0 3.99492C0 3.82642 0.0664455 3.66473 0.184918 3.54492C0.304728 3.42645 0.466424 3.36 0.634918 3.36C0.803411 3.36 0.965108 3.42645 1.08492 3.54492L2.89292 5.35292L8.05992 0.184917C8.17973 0.0664454 8.34142 0 8.50992 0C8.67841 0 8.84011 0.0664454 8.95992 0.184917C9.07839 0.304728 9.14484 0.466424 9.14484 0.634917C9.14484 0.803411 9.07839 0.965107 8.95992 1.08492L2.89292 7.15292Z" fill="var(--fill-0, #111111)"/>
</svg>
